<?xml version="1.0" encoding="UTF-8" standalone="no"?>
<!-- Created with Inkscape (http://www.inkscape.org/) -->

<svg
   width="132mm"
   height="144mm"
   viewBox="0 0 1320 1440"
   version="1.1"
   id="svg23702"
   xmlns:xlink="http://www.w3.org/1999/xlink"
   xmlns="http://www.w3.org/2000/svg"
   xmlns:svg="http://www.w3.org/2000/svg">
  <defs
     id="defs23699">
    <linearGradient
       id="linearGradient1467">
      <stop
         style="stop-color:#ffeab1;stop-opacity:1;"
         offset="0"
         id="stop1441" />
      <stop
         style="stop-color:#ffd774;stop-opacity:1;"
         offset="0.05596975"
         id="stop1443" />
      <stop
         style="stop-color:#ffd394;stop-opacity:1;"
         offset="0.12240581"
         id="stop1445" />
      <stop
         style="stop-color:#ffc474;stop-opacity:1;"
         offset="0.18442476"
         id="stop1447" />
      <stop
         style="stop-color:#ffce8c;stop-opacity:1;"
         offset="0.25016946"
         id="stop1449" />
      <stop
         style="stop-color:#ffc474;stop-opacity:1;"
         offset="0.3166357"
         id="stop1451" />
      <stop
         style="stop-color:#ffc389;stop-opacity:1;"
         offset="0.38451442"
         id="stop1453" />
      <stop
         style="stop-color:#ffc674;stop-opacity:1;"
         offset="0.47559014"
         id="stop1455" />
      <stop
         style="stop-color:#ffc67a;stop-opacity:1;"
         offset="0.54782552"
         id="stop1457" />
      <stop
         style="stop-color:#ffc57d;stop-opacity:1;"
         offset="0.61341411"
         id="stop1459" />
      <stop
         style="stop-color:#ffcb7a;stop-opacity:1;"
         offset="0.68246663"
         id="stop1461" />
      <stop
         style="stop-color:#ffbf76;stop-opacity:1;"
         offset="0.73423874"
         id="stop1463" />
      <stop
         style="stop-color:#ffc66b;stop-opacity:1;"
         offset="0.82545269"
         id="stop1469" />
      <stop
         style="stop-color:#ffca84;stop-opacity:1;"
         offset="0.89189297"
         id="stop1471" />
      <stop
         style="stop-color:#ffba72;stop-opacity:1;"
         offset="0.94046402"
         id="stop1473" />
      <stop
         style="stop-color:#ffd889;stop-opacity:1;"
         offset="1"
         id="stop1465" />
    </linearGradient>
    <linearGradient
       id="linearGradient6126">
      <stop
         style="stop-color:#f6cf8d;stop-opacity:1;"
         offset="0"
         id="stop6122" />
      <stop
         style="stop-color:#fafa9a;stop-opacity:1;"
         offset="0.60526317"
         id="stop6124" />
    </linearGradient>
    <filter
       style="color-interpolation-filters:sRGB"
       id="filter18126-8-46"
       x="-0.031334329"
       y="-0.053595533"
       width="1.0626687"
       height="1.1071911">
      <feGaussianBlur
         stdDeviation="0.39182262"
         id="feGaussianBlur18128-8-90" />
    </filter>
    <filter
       style="color-interpolation-filters:sRGB"
       id="filter18126-8-46-1"
       x="-0.057681464"
       y="-0.069682884"
       width="1.1153629"
       height="1.1393658">
      <feGaussianBlur
         stdDeviation="0.39182262"
         id="feGaussianBlur18128-8-90-3" />
    </filter>
    <filter
       style="color-interpolation-filters:sRGB"
       id="filter18126-8-46-0"
       x="-0.058859354"
       y="-0.071461666"
       width="1.1177187"
       height="1.1429233">
      <feGaussianBlur
         stdDeviation="0.39182262"
         id="feGaussianBlur18128-8-90-0" />
    </filter>
    <filter
       style="color-interpolation-filters:sRGB"
       id="filter6142-8"
       x="-0.0045612447"
       y="-0.0024522283"
       width="1.0091224"
       height="1.0067035">
      <feGaussianBlur
         stdDeviation="0.59853361"
         id="feGaussianBlur6144-6" />
    </filter>
    <filter
       style="color-interpolation-filters:sRGB"
       id="filter6136-7"
       x="-0.0019308146"
       y="-0.080969957"
       width="1.0038616"
       height="1.1619399">
      <feGaussianBlur
         stdDeviation="0.43934162"
         id="feGaussianBlur6134-2" />
    </filter>
    <filter
       style="color-interpolation-filters:sRGB"
       id="filter6180-3-7"
       x="-0.043543439"
       y="-0.036319868"
       width="1.0870869"
       height="1.0726397">
      <feGaussianBlur
         stdDeviation="9.0173096"
         id="feGaussianBlur6178-0-8" />
    </filter>
    <linearGradient
       xlink:href="#linearGradient1467"
       id="linearGradient60491"
       gradientUnits="userSpaceOnUse"
       gradientTransform="translate(-844.32051,-151.71975)"
       x1="-644.76459"
       y1="75.508476"
       x2="-98.663521"
       y2="75.508476" />
    <linearGradient
       xlink:href="#linearGradient6126"
       id="linearGradient60493"
       gradientUnits="userSpaceOnUse"
       gradientTransform="translate(-2.31e-4,-2.49e-4)"
       x1="-1215.5699"
       y1="167.93315"
       x2="-1215.5706"
       y2="-275.99411" />
    <filter
       style="color-interpolation-filters:sRGB"
       id="filter6142"
       x="-0.011418086"
       y="-0.01141807"
       width="1.0228362"
       height="1.0228361">
      <feGaussianBlur
         stdDeviation="0.59853361"
         id="feGaussianBlur6144" />
    </filter>
  </defs>
  <g
     id="layer1">
    <g
       id="g7445"
       transform="matrix(2.0051344,0,0,2.0051344,5689.7251,840.73054)">
      <path
         style="opacity:0.808717;fill:#26282f;fill-opacity:1;stroke:none;stroke-width:1.257;filter:url(#filter6180-3-7)"
         d="m -2841.5852,95.865471 c 0,0 43.0279,38.524839 43.0279,38.524839 0,0 453.9825,-503.21667 453.9825,-503.21667 0,0 -23.7679,-23.60157 -23.7679,-23.60157 0,0 -182.4819,-69.04136 -182.4819,-69.04136 0,0 -210.7564,85.69188 -210.7564,85.69188 0,0 -80.0042,471.642881 -80.0042,471.642881 z"
         id="path59068"
         transform="rotate(180,-2527.4616,-111.8751)" />
      <g
         id="g6191"
         transform="rotate(180,-2531.9914,-105.77044)">
        <g
           id="g6189"
           transform="translate(-1339.5253)"
           style="mix-blend-mode:normal;filter:url(#filter6142-8)">
          <path
             id="path6175"
             style="fill:url(#linearGradient60491);fill-opacity:1;stroke:none;stroke-width:1.257"
             d="m -1216.9335,-417.85239 -201.5846,76.93551 -70.567,506.33272 273.5149,2.51706 272.58617,-2.51706 -70.56667,-506.33272 z" />
          <path
             id="path6177"
             style="opacity:0.353511;mix-blend-mode:overlay;fill:url(#linearGradient60493);fill-opacity:1;stroke:none;stroke-width:1.257"
             d="m -1216.4987,-417.15887 v 0.34896 l -202.0194,75.89303 -70.567,506.33272 272.5864,2.50865 v 0.009 l 0.4641,-0.004 0.4645,0.004 v -0.009 l 272.58607,-2.50865 -70.56667,-506.33272 -202.0194,-75.89303 v -0.34896 l -0.4645,0.17448 z" />
          <path
             style="opacity:0.264;mix-blend-mode:multiply;fill:#26282f;fill-opacity:1;stroke:none;stroke-width:1.257"
             d="m -1418.5181,-340.91688 c 0,0 8.8093,6.60699 8.8093,6.60699 0,0 192.7753,-75.36242 192.7753,-75.36242 0,0 0,-8.18008 0,-8.18008 0,0 -201.5846,76.93551 -201.5846,76.93551 z"
             id="path6179" />
          <path
             style="opacity:0.264;mix-blend-mode:multiply;fill:#26282f;fill-opacity:1;stroke:none;stroke-width:1.257"
             d="m -1418.5181,-340.91688 c 0,0 8.8093,6.60699 8.8093,6.60699 0,0 -68.3192,489.22057 -68.3192,489.22057 0,0 -11.0571,10.50516 -11.0571,10.50516 0,0 70.567,-506.33272 70.567,-506.33272 z"
             id="path6181" />
          <path
             id="path6183"
             style="opacity:0.198547;mix-blend-mode:normal;fill:#ffffff;fill-opacity:1;stroke:none;stroke-width:1.257;filter:url(#filter6136-7)"
             d="m -1478.0284,154.91054 -11.0567,10.5053 273.5149,2.51706 272.58617,-2.51706 -11.0567,-10.5053 -261.52947,1.0665 z" />
          <path
             style="opacity:0.263923;mix-blend-mode:multiply;fill:#26282f;fill-opacity:1;stroke:none;stroke-width:1.257"
             d="m -1013.5507,-340.91688 c 0,0 -8.8093,6.60699 -8.8093,6.60699 0,0 68.31887,489.22057 68.31887,489.22057 0,0 11.0571,10.50516 11.0571,10.50516 0,0 -70.56667,-506.33272 -70.56667,-506.33272 z"
             id="path6185" />
          <path
             style="opacity:0.264;mix-blend-mode:multiply;fill:#26282f;fill-opacity:1;stroke:none;stroke-width:1.257"
             d="m -1013.5507,-340.91688 c 0,0 -8.8093,6.60699 -8.8093,6.60699 0,0 -194.5735,-75.36242 -194.5735,-75.36242 0,0 0,-8.18008 0,-8.18008 0,0 203.3828,76.93551 203.3828,76.93551 z"
             id="path6187" />
        </g>
      </g>
      <g
         id="g60524"
         transform="matrix(0.70255015,0,0,0.70255015,-474.28649,75.853141)">
        <g
           id="g60516">
          <path
             d="m -3041.4931,-274.27732 c 32.499,18.95983 37.4104,19.7917 117.2056,19.85254 66.0484,0.0499 83.5545,-1.39691 114.1998,-9.43877 34.9204,-9.16397 36.7881,-9.2298 53.0892,-1.87918 17.4946,7.88925 40.1275,26.40771 40.1275,32.83272 0,9.74997 -12.057,12.21913 -39.4811,8.08574 -21.1064,-3.18133 -38.7705,-2.70705 -67.995,1.82481 l -39.4811,6.12279 -1.2533,42.40862 -1.2528,42.40863 36.3472,-2.37989 c 35.8839,-2.34997 36.5571,-2.20334 52.798,11.48901 16.3081,13.7487 21.5471,26.390248 10.9379,26.390248 -3.0322,0 -12.4087,-2.038766 -20.8375,-4.530868 -8.788,-2.59883 -28.8909,-3.31449 -47.129,-1.67819 l -31.8039,2.853173 v 42.815584 c 0,28.991573 1.7705,44.229451 5.4834,47.1953408 3.0158,2.40882 19.5329,4.33437 36.7038,4.27852 33.4751,-0.10873 48.3055,6.52773997 59.2275,26.5019602 9.0028,16.46473 -0.3686,21.01306 -24.3919,11.83861 -23.5665,-8.9999 -72.8291,-7.04791 -115.3379,4.57076 -53.772,14.69628 -73.7442,21.05395 -78.9075,25.117022 -5.7153,4.49746 -30.2857,-8.227372 -41.1398,-21.305802 -9.3855,-11.30847 3.31,-16.83329 62.5474,-27.21912 29.4524,-5.1637502 55.3309,-11.1703302 57.5083,-13.34774023 2.354,-2.35345997 0.8713,-9.92900997 -3.6561,-18.68452977 -4.1887,-8.099707 -8.5425,-27.682434 -9.6751,-43.517782 l -2.0602,-28.791586 -20.3089,2.6876 c -11.1698,1.478205 -24.9918,5.240048 -30.7152,8.360537 -19.2535,10.496055 -53.2024,-3.6227 -53.2024,-22.126197 0,-4.72038 4.0541,-8.92808 9.8707,-10.2452 10.8008,-2.44522 80.816,-11.09252 89.8139,-11.09252 4.1803,0 5.5986,-11.5324 5.5986,-45.53411 v -45.5336 l -48.1957,2.28463 c -55.538,2.63224 -79.9822,-3.75536 -98.4742,-25.73144 -9.2513,-10.99477 -10.2382,-14.80449 -6.4305,-24.81978 4.0621,-10.68407 11.2621,-18.45163 17.1101,-18.45812 1.2064,0 7.1282,2.87662 13.1602,6.39558 z"
             style="fill:#000000;stroke-width:4.38679"
             id="path6193" />
          <path
             style="fill:#ffffff;fill-opacity:1;stroke:none;stroke-width:0.626891;filter:url(#filter18126-8-46)"
             d="m -2514.6163,-185.94789 c 7.5053,3.42652 11.079,7.13773 11.2851,9.81793 0.2061,2.6802 -2.9552,4.32958 -10.4538,0.90601 -7.4986,-3.42357 -19.3386,-11.92316 -19.545,-14.60464 -0.2063,-2.68148 11.2084,0.45419 18.7137,3.8807 z"
             id="path6441"
             transform="rotate(180,-2630.9201,-214.28037)" />
          <path
             style="fill:#ffffff;fill-opacity:1;stroke:none;stroke-width:0.626891;filter:url(#filter18126-8-46-1)"
             d="m -2511.1835,-184.64814 c 4.0725,2.12677 7.6462,5.83798 7.8523,8.51818 0.2061,2.6802 -2.9552,4.32958 -7.0265,2.20365 -4.0714,-2.12593 -9.0536,-8.02836 -9.2601,-10.70941 -0.2065,-2.68105 4.3617,-2.13919 8.4343,-0.0124 z"
             id="path6443"
             transform="rotate(180,-2648.417,-148.26659)" />
          <path
             style="fill:#ffffff;fill-opacity:1;stroke:none;stroke-width:0.626891;filter:url(#filter18126-8-46-0)"
             d="m -2511.1036,-184.51852 c 3.9926,1.99715 7.5663,5.70836 7.7724,8.38856 0.2061,2.6802 -2.9552,4.32958 -6.945,2.33328 -3.9897,-1.99631 -8.8087,-7.63937 -9.0151,-10.32036 -0.2065,-2.68099 4.1952,-2.39864 8.1877,-0.40148 z"
             id="path6445"
             transform="rotate(180,-2646.1343,-81.224452)" />
        </g>
      </g>
      <g
         id="g42380"
         transform="translate(-1355.5513,-265.71668)"
         style="mix-blend-mode:normal;filter:url(#filter6142)">
        <rect
           style="mix-blend-mode:normal;fill:#000000;fill-opacity:1;stroke:#000000;stroke-width:0.386408"
           id="rect98398-4-6"
           width="5.9197216"
           height="71.171066"
           x="-1155.8315"
           y="19.220346" />
        <rect
           style="mix-blend-mode:normal;fill:#000000;fill-opacity:1;stroke:#000000;stroke-width:0.386408"
           id="rect2972-3-9"
           width="5.9197216"
           height="71.171066"
           x="1149.9116"
           y="-18.833921"
           transform="scale(-1)" />
        <rect
           style="mix-blend-mode:normal;fill:#000000;fill-opacity:1;stroke:#000000;stroke-width:0.386408"
           id="rect2976-6-7"
           width="5.9197216"
           height="71.171066"
           x="16.067137"
           y="1153.0647"
           transform="rotate(90)" />
        <rect
           style="mix-blend-mode:normal;fill:#000000;fill-opacity:1;stroke:#000000;stroke-width:0.386408"
           id="rect2980-2-9"
           width="5.9197216"
           height="71.171066"
           x="-21.987059"
           y="-1152.6785"
           transform="rotate(-90)" />
        <rect
           style="mix-blend-mode:normal;fill:#000000;fill-opacity:1;stroke:#000000;stroke-width:0.386408"
           id="rect14708"
           width="5.9197216"
           height="71.171066"
           x="-804.70917"
           y="828.85077"
           transform="rotate(45)" />
        <rect
           style="mix-blend-mode:normal;fill:#000000;fill-opacity:1;stroke:#000000;stroke-width:0.386408"
           id="rect14712"
           width="5.9197216"
           height="71.171066"
           x="798.78931"
           y="-828.46442"
           transform="rotate(-135)" />
        <rect
           style="mix-blend-mode:normal;fill:#000000;fill-opacity:1;stroke:#000000;stroke-width:0.386408"
           id="rect14716"
           width="5.9197216"
           height="71.171066"
           x="825.69769"
           y="801.94238"
           transform="rotate(135)" />
        <rect
           style="mix-blend-mode:normal;fill:#000000;fill-opacity:1;stroke:#000000;stroke-width:0.386408"
           id="rect14720"
           width="5.9197216"
           height="71.171066"
           x="-831.61761"
           y="-801.55615"
           transform="rotate(-45)" />
      </g>
    </g>
  </g>
</svg>
