<?xml version="1.0" encoding="UTF-8" standalone="no"?>
<!-- Created with Inkscape (http://www.inkscape.org/) -->

<svg
   width="132mm"
   height="144mm"
   viewBox="0 0 1320 1440"
   version="1.1"
   id="svg23702"
   xmlns:xlink="http://www.w3.org/1999/xlink"
   xmlns="http://www.w3.org/2000/svg"
   xmlns:svg="http://www.w3.org/2000/svg">
  <defs
     id="defs23699">
    <filter
       style="color-interpolation-filters:sRGB"
       id="filter6180-4"
       x="-0.054380803"
       y="-0.041553513"
       width="1.1087616"
       height="1.083107">
      <feGaussianBlur
         stdDeviation="9.0173096"
         id="feGaussianBlur6178-9" />
    </filter>
    <filter
       style="color-interpolation-filters:sRGB"
       id="filter6142"
       x="-0.0054220489"
       y="-0.0027991802"
       width="1.0108441"
       height="1.007653">
      <feGaussianBlur
         stdDeviation="0.59853361"
         id="feGaussianBlur6144" />
    </filter>
    <linearGradient
       xlink:href="#linearGradient1467"
       id="linearGradient7121"
       gradientUnits="userSpaceOnUse"
       gradientTransform="translate(-844.32051,-151.71975)"
       x1="-586.44916"
       y1="75.508476"
       x2="-156.05099"
       y2="75.508476" />
    <linearGradient
       id="linearGradient1467">
      <stop
         style="stop-color:#ffeab1;stop-opacity:1;"
         offset="0"
         id="stop1441" />
      <stop
         style="stop-color:#ffd774;stop-opacity:1;"
         offset="0.05596975"
         id="stop1443" />
      <stop
         style="stop-color:#ffd394;stop-opacity:1;"
         offset="0.12240581"
         id="stop1445" />
      <stop
         style="stop-color:#ffc474;stop-opacity:1;"
         offset="0.18442476"
         id="stop1447" />
      <stop
         style="stop-color:#ffce8c;stop-opacity:1;"
         offset="0.25016946"
         id="stop1449" />
      <stop
         style="stop-color:#ffc474;stop-opacity:1;"
         offset="0.3166357"
         id="stop1451" />
      <stop
         style="stop-color:#ffc389;stop-opacity:1;"
         offset="0.38451442"
         id="stop1453" />
      <stop
         style="stop-color:#ffc674;stop-opacity:1;"
         offset="0.47559014"
         id="stop1455" />
      <stop
         style="stop-color:#ffc67a;stop-opacity:1;"
         offset="0.54782552"
         id="stop1457" />
      <stop
         style="stop-color:#ffc57d;stop-opacity:1;"
         offset="0.61341411"
         id="stop1459" />
      <stop
         style="stop-color:#ffcb7a;stop-opacity:1;"
         offset="0.68246663"
         id="stop1461" />
      <stop
         style="stop-color:#ffbf76;stop-opacity:1;"
         offset="0.73423874"
         id="stop1463" />
      <stop
         style="stop-color:#ffc66b;stop-opacity:1;"
         offset="0.82545269"
         id="stop1469" />
      <stop
         style="stop-color:#ffca84;stop-opacity:1;"
         offset="0.89189297"
         id="stop1471" />
      <stop
         style="stop-color:#ffba72;stop-opacity:1;"
         offset="0.94046402"
         id="stop1473" />
      <stop
         style="stop-color:#ffd889;stop-opacity:1;"
         offset="1"
         id="stop1465" />
    </linearGradient>
    <linearGradient
       xlink:href="#linearGradient6126"
       id="linearGradient7123"
       gradientUnits="userSpaceOnUse"
       gradientTransform="translate(-2.31e-4,-2.49e-4)"
       x1="-1215.5699"
       y1="167.93315"
       x2="-1215.5706"
       y2="-275.99411" />
    <linearGradient
       id="linearGradient6126">
      <stop
         style="stop-color:#f6cf8d;stop-opacity:1;"
         offset="0"
         id="stop6122" />
      <stop
         style="stop-color:#fafa9a;stop-opacity:1;"
         offset="0.60526317"
         id="stop6124" />
    </linearGradient>
    <filter
       style="color-interpolation-filters:sRGB"
       id="filter6136"
       x="-0.0022952005"
       y="-0.10037162"
       width="1.0045904"
       height="1.2007432">
      <feGaussianBlur
         stdDeviation="0.43934162"
         id="feGaussianBlur6134" />
    </filter>
    <filter
       style="color-interpolation-filters:sRGB"
       id="filter18126-8-46-1-8-87"
       x="-0.07940328"
       y="-0.082912594"
       width="1.1588066"
       height="1.1658252">
      <feGaussianBlur
         stdDeviation="0.39182262"
         id="feGaussianBlur18128-8-90-3-3-08" />
    </filter>
    <filter
       style="color-interpolation-filters:sRGB"
       id="filter18126-8-46-1-8-51"
       x="-0.07940328"
       y="-0.082912594"
       width="1.1588066"
       height="1.1658252">
      <feGaussianBlur
         stdDeviation="0.39182262"
         id="feGaussianBlur18128-8-90-3-3-2" />
    </filter>
    <filter
       style="color-interpolation-filters:sRGB"
       id="filter18126-8-46-1-8-4"
       x="-0.07940328"
       y="-0.082912594"
       width="1.1588066"
       height="1.1658252">
      <feGaussianBlur
         stdDeviation="0.39182262"
         id="feGaussianBlur18128-8-90-3-3-20" />
    </filter>
    <filter
       style="color-interpolation-filters:sRGB"
       id="filter18126-8-46-1-8-0"
       x="-0.07940328"
       y="-0.082912594"
       width="1.1588066"
       height="1.1658252">
      <feGaussianBlur
         stdDeviation="0.39182262"
         id="feGaussianBlur18128-8-90-3-3-58" />
    </filter>
    <filter
       style="color-interpolation-filters:sRGB"
       id="filter18126-8-46-1-8-96"
       x="-0.07940328"
       y="-0.082912594"
       width="1.1588066"
       height="1.1658252">
      <feGaussianBlur
         stdDeviation="0.39182262"
         id="feGaussianBlur18128-8-90-3-3-44" />
    </filter>
  </defs>
  <g
     id="layer1">
    <g
       id="g6383"
       transform="matrix(-2.0051344,0,0,-2.0051344,-4521.5806,416.25209)">
      <path
         style="opacity:0.808717;fill:#26282f;fill-opacity:1;stroke:none;stroke-width:1.257;filter:url(#filter6180-4)"
         d="m -2832.2383,116.98724 c 0,0 33.8733,34.60141 33.8733,34.60141 0,0 364.0896,-458.68255 364.0896,-458.68255 0,0 -23.7679,-23.60157 -23.7679,-23.60157 0,0 -141.2466,-38.52725 -141.2466,-38.52725 0,0 -154.6765,48.58012 -154.6765,48.58012 0,0 -78.2719,437.62984 -78.2719,437.62984 z"
         id="path6000" />
    </g>
    <g
       id="g6351"
       transform="matrix(-2.0051344,0,0,-2.0051344,-4555.6443,415.08265)">
      <g
         id="g6335"
         transform="translate(-1385.5742)"
         style="mix-blend-mode:normal;filter:url(#filter6142)">
        <path
           id="path6321"
           style="fill:url(#linearGradient7121);fill-opacity:1;stroke:none;stroke-width:1.257"
           d="m -1215.5704,-348.34645 -149.8807,40.66933 -79.8202,472.50974 h 459.4021 l -79.8202,-472.50974 z" />
        <path
           id="path6323"
           style="opacity:0.353511;mix-blend-mode:overlay;fill:url(#linearGradient7123);fill-opacity:1;stroke:none;stroke-width:1.257"
           d="m -1215.5704,-348.34645 -149.8807,40.66933 -79.8202,472.50974 h 459.4021 l -79.8202,-472.50974 -149.8807,-40.66933 z" />
        <path
           style="opacity:0.264;mix-blend-mode:multiply;fill:#26282f;fill-opacity:1;stroke:none;stroke-width:1.257"
           d="m -1365.4511,-307.67712 c 0,0 8.8093,6.60699 8.8093,6.60699 0,0 141.0717,-39.09624 141.0717,-39.09624 0,0 0,-8.18008 0,-8.18008 0,0 -149.881,40.66933 -149.881,40.66933 z"
           id="path6325" />
        <path
           style="opacity:0.264;mix-blend-mode:multiply;fill:#26282f;fill-opacity:1;stroke:none;stroke-width:1.257"
           d="m -1365.4511,-307.67712 c 0,0 8.8093,6.60699 8.8093,6.60699 0,0 -77.5724,455.39759 -77.5724,455.39759 0,0 -11.0571,10.50516 -11.0571,10.50516 0,0 79.8202,-472.50974 79.8202,-472.50974 z"
           id="path6327" />
        <path
           id="path6329"
           style="opacity:0.198547;mix-blend-mode:normal;fill:#ffffff;fill-opacity:1;stroke:none;stroke-width:1.257;filter:url(#filter6136)"
           d="m -1434.2142,154.32746 -11.0571,10.50516 h 459.4021 l -11.0571,-10.50516 z" />
        <path
           style="opacity:0.264;mix-blend-mode:multiply;fill:#26282f;fill-opacity:1;stroke:none;stroke-width:1.257"
           d="m -1065.6894,-307.67712 c 0,0 -8.8093,6.60699 -8.8093,6.60699 0,0 77.5724,455.39759 77.5724,455.39759 0,0 11.0571,10.50516 11.0571,10.50516 0,0 -79.8202,-472.50974 -79.8202,-472.50974 z"
           id="path6331" />
        <path
           style="opacity:0.264;mix-blend-mode:multiply;fill:#26282f;fill-opacity:1;stroke:none;stroke-width:1.257"
           d="m -1065.6894,-307.67712 c 0,0 -8.8093,6.60699 -8.8093,6.60699 0,0 -141.0717,-39.09624 -141.0717,-39.09624 0,0 0,-8.18008 0,-8.18008 0,0 149.881,40.66933 149.881,40.66933 z"
           id="path6333" />
      </g>
      <g
         id="g76442"
         transform="matrix(0.90651367,0,0,0.90651367,-284.91541,-123.5166)">
        <path
           d="m -2576.6247,46.248208 c -10.8561,-1.9758 -19.0166,-9.396541 -21.5846,-19.627661 -1.1243,-4.480375 -3.4739,-8.146081 -5.2211,-8.146081 -1.747,0 -8.4364,-4.61832 -14.8652,-10.2628495 -7.8856,-6.92378 -11.0347,-12.11232 -9.6783,-15.9472403 4.4054,-12.4567002 12.1335,-17.2227202 31.4745,-19.4108802 12.7629,-1.44406 21.5821,-4.418 25.3073,-8.53405 7.8217,-8.64294 3.3709,-11.738 -9.952,-6.92043 -15.2979,5.53185 -20.3536,5.04518 -27.2974,-2.62761 -10.4248,-11.51935 -17.1137,-11.25195 -35.5363,1.42056 -15.9917,11.00034 -30.1381,15.44756 -29.9162,9.40496 0.05,-1.38487 5.3849,-6.29493 11.8537,-10.91129 18.1282,-12.93697 77.7925,-79.935946 85.6626,-96.193296 6.0273,-12.45059 6.4725,-16.16087 3.1479,-26.23447 -7.104,-21.52506 5.4533,-25.41015 23.1423,-7.15989 10.7017,11.04143 10.9222,11.8209 6.6707,23.5783 l -4.3968,12.15936 35.1145,35.27652 c 29.3253,29.460306 38.3148,36.447106 54.5224,42.376476 21.173,7.74587 25.9079,11.94212 18.7922,16.65461 -5.6662,3.75245 -42.2707,0.20245 -51.9597,-5.03942 -8.0296,-4.34401 -18.9676,-16.87097 -45.1009,-51.652956 -10.0584,-13.38723 -20.0892,-24.34042 -22.2906,-24.34042 -3.7219,0 -17.889,17.02787 -17.889,21.50133 0,1.09993 6.0906,1.99973 13.5344,1.99973 14.9914,0 20.4535,6.517306 12.9948,15.504526 -3.5747,4.30734 -8.3016,4.90999 -24.3075,3.09913 -18.5581,-2.09965 -20.502,-1.64223 -29.4495,6.93 -19.0992,18.29828 6.567,24.855 37.9781,9.70185 18.6612,-9.00246 27.4517,-8.47539 33.0482,1.98149 2.9054,5.42897 1.1852,9.29579 -10.0756,22.65051 -9.9446,11.79381 -13.5792,19.10628 -13.5792,27.32155 0,6.7401302 -3.292,15.53386053 -8.2479,22.0314005 -4.5364,5.9475505 -7.3062,11.7556395 -6.155,12.9067795 3.4229,3.422876 17.3883,2.382205 24.0758,-1.79418 7.9659,-4.974749 15.3165,-2.08638 22.4685,8.828724 5.3514,8.167348 5.3329,9.036569 -0.3247,15.288251 -4.7324,5.229292 -9.9642,6.53212 -24.783,6.171438 -10.3312,-0.251445 -22.561,-1.144596 -27.1774,-1.984771 z m -12.0252,-46.59811147 c 9.3553,-3.58996003 6.0944,-11.39140053 -4.7612,-11.39140053 -10.2388,0 -14.3262,7.7957805 -5.8754,11.20570053 2.3082,0.93144 4.4508,1.81270997 4.7613,1.95844997 0.3106,0.14567 2.9545,-0.65198997 5.8753,-1.77274997 z m 40.8668,-57.52959053 c -2.3283,-2.32826 -8.6979,2.40232 -8.6979,6.45979 0,2.2262 1.9265,1.97147 5.1172,-0.67661 2.8143,-2.33568 4.4258,-4.93814 3.5807,-5.78318 z"
           style="fill:#800000;stroke-width:3.35731"
           id="path6339" />
        <path
           style="fill:#ffffff;fill-opacity:1;stroke:none;stroke-width:0.626891;filter:url(#filter18126-8-46-1-8-87)"
           d="m -2562.435,-169.60305 c 2.9552,1.031 6.5289,4.74221 6.735,7.42241 0.2061,2.6802 -2.9552,4.32958 -5.9104,3.29872 -2.9552,-1.03086 -5.7041,-4.74189 -5.9103,-7.4223 -0.2062,-2.68041 2.1305,-4.32983 5.0857,-3.29883 z"
           id="path6341" />
        <path
           style="fill:#ffffff;fill-opacity:1;stroke:none;stroke-width:0.626891;filter:url(#filter18126-8-46-1-8-51)"
           d="m -2490.3319,-64.140764 c 2.9552,1.031001 6.5289,4.742208 6.735,7.42241 0.2061,2.680202 -2.9552,4.329585 -5.9104,3.298725 -2.9552,-1.030859 -5.7041,-4.741891 -5.9103,-7.4223 -0.2062,-2.68041 2.1305,-4.329835 5.0857,-3.298835 z"
           id="path6343" />
        <path
           style="fill:#ffffff;fill-opacity:1;stroke:none;stroke-width:0.626891;filter:url(#filter18126-8-46-1-8-4)"
           d="m -2599.5467,-54.556607 c 2.9552,1.031001 6.5289,4.742208 6.735,7.42241 0.2061,2.680202 -2.9552,4.329585 -5.9104,3.298725 -2.9552,-1.030859 -5.7041,-4.741891 -5.9103,-7.4223 -0.2062,-2.68041 2.1305,-4.329835 5.0857,-3.298835 z"
           id="path6345" />
        <path
           style="fill:#ffffff;fill-opacity:1;stroke:none;stroke-width:0.626891;filter:url(#filter18126-8-46-1-8-0)"
           d="m -2615.6285,-6.7236897 c 2.9552,1.0310007 6.5289,4.7422072 6.735,7.42240966 0.2061,2.68020244 -2.9552,4.32958504 -5.9104,3.29872534 -2.9552,-1.0308598 -5.7041,-4.74189094 -5.9103,-7.4223005 -0.2062,-2.6804096 2.1305,-4.3298353 5.0857,-3.2988345 z"
           id="path6347" />
        <path
           style="fill:#ffffff;fill-opacity:1;stroke:none;stroke-width:0.626891;filter:url(#filter18126-8-46-1-8-96)"
           d="m -2582.8024,29.109615 c 2.9552,1.031001 6.5289,4.742208 6.735,7.42241 0.2061,2.680202 -2.9552,4.329585 -5.9104,3.298725 -2.9552,-1.030859 -5.7041,-4.741891 -5.9103,-7.4223 -0.2062,-2.68041 2.1305,-4.329835 5.0857,-3.298835 z"
           id="path6349" />
      </g>
      <g
         id="g25621"
         transform="translate(27.659043,-11.968539)">
        <rect
           style="mix-blend-mode:normal;fill:#970000;fill-opacity:1;stroke:none;stroke-width:0.386408"
           id="rect98398-4"
           width="5.9197216"
           height="71.171066"
           x="2625.8435"
           y="-45.273979"
           transform="scale(-1)" />
        <rect
           style="mix-blend-mode:normal;fill:#970000;fill-opacity:1;stroke:none;stroke-width:0.386408"
           id="rect2972-3"
           width="5.9197216"
           height="71.171066"
           x="-2631.7634"
           y="45.660393" />
        <rect
           style="mix-blend-mode:normal;fill:#970000;fill-opacity:1;stroke:none;stroke-width:0.386408"
           id="rect2976-6"
           width="5.9197216"
           height="71.171066"
           x="-48.427074"
           y="-2628.6104"
           transform="rotate(-90)" />
        <rect
           style="mix-blend-mode:normal;fill:#970000;fill-opacity:1;stroke:none;stroke-width:0.386408"
           id="rect2980-2"
           width="5.9197216"
           height="71.171066"
           x="42.507153"
           y="2628.9966"
           transform="rotate(90)" />
        <rect
           style="mix-blend-mode:normal;fill:#970000;fill-opacity:1;stroke:none;stroke-width:0.386408"
           id="rect14708"
           width="5.9197216"
           height="71.171066"
           x="1823.7345"
           y="-1890.8018"
           transform="rotate(-135)" />
        <rect
           style="mix-blend-mode:normal;fill:#970000;fill-opacity:1;stroke:none;stroke-width:0.386408"
           id="rect14720"
           width="5.9197216"
           height="71.171066"
           x="1888.035"
           y="1826.8877"
           transform="rotate(135)" />
      </g>
    </g>
  </g>
</svg>
