<?xml version="1.0" encoding="UTF-8" standalone="no"?>
<!-- Created with Inkscape (http://www.inkscape.org/) -->

<svg
   width="132mm"
   height="144mm"
   viewBox="0 0 1320 1440"
   version="1.1"
   id="svg23702"
   sodipodi:docname="GoteLance.svg"
   inkscape:version="1.2 (dc2aedaf03, 2022-05-15)"
   xmlns:inkscape="http://www.inkscape.org/namespaces/inkscape"
   xmlns:sodipodi="http://sodipodi.sourceforge.net/DTD/sodipodi-0.dtd"
   xmlns:xlink="http://www.w3.org/1999/xlink"
   xmlns="http://www.w3.org/2000/svg"
   xmlns:svg="http://www.w3.org/2000/svg">
  <sodipodi:namedview
     id="namedview30148"
     pagecolor="#ffffff"
     bordercolor="#000000"
     borderopacity="0.25"
     inkscape:showpageshadow="2"
     inkscape:pageopacity="0.0"
     inkscape:pagecheckerboard="0"
     inkscape:deskcolor="#d1d1d1"
     inkscape:document-units="mm"
     showgrid="false"
     inkscape:zoom="2.4529403"
     inkscape:cx="310.64759"
     inkscape:cy="413.38144"
     inkscape:window-width="1680"
     inkscape:window-height="987"
     inkscape:window-x="-8"
     inkscape:window-y="-8"
     inkscape:window-maximized="1"
     inkscape:current-layer="svg23702" />
  <defs
     id="defs23699">
    <filter
       style="color-interpolation-filters:sRGB"
       id="filter6180-2"
       x="-0.055215706"
       y="-0.04316149"
       width="1.1104314"
       height="1.086323">
      <feGaussianBlur
         stdDeviation="9.0173096"
         id="feGaussianBlur6178-97" />
    </filter>
    <filter
       style="color-interpolation-filters:sRGB"
       id="filter6142"
       x="-0.0070344196"
       y="-0.0043497943"
       width="1.0140688"
       height="1.0108062">
      <feGaussianBlur
         stdDeviation="0.90717037"
         id="feGaussianBlur6144" />
    </filter>
    <linearGradient
       xlink:href="#linearGradient1467"
       id="linearGradient7137"
       gradientUnits="userSpaceOnUse"
       gradientTransform="translate(-844.32051,-151.71975)"
       x1="-586.44916"
       y1="75.508476"
       x2="-156.05099"
       y2="75.508476" />
    <linearGradient
       id="linearGradient1467">
      <stop
         style="stop-color:#ffeab1;stop-opacity:1;"
         offset="0"
         id="stop1441" />
      <stop
         style="stop-color:#ffd774;stop-opacity:1;"
         offset="0.05596975"
         id="stop1443" />
      <stop
         style="stop-color:#ffd394;stop-opacity:1;"
         offset="0.12240581"
         id="stop1445" />
      <stop
         style="stop-color:#ffc474;stop-opacity:1;"
         offset="0.18442476"
         id="stop1447" />
      <stop
         style="stop-color:#ffce8c;stop-opacity:1;"
         offset="0.25016946"
         id="stop1449" />
      <stop
         style="stop-color:#ffc474;stop-opacity:1;"
         offset="0.3166357"
         id="stop1451" />
      <stop
         style="stop-color:#ffc389;stop-opacity:1;"
         offset="0.38451442"
         id="stop1453" />
      <stop
         style="stop-color:#ffc674;stop-opacity:1;"
         offset="0.47559014"
         id="stop1455" />
      <stop
         style="stop-color:#ffc67a;stop-opacity:1;"
         offset="0.54782552"
         id="stop1457" />
      <stop
         style="stop-color:#ffc57d;stop-opacity:1;"
         offset="0.61341411"
         id="stop1459" />
      <stop
         style="stop-color:#ffcb7a;stop-opacity:1;"
         offset="0.68246663"
         id="stop1461" />
      <stop
         style="stop-color:#ffbf76;stop-opacity:1;"
         offset="0.73423874"
         id="stop1463" />
      <stop
         style="stop-color:#ffc66b;stop-opacity:1;"
         offset="0.82545269"
         id="stop1469" />
      <stop
         style="stop-color:#ffca84;stop-opacity:1;"
         offset="0.89189297"
         id="stop1471" />
      <stop
         style="stop-color:#ffba72;stop-opacity:1;"
         offset="0.94046402"
         id="stop1473" />
      <stop
         style="stop-color:#ffd889;stop-opacity:1;"
         offset="1"
         id="stop1465" />
    </linearGradient>
    <linearGradient
       xlink:href="#linearGradient6126"
       id="linearGradient7139"
       gradientUnits="userSpaceOnUse"
       gradientTransform="matrix(-1,0,0,1,-2431.1401,-3.04e-4)"
       x1="-1215.5698"
       y1="150.10994"
       x2="-1215.5706"
       y2="-275.99411" />
    <linearGradient
       id="linearGradient6126">
      <stop
         style="stop-color:#f6cf8d;stop-opacity:1;"
         offset="0"
         id="stop6122" />
      <stop
         style="stop-color:#fafa9a;stop-opacity:1;"
         offset="0.60526317"
         id="stop6124" />
    </linearGradient>
    <filter
       style="color-interpolation-filters:sRGB"
       id="filter6136"
       x="-0.0022951993"
       y="-0.090937231"
       width="1.0045904"
       height="1.1818745">
      <feGaussianBlur
         stdDeviation="0.43934162"
         id="feGaussianBlur6134" />
    </filter>
    <filter
       style="color-interpolation-filters:sRGB"
       id="filter18106"
       x="-0.055391115"
       y="-0.20794615"
       width="1.1107822"
       height="1.4158923">
      <feGaussianBlur
         stdDeviation="0.34423246"
         id="feGaussianBlur18108" />
    </filter>
    <filter
       style="color-interpolation-filters:sRGB"
       id="filter18126"
       x="-0.079403799"
       y="-0.082912599"
       width="1.1588076"
       height="1.1658252">
      <feGaussianBlur
         stdDeviation="0.39182262"
         id="feGaussianBlur18128" />
    </filter>
    <filter
       style="color-interpolation-filters:sRGB"
       id="filter6180-3"
       x="-0.054909181"
       y="-0.045294776"
       width="1.1098184"
       height="1.0905896">
      <feGaussianBlur
         stdDeviation="9.0173096"
         id="feGaussianBlur6178-0" />
    </filter>
    <linearGradient
       inkscape:collect="always"
       xlink:href="#linearGradient10448"
       id="linearGradient11894"
       gradientUnits="userSpaceOnUse"
       gradientTransform="matrix(2.0051344,0,0,2.0051344,1293.7115,499.32309)"
       x1="-238.90201"
       y1="273.38602"
       x2="-234.34456"
       y2="291.56778" />
    <linearGradient
       id="linearGradient10448">
      <stop
         style="stop-color:#ecb857;stop-opacity:1;"
         offset="0.28728068"
         id="stop10446" />
      <stop
         style="stop-color:#efcb98;stop-opacity:1;"
         offset="0.5"
         id="stop10444" />
      <stop
         style="stop-color:#edaf69;stop-opacity:1;"
         offset="0.7390351"
         id="stop10442" />
    </linearGradient>
    <linearGradient
       inkscape:collect="always"
       xlink:href="#linearGradient10448"
       id="linearGradient11921"
       gradientUnits="userSpaceOnUse"
       gradientTransform="matrix(-2.0051344,0,0,2.0051344,26.289725,499.32309)"
       x1="-244.31099"
       y1="274.80936"
       x2="-239.59917"
       y2="293.00616" />
  </defs>
  <g
     id="layer1">
    <path
       style="opacity:0.808717;fill:#26282f;fill-opacity:1;stroke:none;stroke-width:1.257;filter:url(#filter6180-3)"
       d="m -2819.4877,0.64512728 46.0879,64.80790272 348.0455,-422.4429 -17.1721,-24.25432 -138.5532,-31.09611 -142.6652,38.44403 z"
       id="path5994"
       transform="matrix(-2.0051344,0,0,-2.0051344,-4478.1278,338.49161)"
       sodipodi:nodetypes="ccccccc" />
    <g
       id="g6277"
       transform="matrix(-2.0051344,0,0,-2.0051344,-1777.3814,414.03723)"
       style="mix-blend-mode:normal">
      <path
         id="path6263"
         style="fill:url(#linearGradient7137);fill-opacity:1;stroke:none;stroke-width:1.257"
         d="m -985.86901,164.31126 -83.76099,-462.48595 -145.5278,-38.04548 -146.3526,38.04548 -83.7609,462.48595 z" />
      <path
         id="path6265"
         style="opacity:0.353511;mix-blend-mode:overlay;fill:url(#linearGradient7139);fill-opacity:1;stroke:none;stroke-width:1.257"
         d="m -985.86899,164.31126 -83.76071,-462.48596 -145.9402,-38.04548 -5e-4,0.003 v -0.003 l -145.9402,38.04548 -83.7607,462.48596 z" />
      <path
         style="opacity:0.264;mix-blend-mode:multiply;fill:#26282f;fill-opacity:1;stroke:none;stroke-width:1.257"
         d="m -1361.5106,-298.17471 c 0,0 8.8093,6.60699 8.8093,6.60699 0,0 137.1309,-36.47239 137.1309,-36.47239 0,0 0,-8.18008 0,-8.18008 0,0 -145.9402,38.04548 -145.9402,38.04548 z"
         id="path6267" />
      <path
         style="opacity:0.264;mix-blend-mode:multiply;fill:#26282f;fill-opacity:1;stroke:none;stroke-width:1.257"
         d="m -1361.5106,-298.17471 c 0,0 8.8093,6.60699 8.8093,6.60699 0,0 -76.4832,445.42374 -76.4832,445.42374 0,0 -16.0868,10.45523 -16.0868,10.45523 0,0 83.7607,-462.48596 83.7607,-462.48596 z"
         id="path6269" />
      <path
         id="path6271"
         style="opacity:0.198547;mix-blend-mode:normal;fill:#ffffff;fill-opacity:1;stroke:none;stroke-width:1.257;filter:url(#filter6136)"
         d="m -1429.1845,153.85602 -16.0868,10.45523 h 459.40233 l -15.86873,-11.59503 z" />
      <path
         style="opacity:0.263923;mix-blend-mode:multiply;fill:#26282f;fill-opacity:1;stroke:none;stroke-width:1.257"
         d="m -1069.6299,-298.17471 c 0,0 -8.8093,6.60699 -8.8093,6.60699 0,0 76.7015,444.28394 76.7015,444.28394 0,0 15.86873,11.59503 15.86873,11.59503 0,0 -83.76093,-462.48596 -83.76093,-462.48596 z"
         id="path6273" />
      <path
         style="opacity:0.264;mix-blend-mode:multiply;fill:#26282f;fill-opacity:1;stroke:none;stroke-width:1.257"
         d="m -1069.6299,-298.17471 c 0,0 -8.8093,6.60699 -8.8093,6.60699 0,0 -137.1307,-36.47239 -137.1307,-36.47239 0,0 0,-8.18008 0,-8.18008 0,0 145.94,38.04548 145.94,38.04548 z"
         id="path6275" />
    </g>
    <g
       id="g80018"
       transform="matrix(-1.5227621,0,0,-1.5227621,-3229.3335,671.71436)">
      <path
         d="m -2515.2783,65.207967 c -4.7733,-4.590144 -14.5277,-5.176024 -36.4511,-2.188991 -36.0238,4.908029 -38.7316,2.178094 -48.4936,-48.889468 -5.7429,-30.042698 -6.6452,-32.600812 -14.8823,-42.19336 -3.6998,-4.308641 -6.3124,-4.968094 -9.4305,-2.380442 -2.3719,1.968543 -13.2718,3.114818 -24.2221,2.547218 -25.3099,-1.311881 -26.7376,-8.395933 -3.2742,-16.245068 15.862,-5.306331 56.7323,-37.540002 56.7323,-44.743822 0,-1.74521 -5.3213,-3.17317 -11.8248,-3.17317 -8.3604,0 -15.3588,-3.10284 -23.8872,-10.590784 -20.128,-17.67267 -15.0477,-24.3568 12.2876,-16.1669 10.1301,3.03503 17.546,2.98118 31.9027,-0.23171 21.5628,-4.82554 23.5064,-6.75509 18.9299,-18.7921 -2.7527,-7.24075 -5.5616,-8.81747 -15.7069,-8.81747 -16.512,0 -32.176,-9.49512 -32.176,-19.50415 0,-4.28748 0.394,-7.79538 0.8756,-7.79538 0.4816,0 6.1162,1.50297 12.521,3.33986 12.5075,3.58714 28.0343,0.26637 72.9707,-15.60642 36.8969,-13.03291 55.7369,-9.73888 52.9515,9.25818 -0.9581,6.53429 -5.4131,8.64799 -31.6518,15.01766 -16.7951,4.07721 -30.9474,8.80153 -31.4493,10.49856 -0.5022,1.69704 1.3078,6.0245 4.0223,9.61678 4.6377,6.13733 6.6389,6.27781 33.181,2.32902 20.151,-2.99802 30.9397,-3.17795 37.6465,-0.62803 10.5114,3.99643 18.1741,17.38045 14.874,25.9799 -1.8798,4.89894 -5.9254,5.32849 -30.727,3.2626 -27.6161,-2.30048 -43.0788,-0.56769 -43.0788,4.82725 0,1.42958 7.999,6.316814 17.7756,10.860484 22.3417,10.38357 55.2108,34.321536 62.5895,45.582932 5.3029,8.093088 5.202,9.23261 -1.8235,20.600177 -4.0904,6.618212 -8.8474,12.033145 -10.5711,12.033145 -1.7237,0 -18.4901,-15.355983 -37.2584,-34.124317 -18.7685,-18.768424 -35.66,-34.124407 -37.537,-34.124407 -1.9239,0 -3.4123,9.64685 -3.4123,22.115576 v 22.115578 l 15.2481,-2.090024 c 14.1449,-1.938825 16.1202,-1.218047 27.2994,9.961312 14.0062,14.00619 14.4594,18.845149 5.5871,59.650805 -7.4543,34.284429 -18.7421,49.06957 -29.5369,38.688976 z m -4.2417,-35.445204 c 1.4308,-2.251037 2.6252,-5.424929 2.6539,-7.053073 0.047,-2.687791 -51.1201,0.29555 -54.1151,3.155071 -0.7012,0.669357 -0.2853,3.795433 0.9239,6.946901 1.8866,4.916135 5.4459,5.397104 25.0672,3.386776 12.5776,-1.288558 24.0391,-4.184638 25.4701,-6.435675 z m -30.2235,-31.4024881 c 13.4251,-3.496819 21.6543,-4.077926 25.8615,-1.82626 7.1683,3.83640701 10.4806,1.540885 10.4806,-7.2634359 0,-5.208443 -2.7776,-6.256111 -16.5859,-6.256111 -30.3313,0 -48.2504,3.762924 -48.2504,10.1324109 0,11.658528 2.2026,12.061512 28.4942,5.213396 z m -11.4696,-45.5919329 c -0.022,-3.071413 -0.9818,-11.296248 -2.1359,-18.277369 l -2.0982,-12.692959 -16.4789,14.399179 c -18.9193,16.531435 -20.6479,22.032548 -7.402,23.556683 16.4688,1.89497 28.1552,-1.008676 28.115,-6.985534 z"
         style="fill:#000000;stroke-width:3.41244"
         id="path6058" />
      <path
         style="fill:#ffffff;fill-opacity:1;stroke:none;stroke-width:0.626891;filter:url(#filter18106)"
         d="m -2588.0576,-154.8105 c -0.4123,-0.96212 -4.2609,-1.78681 -7.9722,-1.51192 -3.7113,0.27488 -7.2849,1.64936 -6.8725,2.61153 0.4125,0.96218 4.8109,1.51197 8.522,1.23704 3.7111,-0.27493 6.7351,-1.37453 6.3227,-2.33665 z"
         id="path6062"
         transform="rotate(41.949602,-2594.3106,-166.31074)" />
      <path
         style="fill:#ffffff;fill-opacity:1;stroke:none;stroke-width:0.626891;filter:url(#filter18106)"
         d="m -2462.1263,-134.97318 c -0.4123,-0.96212 -4.2609,-1.78681 -7.9722,-1.51192 -3.7113,0.27488 -7.2849,1.64936 -6.8725,2.61153 0.4125,0.96218 4.8109,1.51197 8.522,1.23704 3.7111,-0.27493 6.7351,-1.37453 6.3227,-2.33665 z"
         id="path6064"
         transform="matrix(1.6749748,0.78025811,-0.65136467,2.0064224,1428.7729,2090.4544)" />
      <path
         style="fill:#ffffff;fill-opacity:1;stroke:none;stroke-width:0.626891;filter:url(#filter18106)"
         d="m -2462.1263,-134.97318 c -0.4123,-0.96212 -4.2609,-1.78681 -7.9722,-1.51192 -3.7113,0.27488 -7.2849,1.64936 -6.8725,2.61153 0.4125,0.96218 4.8109,1.51197 8.522,1.23704 3.7111,-0.27493 6.7351,-1.37453 6.3227,-2.33665 z"
         id="path6066"
         transform="rotate(42.286285,-2674.7813,-253.20108)" />
      <path
         style="opacity:1;fill:#ffffff;fill-opacity:1;stroke:none;stroke-width:0.626891;filter:url(#filter18126)"
         d="m -2579.1684,47.373466 c 2.9552,1.030999 6.5289,4.742208 6.735,7.42241 0.2061,2.680201 -2.9552,4.329586 -5.9104,3.298725 -2.9552,-1.030861 -5.7041,-4.741888 -5.9103,-7.422297 -0.2062,-2.68041 2.1304,-4.329837 5.0857,-3.298838 z"
         id="path6068" />
    </g>
    <g
       id="g98410"
       transform="matrix(2.0051344,0,0,2.0051344,5693.0589,182.32451)">
      <path
         id="path98402"
         style="opacity:1;stroke:#000000;stroke-width:2.08197"
         d="m -2509.9385,144.39173 22.767,-46.465103 -45.534,3.3e-4 z" />
      <rect
         style="opacity:1;fill:#000000;fill-opacity:1;stroke:#000000;stroke-width:0.626891"
         id="rect98398"
         width="9.6038866"
         height="115.46469"
         x="-2514.7405"
         y="12.474094" />
    </g>
    <path
       id="path11892"
       style="mix-blend-mode:normal;fill:url(#linearGradient11894);fill-opacity:1;stroke:none;stroke-width:2.52045"
       d="m 660.00062,1128.7986 274.96552,-74.4943 17.6638,-42.3867 -292.62932,76.2863 z"
       sodipodi:nodetypes="ccccc" />
    <path
       id="path11919"
       style="mix-blend-mode:normal;fill:url(#linearGradient11921);fill-opacity:1;stroke:none;stroke-width:2.52045"
       d="m 660.00062,1128.7986 -274.96698,-74.4943 -17.66373,-42.3867 292.63071,76.2863 z"
       sodipodi:nodetypes="ccccc" />
    <path
       id="path7385"
       style="opacity:0.602906;mix-blend-mode:multiply;fill:#6d2435;fill-opacity:1;stroke:none;stroke-width:2.52045"
       d="m 367.36991,1011.9176 17.66363,42.3867 274.96688,74.4943 274.96582,-74.4943 17.6637,-42.3867 -292.62932,76.2863 z"
       sodipodi:nodetypes="ccccccc" />
  </g>
</svg>
