<?xml version="1.0" encoding="UTF-8" standalone="no"?>
<!-- Created with Inkscape (http://www.inkscape.org/) -->

<svg
   width="132mm"
   height="144mm"
   viewBox="0 0 1320 1440"
   version="1.1"
   id="svg23702"
   sodipodi:docname="GoteRook.svg"
   inkscape:version="1.2 (dc2aedaf03, 2022-05-15)"
   xmlns:inkscape="http://www.inkscape.org/namespaces/inkscape"
   xmlns:sodipodi="http://sodipodi.sourceforge.net/DTD/sodipodi-0.dtd"
   xmlns:xlink="http://www.w3.org/1999/xlink"
   xmlns="http://www.w3.org/2000/svg"
   xmlns:svg="http://www.w3.org/2000/svg">
  <sodipodi:namedview
     id="namedview26015"
     pagecolor="#ffffff"
     bordercolor="#000000"
     borderopacity="0.25"
     inkscape:showpageshadow="2"
     inkscape:pageopacity="0.0"
     inkscape:pagecheckerboard="0"
     inkscape:deskcolor="#d1d1d1"
     inkscape:document-units="mm"
     showgrid="false"
     inkscape:zoom="0.86724537"
     inkscape:cx="143.55799"
     inkscape:cy="418.56666"
     inkscape:window-width="1680"
     inkscape:window-height="987"
     inkscape:window-x="-8"
     inkscape:window-y="-8"
     inkscape:window-maximized="1"
     inkscape:current-layer="layer1" />
  <defs
     id="defs23699">
    <filter
       style="color-interpolation-filters:sRGB"
       id="filter6180-3"
       x="-0.049081538"
       y="-0.040969633"
       width="1.0981631"
       height="1.0819393">
      <feGaussianBlur
         stdDeviation="9.0173096"
         id="feGaussianBlur6178-0" />
    </filter>
    <filter
       style="color-interpolation-filters:sRGB"
       id="filter6142"
       x="-0.0047990688"
       y="-0.0026401699"
       width="1.0095982"
       height="1.0072183">
      <feGaussianBlur
         stdDeviation="0.59853361"
         id="feGaussianBlur6144" />
    </filter>
    <linearGradient
       xlink:href="#linearGradient1467"
       id="linearGradient7153"
       gradientUnits="userSpaceOnUse"
       gradientTransform="translate(-844.32051,-151.71975)"
       x1="-630.76886"
       y1="75.508476"
       x2="-117.25891"
       y2="75.508476" />
    <linearGradient
       id="linearGradient1467">
      <stop
         style="stop-color:#ffeab1;stop-opacity:1;"
         offset="0"
         id="stop1441" />
      <stop
         style="stop-color:#ffd774;stop-opacity:1;"
         offset="0.05596975"
         id="stop1443" />
      <stop
         style="stop-color:#ffd394;stop-opacity:1;"
         offset="0.12240581"
         id="stop1445" />
      <stop
         style="stop-color:#ffc474;stop-opacity:1;"
         offset="0.18442476"
         id="stop1447" />
      <stop
         style="stop-color:#ffce8c;stop-opacity:1;"
         offset="0.25016946"
         id="stop1449" />
      <stop
         style="stop-color:#ffc474;stop-opacity:1;"
         offset="0.3166357"
         id="stop1451" />
      <stop
         style="stop-color:#ffc389;stop-opacity:1;"
         offset="0.38451442"
         id="stop1453" />
      <stop
         style="stop-color:#ffc674;stop-opacity:1;"
         offset="0.47559014"
         id="stop1455" />
      <stop
         style="stop-color:#ffc67a;stop-opacity:1;"
         offset="0.54782552"
         id="stop1457" />
      <stop
         style="stop-color:#ffc57d;stop-opacity:1;"
         offset="0.61341411"
         id="stop1459" />
      <stop
         style="stop-color:#ffcb7a;stop-opacity:1;"
         offset="0.68246663"
         id="stop1461" />
      <stop
         style="stop-color:#ffbf76;stop-opacity:1;"
         offset="0.73423874"
         id="stop1463" />
      <stop
         style="stop-color:#ffc66b;stop-opacity:1;"
         offset="0.82545269"
         id="stop1469" />
      <stop
         style="stop-color:#ffca84;stop-opacity:1;"
         offset="0.89189297"
         id="stop1471" />
      <stop
         style="stop-color:#ffba72;stop-opacity:1;"
         offset="0.94046402"
         id="stop1473" />
      <stop
         style="stop-color:#ffd889;stop-opacity:1;"
         offset="1"
         id="stop1465" />
    </linearGradient>
    <linearGradient
       xlink:href="#linearGradient6126"
       id="linearGradient7155"
       gradientUnits="userSpaceOnUse"
       gradientTransform="translate(-2.31e-4,-2.49e-4)"
       x1="-1215.5699"
       y1="167.93315"
       x2="-1215.5706"
       y2="-275.99411" />
    <linearGradient
       id="linearGradient6126">
      <stop
         style="stop-color:#f6cf8d;stop-opacity:1;"
         offset="0"
         id="stop6122" />
      <stop
         style="stop-color:#fafa9a;stop-opacity:1;"
         offset="0.60526317"
         id="stop6124" />
    </linearGradient>
    <filter
       style="color-interpolation-filters:sRGB"
       id="filter6136"
       x="-0.0020314876"
       y="-0.10037028"
       width="1.004063"
       height="1.2007406">
      <feGaussianBlur
         stdDeviation="0.43934162"
         id="feGaussianBlur6134" />
    </filter>
    <filter
       style="color-interpolation-filters:sRGB"
       id="filter18126-8-51"
       x="-0.079403802"
       y="-0.082912596"
       width="1.1588076"
       height="1.1658252">
      <feGaussianBlur
         stdDeviation="0.39182262"
         id="feGaussianBlur18128-8-05" />
    </filter>
    <filter
       style="color-interpolation-filters:sRGB"
       id="filter18126-8-42"
       x="-0.079403802"
       y="-0.082912596"
       width="1.1588076"
       height="1.1658252">
      <feGaussianBlur
         stdDeviation="0.39182262"
         id="feGaussianBlur18128-8-4" />
    </filter>
    <filter
       style="color-interpolation-filters:sRGB"
       id="filter18126-8-00"
       x="-0.079403802"
       y="-0.082912626"
       width="1.1588076"
       height="1.1658253">
      <feGaussianBlur
         stdDeviation="0.39182262"
         id="feGaussianBlur18128-8-44" />
    </filter>
    <filter
       style="color-interpolation-filters:sRGB"
       id="filter18126-8-11"
       x="-0.079403802"
       y="-0.082912626"
       width="1.1588076"
       height="1.1658253">
      <feGaussianBlur
         stdDeviation="0.39182262"
         id="feGaussianBlur18128-8-1" />
    </filter>
    <filter
       style="color-interpolation-filters:sRGB"
       id="filter18126-8-58"
       x="-0.079403802"
       y="-0.082912593"
       width="1.1588076"
       height="1.1658252">
      <feGaussianBlur
         stdDeviation="0.39182262"
         id="feGaussianBlur18128-8-14" />
    </filter>
    <filter
       style="color-interpolation-filters:sRGB"
       id="filter6180-3-6"
       x="-0.047193335"
       y="-0.039583557"
       width="1.0943867"
       height="1.0791671">
      <feGaussianBlur
         stdDeviation="9.0173096"
         id="feGaussianBlur6178-0-3" />
    </filter>
    <linearGradient
       inkscape:collect="always"
       xlink:href="#linearGradient10448"
       id="linearGradient11894"
       gradientUnits="userSpaceOnUse"
       gradientTransform="matrix(2.0051344,0,0,2.0051344,1293.7111,586.65666)"
       x1="-227.98259"
       y1="264.52887"
       x2="-222.16621"
       y2="281.71329" />
    <linearGradient
       id="linearGradient10448">
      <stop
         style="stop-color:#ecb857;stop-opacity:1;"
         offset="0.28728068"
         id="stop10446" />
      <stop
         style="stop-color:#efcb98;stop-opacity:1;"
         offset="0.5"
         id="stop10444" />
      <stop
         style="stop-color:#edaf69;stop-opacity:1;"
         offset="0.7390351"
         id="stop10442" />
    </linearGradient>
    <linearGradient
       inkscape:collect="always"
       xlink:href="#linearGradient10448"
       id="linearGradient11921"
       gradientUnits="userSpaceOnUse"
       gradientTransform="matrix(-2.0051344,0,0,2.0051344,26.28936,586.65666)"
       x1="-227.98259"
       y1="264.52887"
       x2="-222.16621"
       y2="281.71329" />
  </defs>
  <g
     id="layer1">
    <path
       style="opacity:0.808717;fill:#26282f;fill-opacity:1;stroke:none;stroke-width:1.257;filter:url(#filter6180-3-6)"
       d="m -2853.7441,56.311049 55.1868,78.079261 403.3852,-471.11051 -14.6973,-23.96281 -171.2102,-51.65729 -171.574,57.4789 z"
       id="path5994"
       transform="matrix(-2.0051344,0,0,-2.0051344,-4478.1282,425.82518)"
       sodipodi:nodetypes="ccccccc" />
    <g
       id="g6211"
       transform="matrix(-2.0051344,0,0,-2.0051344,-1777.3816,416.25209)"
       style="mix-blend-mode:normal;filter:url(#filter6142)">
      <path
         id="path6197"
         style="fill:url(#linearGradient7153);fill-opacity:1;stroke:none;stroke-width:1.257"
         d="m -1215.5702,-378.67062 -176.1229,58.3152 -83.3963,485.77126 h 519.03833 l -83.39633,-485.77126 z" />
      <path
         id="path6199"
         style="opacity:0.353511;mix-blend-mode:overlay;fill:url(#linearGradient7155);fill-opacity:1;stroke:none;stroke-width:1.257"
         d="m -1215.5702,-378.67062 -176.1229,58.3152 -83.3963,485.77126 h 519.03833 l -83.39633,-485.77126 z" />
      <path
         style="opacity:0.264;mix-blend-mode:multiply;fill:#26282f;fill-opacity:1;stroke:none;stroke-width:1.257"
         d="m -1391.6931,-320.35542 c 0,0 8.8093,6.60699 8.8093,6.60699 0,0 167.3136,-56.74211 167.3136,-56.74211 0,0 0,-8.18008 0,-8.18008 0,0 -176.1229,58.3152 -176.1229,58.3152 z"
         id="path6201" />
      <path
         style="opacity:0.264;mix-blend-mode:multiply;fill:#26282f;fill-opacity:1;stroke:none;stroke-width:1.257"
         d="m -1391.6931,-320.35542 c 0,0 8.8093,6.60699 8.8093,6.60699 0,0 -81.1485,468.65911 -81.1485,468.65911 0,0 -11.0571,10.50516 -11.0571,10.50516 0,0 83.3963,-485.77126 83.3963,-485.77126 z"
         id="path6203" />
      <path
         id="path6205"
         style="opacity:0.198547;mix-blend-mode:normal;fill:#ffffff;fill-opacity:1;stroke:none;stroke-width:1.257;filter:url(#filter6136)"
         d="m -1464.0327,154.91054 -11.0567,10.5053 h 519.03833 l -11.0567,-10.5053 z" />
      <path
         style="opacity:0.263923;mix-blend-mode:multiply;fill:#26282f;fill-opacity:1;stroke:none;stroke-width:1.257"
         d="m -1039.4474,-320.35542 c 0,0 -8.8093,6.60699 -8.8093,6.60699 0,0 81.14853,468.65911 81.14853,468.65911 0,0 11.0571,10.50516 11.0571,10.50516 0,0 -83.39633,-485.77126 -83.39633,-485.77126 z"
         id="path6207" />
      <path
         style="opacity:0.264;mix-blend-mode:normal;fill:#26282f;fill-opacity:1;stroke:none;stroke-width:1.257"
         d="m -1039.4474,-320.35542 c 0,0 -8.8093,6.60699 -8.8093,6.60699 0,0 -167.3135,-56.74211 -167.3135,-56.74211 0,0 0,-8.18008 0,-8.18008 0,0 176.1228,58.3152 176.1228,58.3152 z"
         id="path6209" />
    </g>
    <g
       id="g68294"
       transform="matrix(-1.5741476,0,0,-1.5741476,-3362.0975,652.56941)">
      <path
         d="m -2484.0916,67.97974 c -11.2046,-2.479791 -25.3837,-10.222145 -35.9987,-19.656493 l -17.5131,-15.56505 v -48.105671 c 0,-48.42094 -1.3199,-52.3913 -15.8817,-47.76968 -6.4704,2.05362 -7.4114,8.30372 -7.4114,49.22081 0,49.834844 -5.5179,77.575443 -16.2501,81.693802 -4.4698,1.71521 -15.7577,-7.324253 -35.2942,-28.264566 l -28.7223,-30.786356 -16.0229,15.645885 c -21.2903,20.789517 -37.5935,26.294063 -60.0039,20.259545 -21.7463,-5.855575 -22.1148,-10.969718 -1.0329,-14.340931 12.2605,-1.960553 21.0761,-7.699776 35.4794,-23.097979 25.4996,-27.26092 33.4506,-51.48245 12.632,-38.481 -15.1843,9.48273 -51.8047,-12.70183 -45.988,-27.85951 1.9716,-5.13796 6.3162,-5.97125 19.8505,-3.80697 14.1124,2.25659 45.5089,-3.25621 54.2889,-9.53257 0.8367,-0.59817 -1.069,-7.065311 -4.2353,-14.371571 -5.1785,-11.95033 -7.1828,-13.05722 -19.9634,-11.02549 -17.7462,2.82123 -39.5427,-1.27387 -37.6117,-7.066525 0.7983,-2.39474 10.2416,-6.91711 20.9851,-10.0497 20.9313,-6.10336 41.4214,-25.81763 41.4214,-39.85311 0,-6.10368 2.9816,-8.14526 11.8958,-8.14526 29.2936,0 34.7493,24.3409 9.2797,41.40136 -16.3301,10.93855 -20.8683,17.89039 -11.6789,17.89039 3.2822,0 10.5179,4.843795 16.0796,10.763985 5.8209,6.19611 13.7724,10.23991 18.7376,9.52898 7.9613,-1.13986 8.507,-3.67955 7.0902,-32.998345 -0.8441,-17.46985 -3.2225,-34.9663 -5.2853,-38.88077 -2.5476,-4.83442 -1.6649,-9.20321 2.7521,-13.62019 5.8468,-5.84685 7.995,-5.7911 21.2991,0.55324 16.7624,7.99337 22.2882,21.79426 15.07,37.63639 -5.1339,11.26801 -6.4536,36.629425 -2.1306,40.952415 1.4531,1.45301 9.7495,-0.98398 18.4362,-5.4157 l 15.7943,-8.057645 14.2946,11.933575 c 12.5225,10.4544 13.5748,12.80074 8.4884,18.929251 -3.1931,3.84765 -4.7466,8.05484 -3.4522,9.34928 3.3895,3.38952 23.0885,-10.32631 26.0993,-18.172061 3.2021,-8.34453 -4.7348,-18.26726 -14.6111,-18.26726 -12.0133,0 -32.882,-22.508335 -35.9296,-38.752365 -1.5261,-8.13498 -0.9629,-24.75853 1.2512,-36.94146 l 4.0261,-22.15056 -13.2256,2.6357 c -7.2743,1.44967 -24.3381,5.35946 -37.9198,8.68852 -13.5818,3.32897 -28.3925,6.05274 -32.913,6.05274 -10.85,0 -42.6151,-21.18875 -40.6597,-27.122 0.8454,-2.56562 17.4798,-5.87648 37.1929,-7.40271 35.2297,-2.72778 53.9769,-6.56236 77.2313,-15.7973 18.1851,-7.22177 30.1473,-5.71688 40.2786,5.0673 11.6514,12.40252 11.5398,15.03833 -1.3793,32.54932 -15.1303,20.50776 -14.1207,27.95955 2.4707,18.23876 14.661,-8.58986 26.6447,-32.51477 23.1866,-46.29209 -5.0841,-20.25719 19.7136,-21.78835 37.2659,-2.30107 7.6653,8.51039 7.6653,9.14587 0,24.838 -9.5695,19.59032 -47.055,43.63259 -68.0297,43.63259 -15.9443,0 -16.141,0.42191 -7.7554,16.63754 7.2366,13.99436 14.0167,17.24342 35.9829,17.24342 17.8546,0 29.3742,-9.26278 22.3846,-17.99926 -8.1512,-10.18862 -10.4986,-24.35197 -4.0361,-24.35197 10.7633,0 45.3505,33.82139 45.3505,44.34618 0,10.47117 -20.8396,23.415855 -37.6975,23.415855 -10.6882,0 -11.1063,3.41959 -2.0072,16.41044 6.448,9.205651 6.3442,10.362071 -1.6434,18.349631 -5.0359,5.03592 -16.4838,9.42183 -27.9725,10.7168 -20.9754,2.36423 -22.4556,6.89598 -3.7754,11.55816 22.9675,5.73208 34.306,26.64745 21.4275,39.52586 -9.0381,9.03825 -19.6338,5.43537 -31.7598,-10.79951 -17.1319,-22.93726 -23.8764,-27.5431 -27.4461,-18.74316 -4.3966,10.83853 -3.9699,31.9382 0.9301,45.994481 8.2571,23.686512 44.8585,33.411651 73.8021,19.60941 16.8403,-8.030591 17.3302,-9.56074 9.0325,-28.221401 -10.0782,-22.66469 -15.2594,-41.65371 -12.5581,-46.02465 1.4202,-2.29771 13.8352,8.29057 27.5891,23.52974 13.7539,15.23905 28.5924,28.845382 32.9746,30.236253 10.3805,3.29466 14.0663,13.448747 8.5933,23.675017 -10.6485,19.89666 -69.6002,35.246911 -105.1488,27.379284 z M -2594.2579,6.112416 c 1.5793,-5.65062001 3.0612,-21.23223 3.2934,-34.62574 0.3642,-20.9992 -0.6537,-24.35197 -7.3917,-24.35197 -9.0738,0 -16.2994,7.95437 -29.3778,32.34008 -9.4005,17.52764 -12.1917,29.03997 -6.2185,25.64762 1.747,-0.99211 8.8938,1.60648 15.8819,5.77468 15.6206,9.317411 20.125,8.412364 23.8127,-4.78467 z"
         style="fill:#000000;stroke-width:4.23514"
         id="path6159" />
      <path
         style="fill:#ffffff;fill-opacity:1;stroke:none;stroke-width:0.626891;filter:url(#filter18126-8-51)"
         d="m -2599.9654,35.819353 c 2.9552,1.031001 6.5289,4.742208 6.735,7.42241 0.2061,2.680202 -2.9552,4.329585 -5.9104,3.298725 -2.9552,-1.030859 -5.7041,-4.741891 -5.9103,-7.4223 -0.2062,-2.68041 2.1305,-4.329835 5.0857,-3.298835 z"
         id="path6163" />
      <path
         style="fill:#ffffff;fill-opacity:1;stroke:none;stroke-width:0.626891;filter:url(#filter18126-8-42)"
         d="m -2693.1571,-47.88828 c 2.9552,1.031001 6.5289,4.742208 6.735,7.42241 0.2061,2.680202 -2.9552,4.329585 -5.9104,3.298725 -2.9552,-1.030859 -5.7041,-4.741891 -5.9103,-7.4223 -0.2062,-2.68041 2.1305,-4.329835 5.0857,-3.298835 z"
         id="path6165" />
      <path
         style="fill:#ffffff;fill-opacity:1;stroke:none;stroke-width:0.626891;filter:url(#filter18126-8-00)"
         d="m -2585.5331,-156.74943 c 2.9552,1.031 6.5289,4.74221 6.735,7.42241 0.2061,2.6802 -2.9552,4.32958 -5.9104,3.29872 -2.9552,-1.03086 -5.7041,-4.74189 -5.9103,-7.4223 -0.2062,-2.68041 2.1305,-4.32983 5.0857,-3.29883 z"
         id="path6167" />
      <path
         style="fill:#ffffff;fill-opacity:1;stroke:none;stroke-width:0.626891;filter:url(#filter18126-8-11)"
         d="m -2619.3459,-199.63414 c 2.9552,1.031 6.5289,4.74221 6.735,7.42241 0.2061,2.6802 -2.9552,4.32958 -5.9104,3.29872 -2.9552,-1.03086 -5.7041,-4.74189 -5.9103,-7.4223 -0.2062,-2.68041 2.1305,-4.32983 5.0857,-3.29883 z"
         id="path6169" />
      <path
         style="fill:#ffffff;fill-opacity:1;stroke:none;stroke-width:0.626891;filter:url(#filter18126-8-58)"
         d="m -2477.4966,-16.549462 c 2.9552,1.031001 6.5289,4.742208 6.735,7.4224101 0.2061,2.6802025 -2.9552,4.3295851 -5.9104,3.2987254 -2.9552,-1.0308598 -5.7041,-4.7418915 -5.9103,-7.4223005 -0.2062,-2.68041 2.1305,-4.329835 5.0857,-3.298835 z"
         id="path6171" />
    </g>
    <g
       id="g11642"
       style="mix-blend-mode:normal"
       transform="matrix(2.0051344,0,0,2.0051344,5693.0592,194.84884)">
      <path
         id="path98402-5"
         style="stroke:#000000;stroke-width:2.08197"
         d="m -2510.0857,157.65742 22.767,-46.4651 -45.534,3.3e-4 z" />
      <rect
         style="fill:#000000;fill-opacity:1;stroke:#000000;stroke-width:0.386408"
         id="rect98398-4"
         width="5.9197216"
         height="71.171066"
         x="-2513.0457"
         y="70.153656" />
      <path
         id="path2970-3"
         style="stroke:#000000;stroke-width:2.08197"
         d="m -2510.0857,-17.736522 -22.767,46.465102 45.534,-3.3e-4 z" />
      <rect
         style="fill:#000000;fill-opacity:1;stroke:#000000;stroke-width:0.386408"
         id="rect2972-3"
         width="5.9197216"
         height="71.171066"
         x="2507.1257"
         y="-69.76725"
         transform="scale(-1)" />
      <path
         id="path2974-6"
         style="stroke:#000000;stroke-width:2.08197"
         d="m -2597.7827,69.960449 46.4651,22.767 -3e-4,-45.534 z" />
      <rect
         style="fill:#000000;fill-opacity:1;stroke:#000000;stroke-width:0.386408"
         id="rect2976-6"
         width="5.9197216"
         height="71.171066"
         x="67.000496"
         y="2510.2788"
         transform="rotate(90)" />
      <path
         id="path2978-6"
         style="stroke:#000000;stroke-width:2.08197"
         d="m -2422.3887,69.960449 -46.4651,-22.767 3e-4,45.534 z" />
      <rect
         style="fill:#000000;fill-opacity:1;stroke:#000000;stroke-width:0.386408"
         id="rect2980-2"
         width="5.9197216"
         height="71.171066"
         x="-72.920418"
         y="-2509.8926"
         transform="rotate(-90)" />
    </g>
    <path
       id="path11892"
       style="mix-blend-mode:normal;fill:url(#linearGradient11894);fill-opacity:1;stroke:none;stroke-width:2.52045"
       d="m 660.00023,1216.1323 335.48638,-115.1378 17.66369,-42.3867 -353.15007,116.9298 z"
       sodipodi:nodetypes="ccccc" />
    <path
       id="path11919"
       style="mix-blend-mode:normal;fill:url(#linearGradient11921);fill-opacity:1;stroke:none;stroke-width:2.52045"
       d="m 660.00023,1216.1323 -335.48634,-115.1378 -17.66373,-42.3867 353.15007,116.9298 z"
       sodipodi:nodetypes="ccccc" />
    <path
       id="path7385"
       style="opacity:0.602906;mix-blend-mode:multiply;fill:#6d2435;fill-opacity:1;stroke:none;stroke-width:2.52045"
       d="m 306.85016,1058.6077 17.66363,42.3868 335.48625,115.1378 335.48637,-115.1378 17.66369,-42.3867 -353.14986,116.9298 z"
       sodipodi:nodetypes="ccccccc" />
  </g>
</svg>
