<?xml version="1.0" encoding="UTF-8" standalone="no"?>
<!-- Created with Inkscape (http://www.inkscape.org/) -->

<svg
   width="132mm"
   height="144mm"
   viewBox="0 0 1320 1440"
   version="1.1"
   id="svg23702"
   xmlns:xlink="http://www.w3.org/1999/xlink"
   xmlns="http://www.w3.org/2000/svg"
   xmlns:svg="http://www.w3.org/2000/svg">
  <defs
     id="defs23699">
    <filter
       style="color-interpolation-filters:sRGB"
       id="filter6180-6"
       x="-0.053050524"
       y="-0.041357046"
       width="1.106101"
       height="1.0827141">
      <feGaussianBlur
         stdDeviation="9.0173096"
         id="feGaussianBlur6178-8" />
    </filter>
    <filter
       style="color-interpolation-filters:sRGB"
       id="filter6142"
       x="-0.0055307635"
       y="-0.0032115915"
       width="1.0110615"
       height="1.0084457">
      <feGaussianBlur
         stdDeviation="0.69764252"
         id="feGaussianBlur6144" />
    </filter>
    <linearGradient
       xlink:href="#linearGradient1467"
       id="linearGradient7113"
       gradientUnits="userSpaceOnUse"
       gradientTransform="translate(-844.32051,-151.71975)"
       x1="-586.44916"
       y1="75.508476"
       x2="-156.05099"
       y2="75.508476" />
    <linearGradient
       id="linearGradient1467">
      <stop
         style="stop-color:#ffeab1;stop-opacity:1;"
         offset="0"
         id="stop1441" />
      <stop
         style="stop-color:#ffd774;stop-opacity:1;"
         offset="0.05596975"
         id="stop1443" />
      <stop
         style="stop-color:#ffd394;stop-opacity:1;"
         offset="0.12240581"
         id="stop1445" />
      <stop
         style="stop-color:#ffc474;stop-opacity:1;"
         offset="0.18442476"
         id="stop1447" />
      <stop
         style="stop-color:#ffce8c;stop-opacity:1;"
         offset="0.25016946"
         id="stop1449" />
      <stop
         style="stop-color:#ffc474;stop-opacity:1;"
         offset="0.3166357"
         id="stop1451" />
      <stop
         style="stop-color:#ffc389;stop-opacity:1;"
         offset="0.38451442"
         id="stop1453" />
      <stop
         style="stop-color:#ffc674;stop-opacity:1;"
         offset="0.47559014"
         id="stop1455" />
      <stop
         style="stop-color:#ffc67a;stop-opacity:1;"
         offset="0.54782552"
         id="stop1457" />
      <stop
         style="stop-color:#ffc57d;stop-opacity:1;"
         offset="0.61341411"
         id="stop1459" />
      <stop
         style="stop-color:#ffcb7a;stop-opacity:1;"
         offset="0.68246663"
         id="stop1461" />
      <stop
         style="stop-color:#ffbf76;stop-opacity:1;"
         offset="0.73423874"
         id="stop1463" />
      <stop
         style="stop-color:#ffc66b;stop-opacity:1;"
         offset="0.82545269"
         id="stop1469" />
      <stop
         style="stop-color:#ffca84;stop-opacity:1;"
         offset="0.89189297"
         id="stop1471" />
      <stop
         style="stop-color:#ffba72;stop-opacity:1;"
         offset="0.94046402"
         id="stop1473" />
      <stop
         style="stop-color:#ffd889;stop-opacity:1;"
         offset="1"
         id="stop1465" />
    </linearGradient>
    <linearGradient
       xlink:href="#linearGradient6126"
       id="linearGradient7115"
       gradientUnits="userSpaceOnUse"
       gradientTransform="translate(-2.3265403e-4,-2.49e-4)"
       x1="-1215.5699"
       y1="167.93315"
       x2="-1215.5706"
       y2="-275.99411" />
    <linearGradient
       id="linearGradient6126">
      <stop
         style="stop-color:#f6cf8d;stop-opacity:1;"
         offset="0"
         id="stop6122" />
      <stop
         style="stop-color:#fafa9a;stop-opacity:1;"
         offset="0.60526317"
         id="stop6124" />
    </linearGradient>
    <filter
       style="color-interpolation-filters:sRGB"
       id="filter6136"
       x="-0.0021371403"
       y="-0.10037028"
       width="1.0042743"
       height="1.2007406">
      <feGaussianBlur
         stdDeviation="0.43934162"
         id="feGaussianBlur6134" />
    </filter>
    <filter
       style="color-interpolation-filters:sRGB"
       id="filter18126-8-46-1-8-03"
       x="-0.089540167"
       y="-0.096562824"
       width="1.1790803"
       height="1.1931256">
      <feGaussianBlur
         stdDeviation="0.39182262"
         id="feGaussianBlur18128-8-90-3-3-26" />
    </filter>
    <filter
       style="color-interpolation-filters:sRGB"
       id="filter18126-8-46-1-8-505"
       x="-0.10248451"
       y="-0.10408714"
       width="1.204969"
       height="1.2081743">
      <feGaussianBlur
         stdDeviation="0.39182262"
         id="feGaussianBlur18128-8-90-3-3-3" />
    </filter>
    <filter
       style="color-interpolation-filters:sRGB"
       id="filter18126-8-46-1-8-61"
       x="-0.071209953"
       y="-0.082299518"
       width="1.1424199"
       height="1.164599">
      <feGaussianBlur
         stdDeviation="0.39182262"
         id="feGaussianBlur18128-8-90-3-3-8" />
    </filter>
    <filter
       style="color-interpolation-filters:sRGB"
       id="filter18126-8-46-1-8-06"
       x="-0.064847831"
       y="-0.083548081"
       width="1.1296957"
       height="1.1670962">
      <feGaussianBlur
         stdDeviation="0.39182262"
         id="feGaussianBlur18128-8-90-3-3-59" />
    </filter>
    <filter
       style="color-interpolation-filters:sRGB"
       id="filter18126-8-46-1-8-2"
       x="-0.057603932"
       y="-0.049839746"
       width="1.1152079"
       height="1.0996795">
      <feGaussianBlur
         stdDeviation="0.39182262"
         id="feGaussianBlur18128-8-90-3-3-04" />
    </filter>
    <filter
       style="color-interpolation-filters:sRGB"
       id="filter18126-8-46-1-8-501"
       x="-0.049717782"
       y="-0.05376137"
       width="1.0994356"
       height="1.1075227">
      <feGaussianBlur
         stdDeviation="0.39182262"
         id="feGaussianBlur18128-8-90-3-3-15" />
    </filter>
    <filter
       style="color-interpolation-filters:sRGB"
       id="filter18126-8-46-1-8-060"
       x="-0.079403802"
       y="-0.082912596"
       width="1.1588076"
       height="1.1658252">
      <feGaussianBlur
         stdDeviation="0.39182262"
         id="feGaussianBlur18128-8-90-3-3-95" />
    </filter>
    <filter
       style="color-interpolation-filters:sRGB"
       id="filter18126-8-46-1-8-63"
       x="-0.065914779"
       y="-0.069766032"
       width="1.1318296"
       height="1.1395321">
      <feGaussianBlur
         stdDeviation="0.39182262"
         id="feGaussianBlur18128-8-90-3-3-47" />
    </filter>
    <filter
       style="color-interpolation-filters:sRGB"
       id="filter6180-6-6"
       x="-0.050649449"
       y="-0.04278178"
       width="1.1012989"
       height="1.0855636">
      <feGaussianBlur
         stdDeviation="9.0173096"
         id="feGaussianBlur6178-8-5" />
    </filter>
    <linearGradient
       xlink:href="#linearGradient10448"
       id="linearGradient11913"
       gradientUnits="userSpaceOnUse"
       gradientTransform="matrix(2.0051344,0,0,2.0051344,1293.7106,541.05366)"
       x1="-235.88268"
       y1="268.71558"
       x2="-230.28134"
       y2="286.10226" />
    <linearGradient
       id="linearGradient10448">
      <stop
         style="stop-color:#ecb857;stop-opacity:1;"
         offset="0.28728068"
         id="stop10446" />
      <stop
         style="stop-color:#efcb98;stop-opacity:1;"
         offset="0.5"
         id="stop10444" />
      <stop
         style="stop-color:#edaf69;stop-opacity:1;"
         offset="0.7390351"
         id="stop10442" />
    </linearGradient>
    <linearGradient
       xlink:href="#linearGradient10448"
       id="linearGradient11929"
       gradientUnits="userSpaceOnUse"
       gradientTransform="matrix(-2.0051344,0,0,2.0051344,26.288773,541.05366)"
       x1="-229.9034"
       y1="267.76929"
       x2="-224.2653"
       y2="285.22763" />
  </defs>
  <g
     id="layer1">
    <path
       style="opacity:0.808717;fill:#26282f;fill-opacity:1;stroke:none;stroke-width:1.257;filter:url(#filter6180-6-6)"
       d="m -2851.5897,23.075201 53.2379,49.879137 374.043,-441.477448 -30.9345,-23.00296 -133.1279,-41.37844 -150.623,43.31876 z"
       id="path5998"
       transform="matrix(-2.0051344,0,0,-2.0051344,-4498.9949,354.71675)" />
    <g
       id="g6383"
       transform="matrix(-2.0051344,0,0,-2.0051344,-4521.5806,416.25209)">
      <g
         id="g6367"
         transform="translate(-1368.5858)"
         style="mix-blend-mode:normal">
        <path
           id="path6353"
           style="fill:url(#linearGradient7113);fill-opacity:1;stroke:none;stroke-width:1.257"
           d="m -1215.5703,-355.92756 -153.9628,48.25044 -92.7268,473.09296 h 493.37889 l -92.72659,-473.09296 z" />
        <path
           id="path6355"
           style="opacity:0.353511;mix-blend-mode:overlay;fill:url(#linearGradient7115);fill-opacity:1;stroke:none;stroke-width:1.257"
           d="m -1215.5703,-355.92756 -153.9628,48.25044 -92.7268,473.09296 h 493.37889 l -92.72659,-473.09296 z" />
        <path
           style="opacity:0.264;mix-blend-mode:multiply;fill:#26282f;fill-opacity:1;stroke:none;stroke-width:1.257"
           d="m -1369.5331,-307.67712 c 0,0 8.8093,6.60699 8.8093,6.60699 0,0 145.1535,-46.67735 145.1535,-46.67735 0,0 0,-8.18008 0,-8.18008 0,0 -153.9628,48.25044 -153.9628,48.25044 z"
           id="path6357" />
        <path
           style="opacity:0.264;mix-blend-mode:multiply;fill:#26282f;fill-opacity:1;stroke:none;stroke-width:1.257"
           d="m -1369.5331,-307.67712 c 0,0 8.8093,6.60699 8.8093,6.60699 0,0 -90.479,455.98081 -90.479,455.98081 0,0 -11.0571,10.50516 -11.0571,10.50516 0,0 92.7268,-473.09296 92.7268,-473.09296 z"
           id="path6359" />
        <path
           id="path6361"
           style="opacity:0.198547;mix-blend-mode:normal;fill:#ffffff;fill-opacity:1;stroke:none;stroke-width:1.257;filter:url(#filter6136)"
           d="m -1451.2032,154.91054 -11.0567,10.5053 h 493.37889 l -11.0567,-10.5053 h -235.63279 z" />
        <path
           style="opacity:0.263923;mix-blend-mode:multiply;fill:#26282f;fill-opacity:1;stroke:none;stroke-width:1.257"
           d="m -1061.6076,-307.67712 c 0,0 -8.8093,6.60699 -8.8093,6.60699 0,0 90.47879,455.98081 90.47879,455.98081 0,0 11.0571,10.50516 11.0571,10.50516 0,0 -92.72659,-473.09296 -92.72659,-473.09296 z"
           id="path6363" />
        <path
           style="opacity:0.264;mix-blend-mode:multiply;fill:#26282f;fill-opacity:1;stroke:none;stroke-width:1.257"
           d="m -1061.6076,-307.67712 c 0,0 -8.8093,6.60699 -8.8093,6.60699 0,0 -145.1534,-46.67735 -145.1534,-46.67735 0,0 0,-8.18008 0,-8.18008 0,0 153.9627,48.25044 153.9627,48.25044 z"
           id="path6365" />
      </g>
      <g
         id="g72940"
         transform="matrix(0.74096644,0,0,0.74096644,-690.91609,-120.62222)">
        <path
           d="m -2681.039,62.262306 c -19.0616,-16.03945 -16.304,-21.6268 10.6862,-21.65149 15.0148,-0.0106 27.0769,-2.50601 34.7854,-7.18742 11.0005,-6.68064 11.7233,-8.61626 10.6644,-28.5643095 -0.6246,-11.7689301 -2.6958,-25.5015305 -4.6027,-30.5170205 -3.1603,-8.31235 -4.5502,-8.71016 -15.7115,-4.49722 -10.0709,3.8013 -14.1682,3.45444 -23.0819,-1.95398 -20.0858,-12.18741 -15.3455,-18.02519 20.9314,-25.77646 18.3794,-3.92715 23.1723,-16.13743 5.6357,-14.35825 -6.6673,0.6765 -14.358,-2.66034 -21.5991,-9.37126 -8.5984,-7.96868 -13.9238,-9.88604 -22.6247,-8.14589 -16.3949,3.27892 -14.247,-3.24517 8.2988,-25.205426 21.2047,-20.65376 48.2776,-59.97441 48.2776,-70.11764 0,-3.43325 -2.2034,-9.77074 -4.8965,-14.08315 -3.6946,-5.91595 -3.7663,-8.97103 -0.2927,-12.4449 3.4738,-3.47377 8.123,-2.4292 18.9382,4.25491 15.8793,9.814 23.992,21.76595 20.6629,30.44151 -1.4291,3.72398 2.4657,7.62405 11.2992,11.31501 12.9086,5.39356 21.2059,18.32846 16.5692,25.83074 -5.1537,8.33884 -18.8976,7.50136 -29.9839,-1.82706 -6.3056,-5.30581 -13.0038,-9.63455 -14.8848,-9.61947 -1.8814,0.0148 -7.7294,6.35416 -12.9959,14.08705 -5.2664,7.73289 -15.6723,19.413 -23.1242,25.95588 l -13.5488,11.896026 h 13.982 c 7.6902,0 23.3418,-3.689266 34.7819,-8.198516 41.0667,-16.18693 66.0359,-1.1433 27.8584,16.784406 -11.0125,5.1714 -19.4644,11.20128 -18.7823,13.39991 0.6824,2.1985 9.3248,3.48608 19.2053,2.86117 12.8293,-0.81131 19.5222,0.74064 23.4136,5.42932 4.6641,5.61975 4.4347,7.30706 -1.5902,11.71261 -6.6856,4.8886 -6.639,5.80486 0.9239,18.24133 9.9971,16.43916 6.5967,23.75643 -17.641,37.9607805 -19.7575,11.5787195 -24.9179,21.5606595 -6.1212,11.8404595 15.3094,-7.9168995 20.2063,-7.6983095 20.0947,0.89665 -0.11,8.54486 -81.2404,60.96052 -94.3553,60.96052 -4.8802,0 -14.4077,-4.65694 -21.1721,-10.34882 z m 94.2381,-81.79742 c 5.6867,-5.68652 1.8298,-23.77869 -5.0689,-23.77869 -3.6553,0 -5.5302,4.74354 -5.5302,13.99096 0,14.31521 3.1567,17.2302 10.5991,9.78773 z m 62.5051,89.5493 c -2.6652,-1.08114 -8.5054,-7.88774 -12.9787,-15.12569 -7.4553,-12.06293 -8.283,-21.37647 -9.9288,-111.7389 -1.674,-91.892436 -2.3525,-99.287256 -10.0064,-109.017596 -18.1382,-23.05902 -3.7113,-34.5019 19.1968,-15.22603 11.4227,9.61156 13.279,9.92298 36.6831,6.15384 13.5583,-2.18353 26.7203,-5.58937 29.2487,-7.56844 5.8326,-4.56568 30.6021,5.40674 30.5224,12.28856 -0.032,2.74187 -4.2783,22.03252 -9.4369,42.86804 l -9.3788,37.882616 13.472,4.6315 c 35.0263,12.0414 33.7474,26.45507 -3.9885,44.94681 l -27.3781,13.41615 15.386,12.32538 c 26.4936,21.2235105 49.364,47.49987 49.364,56.71554 0,12.27104 -13.2697,23.45239 -23.848,20.09499 -4.6372,-1.4718 -13.1288,-10.17837 -18.87,-19.34803 -5.7415,-9.16956 -13.6717,-20.83837 -17.6224,-25.93056 l -7.1835,-9.2584795 -8.211,16.0947195 c -4.516,8.85214 -8.2108,18.62204 -8.2108,21.71098 0,6.26944 -15.0539,26.85825 -19.278,26.36591 -1.4893,-0.17345 -4.8882,-1.20014 -7.5531,-2.28131 z m 28.5743,-65.0765995 c 7.5912,-8.38831 7.5468,-8.55911 -5.8258,-22.3559505 -7.4114,-7.64672 -14.9212,-13.9032 -16.6887,-13.9032 -3.7676,0 -4.4045,45.44527 -0.6889,49.16082 3.3427,3.34263 13.7283,-2.43196 23.2034,-12.9016695 z m 25.6542,-58.6719605 c 13.3135,-11.39589 15.8901,-15.56769 12.2919,-19.90299 -3.2555,-3.92273 -6.635,-4.37041 -11.8644,-1.57168 -4.0216,2.15241 -17.3242,3.91344 -29.5609,3.91344 -27.1674,0 -29.5428,7.09911 -7.2583,21.69231 8.2449,5.39917 16.0157,9.92244 17.2688,10.05177 1.2533,0.12924 9.8585,-6.25288 19.1229,-14.18285 z m -19.1398,-41.68633 c 4.2526,-2.27595 7.7321,-6.717676 7.7321,-9.870636 0,-4.38055 -4.4779,-5.38515 -18.9878,-4.25935 -15.6391,1.21334 -19.213,2.95412 -20.2651,9.870636 -1.0676,7.01757 0.782,8.39738 11.2556,8.39738 6.8932,0 16.0125,-1.8621 20.2652,-4.13803 z m 10.73,-42.005146 c 7.2839,-2.29565 6.2142,-17.81537 -1.2279,-17.81537 -3.4237,0 -14.2165,2.01232 -23.9845,4.4719 -13.385,3.3704 -17.7597,6.38477 -17.7597,12.2372 0,6.95555 1.9796,7.5002 18.9877,5.2232 10.4432,-1.39814 21.2363,-3.25074 23.9844,-4.11693 z m -177.2581,154.166216 c -10.3677,-4.17453 -24.0178,-31.26642 -18.5223,-36.762 2.4816,-2.48132 9.2705,-1.2625 19.0113,3.41311 18.7729,9.0111104 25.4889,18.6297505 19.5648,28.02125 -5.3473,8.47692 -9.4954,9.57896 -20.0538,5.32764 z"
           style="fill:#000000;stroke-width:3.99742"
           id="path6241" />
        <path
           style="fill:#ffffff;fill-opacity:1;stroke:none;stroke-width:0.626891;filter:url(#filter18126-8-46-1-8-03)"
           d="m -2546.4003,-170.34147 c 2.0403,2.96506 -0.2335,5.35413 -3.4107,3.58345 -3.1773,-1.77068 -7.2572,-7.70013 -6.1203,-8.89475 1.137,-1.19462 7.4908,2.34624 9.531,5.3113 z"
           id="path6245" />
        <path
           style="fill:#ffffff;fill-opacity:1;stroke:none;stroke-width:0.626891;filter:url(#filter18126-8-46-1-8-505)"
           d="m -2618.9878,-190.04324 c 1.3006,2.7432 -1.7128,4.83638 -4.5202,3.13966 -2.8074,-1.69672 -5.4082,-7.18245 -3.9013,-8.22911 1.5068,-1.04666 7.1209,2.34625 8.4215,5.08945 z"
           id="path6247" />
        <path
           style="fill:#ffffff;fill-opacity:1;stroke:none;stroke-width:0.626891;filter:url(#filter18126-8-46-1-8-61)"
           d="m -2653.4048,-87.477588 c 3.2964,1.08137 6.1303,5.38397 6.3365,8.064323 0.2062,2.680353 -2.2155,3.738029 -5.5119,2.656827 -3.2963,-1.081202 -7.4672,-4.301183 -7.6734,-6.981641 -0.2061,-2.680457 3.5525,-4.820879 6.8488,-3.739509 z"
           id="path6249" />
        <path
           style="fill:#ffffff;fill-opacity:1;stroke:none;stroke-width:0.626891;filter:url(#filter18126-8-46-1-8-06)"
           d="m -2663.6866,-43.102139 c 3.6209,0.95703 7.1946,4.668237 7.4007,7.348439 0.2061,2.680201 -2.9552,4.329582 -6.5761,3.372694 -3.6209,-0.956888 -7.7011,-4.519955 -7.9073,-7.200424 -0.2061,-2.680469 3.4618,-4.477738 7.0827,-3.520709 z"
           id="path6251" />
        <path
           style="fill:#ffffff;fill-opacity:1;stroke:none;stroke-width:0.626891;filter:url(#filter18126-8-46-1-8-2)"
           d="m -2528.243,44.20154 c 3.991,1.474764 9.7833,7.700377 10.7292,12.229843 0.9459,4.529466 -2.9551,7.362307 -6.946,5.887487 -3.9909,-1.47482 -8.0708,-7.256355 -9.0167,-11.786149 -0.9459,-4.529794 1.2425,-7.805944 5.2335,-6.331181 z"
           id="path6253" />
        <path
           style="fill:#ffffff;fill-opacity:1;stroke:none;stroke-width:0.626891;filter:url(#filter18126-8-46-1-8-501)"
           d="m -2447.2462,39.383828 c 4.2129,1.918628 12.0762,7.552577 14.3534,11.564268 2.2773,4.011692 -1.0319,6.400706 -5.2447,4.48208 -4.2129,-1.918625 -9.3282,-8.143901 -11.6056,-12.155909 -2.2774,-4.012009 -1.716,-5.809068 2.4969,-3.890439 z"
           id="path6255" />
        <path
           style="fill:#ffffff;fill-opacity:1;stroke:none;stroke-width:0.626891;filter:url(#filter18126-8-46-1-8-060)"
           d="m -2671.7853,52.63981 c 2.9552,1.031001 6.5289,4.742208 6.735,7.42241 0.2061,2.680202 -2.9552,4.329585 -5.9104,3.298725 -2.9552,-1.030859 -5.7041,-4.741891 -5.9103,-7.4223 -0.2062,-2.68041 2.1305,-4.329835 5.0857,-3.298835 z"
           id="path6257" />
        <path
           style="fill:#ffffff;fill-opacity:1;stroke:none;stroke-width:0.626891;filter:url(#filter18126-8-46-1-8-63)"
           d="m -2655.9745,-3.8052814 c 3.5471,1.178827 7.5647,5.925589 7.9927,9.1235105 0.4279,3.1979215 -2.7334,4.8473039 -6.2803,3.6685391 -3.5469,-1.178765 -7.4793,-5.1856774 -7.9073,-8.38394177 -0.4281,-3.19826443 2.6477,-5.58693483 6.1949,-4.40810783 z"
           id="path6259" />
      </g>
      <g
         id="g23255"
         transform="translate(2.8064459)">
        <rect
           style="mix-blend-mode:normal;fill:#000000;fill-opacity:1;stroke:#000000;stroke-width:0.386408"
           id="rect98398-4"
           width="5.9197216"
           height="71.171066"
           x="2584.0027"
           y="-38.75642"
           transform="scale(-1)" />
        <rect
           style="mix-blend-mode:normal;fill:#000000;fill-opacity:1;stroke:#000000;stroke-width:0.386408"
           id="rect14708"
           width="5.9197216"
           height="71.171066"
           x="1798.7574"
           y="-1856.6072"
           transform="rotate(-135)" />
        <rect
           style="mix-blend-mode:normal;fill:#000000;fill-opacity:1;stroke:#000000;stroke-width:0.386408"
           id="rect14712"
           width="5.9197216"
           height="71.171066"
           x="-1804.6772"
           y="1856.9937"
           transform="rotate(45)" />
        <rect
           style="mix-blend-mode:normal;fill:#000000;fill-opacity:1;stroke:#000000;stroke-width:0.386408"
           id="rect14716"
           width="5.9197216"
           height="71.171066"
           x="-1859.7604"
           y="-1801.5242"
           transform="rotate(-45)" />
        <rect
           style="mix-blend-mode:normal;fill:#000000;fill-opacity:1;stroke:#000000;stroke-width:0.386408"
           id="rect14720"
           width="5.9197216"
           height="71.171066"
           x="1853.8405"
           y="1801.9104"
           transform="rotate(135)" />
      </g>
    </g>
    <path
       id="path11909"
       style="mix-blend-mode:normal;fill:url(#linearGradient11913);fill-opacity:1;stroke:none;stroke-width:2.52045"
       d="m 659.99969,1170.5294 291.05241,-94.9566 17.6637,-42.3867 -308.71611,96.7486 z" />
    <path
       id="path11927"
       style="mix-blend-mode:normal;fill:url(#linearGradient11929);fill-opacity:1;stroke:none;stroke-width:2.52045"
       d="m 659.99969,1170.5294 -291.05218,-94.9566 -17.66373,-42.3867 308.71591,96.7486 z" />
    <path
       id="path11911"
       style="opacity:0.602906;mix-blend-mode:multiply;fill:#6d2435;fill-opacity:1;stroke:none;stroke-width:2.52045"
       d="m 351.28378,1033.1861 17.66363,42.3868 291.05238,94.0295 291.05231,-94.0296 17.6637,-42.3867 -308.71581,95.8216 z" />
  </g>
</svg>
