<?xml version="1.0" encoding="UTF-8" standalone="no"?>
<!-- Created with Inkscape (http://www.inkscape.org/) -->

<svg
   width="132mm"
   height="144mm"
   viewBox="0 0 1320 1440"
   version="1.1"
   id="svg23702"
   sodipodi:docname="GoteKnight.svg"
   inkscape:version="1.2 (dc2aedaf03, 2022-05-15)"
   xmlns:inkscape="http://www.inkscape.org/namespaces/inkscape"
   xmlns:sodipodi="http://sodipodi.sourceforge.net/DTD/sodipodi-0.dtd"
   xmlns:xlink="http://www.w3.org/1999/xlink"
   xmlns="http://www.w3.org/2000/svg"
   xmlns:svg="http://www.w3.org/2000/svg">
  <sodipodi:namedview
     id="namedview35118"
     pagecolor="#ffffff"
     bordercolor="#000000"
     borderopacity="0.25"
     inkscape:showpageshadow="2"
     inkscape:pageopacity="0.0"
     inkscape:pagecheckerboard="0"
     inkscape:deskcolor="#d1d1d1"
     inkscape:document-units="mm"
     showgrid="false"
     inkscape:zoom="0.86724537"
     inkscape:cx="143.55799"
     inkscape:cy="402.4236"
     inkscape:window-width="1680"
     inkscape:window-height="987"
     inkscape:window-x="-8"
     inkscape:window-y="-8"
     inkscape:window-maximized="1"
     inkscape:current-layer="g6351" />
  <defs
     id="defs23699">
    <filter
       style="color-interpolation-filters:sRGB"
       id="filter6180-4"
       x="-0.054380803"
       y="-0.041553513"
       width="1.1087616"
       height="1.083107">
      <feGaussianBlur
         stdDeviation="9.0173096"
         id="feGaussianBlur6178-9" />
    </filter>
    <filter
       style="color-interpolation-filters:sRGB"
       id="filter6142"
       x="-0.0044852349"
       y="-0.0019605367"
       width="1.0089705"
       height="1.0059758">
      <feGaussianBlur
         stdDeviation="0.419211"
         id="feGaussianBlur6144" />
    </filter>
    <linearGradient
       xlink:href="#linearGradient1467"
       id="linearGradient7121"
       gradientUnits="userSpaceOnUse"
       gradientTransform="translate(-844.32051,-151.71975)"
       x1="-586.44916"
       y1="75.508476"
       x2="-156.05099"
       y2="75.508476" />
    <linearGradient
       id="linearGradient1467">
      <stop
         style="stop-color:#ffeab1;stop-opacity:1;"
         offset="0"
         id="stop1441" />
      <stop
         style="stop-color:#ffd774;stop-opacity:1;"
         offset="0.05596975"
         id="stop1443" />
      <stop
         style="stop-color:#ffd394;stop-opacity:1;"
         offset="0.12240581"
         id="stop1445" />
      <stop
         style="stop-color:#ffc474;stop-opacity:1;"
         offset="0.18442476"
         id="stop1447" />
      <stop
         style="stop-color:#ffce8c;stop-opacity:1;"
         offset="0.25016946"
         id="stop1449" />
      <stop
         style="stop-color:#ffc474;stop-opacity:1;"
         offset="0.3166357"
         id="stop1451" />
      <stop
         style="stop-color:#ffc389;stop-opacity:1;"
         offset="0.38451442"
         id="stop1453" />
      <stop
         style="stop-color:#ffc674;stop-opacity:1;"
         offset="0.47559014"
         id="stop1455" />
      <stop
         style="stop-color:#ffc67a;stop-opacity:1;"
         offset="0.54782552"
         id="stop1457" />
      <stop
         style="stop-color:#ffc57d;stop-opacity:1;"
         offset="0.61341411"
         id="stop1459" />
      <stop
         style="stop-color:#ffcb7a;stop-opacity:1;"
         offset="0.68246663"
         id="stop1461" />
      <stop
         style="stop-color:#ffbf76;stop-opacity:1;"
         offset="0.73423874"
         id="stop1463" />
      <stop
         style="stop-color:#ffc66b;stop-opacity:1;"
         offset="0.82545269"
         id="stop1469" />
      <stop
         style="stop-color:#ffca84;stop-opacity:1;"
         offset="0.89189297"
         id="stop1471" />
      <stop
         style="stop-color:#ffba72;stop-opacity:1;"
         offset="0.94046402"
         id="stop1473" />
      <stop
         style="stop-color:#ffd889;stop-opacity:1;"
         offset="1"
         id="stop1465" />
    </linearGradient>
    <linearGradient
       xlink:href="#linearGradient6126"
       id="linearGradient7123"
       gradientUnits="userSpaceOnUse"
       gradientTransform="translate(-2.31e-4,-2.49e-4)"
       x1="-1215.5699"
       y1="167.93315"
       x2="-1215.5706"
       y2="-275.99411" />
    <linearGradient
       id="linearGradient6126">
      <stop
         style="stop-color:#f6cf8d;stop-opacity:1;"
         offset="0"
         id="stop6122" />
      <stop
         style="stop-color:#fafa9a;stop-opacity:1;"
         offset="0.60526317"
         id="stop6124" />
    </linearGradient>
    <filter
       style="color-interpolation-filters:sRGB"
       id="filter6136"
       x="-0.0022952005"
       y="-0.10037162"
       width="1.0045904"
       height="1.2007432">
      <feGaussianBlur
         stdDeviation="0.43934162"
         id="feGaussianBlur6134" />
    </filter>
    <filter
       style="color-interpolation-filters:sRGB"
       id="filter18126-8"
       x="-0.079403802"
       y="-0.082912626"
       width="1.1588076"
       height="1.1658253">
      <feGaussianBlur
         stdDeviation="0.39182262"
         id="feGaussianBlur18128-8" />
    </filter>
    <filter
       style="color-interpolation-filters:sRGB"
       id="filter18126-8-004"
       x="-0.079403802"
       y="-0.082912594"
       width="1.1588076"
       height="1.1658252">
      <feGaussianBlur
         stdDeviation="0.39182262"
         id="feGaussianBlur18128-8-33" />
    </filter>
    <filter
       style="color-interpolation-filters:sRGB"
       id="filter18126-8-9"
       x="-0.079403802"
       y="-0.082912596"
       width="1.1588076"
       height="1.1658252">
      <feGaussianBlur
         stdDeviation="0.39182262"
         id="feGaussianBlur18128-8-32" />
    </filter>
    <linearGradient
       inkscape:collect="always"
       xlink:href="#linearGradient10448"
       id="linearGradient11894"
       gradientUnits="userSpaceOnUse"
       gradientTransform="matrix(2.0051344,0,0,2.0051344,1293.7111,524.68331)"
       x1="-238.90201"
       y1="273.38602"
       x2="-234.34456"
       y2="291.56778" />
    <linearGradient
       id="linearGradient10448">
      <stop
         style="stop-color:#ecb857;stop-opacity:1;"
         offset="0.28728068"
         id="stop10446" />
      <stop
         style="stop-color:#efcb98;stop-opacity:1;"
         offset="0.5"
         id="stop10444" />
      <stop
         style="stop-color:#edaf69;stop-opacity:1;"
         offset="0.7390351"
         id="stop10442" />
    </linearGradient>
    <linearGradient
       inkscape:collect="always"
       xlink:href="#linearGradient10448"
       id="linearGradient11921"
       gradientUnits="userSpaceOnUse"
       gradientTransform="matrix(-2.0051344,0,0,2.0051344,26.289314,524.68331)"
       x1="-244.31099"
       y1="274.80936"
       x2="-239.59917"
       y2="293.00616" />
    <filter
       style="color-interpolation-filters:sRGB"
       id="filter6180-3"
       x="-0.053356228"
       y="-0.04397872"
       width="1.1067125"
       height="1.0879574">
      <feGaussianBlur
         stdDeviation="9.0173096"
         id="feGaussianBlur6178-0" />
    </filter>
  </defs>
  <g
     id="layer1">
    <path
       style="opacity:0.808717;fill:#26282f;fill-opacity:1;stroke:none;stroke-width:1.257;filter:url(#filter6180-3)"
       d="m -2827.0188,10.908487 53.619,64.807902 351.9858,-430.082409 -29.7194,-28.22301 -138.5532,-33.7858 -138.3617,36.02328 z"
       id="path5994"
       transform="matrix(-2.0051344,0,0,-2.0051344,-4478.1282,363.85183)"
       sodipodi:nodetypes="ccccccc" />
    <g
       id="g6351"
       transform="matrix(-2.0051344,0,0,-2.0051344,-4555.6443,415.08265)">
      <g
         id="g6335"
         transform="translate(-1385.5742)"
         style="mix-blend-mode:normal">
        <path
           id="path6321"
           style="fill:url(#linearGradient7121);fill-opacity:1;stroke:none;stroke-width:1.257"
           d="m -1215.5704,-348.34645 -149.8807,40.66933 -79.8202,472.50974 h 459.4021 l -79.8202,-472.50974 z" />
        <path
           id="path6323"
           style="opacity:0.353511;mix-blend-mode:overlay;fill:url(#linearGradient7123);fill-opacity:1;stroke:none;stroke-width:1.257"
           d="m -1215.5704,-348.34645 -149.8807,40.66933 -79.8202,472.50974 h 459.4021 l -79.8202,-472.50974 -149.8807,-40.66933 z" />
        <path
           style="opacity:0.264;mix-blend-mode:multiply;fill:#26282f;fill-opacity:1;stroke:none;stroke-width:1.257"
           d="m -1365.4511,-307.67712 c 0,0 8.8093,6.60699 8.8093,6.60699 0,0 141.0717,-39.09624 141.0717,-39.09624 0,0 0,-8.18008 0,-8.18008 0,0 -149.881,40.66933 -149.881,40.66933 z"
           id="path6325" />
        <path
           style="opacity:0.264;mix-blend-mode:multiply;fill:#26282f;fill-opacity:1;stroke:none;stroke-width:1.257"
           d="m -1365.4511,-307.67712 c 0,0 8.8093,6.60699 8.8093,6.60699 0,0 -77.5724,455.39759 -77.5724,455.39759 0,0 -11.0571,10.50516 -11.0571,10.50516 0,0 79.8202,-472.50974 79.8202,-472.50974 z"
           id="path6327" />
        <path
           id="path6329"
           style="opacity:0.198547;mix-blend-mode:normal;fill:#ffffff;fill-opacity:1;stroke:none;stroke-width:1.257;filter:url(#filter6136)"
           d="m -1434.2142,154.32746 -11.0571,10.50516 h 459.4021 l -11.0571,-10.50516 z" />
        <path
           style="opacity:0.264;mix-blend-mode:multiply;fill:#26282f;fill-opacity:1;stroke:none;stroke-width:1.257"
           d="m -1065.6894,-307.67712 c 0,0 -8.8093,6.60699 -8.8093,6.60699 0,0 77.5724,455.39759 77.5724,455.39759 0,0 11.0571,10.50516 11.0571,10.50516 0,0 -79.8202,-472.50974 -79.8202,-472.50974 z"
           id="path6331" />
        <path
           style="opacity:0.264;mix-blend-mode:multiply;fill:#26282f;fill-opacity:1;stroke:none;stroke-width:1.257"
           d="m -1065.6894,-307.67712 c 0,0 -8.8093,6.60699 -8.8093,6.60699 0,0 -141.0717,-39.09624 -141.0717,-39.09624 0,0 0,-8.18008 0,-8.18008 0,0 149.881,40.66933 149.881,40.66933 z"
           id="path6333" />
      </g>
      <g
         id="g76980"
         transform="matrix(0.83892737,0,0,0.83892737,-457.60482,-121.766)">
        <path
           d="m -2577.8408,48.662503 -13.2454,-8.988577 -8.1124,7.621036 c -11.0763,10.405638 -17.3454,6.973744 -33.7366,-18.468896 -7.652,-11.877716 -14.9457,-21.6102075 -16.208,-21.6278755 -1.2621,-0.01742 -4.3436,2.436601 -6.8477,5.4538095 -2.5041,3.017092 -7.3136,5.485739 -10.6878,5.485739 -16.134,0 -19.9252,-21.9353523 -6.6838,-38.670731 16.9803,-21.460812 57.1631,-83.421318 55.6688,-85.839298 -0.855,-1.38328 -8.8232,-0.85171 -17.7071,1.1812 -14.2595,3.26311 -17.4842,2.74812 -27.5142,-4.39392 -6.249,-4.44961 -11.3617,-11.26961 -11.3617,-15.15551 0,-6.33706 2.7516,-7.06534 26.6973,-7.06534 15.8883,0 28.474,-1.77675 31.0857,-4.3885 6.1126,-6.11258 5.4751,-23.13093 -1.3616,-36.35188 -7.778,-15.04076 -4.5408,-21.43129 10.8559,-21.43129 21.0844,0 36.7594,28.24782 22.323,40.22879 -3.0171,2.50397 -5.4857,5.99697 -5.4857,7.76215 0,4.49873 16.0165,4.01569 20.6551,-0.62289 2.6715,-2.67159 6.7487,-2.50348 13.4612,0.55495 10.9137,4.97259 16.1383,16.65729 10.1329,22.66264 -6.8273,6.82745 -4.4766,10.41019 6.0367,9.20054 9.7639,-1.12348 10.0565,-1.81584 10.0327,-23.74127 -0.019,-17.639 -1.821,-25.01373 -8.2287,-33.68066 -10.6246,-14.37067 -10.3711,-21.02728 0.9081,-23.85833 10.9407,-2.7459 30.3035,4.83412 39.9211,15.62802 6.1114,6.8588 6.4514,9.5801 2.7429,21.95775 -2.3282,7.77072 -4.233,18.63944 -4.233,24.15277 0,8.06915 1.2482,9.53244 6.4,7.50311 3.52,-1.38666 14.6286,-3.37844 24.6859,-4.42635 16.1892,-1.68671 19.2823,-0.83491 26.9769,7.42945 14.9364,16.04186 12.1791,17.70937 -49.8343,30.139799 -5.3184,1.06607 -8.2285,4.29877 -8.2285,9.14039 0,5.40749 1.7802,6.97193 6.4,5.62444 3.52,-1.02668 13.9215,-2.92591 23.1145,-4.2203 14.65,-2.0629 18.1509,-1.145 28.343,7.4311 22.1502,18.638183 15.1753,23.763072 -32.3406,23.763072 -32.946,0 -40.8532,3.13417 -32.6983,12.960284 2.9486,3.552919 11.5466,5.325528 25.8308,5.325528 19.0241,0 22.1053,1.060256 27.6434,9.51225 9.9297,15.1547377 3.092,21.5736317 -22.9814,21.5736317 -18.7657,0 -21.6166,0.934316 -22.5412,7.3867078 -0.9691,6.7643205 0.9335,7.3807275 22.5766,7.3143325 31.2155,-0.0956 44.3107,8.646072 44.3107,29.579553 0,12.811934 -1.0057,14.349633 -10.0647,15.391853 -6.0141,0.691879 -14.5443,-2.031726 -21.1949,-6.7673 -17.3385,-12.346083 -43.9934,-13.167675 -75.7291,-2.334115 l -26.5309,9.056829 z m 36.7513,-29.087538 c 3.1816,-1.220855 5.7847,-5.335184 5.7847,-9.142906 0,-5.2925335 -2.65,-6.9229653 -11.2527,-6.9229653 -7.631,0 -14.7897,-3.53701196 -22.2418,-10.989069 -12.7446,-12.7446677 -11.9972,-20.4878907 1.8514,-19.1824877 31.266,2.946942 29.75,3.304908 30.9718,-7.314332 1.104,-9.595153 0.432,-10.057812 -14.6286,-10.070855 -9.1201,-0.0097 -20.6588,-2.985065 -27.3261,-7.050453 -6.3471,-3.87017 -12.5185,-6.058258 -13.7143,-4.862482 -3.1285,3.128576 -2.5768,64.1606475 0.6247,69.103806 4.6467,7.174208 37.1015,11.354835 49.9309,6.431744 z m -75.439,-41.046143 c 0.5915,-16.640207 -0.4374,-29.877181 -2.3222,-29.877181 -4.5409,0 -13.0095,13.402391 -19.018,30.096938 -4.6007,12.7830807 -4.3611,14.2228217 3.8165,22.9274907 4.7992,5.1082858 10.4661,8.7122713 12.5934,8.0089008 0.3533,-0.1168136 0.706,-0.5731436 1.0516,-1.3275811 1.7842,-3.895392 3.3777,-15.7382516 3.8787,-29.8285674 z m 84.881,-49.692393 c 0,-0.84119 0.9987,-4.13267 2.2198,-7.31433 1.7043,-4.4416 -0.2063,-5.78801 -8.2287,-5.79854 -13.3046,-0.0174 -34.422,-12.76976 -36.9116,-22.290029 -2.1798,-8.33462 -11.2025,-7.95051 -16.6548,0.70907 -6.638,10.542119 -0.05,24.009259 14.7434,30.145289 12.3158,5.1079 44.8319,8.40693 44.8319,4.54854 z"
           style="fill:#000000;stroke-width:3.65717"
           id="path6088" />
        <path
           style="fill:#ffffff;fill-opacity:1;stroke:none;stroke-width:0.626891;filter:url(#filter18126-8)"
           d="m -2531.5085,-179.42884 c 2.9552,1.031 6.5289,4.74221 6.735,7.42241 0.2061,2.6802 -2.9552,4.32958 -5.9104,3.29872 -2.9552,-1.03086 -5.7041,-4.74189 -5.9103,-7.4223 -0.2062,-2.68041 2.1305,-4.32983 5.0857,-3.29883 z"
           id="path6092" />
        <path
           style="fill:#ffffff;fill-opacity:1;stroke:none;stroke-width:0.626891;filter:url(#filter18126-8)"
           d="m -2606.5568,-177.77943 c 2.9552,1.031 6.5289,4.74221 6.735,7.42241 0.2061,2.6802 -2.9552,4.32958 -5.9104,3.29872 -2.9552,-1.03086 -5.7041,-4.74189 -5.9103,-7.4223 -0.2062,-2.68041 2.1305,-4.32983 5.0857,-3.29883 z"
           id="path6094" />
        <path
           style="fill:#ffffff;fill-opacity:1;stroke:none;stroke-width:0.626891;filter:url(#filter18126-8)"
           d="m -2656.0391,-122.52414 c 2.9552,1.031 6.5289,4.74221 6.735,7.42241 0.2061,2.6802 -2.9552,4.32958 -5.9104,3.29872 -2.9552,-1.03086 -5.7041,-4.74189 -5.9103,-7.4223 -0.2062,-2.68041 2.1305,-4.32983 5.0857,-3.29883 z"
           id="path6096" />
        <path
           style="fill:#ffffff;fill-opacity:1;stroke:none;stroke-width:0.626891;filter:url(#filter18126-8-004)"
           d="m -2668.3844,-2.7855916 c 2.9552,1.0310007 6.5289,4.7422072 6.735,7.4224097 0.2061,2.6802024 -2.9552,4.329585 -5.9104,3.2987253 -2.9552,-1.0308598 -5.7041,-4.7418909 -5.9103,-7.42230051 -0.2062,-2.68040959 2.1305,-4.32983529 5.0857,-3.29883449 z"
           id="path6098" />
        <path
           style="fill:#ffffff;fill-opacity:1;stroke:none;stroke-width:0.626891;filter:url(#filter18126-8-9)"
           d="m -2613.9539,33.501468 c 2.9552,1.031001 6.5289,4.742208 6.735,7.42241 0.2061,2.680202 -2.9552,4.329585 -5.9104,3.298725 -2.9552,-1.030859 -5.7041,-4.741891 -5.9103,-7.4223 -0.2062,-2.68041 2.1305,-4.329835 5.0857,-3.298835 z"
           id="path6100" />
        <path
           style="fill:#ffffff;fill-opacity:1;stroke:none;stroke-width:0.626891;filter:url(#filter18126-8)"
           d="m -2553.7755,-103.55591 c 2.9552,1.031 6.5289,4.742206 6.735,7.422409 0.2061,2.680202 -2.9552,4.329585 -5.9104,3.298725 -2.9552,-1.03086 -5.7041,-4.741891 -5.9103,-7.422304 -0.2062,-2.68041 2.1305,-4.32983 5.0857,-3.29883 z"
           id="path6102" />
        <path
           style="fill:#ffffff;fill-opacity:1;stroke:none;stroke-width:0.626891;filter:url(#filter18126-8)"
           d="m -2557.0744,-13.662987 c 2.9552,1.031001 6.5289,4.7422078 6.735,7.4224102 0.2061,2.6802025 -2.9552,4.3295851 -5.9104,3.2987254 -2.9552,-1.0308598 -5.7041,-4.741891 -5.9103,-7.4223006 -0.2062,-2.68041 2.1305,-4.329835 5.0857,-3.298835 z"
           id="path6104" />
        <path
           style="fill:#ffffff;fill-opacity:1;stroke:none;stroke-width:0.626891;filter:url(#filter18126-8)"
           d="m -2571.9191,39.11818 c 2.9552,1.031001 6.5289,4.742208 6.735,7.42241 0.2061,2.680202 -2.9552,4.329585 -5.9104,3.298725 -2.9552,-1.030859 -5.7041,-4.741891 -5.9103,-7.4223 -0.2062,-2.68041 2.1305,-4.329835 5.0857,-3.298835 z"
           id="path6106" />
      </g>
      <g
         id="g3613"
         transform="translate(-18.496024,-25.733919)">
        <path
           style="mix-blend-mode:normal;fill:#000000;fill-opacity:1;stroke:none;stroke-width:0.522267;filter:"
           d="m -2582.6484,135.28779 c 8.5026,-42.887781 17.0049,-85.774637 27.6844,-110.389788 10.6794,-24.6151522 23.535,-30.9564627 36.3908,-37.297916 -8.5728,6.7598733 -17.1454,13.5195982 -27.8248,38.13475 -10.6795,24.615153 -23.4648,67.083593 -36.2504,109.552954 z"
           id="path2012" />
        <path
           style="mix-blend-mode:normal;fill:#000000;fill-opacity:1;stroke:none;stroke-width:0.522267;"
           d="m -2582.6484,135.28779 c -8.5026,-42.887781 -17.0049,-85.774637 -27.6844,-110.389788 -10.6794,-24.6151522 -23.535,-30.9564627 -36.3908,-37.297916 8.5728,6.7598733 17.1454,13.5195982 27.8248,38.13475 10.6795,24.615153 23.4648,67.083593 36.2504,109.552954 z"
           id="path2667" />
      </g>
    </g>
    <path
       id="path11892"
       style="mix-blend-mode:normal;fill:url(#linearGradient11894);fill-opacity:1;stroke:none;stroke-width:2.52045"
       d="m 660.00022,1154.1588 282.86715,-79.7555 17.6638,-42.3867 -300.53095,81.5475 z"
       sodipodi:nodetypes="ccccc" />
    <path
       id="path11919"
       style="mix-blend-mode:normal;fill:url(#linearGradient11921);fill-opacity:1;stroke:none;stroke-width:2.52045"
       d="m 660.00022,1154.1588 -282.86782,-79.7555 -17.66373,-42.3867 300.53155,81.5475 z"
       sodipodi:nodetypes="ccccc" />
    <path
       id="path7385"
       style="opacity:0.602906;mix-blend-mode:multiply;fill:#6d2435;fill-opacity:1;stroke:none;stroke-width:2.52045"
       d="m 359.46867,1032.0166 17.66363,42.3867 282.86772,79.7555 282.86745,-79.7555 17.6637,-42.3867 -300.53095,81.5475 z"
       sodipodi:nodetypes="ccccccc" />
  </g>
</svg>
