<?xml version="1.0" encoding="UTF-8" standalone="no"?>
<!-- Created with Inkscape (http://www.inkscape.org/) -->

<svg
   width="132mm"
   height="144mm"
   viewBox="0 0 1320 1440"
   version="1.1"
   id="svg23702"
   xmlns:xlink="http://www.w3.org/1999/xlink"
   xmlns="http://www.w3.org/2000/svg"
   xmlns:svg="http://www.w3.org/2000/svg">
  <defs
     id="defs23699">
    <filter
       style="color-interpolation-filters:sRGB"
       id="filter6180-0"
       x="-0.058340577"
       y="-0.04429485"
       width="1.1166812"
       height="1.0885897">
      <feGaussianBlur
         stdDeviation="9.0173096"
         id="feGaussianBlur6178-87" />
    </filter>
    <filter
       style="color-interpolation-filters:sRGB"
       id="filter6142"
       x="-0.0057869653"
       y="-0.0029418704"
       width="1.0115739"
       height="1.0080432">
      <feGaussianBlur
         stdDeviation="0.59853361"
         id="feGaussianBlur6144" />
    </filter>
    <linearGradient
       xlink:href="#linearGradient1467"
       id="linearGradient7129"
       gradientUnits="userSpaceOnUse"
       gradientTransform="translate(-844.32051,-151.71975)"
       x1="-586.44916"
       y1="75.508476"
       x2="-156.05099"
       y2="75.508476" />
    <linearGradient
       id="linearGradient1467">
      <stop
         style="stop-color:#ffeab1;stop-opacity:1;"
         offset="0"
         id="stop1441" />
      <stop
         style="stop-color:#ffd774;stop-opacity:1;"
         offset="0.05596975"
         id="stop1443" />
      <stop
         style="stop-color:#ffd394;stop-opacity:1;"
         offset="0.12240581"
         id="stop1445" />
      <stop
         style="stop-color:#ffc474;stop-opacity:1;"
         offset="0.18442476"
         id="stop1447" />
      <stop
         style="stop-color:#ffce8c;stop-opacity:1;"
         offset="0.25016946"
         id="stop1449" />
      <stop
         style="stop-color:#ffc474;stop-opacity:1;"
         offset="0.3166357"
         id="stop1451" />
      <stop
         style="stop-color:#ffc389;stop-opacity:1;"
         offset="0.38451442"
         id="stop1453" />
      <stop
         style="stop-color:#ffc674;stop-opacity:1;"
         offset="0.47559014"
         id="stop1455" />
      <stop
         style="stop-color:#ffc67a;stop-opacity:1;"
         offset="0.54782552"
         id="stop1457" />
      <stop
         style="stop-color:#ffc57d;stop-opacity:1;"
         offset="0.61341411"
         id="stop1459" />
      <stop
         style="stop-color:#ffcb7a;stop-opacity:1;"
         offset="0.68246663"
         id="stop1461" />
      <stop
         style="stop-color:#ffbf76;stop-opacity:1;"
         offset="0.73423874"
         id="stop1463" />
      <stop
         style="stop-color:#ffc66b;stop-opacity:1;"
         offset="0.82545269"
         id="stop1469" />
      <stop
         style="stop-color:#ffca84;stop-opacity:1;"
         offset="0.89189297"
         id="stop1471" />
      <stop
         style="stop-color:#ffba72;stop-opacity:1;"
         offset="0.94046402"
         id="stop1473" />
      <stop
         style="stop-color:#ffd889;stop-opacity:1;"
         offset="1"
         id="stop1465" />
    </linearGradient>
    <linearGradient
       xlink:href="#linearGradient6126"
       id="linearGradient7131"
       gradientUnits="userSpaceOnUse"
       gradientTransform="translate(-2.31e-4,-2.49e-4)"
       x1="-1215.5699"
       y1="167.93315"
       x2="-1215.5706"
       y2="-275.99411" />
    <linearGradient
       id="linearGradient6126">
      <stop
         style="stop-color:#f6cf8d;stop-opacity:1;"
         offset="0"
         id="stop6122" />
      <stop
         style="stop-color:#fafa9a;stop-opacity:1;"
         offset="0.60526317"
         id="stop6124" />
    </linearGradient>
    <filter
       style="color-interpolation-filters:sRGB"
       id="filter6136"
       x="-0.0024498718"
       y="-0.080969335"
       width="1.0048997"
       height="1.1619387">
      <feGaussianBlur
         stdDeviation="0.43934162"
         id="feGaussianBlur6134" />
    </filter>
    <filter
       style="color-interpolation-filters:sRGB"
       id="filter6142-8"
       x="-0.036501435"
       y="-0.030016295"
       width="1.0730029"
       height="1.0600327">
      <feGaussianBlur
         stdDeviation="0.59853361"
         id="feGaussianBlur6144-4" />
    </filter>
    <filter
       style="color-interpolation-filters:sRGB"
       id="filter18126-9"
       x="-0.04712613"
       y="-0.055017032"
       width="1.0942523"
       height="1.1100341">
      <feGaussianBlur
         stdDeviation="0.39182262"
         id="feGaussianBlur18128-6" />
    </filter>
    <filter
       style="color-interpolation-filters:sRGB"
       id="filter18126-3"
       x="-0.1110025"
       y="-0.10466116"
       width="1.222005"
       height="1.2093223">
      <feGaussianBlur
         stdDeviation="0.39182262"
         id="feGaussianBlur18128-83" />
    </filter>
    <filter
       style="color-interpolation-filters:sRGB"
       id="filter18126-92"
       x="-0.079870289"
       y="-0.087065797"
       width="1.1597406"
       height="1.1741316">
      <feGaussianBlur
         stdDeviation="0.39182262"
         id="feGaussianBlur18128-80" />
    </filter>
    <filter
       style="color-interpolation-filters:sRGB"
       id="filter18126-11"
       x="-0.075996496"
       y="-0.070478858"
       width="1.151993"
       height="1.1409577">
      <feGaussianBlur
         stdDeviation="0.39182262"
         id="feGaussianBlur18128-4" />
    </filter>
    <filter
       style="color-interpolation-filters:sRGB"
       id="filter18126-15"
       x="-0.054404385"
       y="-0.065729008"
       width="1.1088088"
       height="1.131458">
      <feGaussianBlur
         stdDeviation="0.39182262"
         id="feGaussianBlur18128-5" />
    </filter>
  </defs>
  <path
     style="mix-blend-mode:normal;filter:url(#filter6180-0);opacity:0.808717;fill:#26282f;fill-opacity:1;stroke:none;stroke-width:1.257"
     d="m -2828.6301,45.771679 c 0,0 35.464,31.04388 35.464,31.04388 0,0 335.4878,-436.322559 335.4878,-436.322559 0,0 -20.269,-17.77002 -20.269,-17.77002 0,0 -131.1157,-34.48661 -131.1157,-34.48661 0,0 -145.1114,41.32355 -145.1114,41.32355 0,0 -74.4557,416.211759 -74.4557,416.211759 z"
     id="path6004"
     transform="matrix(-2.0051344,0,0,-2.0051344,-4555.6438,414.03723)" />
  <g
     id="layer1">
    <g
       id="g6309"
       transform="matrix(-2.0051344,0,0,-2.0051344,-1777.3822,568.24338)"
       style="mix-blend-mode:normal;filter:url(#filter6142)">
      <path
         id="path6295"
         style="fill:url(#linearGradient7129);fill-opacity:1;stroke:none;stroke-width:1.257"
         d="m -1215.5702,-320.35512 -143.4662,37.75377 -71.7331,448.01709 215.1993,2.51716 215.1987,-2.51716 -71.7331,-448.01709 z" />
      <path
         id="path6297"
         style="opacity:0.353511;mix-blend-mode:overlay;fill:url(#linearGradient7131);fill-opacity:1;stroke:none;stroke-width:1.257"
         d="m -1215.5702,-320.35512 -143.4662,37.75377 -71.7331,448.01709 215.1993,2.51716 215.1987,-2.51716 -71.7331,-448.01709 z" />
      <path
         style="opacity:0.264;mix-blend-mode:multiply;fill:#26282f;fill-opacity:1;stroke:none;stroke-width:1.257"
         d="m -1359.0366,-282.6011 c 0,0 8.8093,6.60699 8.8093,6.60699 0,0 134.6568,-36.18115 134.6568,-36.18115 0,0 0,-8.18008 0,-8.18008 0,0 -143.4661,37.75424 -143.4661,37.75424 z"
         id="path6299" />
      <path
         style="opacity:0.264;mix-blend-mode:multiply;fill:#26282f;fill-opacity:1;stroke:none;stroke-width:1.257"
         d="m -1359.0366,-282.6011 c 0,0 8.8093,6.60699 8.8093,6.60699 0,0 -69.4853,430.90479 -69.4853,430.90479 0,0 -11.0571,10.50516 -11.0571,10.50516 0,0 71.7331,-448.01694 71.7331,-448.01694 z"
         id="path6301" />
      <path
         id="path6303"
         style="opacity:0.198547;mix-blend-mode:normal;fill:#ffffff;fill-opacity:1;stroke:none;stroke-width:1.257;filter:url(#filter6136)"
         d="m -1419.7128,154.91044 -11.0567,10.5053 215.1993,2.51716 215.1987,-2.51716 -11.0567,-10.5053 -204.142,1.0666 z" />
      <path
         style="opacity:0.263923;mix-blend-mode:multiply;fill:#26282f;fill-opacity:1;stroke:none;stroke-width:1.257"
         d="m -1072.1044,-282.6011 c 0,0 -8.8093,6.60699 -8.8093,6.60699 0,0 69.4853,430.90479 69.4853,430.90479 0,0 11.0571,10.50516 11.0571,10.50516 0,0 -71.7331,-448.01694 -71.7331,-448.01694 z"
         id="path6305" />
      <path
         style="opacity:0.264;mix-blend-mode:multiply;fill:#26282f;fill-opacity:1;stroke:none;stroke-width:1.257"
         d="m -1072.1044,-282.6011 c 0,0 -8.8093,6.60699 -8.8093,6.60699 0,0 -134.6568,-36.18115 -134.6568,-36.18115 0,0 0,-8.18008 0,-8.18008 0,0 143.4661,37.75424 143.4661,37.75424 z"
         id="path6307" />
    </g>
    <g
       id="g85457"
       style="mix-blend-mode:normal;filter:url(#filter6142-8)"
       transform="matrix(-1.4945325,0,0,-1.4945325,-1156.7096,759.34687)">
      <path
         d="m -1304.6799,51.382797 c -6.5887,-5.001553 -8.544,-18.366438 -3.1726,-21.686057 1.7185,-1.06213 4.2278,-11.683046 5.5763,-23.6020675 1.3485,-11.9191172 3.8744,-21.6710535 5.6134,-21.6710535 1.7388,0 5.1702,8.9745922 7.6249,19.9434424 5.2433,23.4293356 2.8815,23.6610386 47.5668,-4.66662784 32.6703,-20.71110056 63.6354,-48.11423356 63.6354,-56.31546456 0,-2.467458 -3.7794,-8.036681 -8.3983,-12.376077 l -8.3983,-7.889857 -4.5708,15.359046 c -10.7138,36.001024 -17.5649,40.117262 -34.0881,20.480542 -11.6395,-13.832469 -11.7244,-17.715953 -0.3886,-17.715953 10.6838,0 15.1423,-12.324419 10.0337,-27.733314 -3.6912,-11.133513 -14.2861,-14.604496 -25.7887,-8.448513 -6.7912,3.634601 -6.8735,4.419634 -1.4509,13.86798 5.5908,9.741307 5.3796,10.528149 -7.718,28.759079 -14.2891,19.889403 -18.1477,21.714347 -29.0532,13.740255 -7.6399,-5.586511 -5.3857,-13.10612 9.449,-31.521175 10.1747,-12.630367 6.3164,-18.032658 -10.9111,-15.277856 -11.7388,1.87708 -15.3865,0.675168 -25.5726,-8.426007 -8.1679,-7.298169 -11.1474,-12.526389 -9.5341,-16.730479 1.8523,-4.8272 3.8236,-5.32451 9.3603,-2.36146 7.6708,4.10531 32.3315,5.04067 41.3774,1.5694 7.1905,-2.75926 7.4274,-19.33474 0.4088,-28.61416 -12.9518,-17.12369 -2.1202,-28.04116 18.2047,-18.34896 11.5812,5.5227 12.2674,6.87292 12.2674,24.13927 0,17.82905 0.2483,18.26065 9.8957,17.15065 l 9.8955,-1.13866 1.0274,-32.73866 c 0.8146,-25.95472 -0.118,-33.68893 -4.498,-37.32439 -7.1011,-5.89351 -7.1237,-17.71064 -0.04,-20.42946 3.0176,-1.15802 11.9236,2.15437 19.7912,7.36085 12.6128,8.34681 14.3044,11.12687 14.3044,23.509 0,16.51994 2.6532,17.92489 25.1491,13.31665 19.073,-3.90704 28.8272,-1.60815 28.8272,6.79412 0,7.99014 -23.2526,16.81231 -40.9453,15.5349 -14.0626,-1.0154 -14.8302,-0.55503 -14.8302,8.8956 v 9.96635 l 32.3858,0.79434 c 38.7516,0.95046 56.8103,8.85248 55.0313,24.080015 -1.3361,11.431768 -59.4516,-1.193838 -74.1664,-2.437735 l -26.7534,-2.26148 5.896,8.998341 c 4.2944,6.55424 11.5038,10.233569 26.5426,13.545981 35.4344,7.804859 40.9591,10.778631 39.7277,21.384828 -0.8018,6.908171 -3.4599,9.698485 -10.085,10.586262 -8.6651,1.161184 -28.7874,17.02085 -28.7874,22.689027 0,1.51623 7,5.853252 15.5556,9.637794 20.173,8.9232182 28.537,25.6890091 18.4031,36.886998 -10.0368,11.090399 -19.8923,7.13151 -33.892,-13.6141569 -6.9636,-10.3187519 -13.562,-18.8200621 -14.6631,-18.8916631 -1.1012,-0.07121 -14.4383,9.1807504 -29.6384,20.5606837 -68.167,51.0354943 -72.4167,53.1388623 -86.2077,42.6698823 z"
         style="fill:#000000;stroke-width:3.59842"
         id="path7233" />
      <path
         style="fill:#ffffff;fill-opacity:1;stroke:none;stroke-width:0.626891;filter:url(#filter18126-9)"
         d="m -1308.2215,-103.9265 c 4.7155,2.30232 11.8099,7.056606 13.6134,10.731199 1.8036,3.674592 -1.6835,6.269194 -6.3993,3.966926 -4.7157,-2.302269 -10.6591,-9.501071 -12.4627,-13.175835 -1.8036,-3.67477 0.5331,-3.8246 5.2486,-1.52229 z"
         id="path7235" />
      <path
         style="fill:#ffffff;fill-opacity:1;stroke:none;stroke-width:0.626891;filter:url(#filter18126-3)"
         d="m -1284.0093,-47.566841 c 2.1076,0.672375 4.5078,2.883978 4.7465,5.042642 0.2386,2.158665 -1.6838,4.26429 -3.7915,3.592064 -2.1076,-0.672226 -4.4001,-4.122318 -4.6389,-6.281202 -0.2388,-2.158885 1.5762,-3.02588 3.6839,-2.353504 z"
         id="path7237" />
      <path
         style="fill:#ffffff;fill-opacity:1;stroke:none;stroke-width:0.626891;filter:url(#filter18126-92)"
         d="m -1223.2147,-194.44729 c 2.727,1.16135 7.0831,4.48131 8.2998,6.96597 1.2167,2.48466 -0.7057,4.13398 -3.4328,2.97274 -2.727,-1.16123 -6.2582,-5.13293 -7.4751,-7.61778 -1.2169,-2.48485 -0.119,-3.48227 2.6081,-2.32093 z"
         id="path7239" />
      <path
         style="fill:#ffffff;fill-opacity:1;stroke:none;stroke-width:0.626891;filter:url(#filter18126-11)"
         d="m -1300.3756,35.56363 c 3.0935,1.492003 6.2524,5.940895 6.251,8.989903 -0,3.049007 -3.1627,4.698392 -6.2562,3.206486 -3.0935,-1.491906 -6.119,-6.124786 -6.1177,-9.174091 0,-3.049305 3.0294,-4.514301 6.1229,-3.022298 z"
         id="path7243" />
      <path
         style="fill:#ffffff;fill-opacity:1;stroke:none;stroke-width:0.626891;filter:url(#filter18126-15)"
         d="m -1268.3544,-148.74531 c 3.6007,0.91565 10.0327,3.75083 12.6132,7.21496 2.5804,3.46412 1.3093,7.55669 -2.2914,6.64106 -3.6007,-0.91562 -9.5304,-6.83929 -12.1111,-10.3035 -2.5806,-3.46421 -1.8114,-4.46818 1.7893,-3.55252 z"
         id="path7245" />
      <path
         style="fill:#ffffff;fill-opacity:1;stroke:none;stroke-width:0.626891;filter:url(#filter18126-92)"
         d="m -1229.1306,-48.215114 c 2.727,1.161343 7.0831,4.481311 8.2998,6.965968 1.2167,2.484657 -0.7057,4.133983 -3.4328,2.972744 -2.727,-1.161239 -6.2582,-5.132931 -7.4751,-7.617784 -1.2169,-2.484854 -0.119,-3.482271 2.6081,-2.320928 z"
         id="path15243" />
    </g>
    <g
       id="g98410"
       transform="matrix(-2.0051344,0,0,-2.0051344,-4373.059,623.63623)">
      <rect
         style="opacity:1;fill:#000000;fill-opacity:1;stroke:#000000;stroke-width:0.626891"
         id="rect98398"
         width="9.6038866"
         height="115.46469"
         x="-2514.7405"
         y="12.474094" />
    </g>
  </g>
</svg>
