<?xml version="1.0" encoding="UTF-8" standalone="no"?>
<!-- Created with Inkscape (http://www.inkscape.org/) -->

<svg
   width="132mm"
   height="144mm"
   viewBox="0 0 1320 1440"
   version="1.1"
   id="svg23702"
   xmlns:xlink="http://www.w3.org/1999/xlink"
   xmlns="http://www.w3.org/2000/svg"
   xmlns:svg="http://www.w3.org/2000/svg">
  <defs
     id="defs23699">
    <filter
       style="color-interpolation-filters:sRGB"
       id="filter6142"
       x="-0.0327549"
       y="-0.032591777"
       width="1.080086"
       height="1.0716641">
      <feGaussianBlur
         stdDeviation="0.59853361"
         id="feGaussianBlur6144" />
    </filter>
    <filter
       style="color-interpolation-filters:sRGB"
       id="filter6180"
       x="-0.045044617"
       y="-0.04097344"
       width="1.0900892"
       height="1.0819469">
      <feGaussianBlur
         stdDeviation="9.0173096"
         id="feGaussianBlur6178" />
    </filter>
    <filter
       style="color-interpolation-filters:sRGB"
       id="filter6142-3"
       x="-0.007061622"
       y="-0.0025810452"
       width="1.0141232"
       height="1.00841">
      <feGaussianBlur
         stdDeviation="0.59853361"
         id="feGaussianBlur6144-4" />
    </filter>
    <linearGradient
       xlink:href="#linearGradient1467"
       id="linearGradient8611"
       gradientUnits="userSpaceOnUse"
       gradientTransform="translate(-844.32051,-151.71975)"
       x1="-586.44916"
       y1="75.508476"
       x2="-156.05099"
       y2="75.508476" />
    <linearGradient
       id="linearGradient1467">
      <stop
         style="stop-color:#ffeab1;stop-opacity:1;"
         offset="0"
         id="stop1441" />
      <stop
         style="stop-color:#ffd774;stop-opacity:1;"
         offset="0.05596975"
         id="stop1443" />
      <stop
         style="stop-color:#ffd394;stop-opacity:1;"
         offset="0.12240581"
         id="stop1445" />
      <stop
         style="stop-color:#ffc474;stop-opacity:1;"
         offset="0.18442476"
         id="stop1447" />
      <stop
         style="stop-color:#ffce8c;stop-opacity:1;"
         offset="0.25016946"
         id="stop1449" />
      <stop
         style="stop-color:#ffc474;stop-opacity:1;"
         offset="0.3166357"
         id="stop1451" />
      <stop
         style="stop-color:#ffc389;stop-opacity:1;"
         offset="0.38451442"
         id="stop1453" />
      <stop
         style="stop-color:#ffc674;stop-opacity:1;"
         offset="0.47559014"
         id="stop1455" />
      <stop
         style="stop-color:#ffc67a;stop-opacity:1;"
         offset="0.54782552"
         id="stop1457" />
      <stop
         style="stop-color:#ffc57d;stop-opacity:1;"
         offset="0.61341411"
         id="stop1459" />
      <stop
         style="stop-color:#ffcb7a;stop-opacity:1;"
         offset="0.68246663"
         id="stop1461" />
      <stop
         style="stop-color:#ffbf76;stop-opacity:1;"
         offset="0.73423874"
         id="stop1463" />
      <stop
         style="stop-color:#ffc66b;stop-opacity:1;"
         offset="0.82545269"
         id="stop1469" />
      <stop
         style="stop-color:#ffca84;stop-opacity:1;"
         offset="0.89189297"
         id="stop1471" />
      <stop
         style="stop-color:#ffba72;stop-opacity:1;"
         offset="0.94046402"
         id="stop1473" />
      <stop
         style="stop-color:#ffd889;stop-opacity:1;"
         offset="1"
         id="stop1465" />
    </linearGradient>
    <linearGradient
       xlink:href="#linearGradient6126"
       id="linearGradient8613"
       gradientUnits="userSpaceOnUse"
       gradientTransform="translate(-2.31e-4,-2.49e-4)"
       x1="-1215.5699"
       y1="167.93315"
       x2="-1215.5706"
       y2="-275.99411" />
    <linearGradient
       id="linearGradient6126">
      <stop
         style="stop-color:#f6cf8d;stop-opacity:1;"
         offset="0"
         id="stop6122" />
      <stop
         style="stop-color:#fafa9a;stop-opacity:1;"
         offset="0.60526317"
         id="stop6124" />
    </linearGradient>
    <linearGradient
       xlink:href="#linearGradient10448"
       id="linearGradient8615"
       gradientUnits="userSpaceOnUse"
       gradientTransform="translate(-844.32051,-151.71975)"
       x1="-371.25"
       y1="319.65253"
       x2="-371.25"
       y2="358.62" />
    <linearGradient
       id="linearGradient10448">
      <stop
         style="stop-color:#ecb857;stop-opacity:1;"
         offset="0.28728068"
         id="stop10446" />
      <stop
         style="stop-color:#efcb98;stop-opacity:1;"
         offset="0.5"
         id="stop10444" />
      <stop
         style="stop-color:#edaf69;stop-opacity:1;"
         offset="0.7390351"
         id="stop10442" />
    </linearGradient>
    <filter
       style="color-interpolation-filters:sRGB"
       id="filter1412"
       x="-0.0030387001"
       y="-0.033184482"
       width="1.0060774"
       height="1.066369">
      <feGaussianBlur
         stdDeviation="0.58166051"
         id="feGaussianBlur1414" />
    </filter>
    <filter
       style="color-interpolation-filters:sRGB"
       id="filter1479"
       x="-0.0039347735"
       y="-0.041678683"
       width="1.0078695"
       height="1.0833574">
      <feGaussianBlur
         stdDeviation="0.75318466"
         id="feGaussianBlur1481" />
    </filter>
    <linearGradient
       xlink:href="#linearGradient6120"
       id="linearGradient8617"
       gradientUnits="userSpaceOnUse"
       gradientTransform="translate(4e-4,-27.99111)"
       x1="-1287.3033"
       y1="-301.47824"
       x2="-1285.3059"
       y2="-294.02359" />
    <linearGradient
       id="linearGradient6120">
      <stop
         style="stop-color:#ffffff;stop-opacity:1;"
         offset="0"
         id="stop6116" />
      <stop
         style="stop-color:#ffffff;stop-opacity:0.78947371;"
         offset="1"
         id="stop6118" />
    </linearGradient>
    <linearGradient
       xlink:href="#linearGradient6192"
       id="linearGradient8619"
       gradientUnits="userSpaceOnUse"
       gradientTransform="translate(-6.4145,-25.07602)"
       x1="-1394.903"
       y1="-58.592804"
       x2="-1385.5217"
       y2="-57.119999" />
    <linearGradient
       id="linearGradient6192">
      <stop
         style="stop-color:#ffffff;stop-opacity:1;"
         offset="0.64473683"
         id="stop6188" />
      <stop
         style="stop-color:#ffffff;stop-opacity:0;"
         offset="1"
         id="stop6190" />
    </linearGradient>
    <filter
       style="color-interpolation-filters:sRGB"
       id="filter6136"
       x="-0.0022952005"
       y="-0.077499877"
       width="1.0045904"
       height="1.1549998">
      <feGaussianBlur
         stdDeviation="0.43934162"
         id="feGaussianBlur6134" />
    </filter>
    <linearGradient
       xlink:href="#linearGradient6152"
       id="linearGradient8621"
       gradientUnits="userSpaceOnUse"
       gradientTransform="translate(1.8438611e-5,1.303516)"
       x1="-1432.5771"
       y1="186.15788"
       x2="-998.56384"
       y2="186.15788" />
    <linearGradient
       id="linearGradient6152">
      <stop
         style="stop-color:#c14360;stop-opacity:1;"
         offset="0"
         id="stop6148" />
      <stop
         style="stop-color:#4f1a26;stop-opacity:1;"
         offset="0.05921053"
         id="stop6156" />
      <stop
         style="stop-color:#c54d69;stop-opacity:1;"
         offset="0.18201755"
         id="stop6158" />
      <stop
         style="stop-color:#3e141e;stop-opacity:1;"
         offset="0.25274122"
         id="stop6164" />
      <stop
         style="stop-color:#cb5974;stop-opacity:1;"
         offset="0.34950656"
         id="stop6166" />
      <stop
         style="stop-color:#3c131d;stop-opacity:1;"
         offset="0.40652412"
         id="stop6168" />
      <stop
         style="stop-color:#d16f87;stop-opacity:1;"
         offset="0.51425439"
         id="stop6162" />
      <stop
         style="stop-color:#3b121c;stop-opacity:1;"
         offset="0.60718203"
         id="stop6176" />
      <stop
         style="stop-color:#d16a84;stop-opacity:1;"
         offset="0.69353068"
         id="stop6170" />
      <stop
         style="stop-color:#39121b;stop-opacity:1;"
         offset="0.77549338"
         id="stop6172" />
      <stop
         style="stop-color:#cc5f79;stop-opacity:1;"
         offset="0.84210527"
         id="stop6160" />
      <stop
         style="stop-color:#341119;stop-opacity:1;"
         offset="0.9375"
         id="stop6174" />
      <stop
         style="stop-color:#ce6981;stop-opacity:1;"
         offset="1"
         id="stop6150" />
    </linearGradient>
    <filter
       style="color-interpolation-filters:sRGB"
       id="filter18126-8"
       x="-0.079403802"
       y="-0.082912626"
       width="1.1588076"
       height="1.1658253">
      <feGaussianBlur
         stdDeviation="0.39182262"
         id="feGaussianBlur18128-8" />
    </filter>
  </defs>
  <g
     id="layer1">
    <path
       style="mix-blend-mode:normal;filter:url(#filter6180);opacity:0.808717;fill:#26282f;fill-opacity:1;stroke:none;stroke-width:1.257"
       d="m -2724.0538,205.42704 c 0,0 33.1314,36.87543 33.1314,36.87543 0,0 447.3154,0 447.3154,0 0,0 -87.2078,-518.5788 -87.2078,-518.5788 0,0 -22.6016,-9.60585 -22.6016,-9.60585 0,0 -370.6374,491.30922 -370.6374,491.30922 z"
       id="path7289"
       transform="matrix(2.0051344,0,0,2.0051344,5675.8285,931.88262)" />
    <g
       id="g7311"
       transform="matrix(2.0051344,0,0,2.0051344,3097.3819,931.88262)"
       style="mix-blend-mode:normal;filter:url(#filter6142-3)">
      <path
         id="path7291"
         style="fill:url(#linearGradient8611);fill-opacity:1;stroke:none;stroke-width:1.257"
         d="m -1215.5704,-348.34645 -149.8807,40.66933 -79.8202,472.50974 229.7011,3.10028 229.701,-3.10028 -79.8202,-472.50974 z" />
      <path
         id="path7293"
         style="opacity:0.353511;mix-blend-mode:overlay;fill:url(#linearGradient8613);fill-opacity:1;stroke:none;stroke-width:1.257"
         d="m -1215.5704,-348.34645 -149.8807,40.66933 -79.8202,472.50974 229.7009,3.10038 h 3e-4 l 229.7009,-3.10038 -79.8202,-472.50974 -149.8807,-40.66933 z" />
      <g
         id="g33879"
         style="mix-blend-mode:normal;filter:url(#filter6142)"
         transform="matrix(0.82499419,0,0,0.82499419,890.85007,-128.87417)">
        <path
           d="m -2577.8408,48.662503 -13.2454,-8.988577 -8.1124,7.621036 c -11.0763,10.405638 -17.3454,6.973744 -33.7366,-18.468896 -7.652,-11.877716 -14.9457,-21.6102075 -16.208,-21.6278755 -1.2621,-0.01742 -4.3436,2.436601 -6.8477,5.4538095 -2.5041,3.017092 -7.3136,5.485739 -10.6878,5.485739 -16.134,0 -19.9252,-21.9353523 -6.6838,-38.670731 16.9803,-21.460812 57.1631,-83.421318 55.6688,-85.839298 -0.855,-1.38328 -8.8232,-0.85171 -17.7071,1.1812 -14.2595,3.26311 -17.4842,2.74812 -27.5142,-4.39392 -6.249,-4.44961 -11.3617,-11.26961 -11.3617,-15.15551 0,-6.33706 2.7516,-7.06534 26.6973,-7.06534 15.8883,0 28.474,-1.77675 31.0857,-4.3885 6.1126,-6.11258 5.4751,-23.13093 -1.3616,-36.35188 -7.778,-15.04076 -4.5408,-21.43129 10.8559,-21.43129 21.0844,0 36.7594,28.24782 22.323,40.22879 -3.0171,2.50397 -5.4857,5.99697 -5.4857,7.76215 0,4.49873 16.0165,4.01569 20.6551,-0.62289 2.6715,-2.67159 6.7487,-2.50348 13.4612,0.55495 10.9137,4.97259 16.1383,16.65729 10.1329,22.66264 -6.8273,6.82745 -4.4766,10.41019 6.0367,9.20054 9.7639,-1.12348 10.0565,-1.81584 10.0327,-23.74127 -0.019,-17.639 -1.821,-25.01373 -8.2287,-33.68066 -10.6246,-14.37067 -10.3711,-21.02728 0.9081,-23.85833 10.9407,-2.7459 30.3035,4.83412 39.9211,15.62802 6.1114,6.8588 6.4514,9.5801 2.7429,21.95775 -2.3282,7.77072 -4.233,18.63944 -4.233,24.15277 0,8.06915 1.2482,9.53244 6.4,7.50311 3.52,-1.38666 14.6286,-3.37844 24.6859,-4.42635 16.1892,-1.68671 19.2823,-0.83491 26.9769,7.42945 14.9364,16.04186 12.1791,17.70937 -49.8343,30.139799 -5.3184,1.06607 -8.2285,4.29877 -8.2285,9.14039 0,5.40749 1.7802,6.97193 6.4,5.62444 3.52,-1.02668 13.9215,-2.92591 23.1145,-4.2203 14.65,-2.0629 18.1509,-1.145 28.343,7.4311 22.1502,18.638183 15.1753,23.763072 -32.3406,23.763072 -32.946,0 -40.8532,3.13417 -32.6983,12.960284 2.9486,3.552919 11.5466,5.325528 25.8308,5.325528 19.0241,0 22.1053,1.060256 27.6434,9.51225 9.9297,15.1547377 3.092,21.5736317 -22.9814,21.5736317 -18.7657,0 -21.6166,0.934316 -22.5412,7.3867078 -0.9691,6.7643205 0.9335,7.3807275 22.5766,7.3143325 31.2155,-0.0956 44.3107,8.646072 44.3107,29.579553 0,12.811934 -1.0057,14.349633 -10.0647,15.391853 -6.0141,0.691879 -14.5443,-2.031726 -21.1949,-6.7673 -17.3385,-12.346083 -43.9934,-13.167675 -75.7291,-2.334115 l -26.5309,9.056829 z m 36.7513,-29.087538 c 3.1816,-1.220855 5.7847,-5.335184 5.7847,-9.142906 0,-5.2925335 -2.65,-6.9229653 -11.2527,-6.9229653 -7.631,0 -14.7897,-3.53701196 -22.2418,-10.989069 -12.7446,-12.7446677 -11.9972,-20.4878907 1.8514,-19.1824877 31.266,2.946942 29.75,3.304908 30.9718,-7.314332 1.104,-9.595153 0.432,-10.057812 -14.6286,-10.070855 -9.1201,-0.0097 -20.6588,-2.985065 -27.3261,-7.050453 -6.3471,-3.87017 -12.5185,-6.058258 -13.7143,-4.862482 -3.1285,3.128576 -2.5768,64.1606475 0.6247,69.103806 4.6467,7.174208 37.1015,11.354835 49.9309,6.431744 z m -75.439,-41.046143 c 0.5915,-16.640207 -0.4374,-29.877181 -2.3222,-29.877181 -4.5409,0 -13.0095,13.402391 -19.018,30.096938 -4.6007,12.7830807 -4.3611,14.2228217 3.8165,22.9274907 4.7992,5.1082858 10.4661,8.7123713 12.5934,8.0089008 2.1775,-0.719958 4.3323,-14.3368998 4.9303,-31.1561485 z m 84.881,-49.692393 c 0,-0.84119 0.9987,-4.13267 2.2198,-7.31433 1.7043,-4.4416 -0.2063,-5.78801 -8.2287,-5.79854 -13.3046,-0.0174 -34.422,-12.76976 -36.9116,-22.290029 -2.1798,-8.33462 -11.2025,-7.95051 -16.6548,0.70907 -6.638,10.542119 -0.05,24.009259 14.7434,30.145289 12.3158,5.1079 44.8319,8.40693 44.8319,4.54854 z"
           style="fill:#000000;stroke-width:3.65717"
           id="path7313" />
        <path
           style="fill:#ffffff;fill-opacity:1;stroke:none;stroke-width:0.626891;filter:url(#filter18126-8)"
           d="m -2510.0662,-183.55237 c 2.9552,1.031 6.5289,4.74221 6.735,7.42241 0.2061,2.6802 -2.9552,4.32958 -5.9104,3.29872 -2.9552,-1.03086 -5.7041,-4.74189 -5.9103,-7.4223 -0.2062,-2.68041 2.1305,-4.32983 5.0857,-3.29883 z"
           id="path7317" />
        <path
           style="fill:#ffffff;fill-opacity:1;stroke:none;stroke-width:0.626891;filter:url(#filter18126-8)"
           d="m -2453.1615,-124.99826 c 2.9552,1.031 6.5289,4.74221 6.735,7.42241 0.2061,2.6802 -2.9552,4.32958 -5.9104,3.29872 -2.9552,-1.03086 -5.7041,-4.74189 -5.9103,-7.4223 -0.2062,-2.68041 2.1305,-4.32983 5.0857,-3.29883 z"
           id="path7319" />
        <path
           style="fill:#ffffff;fill-opacity:1;stroke:none;stroke-width:0.626891;filter:url(#filter18126-8)"
           d="m -2597.485,-185.20178 c 2.9552,1.031 6.5289,4.74221 6.735,7.42241 0.2061,2.6802 -2.9552,4.32958 -5.9104,3.29872 -2.9552,-1.03086 -5.7041,-4.74189 -5.9103,-7.4223 -0.2062,-2.68041 2.1305,-4.32983 5.0857,-3.29883 z"
           id="path7321" />
        <path
           style="fill:#ffffff;fill-opacity:1;stroke:none;stroke-width:0.626891;filter:url(#filter18126-8)"
           d="m -2560.3732,-143.96649 c 2.9552,1.031 6.5289,4.74221 6.735,7.42241 0.2061,2.6802 -2.9552,4.32958 -5.9104,3.29872 -2.9552,-1.03086 -5.7041,-4.74189 -5.9103,-7.4223 -0.2062,-2.68041 2.1305,-4.32983 5.0857,-3.29883 z"
           id="path7323" />
        <path
           style="fill:#ffffff;fill-opacity:1;stroke:none;stroke-width:0.626891;filter:url(#filter18126-8)"
           d="m -2450.6873,-77.165328 c 2.9552,1.031001 6.5289,4.742208 6.735,7.42241 0.2061,2.680202 -2.9552,4.329585 -5.9104,3.298725 -2.9552,-1.030859 -5.7041,-4.741891 -5.9103,-7.4223 -0.2062,-2.68041 2.1305,-4.329835 5.0857,-3.298835 z"
           id="path7325" />
        <path
           style="fill:#ffffff;fill-opacity:1;stroke:none;stroke-width:0.626891;filter:url(#filter18126-8)"
           d="m -2462.2332,-28.50769 c 2.9552,1.031001 6.5289,4.742208 6.735,7.42241 0.2061,2.680202 -2.9552,4.329585 -5.9104,3.298725 -2.9552,-1.030859 -5.7041,-4.741891 -5.9103,-7.4223 -0.2062,-2.68041 2.1305,-4.329835 5.0857,-3.298835 z"
           id="path7327" />
        <path
           style="fill:#ffffff;fill-opacity:1;stroke:none;stroke-width:0.626891;filter:url(#filter18126-8)"
           d="m -2449.0379,20.974654 c 2.9552,1.031001 6.5289,4.742208 6.735,7.42241 0.2061,2.680202 -2.9552,4.329585 -5.9104,3.298725 -2.9552,-1.030859 -5.7041,-4.741891 -5.9103,-7.4223 -0.2062,-2.68041 2.1305,-4.329835 5.0857,-3.298835 z"
           id="path7329" />
      </g>
      <path
         id="path7295"
         style="opacity:1;fill:url(#linearGradient8615);fill-opacity:1;stroke:none;stroke-width:1.257;filter:url(#filter1412)"
         d="m -1445.2713,164.83262 7.1396,40.59442 222.5615,1.47299 222.5614,-1.47299 7.1396,-40.59442 -229.701,3.10028 z" />
      <path
         id="path7297"
         style="opacity:0.602906;mix-blend-mode:multiply;fill:#6d2435;fill-opacity:1;stroke:none;stroke-width:1.257;filter:url(#filter1479)"
         d="m -1445.2713,164.83262 7.1396,40.5944 222.5615,2.77653 222.5614,-2.77651 7.1396,-40.59442 -229.701,4.40379 z" />
      <path
         style="opacity:0.581114;mix-blend-mode:overlay;fill:url(#linearGradient8617);fill-opacity:1;stroke:none;stroke-width:1.257"
         d="m -1365.4511,-307.67712 c 0,0 8.8093,6.60699 8.8093,6.60699 0,0 141.0717,-39.09624 141.0717,-39.09624 0,0 0,-8.18008 0,-8.18008 0,0 -149.881,40.66933 -149.881,40.66933 z"
         id="path7299" />
      <path
         style="opacity:0.915254;mix-blend-mode:normal;fill:url(#linearGradient8619);fill-opacity:1;stroke:none;stroke-width:1.257"
         d="m -1365.4511,-307.67712 c 0,0 8.8093,6.60699 8.8093,6.60699 0,0 -77.5724,455.39759 -77.5724,455.39759 0,0 -11.0571,10.50516 -11.0571,10.50516 0,0 79.8202,-472.50974 79.8202,-472.50974 z"
         id="path7301" />
      <path
         id="path7303"
         style="opacity:0.198547;mix-blend-mode:normal;fill:#ffffff;fill-opacity:1;stroke:none;stroke-width:1.257;filter:url(#filter6136)"
         d="m -1434.2142,154.32746 -11.0571,10.50516 229.7011,3.10028 229.701,-3.10028 -11.0571,-10.50516 -218.6439,1.64958 z" />
      <path
         style="opacity:0.263923;mix-blend-mode:multiply;fill:#26282f;fill-opacity:1;stroke:none;stroke-width:1.257"
         d="m -1065.6894,-307.67712 c 0,0 -8.8093,6.60699 -8.8093,6.60699 0,0 77.5724,455.39759 77.5724,455.39759 0,0 11.0571,10.50516 11.0571,10.50516 0,0 -79.8202,-472.50974 -79.8202,-472.50974 z"
         id="path7305" />
      <path
         style="opacity:0.070218;mix-blend-mode:normal;fill:#26282f;fill-opacity:1;stroke:none;stroke-width:1.257"
         d="m -1065.6894,-307.67712 c 0,0 -8.8093,6.60699 -8.8093,6.60699 0,0 -141.0717,-39.09624 -141.0717,-39.09624 0,0 0,-8.18008 0,-8.18008 0,0 149.881,40.66933 149.881,40.66933 z"
         id="path7307" />
      <path
         id="path7309"
         style="opacity:0.135593;mix-blend-mode:multiply;fill:url(#linearGradient8621);fill-opacity:1;stroke:none;stroke-width:1.257;filter:url(#filter1479)"
         d="m -1445.2713,164.83262 7.1396,40.5944 222.5615,2.77653 222.5614,-2.77651 7.1396,-40.59442 -229.701,4.40379 z" />
      <g
         id="g2836"
         transform="translate(-3.1380827,13.073093)">
        <path
           style="opacity:1;fill:#000000;fill-opacity:1;stroke:none;stroke-width:0.522267"
           d="m -1212.4322,99.633598 c 8.5026,-42.88778 17.005,-85.774637 27.6844,-110.389787 10.6794,-24.615151 23.535,-30.956462 36.3908,-37.297917 -8.5728,6.759873 -17.1454,13.519599 -27.8248,38.1347508 -10.6795,24.6151522 -23.4648,67.0835912 -36.2504,109.5529532 z"
           id="path2012" />
        <path
           style="opacity:1;fill:#000000;fill-opacity:1;stroke:none;stroke-width:0.522267"
           d="m -1212.4322,99.633598 c -8.5026,-42.88778 -17.005,-85.774637 -27.6844,-110.389787 -10.6794,-24.615151 -23.535,-30.956462 -36.3908,-37.297917 8.5728,6.759873 17.1454,13.519599 27.8248,38.1347508 10.6795,24.6151522 23.4648,67.0835912 36.2504,109.5529532 z"
           id="path2667" />
      </g>
    </g>
  </g>
</svg>
