<?xml version="1.0" encoding="UTF-8" standalone="no"?>
<!-- Created with Inkscape (http://www.inkscape.org/) -->

<svg
   width="132mm"
   height="144mm"
   viewBox="0 0 1320 1440"
   version="1.1"
   id="svg23702"
   inkscape:version="1.2 (dc2aedaf03, 2022-05-15)"
   sodipodi:docname="SentePromotedSilver.svg"
   xmlns:inkscape="http://www.inkscape.org/namespaces/inkscape"
   xmlns:sodipodi="http://sodipodi.sourceforge.net/DTD/sodipodi-0.dtd"
   xmlns:xlink="http://www.w3.org/1999/xlink"
   xmlns="http://www.w3.org/2000/svg"
   xmlns:svg="http://www.w3.org/2000/svg">
  <sodipodi:namedview
     id="namedview23704"
     pagecolor="#ffffff"
     bordercolor="#000000"
     borderopacity="0.25"
     inkscape:showpageshadow="2"
     inkscape:pageopacity="0.0"
     inkscape:pagecheckerboard="0"
     inkscape:deskcolor="#d1d1d1"
     inkscape:document-units="mm"
     showgrid="false"
     showguides="true"
     inkscape:zoom="0.59465221"
     inkscape:cx="236.27256"
     inkscape:cy="554.94623"
     inkscape:window-width="1680"
     inkscape:window-height="987"
     inkscape:window-x="-8"
     inkscape:window-y="-8"
     inkscape:window-maximized="1"
     inkscape:current-layer="layer1">
    <sodipodi:guide
       position="108.87253,-1200.9607"
       orientation="0,1"
       id="guide25740"
       inkscape:locked="false"
       inkscape:label=""
       inkscape:color="rgb(0,134,229)" />
  </sodipodi:namedview>
  <defs
     id="defs23699">
    <filter
       inkscape:collect="always"
       style="color-interpolation-filters:sRGB"
       id="filter6180"
       x="-0.041288353"
       y="-0.04097344"
       width="1.0825767"
       height="1.0819469">
      <feGaussianBlur
         inkscape:collect="always"
         stdDeviation="9.0173096"
         id="feGaussianBlur6178" />
    </filter>
    <inkscape:path-effect
       effect="bspline"
       id="path-effect8113"
       is_visible="true"
       lpeversion="1"
       weight="33.333333"
       steps="2"
       helper_size="0"
       apply_no_weight="true"
       apply_with_weight="true"
       only_selected="false" />
    <filter
       inkscape:collect="always"
       style="color-interpolation-filters:sRGB"
       id="filter6142-0"
       x="-0.010064438"
       y="-0.010064425"
       width="1.0201289"
       height="1.0201288">
      <feGaussianBlur
         inkscape:collect="always"
         stdDeviation="0.59853361"
         id="feGaussianBlur6144-8" />
    </filter>
    <linearGradient
       inkscape:collect="always"
       xlink:href="#linearGradient1467"
       id="linearGradient8551"
       gradientUnits="userSpaceOnUse"
       gradientTransform="translate(-844.32051,-151.71975)"
       x1="-586.44916"
       y1="75.508476"
       x2="-156.05099"
       y2="75.508476" />
    <linearGradient
       inkscape:collect="always"
       id="linearGradient1467">
      <stop
         style="stop-color:#ffeab1;stop-opacity:1;"
         offset="0"
         id="stop1441" />
      <stop
         style="stop-color:#ffd774;stop-opacity:1;"
         offset="0.05596975"
         id="stop1443" />
      <stop
         style="stop-color:#ffd394;stop-opacity:1;"
         offset="0.12240581"
         id="stop1445" />
      <stop
         style="stop-color:#ffc474;stop-opacity:1;"
         offset="0.18442476"
         id="stop1447" />
      <stop
         style="stop-color:#ffce8c;stop-opacity:1;"
         offset="0.25016946"
         id="stop1449" />
      <stop
         style="stop-color:#ffc474;stop-opacity:1;"
         offset="0.3166357"
         id="stop1451" />
      <stop
         style="stop-color:#ffc389;stop-opacity:1;"
         offset="0.38451442"
         id="stop1453" />
      <stop
         style="stop-color:#ffc674;stop-opacity:1;"
         offset="0.47559014"
         id="stop1455" />
      <stop
         style="stop-color:#ffc67a;stop-opacity:1;"
         offset="0.54782552"
         id="stop1457" />
      <stop
         style="stop-color:#ffc57d;stop-opacity:1;"
         offset="0.61341411"
         id="stop1459" />
      <stop
         style="stop-color:#ffcb7a;stop-opacity:1;"
         offset="0.68246663"
         id="stop1461" />
      <stop
         style="stop-color:#ffbf76;stop-opacity:1;"
         offset="0.73423874"
         id="stop1463" />
      <stop
         style="stop-color:#ffc66b;stop-opacity:1;"
         offset="0.82545269"
         id="stop1469" />
      <stop
         style="stop-color:#ffca84;stop-opacity:1;"
         offset="0.89189297"
         id="stop1471" />
      <stop
         style="stop-color:#ffba72;stop-opacity:1;"
         offset="0.94046402"
         id="stop1473" />
      <stop
         style="stop-color:#ffd889;stop-opacity:1;"
         offset="1"
         id="stop1465" />
    </linearGradient>
    <linearGradient
       inkscape:collect="always"
       xlink:href="#linearGradient6126"
       id="linearGradient8553"
       gradientUnits="userSpaceOnUse"
       gradientTransform="translate(-2.31e-4,-2.49e-4)"
       x1="-1215.5699"
       y1="167.93315"
       x2="-1215.5706"
       y2="-275.99411" />
    <linearGradient
       inkscape:collect="always"
       id="linearGradient6126">
      <stop
         style="stop-color:#f6cf8d;stop-opacity:1;"
         offset="0"
         id="stop6122" />
      <stop
         style="stop-color:#fafa9a;stop-opacity:1;"
         offset="0.60526317"
         id="stop6124" />
    </linearGradient>
    <linearGradient
       inkscape:collect="always"
       xlink:href="#linearGradient10448"
       id="linearGradient8555"
       gradientUnits="userSpaceOnUse"
       gradientTransform="translate(-844.32051,-151.71975)"
       x1="-371.25"
       y1="319.65253"
       x2="-371.25"
       y2="358.62" />
    <linearGradient
       inkscape:collect="always"
       id="linearGradient10448">
      <stop
         style="stop-color:#ecb857;stop-opacity:1;"
         offset="0.28728068"
         id="stop10446" />
      <stop
         style="stop-color:#efcb98;stop-opacity:1;"
         offset="0.5"
         id="stop10444" />
      <stop
         style="stop-color:#edaf69;stop-opacity:1;"
         offset="0.7390351"
         id="stop10442" />
    </linearGradient>
    <filter
       inkscape:collect="always"
       style="color-interpolation-filters:sRGB"
       id="filter1412"
       x="-0.0028294397"
       y="-0.033650937"
       width="1.0056589"
       height="1.0673019">
      <feGaussianBlur
         inkscape:collect="always"
         stdDeviation="0.58166051"
         id="feGaussianBlur1414" />
    </filter>
    <filter
       inkscape:collect="always"
       style="color-interpolation-filters:sRGB"
       id="filter1479"
       x="-0.0036638049"
       y="-0.043574163"
       width="1.0073276"
       height="1.0871483">
      <feGaussianBlur
         inkscape:collect="always"
         stdDeviation="0.75318466"
         id="feGaussianBlur1481" />
    </filter>
    <linearGradient
       inkscape:collect="always"
       xlink:href="#linearGradient6120"
       id="linearGradient8557"
       gradientUnits="userSpaceOnUse"
       gradientTransform="translate(2e-4,-35.57222)"
       x1="-1287.3033"
       y1="-301.47824"
       x2="-1285.3059"
       y2="-294.02359" />
    <linearGradient
       inkscape:collect="always"
       id="linearGradient6120">
      <stop
         style="stop-color:#ffffff;stop-opacity:1;"
         offset="0"
         id="stop6116" />
      <stop
         style="stop-color:#ffffff;stop-opacity:0.78947371;"
         offset="1"
         id="stop6118" />
    </linearGradient>
    <inkscape:path-effect
       effect="bspline"
       id="path-effect8117"
       is_visible="true"
       lpeversion="1"
       weight="33.333333"
       steps="2"
       helper_size="0"
       apply_no_weight="true"
       apply_with_weight="true"
       only_selected="false" />
    <linearGradient
       inkscape:collect="always"
       xlink:href="#linearGradient6192"
       id="linearGradient8559"
       gradientUnits="userSpaceOnUse"
       gradientTransform="translate(-10.4965,-25.07602)"
       x1="-1394.903"
       y1="-58.592804"
       x2="-1385.5217"
       y2="-57.119999" />
    <linearGradient
       inkscape:collect="always"
       id="linearGradient6192">
      <stop
         style="stop-color:#ffffff;stop-opacity:1;"
         offset="0.64473683"
         id="stop6188" />
      <stop
         style="stop-color:#ffffff;stop-opacity:0;"
         offset="1"
         id="stop6190" />
    </linearGradient>
    <inkscape:path-effect
       effect="bspline"
       id="path-effect8121"
       is_visible="true"
       lpeversion="1"
       weight="33.333333"
       steps="2"
       helper_size="0"
       apply_no_weight="true"
       apply_with_weight="true"
       only_selected="false" />
    <filter
       inkscape:collect="always"
       style="color-interpolation-filters:sRGB"
       id="filter6136"
       x="-0.0021371403"
       y="-0.080969957"
       width="1.0042743"
       height="1.1619399">
      <feGaussianBlur
         inkscape:collect="always"
         stdDeviation="0.43934162"
         id="feGaussianBlur6134" />
    </filter>
    <inkscape:path-effect
       effect="bspline"
       id="path-effect8125"
       is_visible="true"
       lpeversion="1"
       weight="33.333333"
       steps="2"
       helper_size="0"
       apply_no_weight="true"
       apply_with_weight="true"
       only_selected="false" />
    <inkscape:path-effect
       effect="bspline"
       id="path-effect8129"
       is_visible="true"
       lpeversion="1"
       weight="33.333333"
       steps="2"
       helper_size="0"
       apply_no_weight="true"
       apply_with_weight="true"
       only_selected="false" />
    <linearGradient
       inkscape:collect="always"
       xlink:href="#linearGradient6152"
       id="linearGradient8561"
       gradientUnits="userSpaceOnUse"
       gradientTransform="translate(1.843861e-5,6.13244)"
       x1="-1432.5771"
       y1="186.15788"
       x2="-998.56384"
       y2="186.15788" />
    <linearGradient
       inkscape:collect="always"
       id="linearGradient6152">
      <stop
         style="stop-color:#c14360;stop-opacity:1;"
         offset="0"
         id="stop6148" />
      <stop
         style="stop-color:#4f1a26;stop-opacity:1;"
         offset="0.05921053"
         id="stop6156" />
      <stop
         style="stop-color:#c54d69;stop-opacity:1;"
         offset="0.18201755"
         id="stop6158" />
      <stop
         style="stop-color:#3e141e;stop-opacity:1;"
         offset="0.25274122"
         id="stop6164" />
      <stop
         style="stop-color:#cb5974;stop-opacity:1;"
         offset="0.34950656"
         id="stop6166" />
      <stop
         style="stop-color:#3c131d;stop-opacity:1;"
         offset="0.40652412"
         id="stop6168" />
      <stop
         style="stop-color:#d16f87;stop-opacity:1;"
         offset="0.51425439"
         id="stop6162" />
      <stop
         style="stop-color:#3b121c;stop-opacity:1;"
         offset="0.60718203"
         id="stop6176" />
      <stop
         style="stop-color:#d16a84;stop-opacity:1;"
         offset="0.69353068"
         id="stop6170" />
      <stop
         style="stop-color:#39121b;stop-opacity:1;"
         offset="0.77549338"
         id="stop6172" />
      <stop
         style="stop-color:#cc5f79;stop-opacity:1;"
         offset="0.84210527"
         id="stop6160" />
      <stop
         style="stop-color:#341119;stop-opacity:1;"
         offset="0.9375"
         id="stop6174" />
      <stop
         style="stop-color:#ce6981;stop-opacity:1;"
         offset="1"
         id="stop6150" />
    </linearGradient>
    <filter
       inkscape:collect="always"
       style="color-interpolation-filters:sRGB"
       id="filter18126-8-46-1-8-41"
       x="-0.060680064"
       y="-0.049090893"
       width="1.1213601"
       height="1.0981818">
      <feGaussianBlur
         inkscape:collect="always"
         stdDeviation="0.39182262"
         id="feGaussianBlur18128-8-90-3-3-39" />
    </filter>
    <inkscape:path-effect
       effect="bspline"
       id="path-effect8301"
       is_visible="true"
       lpeversion="1"
       weight="33.333333"
       steps="2"
       helper_size="0"
       apply_no_weight="true"
       apply_with_weight="true"
       only_selected="false" />
    <filter
       inkscape:collect="always"
       style="color-interpolation-filters:sRGB"
       id="filter18126-8-46-1-8-32"
       x="-0.056097035"
       y="-0.073813794"
       width="1.1121941"
       height="1.1476276">
      <feGaussianBlur
         inkscape:collect="always"
         stdDeviation="0.39182262"
         id="feGaussianBlur18128-8-90-3-3-35" />
    </filter>
    <inkscape:path-effect
       effect="bspline"
       id="path-effect8305"
       is_visible="true"
       lpeversion="1"
       weight="33.333333"
       steps="2"
       helper_size="0"
       apply_no_weight="true"
       apply_with_weight="true"
       only_selected="false" />
    <filter
       inkscape:collect="always"
       style="color-interpolation-filters:sRGB"
       id="filter18126-8-46-1-8-508"
       x="-0.07940328"
       y="-0.082912594"
       width="1.1588066"
       height="1.1658252">
      <feGaussianBlur
         inkscape:collect="always"
         stdDeviation="0.39182262"
         id="feGaussianBlur18128-8-90-3-3-16" />
    </filter>
    <inkscape:path-effect
       effect="bspline"
       id="path-effect8309"
       is_visible="true"
       lpeversion="1"
       weight="33.333333"
       steps="2"
       helper_size="0"
       apply_no_weight="true"
       apply_with_weight="true"
       only_selected="false" />
    <filter
       inkscape:collect="always"
       style="color-interpolation-filters:sRGB"
       id="filter18126-8-46-1-8-12"
       x="-0.07940328"
       y="-0.082912594"
       width="1.1588066"
       height="1.1658252">
      <feGaussianBlur
         inkscape:collect="always"
         stdDeviation="0.39182262"
         id="feGaussianBlur18128-8-90-3-3-19" />
    </filter>
    <inkscape:path-effect
       effect="bspline"
       id="path-effect8313"
       is_visible="true"
       lpeversion="1"
       weight="33.333333"
       steps="2"
       helper_size="0"
       apply_no_weight="true"
       apply_with_weight="true"
       only_selected="false" />
    <filter
       inkscape:collect="always"
       style="color-interpolation-filters:sRGB"
       id="filter18126-8-46-1-8-7"
       x="-0.058678791"
       y="-0.056730795"
       width="1.1173576"
       height="1.1134616">
      <feGaussianBlur
         inkscape:collect="always"
         stdDeviation="0.39182262"
         id="feGaussianBlur18128-8-90-3-3-474" />
    </filter>
    <inkscape:path-effect
       effect="bspline"
       id="path-effect8317"
       is_visible="true"
       lpeversion="1"
       weight="33.333333"
       steps="2"
       helper_size="0"
       apply_no_weight="true"
       apply_with_weight="true"
       only_selected="false" />
  </defs>
  <g
     inkscape:label="Layer 1"
     inkscape:groupmode="layer"
     id="layer1">
    <path
       style="opacity:0.808717;mix-blend-mode:normal;fill:#26282f;fill-opacity:1;stroke:none;stroke-width:1.257;filter:url(#filter6180)"
       d="m -2759.3371,206.01016 c 0,0 33.1314,36.87543 33.1314,36.87543 0,0 491.0247,0 491.0247,0 0,0 -112.7736,-518.5788 -112.7736,-518.5788 0,0 -22.6016,-9.60585 -22.6016,-9.60585 0,0 -388.7809,491.30922 -388.7809,491.30922 z"
       id="path7491"
       sodipodi:nodetypes="cccccc"
       inkscape:original-d="m -2759.3371,206.01016 33.1314,36.87543 h 491.0247 l -112.7736,-518.5788 -22.6016,-9.60585 z"
       inkscape:path-effect="#path-effect8113"
       transform="matrix(2.0051344,0,0,2.0051344,5712.5124,931.88266)" />
    <g
       id="g7513"
       transform="matrix(2.0051344,0,0,2.0051344,3097.3821,931.88266)"
       style="mix-blend-mode:normal;filter:url(#filter6142-0)">
      <path
         id="path7493"
         style="fill:url(#linearGradient8551);fill-opacity:1;stroke:none;stroke-width:1.257"
         d="m -1215.5703,-355.92756 -153.9628,48.25044 -92.7268,473.09296 246.6897,2.51706 246.68919,-2.51706 -92.72659,-473.09296 z"
         sodipodi:nodetypes="ccccccc" />
      <path
         id="path7495"
         style="opacity:0.353511;mix-blend-mode:overlay;fill:url(#linearGradient8553);fill-opacity:1;stroke:none;stroke-width:1.257"
         d="m -1215.5703,-355.92756 -153.9628,48.25044 -92.7268,473.09296 246.6893,2.51716 h 5e-4 l 246.68909,-2.51716 -92.72659,-473.09296 z" />
      <path
         id="path7497"
         style="opacity:1;fill:url(#linearGradient8555);fill-opacity:1;stroke:none;stroke-width:1.257;filter:url(#filter1412)"
         d="m -1462.2598,165.41574 7.1396,40.59442 239.55,0.88987 239.54948,-0.88987 7.1396,-40.59442 -246.68908,2.51716 z"
         sodipodi:nodetypes="ccccccc" />
      <path
         id="path7499"
         style="opacity:0.602906;mix-blend-mode:multiply;fill:#6d2435;fill-opacity:1;stroke:none;stroke-width:1.257;filter:url(#filter1479)"
         d="m -1462.2598,165.41574 7.1396,40.5944 239.55,0.88989 239.54948,-0.88987 7.1396,-40.59442 -246.68908,2.51715 z"
         sodipodi:nodetypes="ccccccc" />
      <path
         style="opacity:0.581114;mix-blend-mode:overlay;fill:url(#linearGradient8557);fill-opacity:1;stroke:none;stroke-width:1.257"
         d="m -1369.5331,-307.67712 c 0,0 8.8093,6.60699 8.8093,6.60699 0,0 145.1535,-46.67735 145.1535,-46.67735 0,0 0,-8.18008 0,-8.18008 0,0 -153.9628,48.25044 -153.9628,48.25044 z"
         id="path7501"
         sodipodi:nodetypes="ccccc"
         inkscape:original-d="m -1369.5331,-307.67712 8.8093,6.60699 145.1535,-46.67735 v -8.18008 z"
         inkscape:path-effect="#path-effect8117" />
      <path
         style="opacity:0.915254;mix-blend-mode:normal;fill:url(#linearGradient8559);fill-opacity:1;stroke:none;stroke-width:1.257"
         d="m -1369.5331,-307.67712 c 0,0 8.8093,6.60699 8.8093,6.60699 0,0 -90.479,455.98081 -90.479,455.98081 0,0 -11.0571,10.50516 -11.0571,10.50516 0,0 92.7268,-473.09296 92.7268,-473.09296 z"
         id="path7503"
         sodipodi:nodetypes="ccccc"
         inkscape:original-d="m -1369.5331,-307.67712 8.8093,6.60699 -90.479,455.98081 -11.0571,10.50516 z"
         inkscape:path-effect="#path-effect8121" />
      <path
         id="path7505"
         style="opacity:0.198547;mix-blend-mode:normal;fill:#ffffff;fill-opacity:1;stroke:none;stroke-width:1.257;filter:url(#filter6136)"
         d="m -1451.2032,154.91054 -11.0567,10.5053 246.6897,2.51706 246.68919,-2.51706 -11.0567,-10.5053 -235.63249,1.0665 z"
         sodipodi:nodetypes="ccccccc" />
      <path
         style="opacity:0.263923;mix-blend-mode:multiply;fill:#26282f;fill-opacity:1;stroke:none;stroke-width:1.257"
         d="m -1061.6076,-307.67712 c 0,0 -8.8093,6.60699 -8.8093,6.60699 0,0 90.47879,455.98081 90.47879,455.98081 0,0 11.0571,10.50516 11.0571,10.50516 0,0 -92.72659,-473.09296 -92.72659,-473.09296 z"
         id="path7507"
         sodipodi:nodetypes="ccccc"
         inkscape:original-d="m -1061.6076,-307.67712 -8.8093,6.60699 90.47879,455.98081 11.0571,10.50516 z"
         inkscape:path-effect="#path-effect8125" />
      <path
         style="opacity:0.070218;mix-blend-mode:normal;fill:#26282f;fill-opacity:1;stroke:none;stroke-width:1.257"
         d="m -1061.6076,-307.67712 c 0,0 -8.8093,6.60699 -8.8093,6.60699 0,0 -145.1534,-46.67735 -145.1534,-46.67735 0,0 0,-8.18008 0,-8.18008 0,0 153.9627,48.25044 153.9627,48.25044 z"
         id="path7509"
         sodipodi:nodetypes="ccccc"
         inkscape:original-d="m -1061.6076,-307.67712 -8.8093,6.60699 -145.1534,-46.67735 v -8.18008 z"
         inkscape:path-effect="#path-effect8129" />
      <path
         id="path7511"
         style="opacity:0.135593;mix-blend-mode:multiply;fill:url(#linearGradient8561);fill-opacity:1;stroke:none;stroke-width:1.257;filter:url(#filter1479)"
         d="m -1462.2598,165.41574 7.1396,40.5944 239.55,7.02233 239.54948,-7.02231 7.1396,-40.59442 -246.68908,8.64959 z"
         sodipodi:nodetypes="ccccccc" />
    </g>
    <g
       id="g25621"
       transform="matrix(2.0051344,0,0,2.0051344,5931.1043,903.12923)"
       style="mix-blend-mode:normal;filter:url(#filter6142-0)">
      <rect
         style="mix-blend-mode:normal;fill:#970000;fill-opacity:1;stroke:none;stroke-width:0.386408"
         id="rect98398-4"
         width="5.9197216"
         height="71.171066"
         x="2625.8435"
         y="-45.273979"
         transform="scale(-1)" />
      <rect
         style="mix-blend-mode:normal;fill:#970000;fill-opacity:1;stroke:none;stroke-width:0.386408"
         id="rect2972-3"
         width="5.9197216"
         height="71.171066"
         x="-2631.7634"
         y="45.660393" />
      <rect
         style="mix-blend-mode:normal;fill:#970000;fill-opacity:1;stroke:none;stroke-width:0.386408"
         id="rect2976-6"
         width="5.9197216"
         height="71.171066"
         x="-48.427074"
         y="-2628.6104"
         transform="rotate(-90)" />
      <rect
         style="mix-blend-mode:normal;fill:#970000;fill-opacity:1;stroke:none;stroke-width:0.386408"
         id="rect2980-2"
         width="5.9197216"
         height="71.171066"
         x="42.507153"
         y="2628.9966"
         transform="rotate(90)" />
      <rect
         style="mix-blend-mode:normal;fill:#970000;fill-opacity:1;stroke:none;stroke-width:0.386408"
         id="rect14708"
         width="5.9197216"
         height="71.171066"
         x="1823.7345"
         y="-1890.8018"
         transform="rotate(-135)" />
      <rect
         style="mix-blend-mode:normal;fill:#970000;fill-opacity:1;stroke:none;stroke-width:0.386408"
         id="rect14720"
         width="5.9197216"
         height="71.171066"
         x="1888.035"
         y="1826.8877"
         transform="rotate(135)" />
    </g>
    <g
       id="g48361"
       transform="matrix(1.807031,0,0,1.807031,5277.1373,703.7043)"
       style="mix-blend-mode:normal;filter:url(#filter6142-0)">
      <path
         d="m -2633.5091,43.744919 c -14.2015,-5.23862 -23.4963,-15.705866 -20.6147,-23.214798 1.4902,-3.883322 9.4259,-4.518467 35.418,-2.834516 l 33.4975,2.170219 V 9.519693 c 0,-8.420487 -1.2231,-9.82288096 -6.572,-7.5354 -15.2909,6.539433 -25.5505,5.656235 -36.3082,-3.125591 -13.2307,-10.800706 -11.5118,-24.02259 2.5557,-19.658841 18.1388,5.62671 25.5415,6.510306 34.8889,4.164265 14.1545,-3.552607 9.2219,-11.018439 -9.3782,-14.193668 -8.8556,-1.511806 -18.21,-5.632668 -20.7875,-9.157413 -4.269,-5.838195 -6.3193,-5.044096 -23.035,8.921541 -17.6689,14.762523 -41.8149,27.287319 -52.6055,27.287319 -9.1154,0 -5.5624,-5.5938 8.2916,-13.054683 22.3727,-12.048526 68.2759,-65.897029 89.7112,-105.239282 5.6268,-10.32721 12.9447,-21.82868 16.2623,-25.55879 4.8905,-5.49866 5.175,-8.15369 1.5042,-14.03164 -2.49,-3.98727 -4.5275,-11.49738 -4.5275,-16.68906 0,-13.56385 14.2624,-12.45887 29.33,2.27242 13.0563,12.76492 13.8606,15.30916 8.1894,25.90573 -3.1472,5.88081 -1.0995,9.49853 12.0833,21.34644 8.73,7.84612 29.447,27.0255 46.0375,42.620863 21.7491,20.444725 37.2361,31.416482 55.5132,39.32819 13.9418,6.034998 25.3488,12.286755 25.3488,13.892492 0,3.039766 -14.9622,3.997283 -46.9422,3.003978 -17.6511,-0.548228 -20.2402,-1.997797 -43.1865,-24.180264 l -24.4101,-23.597246 -15.0215,4.469888 c -20.1032,5.982083 -19.6044,14.446486 1.0136,17.198233 29.0589,3.878255 30.7465,17.214198 2.7701,21.891118 -20.2578,3.38652 -14.1296,9.906221 8.2777,8.806784 16.3845,-0.803912 20.2353,0.278972 23.6447,6.64954 5.4105,10.109687 1.826,14.965289 -11.0485,14.965289 -21.8411,0 -34.046,4.36394704 -34.046,12.173473 0,5.990906 1.6817,6.983515 8.4497,4.988103 4.6473,-1.370183 18.0218,-3.478782 29.7213,-4.685742 19.3645,-1.997798 22.1421,-1.324102 30.9816,7.51549 10.986,10.986044 12.2224,18.312836 4.2125,24.960609 -4.3416,3.603235 -10.5113,3.305146 -29.3438,-1.417855 -34.6182,-8.681933 -49.897,-7.732424 -109.7401,6.819697 -4.1309,1.004493 -13.192,-0.269275 -20.1355,-2.830761 z m 50.0795,-99.938197 c 1.2223,-1.977487 -3.0242,-6.308432 -9.4364,-9.624287 -12.4017,-6.413196 -22.3852,-2.824602 -22.3852,8.046463 0,6.021927 28.2106,7.420674 31.8216,1.577824 z m 22.6312,-33.958159 c 1.2765,-2.0655 6.446,-3.75537 11.4877,-3.75537 5.0641,0 9.1667,-2.20671 9.1667,-4.93042 0,-5.087903 -21.5224,-27.695513 -23.6462,-24.838703 -0.656,0.88211 -6.543,8.54961 -13.0824,17.03878 -6.5395,8.489283 -10.8087,16.516333 -9.4871,17.838043 3.807,3.80681 23.0003,2.7913 25.5613,-1.35233 z"
         style="fill:#800000;stroke-width:3.75537"
         id="path7679"
         sodipodi:nodetypes="ssscsssssssssssssssssssssscsssssssssssssssssssssssss" />
      <path
         style="fill:#ffffff;fill-opacity:1;stroke:none;stroke-width:0.626891;filter:url(#filter18126-8-46-1-8-41)"
         d="m -2566.3092,-179.91777 c 3.8343,2.26214 9.1661,8.43546 9.7826,12.75724 0.6165,4.32177 -3.482,6.79178 -7.3164,4.52979 -3.8345,-2.262 -7.4041,-9.25593 -8.0207,-13.57784 -0.6165,-4.32192 1.7202,-5.97134 5.5545,-3.70919 z"
         id="path7683"
         inkscape:path-effect="#path-effect8301"
         inkscape:original-d="m -2567.807,-183.82925 c 5.3321,6.17359 10.6639,12.34691 15.9957,18.52031 -4.0987,2.47035 -8.1972,4.94038 -12.2963,7.41049 -3.5698,-6.99432 -7.1395,-13.98823 -10.7094,-20.98257 2.3369,-1.64928 4.6736,-3.29869 7.01,-4.94823 z"
         sodipodi:nodetypes="ccccc" />
      <path
         style="fill:#ffffff;fill-opacity:1;stroke:none;stroke-width:0.626891;filter:url(#filter18126-8-46-1-8-32)"
         d="m -2459.5702,-54.588726 c 4.1863,1.823596 10.2222,7.119909 10.4284,9.800191 0.2062,2.680282 -5.4173,2.744462 -9.6037,0.920975 -4.1864,-1.823486 -6.9353,-5.534518 -7.1415,-8.214927 -0.2062,-2.68041 2.1305,-4.329835 6.3168,-2.506239 z"
         id="path7685"
         inkscape:path-effect="#path-effect8305"
         inkscape:original-d="m -2461.42,-58.06165 c 6.0361,5.296556 12.072,10.592863 18.108,15.889216 -5.6236,0.06433 -11.2471,0.128509 -16.8709,0.192544 -2.749,-3.71117 -5.4979,-7.42222 -8.2471,-11.13353 2.3369,-1.64928 4.6736,-3.29869 7.01,-4.94823 z"
         sodipodi:nodetypes="ccccc" />
      <path
         style="fill:#ffffff;fill-opacity:1;stroke:none;stroke-width:0.626891;filter:url(#filter18126-8-46-1-8-508)"
         d="m -2530.0766,-54.144222 c 2.9552,1.031001 6.5289,4.742208 6.735,7.42241 0.2061,2.680202 -2.9552,4.329585 -5.9104,3.298725 -2.9552,-1.030859 -5.7041,-4.741891 -5.9103,-7.4223 -0.2062,-2.68041 2.1305,-4.329835 5.0857,-3.298835 z"
         id="path7687"
         inkscape:path-effect="#path-effect8309"
         inkscape:original-d="m -2530.6953,-56.82455 c 3.5739,3.71131 7.1477,7.42248 10.7212,11.13353 -3.1613,1.64954 -6.3226,3.29895 -9.4841,4.94823 -2.749,-3.71117 -5.4979,-7.42222 -8.2471,-11.13353 2.3369,-1.64928 4.6736,-3.29869 7.01,-4.94823 z" />
      <path
         style="fill:#ffffff;fill-opacity:1;stroke:none;stroke-width:0.626891;filter:url(#filter18126-8-46-1-8-12)"
         d="m -2515.6442,-24.042522 c 2.9552,1.031001 6.5289,4.742208 6.735,7.42241 0.2061,2.680202 -2.9552,4.329585 -5.9104,3.298725 -2.9552,-1.030859 -5.7041,-4.741891 -5.9103,-7.4223 -0.2062,-2.68041 2.1305,-4.329835 5.0857,-3.298835 z"
         id="path7689"
         inkscape:path-effect="#path-effect8313"
         inkscape:original-d="m -2516.2629,-26.72285 c 3.5739,3.71131 7.1477,7.42248 10.7212,11.13353 -3.1613,1.64954 -6.3226,3.29895 -9.4841,4.94823 -2.749,-3.71117 -5.4979,-7.42222 -8.2471,-11.13353 2.3369,-1.64928 4.6736,-3.29869 7.01,-4.94823 z" />
      <path
         style="fill:#ffffff;fill-opacity:1;stroke:none;stroke-width:0.626891;filter:url(#filter18126-8-46-1-8-7)"
         d="m -2491.1185,13.888115 c 3.9768,2.262137 9.5936,8.435445 10.1281,12.018545 0.5345,3.5831 -4.0132,4.575849 -7.9902,2.313851 -3.977,-2.261998 -7.3825,-7.778615 -7.9169,-11.361862 -0.5345,-3.583246 1.8022,-5.232671 5.779,-2.970534 z"
         id="path7691"
         inkscape:path-effect="#path-effect8317"
         inkscape:original-d="m -2492.7588,9.97665 c 5.6171,6.173588 11.2339,12.34691 16.8508,18.520309 -4.5479,0.992971 -9.0956,1.985722 -13.6439,2.978422 -3.4056,-5.516902 -6.8111,-11.033519 -10.2169,-16.550501 2.3369,-1.64928 4.6736,-3.29869 7.01,-4.94823 z"
         sodipodi:nodetypes="ccccc" />
    </g>
  </g>
</svg>
