<?xml version="1.0" encoding="UTF-8" standalone="no"?>
<!-- Created with Inkscape (http://www.inkscape.org/) -->

<svg
   width="132mm"
   height="144mm"
   viewBox="0 0 1320 1440"
   version="1.1"
   id="svg23702"
   xmlns:xlink="http://www.w3.org/1999/xlink"
   xmlns="http://www.w3.org/2000/svg"
   xmlns:svg="http://www.w3.org/2000/svg">
  <defs
     id="defs23699">
    <filter
       style="color-interpolation-filters:sRGB"
       id="filter6180"
       x="-0.040028725"
       y="-0.040845886"
       width="1.0800574"
       height="1.0816918">
      <feGaussianBlur
         stdDeviation="9.0173096"
         id="feGaussianBlur6178" />
    </filter>
    <filter
       style="color-interpolation-filters:sRGB"
       id="filter6142-5"
       x="-0.0062502589"
       y="-0.0024403514"
       width="1.0125006"
       height="1.0079516">
      <feGaussianBlur
         stdDeviation="0.59853361"
         id="feGaussianBlur6144-0" />
    </filter>
    <linearGradient
       xlink:href="#linearGradient1467"
       id="linearGradient8587"
       gradientUnits="userSpaceOnUse"
       gradientTransform="translate(-844.32051,-151.71975)"
       x1="-630.76886"
       y1="75.508476"
       x2="-117.25891"
       y2="75.508476" />
    <linearGradient
       id="linearGradient1467">
      <stop
         style="stop-color:#ffeab1;stop-opacity:1;"
         offset="0"
         id="stop1441" />
      <stop
         style="stop-color:#ffd774;stop-opacity:1;"
         offset="0.05596975"
         id="stop1443" />
      <stop
         style="stop-color:#ffd394;stop-opacity:1;"
         offset="0.12240581"
         id="stop1445" />
      <stop
         style="stop-color:#ffc474;stop-opacity:1;"
         offset="0.18442476"
         id="stop1447" />
      <stop
         style="stop-color:#ffce8c;stop-opacity:1;"
         offset="0.25016946"
         id="stop1449" />
      <stop
         style="stop-color:#ffc474;stop-opacity:1;"
         offset="0.3166357"
         id="stop1451" />
      <stop
         style="stop-color:#ffc389;stop-opacity:1;"
         offset="0.38451442"
         id="stop1453" />
      <stop
         style="stop-color:#ffc674;stop-opacity:1;"
         offset="0.47559014"
         id="stop1455" />
      <stop
         style="stop-color:#ffc67a;stop-opacity:1;"
         offset="0.54782552"
         id="stop1457" />
      <stop
         style="stop-color:#ffc57d;stop-opacity:1;"
         offset="0.61341411"
         id="stop1459" />
      <stop
         style="stop-color:#ffcb7a;stop-opacity:1;"
         offset="0.68246663"
         id="stop1461" />
      <stop
         style="stop-color:#ffbf76;stop-opacity:1;"
         offset="0.73423874"
         id="stop1463" />
      <stop
         style="stop-color:#ffc66b;stop-opacity:1;"
         offset="0.82545269"
         id="stop1469" />
      <stop
         style="stop-color:#ffca84;stop-opacity:1;"
         offset="0.89189297"
         id="stop1471" />
      <stop
         style="stop-color:#ffba72;stop-opacity:1;"
         offset="0.94046402"
         id="stop1473" />
      <stop
         style="stop-color:#ffd889;stop-opacity:1;"
         offset="1"
         id="stop1465" />
    </linearGradient>
    <linearGradient
       xlink:href="#linearGradient6126"
       id="linearGradient8589"
       gradientUnits="userSpaceOnUse"
       gradientTransform="translate(-2.31e-4,-2.49e-4)"
       x1="-1215.5699"
       y1="167.93315"
       x2="-1215.5706"
       y2="-275.99411" />
    <linearGradient
       id="linearGradient6126">
      <stop
         style="stop-color:#f6cf8d;stop-opacity:1;"
         offset="0"
         id="stop6122" />
      <stop
         style="stop-color:#fafa9a;stop-opacity:1;"
         offset="0.60526317"
         id="stop6124" />
    </linearGradient>
    <linearGradient
       xlink:href="#linearGradient10448"
       id="linearGradient8591"
       gradientUnits="userSpaceOnUse"
       gradientTransform="translate(-844.32051,-151.71975)"
       x1="-371.25"
       y1="319.65253"
       x2="-371.25"
       y2="358.62" />
    <linearGradient
       id="linearGradient10448">
      <stop
         style="stop-color:#ecb857;stop-opacity:1;"
         offset="0.28728068"
         id="stop10446" />
      <stop
         style="stop-color:#efcb98;stop-opacity:1;"
         offset="0.5"
         id="stop10444" />
      <stop
         style="stop-color:#edaf69;stop-opacity:1;"
         offset="0.7390351"
         id="stop10442" />
    </linearGradient>
    <filter
       style="color-interpolation-filters:sRGB"
       id="filter1412"
       x="-0.0026895615"
       y="-0.033650937"
       width="1.0053791"
       height="1.0673019">
      <feGaussianBlur
         stdDeviation="0.58166051"
         id="feGaussianBlur1414" />
    </filter>
    <filter
       style="color-interpolation-filters:sRGB"
       id="filter1479"
       x="-0.0034826777"
       y="-0.043574268"
       width="1.0069654"
       height="1.0871485">
      <feGaussianBlur
         stdDeviation="0.75318466"
         id="feGaussianBlur1481" />
    </filter>
    <linearGradient
       xlink:href="#linearGradient6120"
       id="linearGradient8593"
       gradientUnits="userSpaceOnUse"
       gradientTransform="translate(3e-4,-58.31528)"
       x1="-1287.3033"
       y1="-301.47824"
       x2="-1285.3059"
       y2="-294.02359" />
    <linearGradient
       id="linearGradient6120">
      <stop
         style="stop-color:#ffffff;stop-opacity:1;"
         offset="0"
         id="stop6116" />
      <stop
         style="stop-color:#ffffff;stop-opacity:0.78947371;"
         offset="1"
         id="stop6118" />
    </linearGradient>
    <linearGradient
       xlink:href="#linearGradient6192"
       id="linearGradient8595"
       gradientUnits="userSpaceOnUse"
       gradientTransform="translate(-32.6565,-37.75432)"
       x1="-1394.903"
       y1="-58.592804"
       x2="-1385.5217"
       y2="-57.119999" />
    <linearGradient
       id="linearGradient6192">
      <stop
         style="stop-color:#ffffff;stop-opacity:1;"
         offset="0.64473683"
         id="stop6188" />
      <stop
         style="stop-color:#ffffff;stop-opacity:0;"
         offset="1"
         id="stop6190" />
    </linearGradient>
    <filter
       style="color-interpolation-filters:sRGB"
       id="filter6136"
       x="-0.0020314876"
       y="-0.080969957"
       width="1.004063"
       height="1.1619399">
      <feGaussianBlur
         stdDeviation="0.43934162"
         id="feGaussianBlur6134" />
    </filter>
    <linearGradient
       xlink:href="#linearGradient6152"
       id="linearGradient8597"
       gradientUnits="userSpaceOnUse"
       gradientTransform="translate(1.8438616e-5,3.0661715)"
       x1="-1432.5771"
       y1="186.15788"
       x2="-998.56384"
       y2="186.15788" />
    <linearGradient
       id="linearGradient6152">
      <stop
         style="stop-color:#c14360;stop-opacity:1;"
         offset="0"
         id="stop6148" />
      <stop
         style="stop-color:#4f1a26;stop-opacity:1;"
         offset="0.05921053"
         id="stop6156" />
      <stop
         style="stop-color:#c54d69;stop-opacity:1;"
         offset="0.18201755"
         id="stop6158" />
      <stop
         style="stop-color:#3e141e;stop-opacity:1;"
         offset="0.25274122"
         id="stop6164" />
      <stop
         style="stop-color:#cb5974;stop-opacity:1;"
         offset="0.34950656"
         id="stop6166" />
      <stop
         style="stop-color:#3c131d;stop-opacity:1;"
         offset="0.40652412"
         id="stop6168" />
      <stop
         style="stop-color:#d16f87;stop-opacity:1;"
         offset="0.51425439"
         id="stop6162" />
      <stop
         style="stop-color:#3b121c;stop-opacity:1;"
         offset="0.60718203"
         id="stop6176" />
      <stop
         style="stop-color:#d16a84;stop-opacity:1;"
         offset="0.69353068"
         id="stop6170" />
      <stop
         style="stop-color:#39121b;stop-opacity:1;"
         offset="0.77549338"
         id="stop6172" />
      <stop
         style="stop-color:#cc5f79;stop-opacity:1;"
         offset="0.84210527"
         id="stop6160" />
      <stop
         style="stop-color:#341119;stop-opacity:1;"
         offset="0.9375"
         id="stop6174" />
      <stop
         style="stop-color:#ce6981;stop-opacity:1;"
         offset="1"
         id="stop6150" />
    </linearGradient>
    <filter
       style="color-interpolation-filters:sRGB"
       id="filter18126-8-46-1-8-13-8"
       x="-0.046772214"
       y="-0.078198094"
       width="1.0935444"
       height="1.1563962">
      <feGaussianBlur
         stdDeviation="0.39182262"
         id="feGaussianBlur18128-8-90-3-3-88-1" />
    </filter>
    <filter
       style="color-interpolation-filters:sRGB"
       id="filter18126-8-46-1-8-05-0"
       x="-0.054772036"
       y="-0.085612569"
       width="1.1095441"
       height="1.1712251">
      <feGaussianBlur
         stdDeviation="0.39182262"
         id="feGaussianBlur18128-8-90-3-3-94-2" />
    </filter>
    <filter
       style="color-interpolation-filters:sRGB"
       id="filter18126-8-46-1-8-94-3"
       x="-0.047052474"
       y="-0.063647475"
       width="1.0941049"
       height="1.127295">
      <feGaussianBlur
         stdDeviation="0.39182262"
         id="feGaussianBlur18128-8-90-3-3-54-2" />
    </filter>
    <filter
       style="color-interpolation-filters:sRGB"
       id="filter18126-8-46-1-8-597-0"
       x="-0.04180239"
       y="-0.057228879"
       width="1.0836048"
       height="1.1144578">
      <feGaussianBlur
         stdDeviation="0.39182262"
         id="feGaussianBlur18128-8-90-3-3-28-2" />
    </filter>
    <filter
       style="color-interpolation-filters:sRGB"
       id="filter18126-8-46-1-8-463-2"
       x="-0.079403703"
       y="-0.082914084"
       width="1.1588074"
       height="1.1658282">
      <feGaussianBlur
         stdDeviation="0.39182262"
         id="feGaussianBlur18128-8-90-3-3-262-5" />
    </filter>
    <filter
       style="color-interpolation-filters:sRGB"
       id="filter18126-8-46-1-8-068-8"
       x="-0.091016787"
       y="-0.084738237"
       width="1.1820336"
       height="1.1694765">
      <feGaussianBlur
         stdDeviation="0.39182262"
         id="feGaussianBlur18128-8-90-3-3-443-5" />
    </filter>
    <filter
       style="color-interpolation-filters:sRGB"
       id="filter18126-8-46-1-8-45-3"
       x="-0.042478722"
       y="-0.032671581"
       width="1.0849574"
       height="1.0653432">
      <feGaussianBlur
         stdDeviation="0.39182262"
         id="feGaussianBlur18128-8-90-3-3-946-8" />
    </filter>
    <filter
       style="color-interpolation-filters:sRGB"
       id="filter18126-8-46-1-8-81-2"
       x="-0.079403802"
       y="-0.082912596"
       width="1.1588076"
       height="1.1658252">
      <feGaussianBlur
         stdDeviation="0.39182262"
         id="feGaussianBlur18128-8-90-3-3-75-5" />
    </filter>
    <filter
       style="color-interpolation-filters:sRGB"
       id="filter18126-8-46-1-8-93-9"
       x="-0.047507045"
       y="-0.058593493"
       width="1.0950141"
       height="1.117187">
      <feGaussianBlur
         stdDeviation="0.39182262"
         id="feGaussianBlur18128-8-90-3-3-11-0" />
    </filter>
  </defs>
  <g
     id="layer1">
    <path
       style="mix-blend-mode:normal;filter:url(#filter6180);opacity:0.808717;fill:#26282f;fill-opacity:1;stroke:none;stroke-width:1.257"
       d="m -2788.5664,191.84538 c 0,0 33.1314,36.87543 33.1314,36.87543 0,0 507.5189,0 507.5189,0 0,0 -95.4549,-520.22822 -95.4549,-520.22822 0,0 -22.6016,-9.60585 -22.6016,-9.60585 0,0 -422.5938,492.95864 -422.5938,492.95864 z"
       id="path7377"
       transform="matrix(2.0051344,0,0,2.0051344,5745.3954,966.43299)" />
    <g
       id="g7399"
       transform="matrix(2.0051344,0,0,2.0051344,3097.3816,931.88246)"
       style="mix-blend-mode:normal;filter:url(#filter6142-5)">
      <path
         id="path7379"
         style="fill:url(#linearGradient8587);fill-opacity:1;stroke:none;stroke-width:1.257"
         d="m -1215.5702,-378.67062 -176.1229,58.3152 -83.3963,485.77126 259.5192,2.51706 259.51913,-2.51706 -83.39633,-485.77126 z" />
      <path
         id="path7381"
         style="opacity:0.353511;mix-blend-mode:overlay;fill:url(#linearGradient8589);fill-opacity:1;stroke:none;stroke-width:1.257"
         d="m -1215.5702,-378.67062 -176.1229,58.3152 -83.3963,485.77126 259.5192,2.51716 259.51913,-2.51716 -83.39633,-485.77126 z" />
      <g
         id="g57170"
         transform="matrix(0.34414813,0,0,0.34414813,7768.6767,-4483.2804)">
        <path
           d="m -26218.882,12804.136 c -30.068,-33.83 -52.167,-64.01 -49.11,-67.067 3.057,-3.056 23.148,2.989 44.645,13.434 21.5,10.445 40.938,18.991 43.196,18.991 2.258,0 4.105,-17.308 4.105,-38.463 0,-45.101 -10.569,-51.524 -68.521,-41.631 -36.74,6.272 -38.43,7.954 -48.707,48.421 -5.855,23.058 -18.917,50.195 -29.026,60.304 l -18.381,18.381 -31.224,-30.014 c -31.925,-30.687 -60.468,-75.939 -52.761,-83.647 2.364,-2.363 16.48,4.711 31.371,15.72 32.766,24.225 51.513,16.401 67.079,-27.997 12.48,-35.589 14.481,-137.28 3.284,-166.731 -4.731,-12.443 -24.254,-29.025 -47.324,-40.192 -35.326,-17.102 -58.005,-46.195 -45.644,-58.555 2.578,-2.578 17.183,-0.331 32.456,4.992 15.274,5.325 52.655,9.681 83.069,9.681 52.836,0 57.052,-1.614 94.564,-36.191 26.505,-24.431 38.423,-42.024 36.683,-54.143 -3.874,-26.973 -27.105,-26.269 -39.282,1.19 -14.188,31.992 -51.909,71.79 -68.045,71.79 -21.605,0 -23.732,-23.951 -4.525,-50.925 23.082,-32.416 22.798,-35.847 -2.963,-35.847 -34.849,0 -65.242,-15.655 -75.927,-39.108 -16.619,-36.472 1.562,-44.996 48.705,-22.837 41.602,19.556 63.175,22.657 80.596,11.588 11.836,-7.522 -0.323,-36.848 -31.955,-77.062 -39.463,-50.169 -0.233,-64.273 54.132,-19.46 26.214,21.607 32.346,32.478 32.346,57.329 0,25.896 2.364,29.657 15.187,24.173 35.295,-15.095 58.865,-13.654 78.56,4.803 26.576,24.905 20.498,37.957 -20.126,43.22 -31.387,4.066 -32.568,5.253 -18.845,18.904 21.529,21.415 18.046,37.788 -13.558,63.702 l -28.2,23.125 45.396,-4.714 c 38.772,-4.025 48.905,-1.789 69.417,15.32 21.843,18.218 29.017,19.435 79.149,13.429 59.314,-7.107 76.036,-16.543 67.722,-38.213 -4.321,-11.26 -19.569,-13.546 -84.518,-12.673 -60.205,0.81 -82.396,-2.084 -92.357,-12.043 -19.232,-19.234 -6.052,-32.128 32.844,-32.128 h 34.196 v -63.455 c 0,-59.01 -1.802,-65.182 -25.722,-88.1 -43.669,-41.837 -5.367,-57.081 42.411,-16.878 19.065,16.043 26.697,30.029 26.697,48.929 v 26.465 l 52.112,-4.725 c 42.406,-3.845 55.74,-1.76 71.585,11.195 28.149,23.01 11.562,34.583 -59.659,41.621 -54.416,5.378 -59.96,7.743 -62.641,26.718 -2.879,20.363 -1.867,20.706 46.344,15.73 52.222,-5.39 86.611,4.336 95.289,26.95 5.102,13.298 -37.111,82.049 -63.573,103.537 -7.721,6.27 -37.896,10.847 -71.509,10.847 -46.28,0 -59.289,2.953 -63.706,14.466 -10.009,26.083 7.696,30.816 76.353,20.408 70.543,-10.693 83.531,-8.124 83.531,16.521 0,17.222 -43.553,26.699 -122.692,26.699 -38.699,0 -42.175,1.711 -42.175,20.764 0,27.528 10.541,30.266 82.433,21.413 71.681,-8.826 84.596,-5.522 80.872,20.693 -1.98,13.952 -9.539,20.342 -26.354,22.281 -20.713,2.387 -23.445,6.27 -22.479,31.95 1.188,31.58 -18.983,68.736 -51.002,93.949 -11.046,8.698 -20.084,19.436 -20.084,23.862 0,11.514 49.958,9.933 84.853,-2.686 32.266,-11.667 31.501,-6.188 13.917,-99.9 -6.253,-33.326 10.277,-39.207 22.184,-7.891 4.248,11.169 23.675,38.74 43.171,61.267 19.498,22.527 35.449,44.021 35.449,47.763 0,22.209 -84.479,61.182 -133.159,61.431 -37.325,0.19 -114.657,-24.577 -129.251,-41.395 -19.227,-22.16 -27.949,-75.877 -24.961,-153.714 7.389,-192.377 7.54,-190.59 -16.329,-193.963 -11.93,-1.686 -65.554,-0.329 -119.161,3.016 -91.001,5.678 -96.904,7.14 -88.938,22.026 7.609,14.218 16.748,15.419 84.454,11.097 69.769,-4.453 77.262,-3.351 92.473,13.604 15.058,16.785 15.507,21.774 4.983,55.303 -6.794,21.649 -11.834,80.609 -12.212,142.903 -0.579,95.157 -2.489,107.893 -18.593,124.001 l -17.946,17.952 z m 251.119,-86.775 c 15.032,-36.292 -0.793,-60.67 -39.383,-60.67 h -30.064 v 43.956 c 0,24.176 4.239,51.876 9.418,61.556 9.396,17.555 9.471,17.551 29.672,-1.428 11.14,-10.465 24.799,-30.001 30.357,-43.414 z m -213.81,-78.364 c 14.902,-13.584 -4.983,-25.692 -42.195,-25.692 -39.024,0 -52.712,9.196 -44.716,30.035 3.283,8.553 14.964,10.547 41.986,7.166 20.591,-2.576 40.808,-7.756 44.925,-11.509 z m 12.038,-65.199 c 17.595,-5.408 12.431,-21.059 -9.732,-29.485 -30.496,-11.595 -92.226,5.977 -92.226,26.253 0,13.977 5.486,15.329 45.554,11.228 25.056,-2.565 50.436,-6.163 56.404,-7.996 z m 34.526,-278.112 c -2.883,-2.883 2.883,2.884 0,0 z"
           style="fill:#800000;stroke-width:8.67714"
           id="path7807" />
        <path
           style="fill:#ffffff;fill-opacity:1;stroke:none;stroke-width:0.626891;filter:url(#filter18126-8-46-1-8-13-8)"
           d="m -6377.951,-151.23045 c 5.0218,1.47947 12.7303,6.08864 12.9363,8.76945 0.2061,2.68081 -7.0882,3.43206 -12.1108,1.95221 -5.0227,-1.47985 -7.7716,-5.19088 -7.9778,-7.87129 -0.2062,-2.68041 2.1305,-4.32983 7.1523,-2.85037 z"
           id="path7809"
           transform="matrix(2.0051344,0,0,2.0051344,-13084.633,12561.415)" />
        <path
           style="fill:#ffffff;fill-opacity:1;stroke:none;stroke-width:0.626891;filter:url(#filter18126-8-46-1-8-05-0)"
           d="m -6370.5211,-98.391449 c 4.2877,0.668161 10.5273,3.654179 10.7329,6.334999 0.2056,2.68082 -5.62,5.054785 -9.908,4.386451 -4.2879,-0.668334 -7.0368,-4.379366 -7.243,-7.059775 -0.2062,-2.68041 2.1304,-4.329837 6.4181,-3.661675 z"
           id="path7811"
           transform="matrix(2.0051344,0,0,2.0051344,-13084.633,12561.415)" />
        <path
           style="fill:#ffffff;fill-opacity:1;stroke:none;stroke-width:0.626891;filter:url(#filter18126-8-46-1-8-94-3)"
           d="m -6493.7057,-145.45465 c 4.9959,0.96911 11.9008,6.36588 11.7351,9.95392 -0.1658,3.58804 -7.4034,5.36228 -12.3976,4.39404 -4.9942,-0.96825 -7.7431,-4.67928 -7.5781,-8.26642 0.165,-3.58714 3.2446,-7.05064 8.2406,-6.08154 z"
           id="path7813"
           transform="matrix(2.0051344,0,0,2.0051344,-13084.633,12561.415)" />
        <path
           style="fill:#ffffff;fill-opacity:1;stroke:none;stroke-width:0.626891;filter:url(#filter18126-8-46-1-8-597-0)"
           d="m -6557.549,-188.74299 c 5.5606,1.83168 15.4725,9.161 16.2474,12.8531 0.7749,3.6921 -7.5913,3.74075 -13.1501,1.9095 -5.5588,-1.83125 -8.3077,-5.54228 -9.0827,-9.2327 -0.775,-3.69043 0.4248,-7.36157 5.9854,-5.5299 z"
           id="path7815"
           transform="matrix(2.0051344,0,0,2.0051344,-13084.633,12561.415)" />
        <path
           style="fill:#ffffff;fill-opacity:1;stroke:none;stroke-width:0.626891;filter:url(#filter18126-8-46-1-8-463-2)"
           d="m -6385.2653,-15.221099 c 2.9545,1.031491 6.5291,4.743618 6.7348,7.42336 0.2056,2.6797422 -2.9532,4.3278304 -5.9097,3.2976178 -2.9564,-1.0302125 -5.7042,-4.739706 -5.911,-7.4208838 -0.2067,-2.681179 2.1313,-4.331585 5.0859,-3.300094 z"
           id="path7817"
           transform="matrix(2.0051344,0,0,2.0051344,-13084.633,12561.415)" />
        <path
           style="fill:#ffffff;fill-opacity:1;stroke:none;stroke-width:0.626891;filter:url(#filter18126-8-46-1-8-068-8)"
           d="m -6382.1454,28.287302 c 2.577,0.802311 5.394,4.055822 5.5995,6.736312 0.2054,2.68049 -2.1986,4.787035 -4.7752,3.984844 -2.5766,-0.802191 -5.3255,-4.513223 -5.5317,-7.193632 -0.2062,-2.68041 2.1305,-4.329835 4.7074,-3.527524 z"
           id="path7819"
           transform="matrix(2.0051344,0,0,2.0051344,-13084.633,12561.415)" />
        <path
           style="fill:#ffffff;fill-opacity:1;stroke:none;stroke-width:0.626891;filter:url(#filter18126-8-46-1-8-45-3)"
           d="m -6365.149,90.697316 c 2.9558,1.030846 14.8347,13.591814 19.1988,20.702704 4.3641,7.11088 1.2028,8.76026 -1.7524,7.7294 -2.9552,-1.03086 -5.7041,-4.74189 -10.0654,-11.84908 -4.3613,-7.1072 -10.3368,-17.61387 -7.381,-16.583024 z"
           id="path7821"
           transform="matrix(2.0051344,0,0,2.0051344,-13084.633,12561.415)" />
        <path
           style="fill:#ffffff;fill-opacity:1;stroke:none;stroke-width:0.626891;filter:url(#filter18126-8-46-1-8-81-2)"
           d="m -6506.5623,-16.970109 c 2.9552,1.031001 6.5289,4.742208 6.735,7.4224099 0.2061,2.6802023 -2.9552,4.3295849 -5.9104,3.2987252 -2.9552,-1.0308598 -5.7041,-4.7418911 -5.9103,-7.4223001 -0.2062,-2.68041 2.1305,-4.329835 5.0857,-3.298835 z"
           id="path7823"
           transform="matrix(2.0051344,0,0,2.0051344,-13084.633,12561.415)" />
        <path
           style="fill:#ffffff;fill-opacity:1;stroke:none;stroke-width:0.626891;filter:url(#filter18126-8-46-1-8-93-9)"
           d="m -6449.174,-191.71985 c 4.9438,2.97715 12.4968,10.58262 12.7032,13.26359 0.2065,2.68097 -6.9321,0.43674 -11.8773,-2.54137 -4.9451,-2.97811 -7.694,-6.68914 -7.9002,-9.36955 -0.2062,-2.68041 2.1305,-4.32983 7.0743,-1.35267 z"
           id="path7825"
           transform="matrix(2.0051344,0,0,2.0051344,-13084.633,12561.415)" />
      </g>
      <path
         id="path7383"
         style="opacity:1;fill:url(#linearGradient8591);fill-opacity:1;stroke:none;stroke-width:1.257;filter:url(#filter1412)"
         d="m -1475.0893,165.41574 7.1396,40.59442 252.3795,0.88987 252.37953,-0.88977 7.1396,-40.59442 -259.51913,2.51706 z" />
      <path
         id="path7385"
         style="opacity:0.602906;mix-blend-mode:multiply;fill:#6d2435;fill-opacity:1;stroke:none;stroke-width:1.257;filter:url(#filter1479)"
         d="m -1475.0894,165.41584 7.1396,40.5944 252.3796,0.88979 252.37953,-0.88977 7.1396,-40.59442 -259.51913,2.51705 z" />
      <path
         style="opacity:0.581114;mix-blend-mode:overlay;fill:url(#linearGradient8593);fill-opacity:1;stroke:none;stroke-width:1.257"
         d="m -1391.6931,-320.35542 c 0,0 8.8093,6.60699 8.8093,6.60699 0,0 167.3136,-56.74211 167.3136,-56.74211 0,0 0,-8.18008 0,-8.18008 0,0 -176.1229,58.3152 -176.1229,58.3152 z"
         id="path7387" />
      <path
         style="opacity:0.915254;mix-blend-mode:normal;fill:url(#linearGradient8595);fill-opacity:1;stroke:none;stroke-width:1.257"
         d="m -1391.6931,-320.35542 c 0,0 8.8093,6.60699 8.8093,6.60699 0,0 -81.1485,468.65911 -81.1485,468.65911 0,0 -11.0571,10.50516 -11.0571,10.50516 0,0 83.3963,-485.77126 83.3963,-485.77126 z"
         id="path7389" />
      <path
         id="path7391"
         style="opacity:0.198547;mix-blend-mode:normal;fill:#ffffff;fill-opacity:1;stroke:none;stroke-width:1.257;filter:url(#filter6136)"
         d="m -1464.0327,154.91054 -11.0567,10.5053 259.5192,2.51706 259.51913,-2.51706 -11.0567,-10.5053 -70.80133,0.30391 -177.6611,0.76259 z" />
      <path
         style="opacity:0.263923;mix-blend-mode:multiply;fill:#26282f;fill-opacity:1;stroke:none;stroke-width:1.257"
         d="m -1039.4474,-320.35542 c 0,0 -8.8093,6.60699 -8.8093,6.60699 0,0 81.14853,468.65911 81.14853,468.65911 0,0 11.0571,10.50516 11.0571,10.50516 0,0 -83.39633,-485.77126 -83.39633,-485.77126 z"
         id="path7393" />
      <path
         style="opacity:0.070218;mix-blend-mode:normal;fill:#26282f;fill-opacity:1;stroke:none;stroke-width:1.257"
         d="m -1039.4474,-320.35542 c 0,0 -8.8093,6.60699 -8.8093,6.60699 0,0 -167.3135,-56.74211 -167.3135,-56.74211 0,0 0,-8.18008 0,-8.18008 0,0 176.1228,58.3152 176.1228,58.3152 z"
         id="path7395" />
      <path
         id="path7397"
         style="opacity:0.135593;mix-blend-mode:multiply;fill:url(#linearGradient8597);fill-opacity:1;stroke:none;stroke-width:1.257;filter:url(#filter1479)"
         d="m -1475.0894,168.48201 7.1396,40.5944 252.3796,0.88979 252.37953,-0.88977 7.1396,-40.59442 -259.51913,2.51705 z" />
      <g
         id="g39105"
         transform="translate(2.5192173,3.022756)">
        <path
           id="path98402-5-6"
           style="mix-blend-mode:normal;stroke:none;stroke-width:2.08197;fill:#990000;fill-opacity:1"
           d="m -1218.0894,126.21649 22.767,-46.4651 -45.534,3.3e-4 z" />
        <rect
           style="mix-blend-mode:normal;fill:#990000;fill-opacity:1;stroke:none;stroke-width:0.386408"
           id="rect98398-4-6"
           width="5.9197216"
           height="71.171066"
           x="-1221.0493"
           y="38.712734" />
        <path
           id="path2970-3-8"
           style="mix-blend-mode:normal;stroke:none;stroke-width:2.08197;fill:#990000;fill-opacity:1"
           d="m -1218.0894,-49.17745 -22.767,46.4651 45.534,-3.3e-4 z" />
        <rect
           style="mix-blend-mode:normal;fill:#990000;fill-opacity:1;stroke:none;stroke-width:0.386408"
           id="rect2972-3-9"
           width="5.9197216"
           height="71.171066"
           x="1215.1294"
           y="-38.326309"
           transform="scale(-1)" />
        <path
           id="path2974-6-9"
           style="mix-blend-mode:normal;stroke:none;stroke-width:2.08197;fill:#990000;fill-opacity:1"
           d="m -1305.7864,38.51952 46.4651,22.767 -3e-4,-45.534 z" />
        <rect
           style="mix-blend-mode:normal;fill:#990000;fill-opacity:1;stroke:none;stroke-width:0.386408"
           id="rect2976-6-7"
           width="5.9197216"
           height="71.171066"
           x="35.559525"
           y="1218.2825"
           transform="rotate(90)" />
        <path
           id="path2978-6-3"
           style="mix-blend-mode:normal;stroke:none;stroke-width:2.08197;fill:#990000;fill-opacity:1"
           d="m -1130.3924,38.51952 -46.4651,-22.767 3e-4,45.534 z" />
        <rect
           style="mix-blend-mode:normal;fill:#990000;fill-opacity:1;stroke:none;stroke-width:0.386408"
           id="rect2980-2-9"
           width="5.9197216"
           height="71.171066"
           x="-41.479446"
           y="-1217.8962"
           transform="rotate(-90)" />
        <rect
           style="mix-blend-mode:normal;fill:#990000;fill-opacity:1;stroke:none;stroke-width:0.386408"
           id="rect14708"
           width="5.9197216"
           height="71.171066"
           x="-837.04187"
           y="888.74988"
           transform="rotate(45)" />
        <rect
           style="mix-blend-mode:normal;fill:#990000;fill-opacity:1;stroke:none;stroke-width:0.386408"
           id="rect14712"
           width="5.9197216"
           height="71.171066"
           x="831.12201"
           y="-888.36353"
           transform="rotate(-135)" />
        <rect
           style="mix-blend-mode:normal;fill:#990000;fill-opacity:1;stroke:none;stroke-width:0.386408"
           id="rect14716"
           width="5.9197216"
           height="71.171066"
           x="885.5968"
           y="834.27509"
           transform="rotate(135)" />
        <rect
           style="mix-blend-mode:normal;fill:#990000;fill-opacity:1;stroke:none;stroke-width:0.386408"
           id="rect14720"
           width="5.9197216"
           height="71.171066"
           x="-891.51672"
           y="-833.88885"
           transform="rotate(-45)" />
      </g>
    </g>
  </g>
</svg>
