<?xml version="1.0" encoding="UTF-8" standalone="no"?>
<!-- Created with Inkscape (http://www.inkscape.org/) -->

<svg
   width="132mm"
   height="144mm"
   viewBox="0 0 1320 1440"
   version="1.1"
   id="svg23702"
   xmlns:xlink="http://www.w3.org/1999/xlink"
   xmlns="http://www.w3.org/2000/svg"
   xmlns:svg="http://www.w3.org/2000/svg">
  <defs
     id="defs23699">
    <filter
       style="color-interpolation-filters:sRGB"
       id="filter6180"
       x="-0.040028725"
       y="-0.040845886"
       width="1.0800574"
       height="1.0816918">
      <feGaussianBlur
         stdDeviation="9.0173096"
         id="feGaussianBlur6178" />
    </filter>
    <filter
       style="color-interpolation-filters:sRGB"
       id="filter6142-5"
       x="-0.27529753"
       y="-0.081832219"
       width="1.5505951"
       height="1.1636644">
      <feGaussianBlur
         stdDeviation="0.59853361"
         id="feGaussianBlur6144-0" />
    </filter>
    <linearGradient
       xlink:href="#linearGradient1467"
       id="linearGradient8587"
       gradientUnits="userSpaceOnUse"
       gradientTransform="translate(-844.32051,-151.71975)"
       x1="-630.76886"
       y1="75.508476"
       x2="-117.25891"
       y2="75.508476" />
    <linearGradient
       id="linearGradient1467">
      <stop
         style="stop-color:#ffeab1;stop-opacity:1;"
         offset="0"
         id="stop1441" />
      <stop
         style="stop-color:#ffd774;stop-opacity:1;"
         offset="0.05596975"
         id="stop1443" />
      <stop
         style="stop-color:#ffd394;stop-opacity:1;"
         offset="0.12240581"
         id="stop1445" />
      <stop
         style="stop-color:#ffc474;stop-opacity:1;"
         offset="0.18442476"
         id="stop1447" />
      <stop
         style="stop-color:#ffce8c;stop-opacity:1;"
         offset="0.25016946"
         id="stop1449" />
      <stop
         style="stop-color:#ffc474;stop-opacity:1;"
         offset="0.3166357"
         id="stop1451" />
      <stop
         style="stop-color:#ffc389;stop-opacity:1;"
         offset="0.38451442"
         id="stop1453" />
      <stop
         style="stop-color:#ffc674;stop-opacity:1;"
         offset="0.47559014"
         id="stop1455" />
      <stop
         style="stop-color:#ffc67a;stop-opacity:1;"
         offset="0.54782552"
         id="stop1457" />
      <stop
         style="stop-color:#ffc57d;stop-opacity:1;"
         offset="0.61341411"
         id="stop1459" />
      <stop
         style="stop-color:#ffcb7a;stop-opacity:1;"
         offset="0.68246663"
         id="stop1461" />
      <stop
         style="stop-color:#ffbf76;stop-opacity:1;"
         offset="0.73423874"
         id="stop1463" />
      <stop
         style="stop-color:#ffc66b;stop-opacity:1;"
         offset="0.82545269"
         id="stop1469" />
      <stop
         style="stop-color:#ffca84;stop-opacity:1;"
         offset="0.89189297"
         id="stop1471" />
      <stop
         style="stop-color:#ffba72;stop-opacity:1;"
         offset="0.94046402"
         id="stop1473" />
      <stop
         style="stop-color:#ffd889;stop-opacity:1;"
         offset="1"
         id="stop1465" />
    </linearGradient>
    <linearGradient
       xlink:href="#linearGradient6126"
       id="linearGradient8589"
       gradientUnits="userSpaceOnUse"
       gradientTransform="translate(-2.31e-4,-2.49e-4)"
       x1="-1215.5699"
       y1="167.93315"
       x2="-1215.5706"
       y2="-275.99411" />
    <linearGradient
       id="linearGradient6126">
      <stop
         style="stop-color:#f6cf8d;stop-opacity:1;"
         offset="0"
         id="stop6122" />
      <stop
         style="stop-color:#fafa9a;stop-opacity:1;"
         offset="0.60526317"
         id="stop6124" />
    </linearGradient>
    <linearGradient
       xlink:href="#linearGradient10448"
       id="linearGradient8591"
       gradientUnits="userSpaceOnUse"
       gradientTransform="translate(-844.32051,-151.71975)"
       x1="-371.25"
       y1="319.65253"
       x2="-371.25"
       y2="358.62" />
    <linearGradient
       id="linearGradient10448">
      <stop
         style="stop-color:#ecb857;stop-opacity:1;"
         offset="0.28728068"
         id="stop10446" />
      <stop
         style="stop-color:#efcb98;stop-opacity:1;"
         offset="0.5"
         id="stop10444" />
      <stop
         style="stop-color:#edaf69;stop-opacity:1;"
         offset="0.7390351"
         id="stop10442" />
    </linearGradient>
    <filter
       style="color-interpolation-filters:sRGB"
       id="filter1412"
       x="-0.0026895615"
       y="-0.033650937"
       width="1.0053791"
       height="1.0673019">
      <feGaussianBlur
         stdDeviation="0.58166051"
         id="feGaussianBlur1414" />
    </filter>
    <filter
       style="color-interpolation-filters:sRGB"
       id="filter1479"
       x="-0.0034826777"
       y="-0.043574268"
       width="1.0069654"
       height="1.0871485">
      <feGaussianBlur
         stdDeviation="0.75318466"
         id="feGaussianBlur1481" />
    </filter>
    <linearGradient
       xlink:href="#linearGradient6120"
       id="linearGradient8593"
       gradientUnits="userSpaceOnUse"
       gradientTransform="translate(3e-4,-58.31528)"
       x1="-1287.3033"
       y1="-301.47824"
       x2="-1285.3059"
       y2="-294.02359" />
    <linearGradient
       id="linearGradient6120">
      <stop
         style="stop-color:#ffffff;stop-opacity:1;"
         offset="0"
         id="stop6116" />
      <stop
         style="stop-color:#ffffff;stop-opacity:0.78947371;"
         offset="1"
         id="stop6118" />
    </linearGradient>
    <linearGradient
       xlink:href="#linearGradient6192"
       id="linearGradient8595"
       gradientUnits="userSpaceOnUse"
       gradientTransform="translate(-32.6565,-37.75432)"
       x1="-1394.903"
       y1="-58.592804"
       x2="-1385.5217"
       y2="-57.119999" />
    <linearGradient
       id="linearGradient6192">
      <stop
         style="stop-color:#ffffff;stop-opacity:1;"
         offset="0.64473683"
         id="stop6188" />
      <stop
         style="stop-color:#ffffff;stop-opacity:0;"
         offset="1"
         id="stop6190" />
    </linearGradient>
    <filter
       style="color-interpolation-filters:sRGB"
       id="filter6136"
       x="-0.0020314876"
       y="-0.080969957"
       width="1.004063"
       height="1.1619399">
      <feGaussianBlur
         stdDeviation="0.43934162"
         id="feGaussianBlur6134" />
    </filter>
    <linearGradient
       xlink:href="#linearGradient6152"
       id="linearGradient8597"
       gradientUnits="userSpaceOnUse"
       gradientTransform="translate(1.8438616e-5,3.0661715)"
       x1="-1432.5771"
       y1="186.15788"
       x2="-998.56384"
       y2="186.15788" />
    <linearGradient
       id="linearGradient6152">
      <stop
         style="stop-color:#c14360;stop-opacity:1;"
         offset="0"
         id="stop6148" />
      <stop
         style="stop-color:#4f1a26;stop-opacity:1;"
         offset="0.05921053"
         id="stop6156" />
      <stop
         style="stop-color:#c54d69;stop-opacity:1;"
         offset="0.18201755"
         id="stop6158" />
      <stop
         style="stop-color:#3e141e;stop-opacity:1;"
         offset="0.25274122"
         id="stop6164" />
      <stop
         style="stop-color:#cb5974;stop-opacity:1;"
         offset="0.34950656"
         id="stop6166" />
      <stop
         style="stop-color:#3c131d;stop-opacity:1;"
         offset="0.40652412"
         id="stop6168" />
      <stop
         style="stop-color:#d16f87;stop-opacity:1;"
         offset="0.51425439"
         id="stop6162" />
      <stop
         style="stop-color:#3b121c;stop-opacity:1;"
         offset="0.60718203"
         id="stop6176" />
      <stop
         style="stop-color:#d16a84;stop-opacity:1;"
         offset="0.69353068"
         id="stop6170" />
      <stop
         style="stop-color:#39121b;stop-opacity:1;"
         offset="0.77549338"
         id="stop6172" />
      <stop
         style="stop-color:#cc5f79;stop-opacity:1;"
         offset="0.84210527"
         id="stop6160" />
      <stop
         style="stop-color:#341119;stop-opacity:1;"
         offset="0.9375"
         id="stop6174" />
      <stop
         style="stop-color:#ce6981;stop-opacity:1;"
         offset="1"
         id="stop6150" />
    </linearGradient>
    <filter
       style="color-interpolation-filters:sRGB"
       id="filter18126-8-46-1-8-48"
       x="-0.051330125"
       y="-0.071140992"
       width="1.1026603"
       height="1.142282">
      <feGaussianBlur
         stdDeviation="0.39182262"
         id="feGaussianBlur18128-8-90-3-3-043" />
    </filter>
    <filter
       style="color-interpolation-filters:sRGB"
       id="filter18126-8-46-1-8-18"
       x="-0.046936973"
       y="-0.070558732"
       width="1.0938739"
       height="1.1411175">
      <feGaussianBlur
         stdDeviation="0.39182262"
         id="feGaussianBlur18128-8-90-3-3-06" />
    </filter>
    <filter
       style="color-interpolation-filters:sRGB"
       id="filter18126-8-46-1-8-3"
       x="-0.044073175"
       y="-0.07244488"
       width="1.0881463"
       height="1.1448898">
      <feGaussianBlur
         stdDeviation="0.39182262"
         id="feGaussianBlur18128-8-90-3-3-201" />
    </filter>
    <filter
       style="color-interpolation-filters:sRGB"
       id="filter18126-8-46-1-8-032"
       x="-0.079403802"
       y="-0.082912596"
       width="1.1588076"
       height="1.1658252">
      <feGaussianBlur
         stdDeviation="0.39182262"
         id="feGaussianBlur18128-8-90-3-3-57" />
    </filter>
    <filter
       style="color-interpolation-filters:sRGB"
       id="filter18126-8-46-1-8-25"
       x="-0.079403802"
       y="-0.082912596"
       width="1.1588076"
       height="1.1658252">
      <feGaussianBlur
         stdDeviation="0.39182262"
         id="feGaussianBlur18128-8-90-3-3-957" />
    </filter>
  </defs>
  <g
     id="layer1">
    <path
       style="mix-blend-mode:normal;filter:url(#filter6180);opacity:0.808717;fill:#26282f;fill-opacity:1;stroke:none;stroke-width:1.257"
       d="m -2788.5664,191.84538 c 0,0 33.1314,36.87543 33.1314,36.87543 0,0 507.5189,0 507.5189,0 0,0 -95.4549,-520.22822 -95.4549,-520.22822 0,0 -22.6016,-9.60585 -22.6016,-9.60585 0,0 -422.5938,492.95864 -422.5938,492.95864 z"
       id="path7377"
       transform="matrix(2.0051344,0,0,2.0051344,5745.3954,966.43299)" />
    <g
       id="g7399"
       transform="matrix(2.0051344,0,0,2.0051344,3097.3816,931.88246)"
       style="mix-blend-mode:normal;filter:url(#filter6142-5)">
      <path
         id="path7379"
         style="fill:url(#linearGradient8587);fill-opacity:1;stroke:none;stroke-width:1.257"
         d="m -1215.5702,-378.67062 -176.1229,58.3152 -83.3963,485.77126 259.5192,2.51706 259.51913,-2.51706 -83.39633,-485.77126 z" />
      <path
         id="path7381"
         style="opacity:0.353511;mix-blend-mode:overlay;fill:url(#linearGradient8589);fill-opacity:1;stroke:none;stroke-width:1.257"
         d="m -1215.5702,-378.67062 -176.1229,58.3152 -83.3963,485.77126 259.5192,2.51716 259.51913,-2.51716 -83.39633,-485.77126 z" />
      <path
         id="path7383"
         style="opacity:1;fill:url(#linearGradient8591);fill-opacity:1;stroke:none;stroke-width:1.257;filter:url(#filter1412)"
         d="m -1475.0893,165.41574 7.1396,40.59442 252.3795,0.88987 252.37953,-0.88977 7.1396,-40.59442 -259.51913,2.51706 z" />
      <path
         id="path7385"
         style="opacity:0.602906;mix-blend-mode:multiply;fill:#6d2435;fill-opacity:1;stroke:none;stroke-width:1.257;filter:url(#filter1479)"
         d="m -1475.0894,165.41584 7.1396,40.5944 252.3796,0.88979 252.37953,-0.88977 7.1396,-40.59442 -259.51913,2.51705 z" />
      <path
         style="opacity:0.581114;mix-blend-mode:overlay;fill:url(#linearGradient8593);fill-opacity:1;stroke:none;stroke-width:1.257"
         d="m -1391.6931,-320.35542 c 0,0 8.8093,6.60699 8.8093,6.60699 0,0 167.3136,-56.74211 167.3136,-56.74211 0,0 0,-8.18008 0,-8.18008 0,0 -176.1229,58.3152 -176.1229,58.3152 z"
         id="path7387" />
      <path
         style="opacity:0.915254;mix-blend-mode:normal;fill:url(#linearGradient8595);fill-opacity:1;stroke:none;stroke-width:1.257"
         d="m -1391.6931,-320.35542 c 0,0 8.8093,6.60699 8.8093,6.60699 0,0 -81.1485,468.65911 -81.1485,468.65911 0,0 -11.0571,10.50516 -11.0571,10.50516 0,0 83.3963,-485.77126 83.3963,-485.77126 z"
         id="path7389" />
      <path
         id="path7391"
         style="opacity:0.198547;mix-blend-mode:normal;fill:#ffffff;fill-opacity:1;stroke:none;stroke-width:1.257;filter:url(#filter6136)"
         d="m -1464.0327,154.91054 -11.0567,10.5053 259.5192,2.51706 259.51913,-2.51706 -11.0567,-10.5053 -70.80133,0.30391 -177.6611,0.76259 z" />
      <path
         style="opacity:0.263923;mix-blend-mode:multiply;fill:#26282f;fill-opacity:1;stroke:none;stroke-width:1.257"
         d="m -1039.4474,-320.35542 c 0,0 -8.8093,6.60699 -8.8093,6.60699 0,0 81.14853,468.65911 81.14853,468.65911 0,0 11.0571,10.50516 11.0571,10.50516 0,0 -83.39633,-485.77126 -83.39633,-485.77126 z"
         id="path7393" />
      <path
         style="opacity:0.070218;mix-blend-mode:normal;fill:#26282f;fill-opacity:1;stroke:none;stroke-width:1.257"
         d="m -1039.4474,-320.35542 c 0,0 -8.8093,6.60699 -8.8093,6.60699 0,0 -167.3135,-56.74211 -167.3135,-56.74211 0,0 0,-8.18008 0,-8.18008 0,0 176.1228,58.3152 176.1228,58.3152 z"
         id="path7395" />
      <path
         id="path7397"
         style="opacity:0.135593;mix-blend-mode:multiply;fill:url(#linearGradient8597);fill-opacity:1;stroke:none;stroke-width:1.257;filter:url(#filter1479)"
         d="m -1475.0894,168.48201 7.1396,40.5944 252.3796,0.88979 252.37953,-0.88977 7.1396,-40.59442 -259.51913,2.51705 z" />
      <g
         id="g50162"
         transform="matrix(0.74712286,0,0,0.74712286,693.40014,-125.30549)">
        <path
           d="m -2492.651,51.910827 c -14.4125,-16.005312 -26.7768,-30.690312 -27.4765,-32.633324 -2.6093,-7.24939 12.1668,-3.156896 28.5687,7.912088 9.3265,6.29474 18.5887,11.445018 20.5811,11.445018 5.0261,0 4.7129,-124.362637 -0.3361,-133.797567 -3.307,-6.178892 -6.6145,-7.017682 -20.0296,-5.079912 -23.157,3.345362 -37.0494,10.005568 -37.0494,17.762056 0,5.876314 2.546,6.433384 20.0281,4.382001 17.0627,-2.001961 21.0624,-1.206403 27.0097,5.371859 5.6086,6.20502 6.1442,9.282919 2.726,15.669174 -3.5798,6.689477 -7.8544,7.947348 -27.0082,7.947348 -20.6759,0 -22.7556,0.742893 -22.7556,8.126138 0,7.425338 1.5451,7.951986 17.926,6.105576 21.9212,-2.470907 33.9633,1.673554 37.5321,12.917788 3.9524,12.4548259 -7.0374,18.6305709 -33.1543,18.6305709 h -22.018 l -1.0972,35.2887571 -1.0967,35.288757 h -13.3522 -13.3527 l -0.04,-34.144295 -0.04,-34.1442449 -20.9403,-0.014962 -20.9407,-0.014962 -1.9076,27.3594629 c -2.1265,30.49237 -8.8234,41.611076 -22.4559,37.284035 -13.7876,-4.375867 -15.2353,-18.819387 -7.8528,-78.345373 2.7325,-22.03159 5.0904,-52.074714 5.2391,-66.762507 l 0.2718,-26.705049 -15.2604,-1.01683 c -21.7476,-1.45083 -32.4277,-4.28082 -32.4277,-8.59499 0,-2.05822 3.2237,-3.74234 7.1641,-3.74234 16.3356,0 38.383,-13.99792 65.7736,-41.76209 15.9855,-16.20325 32.0328,-33.99139 35.6615,-39.52902 6.3477,-9.68763 6.2759,-10.58777 -1.8897,-23.80045 -5.5542,-8.98833 -7.1925,-15.02628 -4.7398,-17.47893 5.7463,-5.7464 22.7237,0.12069 35.8614,12.39368 11.5245,10.76606 12.1274,14.32433 5.2565,31.01558 -2.4432,5.93412 -0.1311,6.67621 20.8006,6.67621 12.9518,0 26.7828,-1.73051 30.7341,-3.84563 10.535,-5.63802 32.0079,7.13369 33.5384,19.94739 1.4074,11.79059 -11.3239,21.93709 -46.326,36.91933 -29.8544,12.77959 -39.3081,18.29229 -36.3821,21.21773 1.2797,1.27926 9.8492,0.40944 19.0426,-1.93309 31.1161,-7.9271 38.2972,-8.41949 48.5015,-3.32502 24.3759,12.16951 23.5341,8.71299 23.5281,96.609489 0,68.975577 -0.9596,82.38585 -6.6769,93.829971 -10.9698,21.959525 -19.3239,19.676287 -49.1348,-13.428826 z m -60.5391,-87.049577 c 0,-5.93252 -3.4292,-7.108152 -22.2928,-7.643229 -23.0962,-0.655168 -27.6126,1.466436 -23.8722,11.213563 1.6802,4.378908 7.3875,5.46118 24.1824,4.585977 18.3763,-0.957492 21.9826,-2.295507 21.9826,-8.156311 z m -3.5893,-37.227779 c 4.3937,-7.109649 -7.0504,-14.260042 -24.9041,-15.560055 -13.6235,-0.992053 -17.3125,0.06443 -18.3673,5.261992 -2.0677,10.1863 37.5177,19.607214 43.2714,10.298063 z m -14.9965,-43.407471 c 1.1869,-3.09296 17.4417,-15.44993 36.1233,-27.4598 18.6805,-12.00992 33.9638,-22.9827 33.9638,-24.3838 0,-1.40121 -12.4391,-3.43778 -27.6446,-4.52569 l -27.6455,-1.97797 -24.8103,23.08928 c -13.6465,12.69905 -25.4197,24.62623 -26.1638,26.50461 -2.1884,5.5279 11.9273,14.12434 23.4084,14.2556 5.9208,0.0674 11.5643,-2.36438 12.7687,-5.50223 z"
           style="fill:#000000;stroke-width:3.81501"
           id="path7475" />
        <path
           style="fill:#ffffff;fill-opacity:1;stroke:none;stroke-width:0.626891;filter:url(#filter18126-8-46-1-8-48)"
           d="m -2545.1518,-234.93117 c 4.5754,2.01994 11.3907,7.71014 11.5969,10.39085 0.2063,2.68071 -6.1951,2.35123 -10.7714,0.33085 -4.5762,-2.02038 -7.3251,-5.73141 -7.5313,-8.41182 -0.2062,-2.68041 2.1305,-4.32983 6.7058,-2.30988 z"
           id="path7479" />
        <path
           style="fill:#ffffff;fill-opacity:1;stroke:none;stroke-width:0.626891;filter:url(#filter18126-8-46-1-8-18)"
           d="m -2465.5513,-191.59169 c 5.0041,2.06233 12.6773,7.83744 12.8835,10.51821 0.2062,2.68077 -7.0527,2.26639 -12.0578,0.20356 -5.0051,-2.06283 -7.754,-5.77386 -7.9602,-8.45427 -0.2062,-2.68041 2.1305,-4.32983 7.1345,-2.2675 z"
           id="path7481" />
        <path
           style="fill:#ffffff;fill-opacity:1;stroke:none;stroke-width:0.626891;filter:url(#filter18126-8-46-1-8-3)"
           d="m -2462.3393,-121.21736 c 5.3296,1.92436 13.6539,7.42354 13.8601,10.10434 0.2061,2.68081 -7.7039,2.54229 -13.0345,0.61743 -5.3306,-1.92486 -8.0795,-5.63589 -8.2857,-8.3163 -0.2062,-2.68041 2.1305,-4.32983 7.4601,-2.40547 z"
           id="path7483" />
        <path
           style="fill:#ffffff;fill-opacity:1;stroke:none;stroke-width:0.626891;filter:url(#filter18126-8-46-1-8-032)"
           d="m -2490.2795,-28.918922 c 2.9552,1.031001 6.5289,4.742208 6.735,7.42241 0.2061,2.680202 -2.9552,4.329585 -5.9104,3.298725 -2.9552,-1.030859 -5.7041,-4.741891 -5.9103,-7.4223 -0.2062,-2.68041 2.1305,-4.329835 5.0857,-3.298835 z"
           id="path7485" />
        <path
           style="fill:#ffffff;fill-opacity:1;stroke:none;stroke-width:0.626891;filter:url(#filter18126-8-46-1-8-25)"
           d="m -2495.6401,-75.102522 c 2.9552,1.031001 6.5289,4.742208 6.735,7.42241 0.2061,2.680202 -2.9552,4.329585 -5.9104,3.298725 -2.9552,-1.030859 -5.7041,-4.741891 -5.9103,-7.4223 -0.2062,-2.68041 2.1305,-4.329835 5.0857,-3.298835 z"
           id="path7487" />
      </g>
      <g
         id="g41740"
         transform="rotate(45,-1228.4337,36.603385)">
        <path
           id="path98402-5-6"
           style="mix-blend-mode:normal;stroke:#000000;stroke-width:2.08197;filter:url(#filter6142-5)"
           d="m -1214.539,120.00332 22.767,-46.465105 -45.534,3.3e-4 z" />
        <rect
           style="mix-blend-mode:normal;fill:#000000;fill-opacity:1;stroke:#000000;stroke-width:0.386408;filter:url(#filter6142-5)"
           id="rect98398-4-6"
           width="5.9197216"
           height="71.171066"
           x="-1217.4989"
           y="32.499557" />
        <path
           id="path2970-3-8"
           style="mix-blend-mode:normal;stroke:#000000;stroke-width:2.08197;filter:url(#filter6142-5)"
           d="m -1214.539,-55.390625 -22.767,46.4651001 45.534,-3.3e-4 z" />
        <rect
           style="mix-blend-mode:normal;fill:#000000;fill-opacity:1;stroke:#000000;stroke-width:0.386408;filter:url(#filter6142-5)"
           id="rect2972-3-9"
           width="5.9197216"
           height="71.171066"
           x="1215.1294"
           y="-38.326309"
           transform="rotate(180,1.775204,-3.1065875)" />
        <path
           id="path2974-6-9"
           style="mix-blend-mode:normal;stroke:#000000;stroke-width:2.08197;filter:url(#filter6142-5)"
           d="m -1302.236,32.306345 46.4651,22.767 -3e-4,-45.5339999 z" />
        <rect
           style="mix-blend-mode:normal;fill:#000000;fill-opacity:1;stroke:#000000;stroke-width:0.386408;filter:url(#filter6142-5)"
           id="rect2976-6-7"
           width="5.9197216"
           height="71.171066"
           x="35.559525"
           y="1218.2825"
           transform="rotate(90,4.8817914,-1.3313835)" />
        <path
           id="path2978-6-3"
           style="mix-blend-mode:normal;stroke:#000000;stroke-width:2.08197;filter:url(#filter6142-5)"
           d="m -1126.842,32.306345 -46.4651,-22.7669999 3e-4,45.5339999 z" />
        <rect
           style="mix-blend-mode:normal;fill:#000000;fill-opacity:1;stroke:#000000;stroke-width:0.386408;filter:url(#filter6142-5)"
           id="rect2980-2-9"
           width="5.9197216"
           height="71.171066"
           x="-41.479446"
           y="-1217.8962"
           transform="rotate(-90,-1.3313835,-4.8817914)" />
      </g>
    </g>
  </g>
</svg>
