<?xml version="1.0" encoding="UTF-8" standalone="no"?>
<!-- Created with Inkscape (http://www.inkscape.org/) -->

<svg
   width="132mm"
   height="144mm"
   viewBox="0 0 1320 1440"
   version="1.1"
   id="svg23702"
   inkscape:version="1.2 (dc2aedaf03, 2022-05-15)"
   sodipodi:docname="SenteJewel.svg"
   xmlns:inkscape="http://www.inkscape.org/namespaces/inkscape"
   xmlns:sodipodi="http://sodipodi.sourceforge.net/DTD/sodipodi-0.dtd"
   xmlns:xlink="http://www.w3.org/1999/xlink"
   xmlns="http://www.w3.org/2000/svg"
   xmlns:svg="http://www.w3.org/2000/svg">
  <sodipodi:namedview
     id="namedview23704"
     pagecolor="#ffffff"
     bordercolor="#000000"
     borderopacity="0.25"
     inkscape:showpageshadow="2"
     inkscape:pageopacity="0.0"
     inkscape:pagecheckerboard="0"
     inkscape:deskcolor="#d1d1d1"
     inkscape:document-units="mm"
     showgrid="false"
     showguides="true"
     inkscape:zoom="0.8409652"
     inkscape:cx="351.38196"
     inkscape:cy="193.82491"
     inkscape:window-width="1680"
     inkscape:window-height="987"
     inkscape:window-x="-8"
     inkscape:window-y="-8"
     inkscape:window-maximized="1"
     inkscape:current-layer="layer1">
    <sodipodi:guide
       position="108.87253,95.03932"
       orientation="0,1"
       id="guide25740"
       inkscape:locked="false"
       inkscape:label=""
       inkscape:color="rgb(0,134,229)" />
  </sodipodi:namedview>
  <defs
     id="defs23699">
    <filter
       inkscape:collect="always"
       style="color-interpolation-filters:sRGB"
       id="filter6180"
       x="-0.037999951"
       y="-0.03973267"
       width="1.0759999"
       height="1.0794653">
      <feGaussianBlur
         inkscape:collect="always"
         stdDeviation="9.0173096"
         id="feGaussianBlur6178" />
    </filter>
    <inkscape:path-effect
       effect="bspline"
       id="path-effect8053"
       is_visible="true"
       lpeversion="1"
       weight="33.333333"
       steps="2"
       helper_size="0"
       apply_no_weight="true"
       apply_with_weight="true"
       only_selected="false" />
    <filter
       inkscape:collect="always"
       style="color-interpolation-filters:sRGB"
       id="filter6142"
       x="-0.011418086"
       y="-0.01141807"
       width="1.0228362"
       height="1.0228361">
      <feGaussianBlur
         inkscape:collect="always"
         stdDeviation="0.59853361"
         id="feGaussianBlur6144" />
    </filter>
    <linearGradient
       inkscape:collect="always"
       xlink:href="#linearGradient1467"
       id="linearGradient8575"
       gradientUnits="userSpaceOnUse"
       gradientTransform="translate(-844.32051,-151.71975)"
       x1="-644.76459"
       y1="75.508476"
       x2="-98.663521"
       y2="75.508476" />
    <linearGradient
       inkscape:collect="always"
       id="linearGradient1467">
      <stop
         style="stop-color:#ffeab1;stop-opacity:1;"
         offset="0"
         id="stop1441" />
      <stop
         style="stop-color:#ffd774;stop-opacity:1;"
         offset="0.05596975"
         id="stop1443" />
      <stop
         style="stop-color:#ffd394;stop-opacity:1;"
         offset="0.12240581"
         id="stop1445" />
      <stop
         style="stop-color:#ffc474;stop-opacity:1;"
         offset="0.18442476"
         id="stop1447" />
      <stop
         style="stop-color:#ffce8c;stop-opacity:1;"
         offset="0.25016946"
         id="stop1449" />
      <stop
         style="stop-color:#ffc474;stop-opacity:1;"
         offset="0.3166357"
         id="stop1451" />
      <stop
         style="stop-color:#ffc389;stop-opacity:1;"
         offset="0.38451442"
         id="stop1453" />
      <stop
         style="stop-color:#ffc674;stop-opacity:1;"
         offset="0.47559014"
         id="stop1455" />
      <stop
         style="stop-color:#ffc67a;stop-opacity:1;"
         offset="0.54782552"
         id="stop1457" />
      <stop
         style="stop-color:#ffc57d;stop-opacity:1;"
         offset="0.61341411"
         id="stop1459" />
      <stop
         style="stop-color:#ffcb7a;stop-opacity:1;"
         offset="0.68246663"
         id="stop1461" />
      <stop
         style="stop-color:#ffbf76;stop-opacity:1;"
         offset="0.73423874"
         id="stop1463" />
      <stop
         style="stop-color:#ffc66b;stop-opacity:1;"
         offset="0.82545269"
         id="stop1469" />
      <stop
         style="stop-color:#ffca84;stop-opacity:1;"
         offset="0.89189297"
         id="stop1471" />
      <stop
         style="stop-color:#ffba72;stop-opacity:1;"
         offset="0.94046402"
         id="stop1473" />
      <stop
         style="stop-color:#ffd889;stop-opacity:1;"
         offset="1"
         id="stop1465" />
    </linearGradient>
    <linearGradient
       inkscape:collect="always"
       xlink:href="#linearGradient6126"
       id="linearGradient8577"
       gradientUnits="userSpaceOnUse"
       gradientTransform="translate(-2.31e-4,-2.49e-4)"
       x1="-1215.5699"
       y1="167.93315"
       x2="-1215.5706"
       y2="-275.99411" />
    <linearGradient
       inkscape:collect="always"
       id="linearGradient6126">
      <stop
         style="stop-color:#f6cf8d;stop-opacity:1;"
         offset="0"
         id="stop6122" />
      <stop
         style="stop-color:#fafa9a;stop-opacity:1;"
         offset="0.60526317"
         id="stop6124" />
    </linearGradient>
    <linearGradient
       inkscape:collect="always"
       xlink:href="#linearGradient10448"
       id="linearGradient8579"
       gradientUnits="userSpaceOnUse"
       gradientTransform="translate(-844.32051,-151.71975)"
       x1="-371.25"
       y1="319.65253"
       x2="-371.25"
       y2="358.62" />
    <linearGradient
       inkscape:collect="always"
       id="linearGradient10448">
      <stop
         style="stop-color:#ecb857;stop-opacity:1;"
         offset="0.28728068"
         id="stop10446" />
      <stop
         style="stop-color:#efcb98;stop-opacity:1;"
         offset="0.5"
         id="stop10444" />
      <stop
         style="stop-color:#edaf69;stop-opacity:1;"
         offset="0.7390351"
         id="stop10442" />
    </linearGradient>
    <filter
       inkscape:collect="always"
       style="color-interpolation-filters:sRGB"
       id="filter1412"
       x="-0.0025562763"
       y="-0.033651018"
       width="1.0051126"
       height="1.067302">
      <feGaussianBlur
         inkscape:collect="always"
         stdDeviation="0.58166051"
         id="feGaussianBlur1414" />
    </filter>
    <filter
       inkscape:collect="always"
       style="color-interpolation-filters:sRGB"
       id="filter1479"
       x="-0.0033100891"
       y="-0.043574153"
       width="1.0066202"
       height="1.0871483">
      <feGaussianBlur
         inkscape:collect="always"
         stdDeviation="0.75318466"
         id="feGaussianBlur1481" />
    </filter>
    <linearGradient
       inkscape:collect="always"
       xlink:href="#linearGradient6120"
       id="linearGradient8581"
       gradientUnits="userSpaceOnUse"
       gradientTransform="translate(0,-94.144472)"
       x1="-1287.3033"
       y1="-301.47824"
       x2="-1285.3059"
       y2="-294.02359" />
    <linearGradient
       inkscape:collect="always"
       id="linearGradient6120">
      <stop
         style="stop-color:#ffffff;stop-opacity:1;"
         offset="0"
         id="stop6116" />
      <stop
         style="stop-color:#ffffff;stop-opacity:0.78947371;"
         offset="1"
         id="stop6118" />
    </linearGradient>
    <inkscape:path-effect
       effect="bspline"
       id="path-effect8057"
       is_visible="true"
       lpeversion="1"
       weight="33.333333"
       steps="2"
       helper_size="0"
       apply_no_weight="true"
       apply_with_weight="true"
       only_selected="false" />
    <linearGradient
       inkscape:collect="always"
       xlink:href="#linearGradient6192"
       id="linearGradient8583"
       gradientUnits="userSpaceOnUse"
       gradientTransform="translate(-59.4815,-58.31578)"
       x1="-1394.903"
       y1="-58.592804"
       x2="-1380.8396"
       y2="-56.785343" />
    <linearGradient
       inkscape:collect="always"
       id="linearGradient6192">
      <stop
         style="stop-color:#ffffff;stop-opacity:1;"
         offset="0.64473683"
         id="stop6188" />
      <stop
         style="stop-color:#ffffff;stop-opacity:0;"
         offset="1"
         id="stop6190" />
    </linearGradient>
    <inkscape:path-effect
       effect="bspline"
       id="path-effect8061"
       is_visible="true"
       lpeversion="1"
       weight="33.333333"
       steps="2"
       helper_size="0"
       apply_no_weight="true"
       apply_with_weight="true"
       only_selected="false" />
    <filter
       inkscape:collect="always"
       style="color-interpolation-filters:sRGB"
       id="filter6136"
       x="-0.0019308146"
       y="-0.080969957"
       width="1.0038616"
       height="1.1619399">
      <feGaussianBlur
         inkscape:collect="always"
         stdDeviation="0.43934162"
         id="feGaussianBlur6134" />
    </filter>
    <inkscape:path-effect
       effect="bspline"
       id="path-effect8065"
       is_visible="true"
       lpeversion="1"
       weight="33.333333"
       steps="2"
       helper_size="0"
       apply_no_weight="true"
       apply_with_weight="true"
       only_selected="false" />
    <inkscape:path-effect
       effect="bspline"
       id="path-effect8069"
       is_visible="true"
       lpeversion="1"
       weight="33.333333"
       steps="2"
       helper_size="0"
       apply_no_weight="true"
       apply_with_weight="true"
       only_selected="false" />
    <linearGradient
       inkscape:collect="always"
       xlink:href="#linearGradient6152"
       id="linearGradient8585"
       gradientUnits="userSpaceOnUse"
       gradientTransform="translate(1.8438611e-5,3.066221)"
       x1="-1432.5771"
       y1="186.15788"
       x2="-998.56384"
       y2="186.15788" />
    <linearGradient
       inkscape:collect="always"
       id="linearGradient6152">
      <stop
         style="stop-color:#c14360;stop-opacity:1;"
         offset="0"
         id="stop6148" />
      <stop
         style="stop-color:#4f1a26;stop-opacity:1;"
         offset="0.05921053"
         id="stop6156" />
      <stop
         style="stop-color:#c54d69;stop-opacity:1;"
         offset="0.18201755"
         id="stop6158" />
      <stop
         style="stop-color:#3e141e;stop-opacity:1;"
         offset="0.25274122"
         id="stop6164" />
      <stop
         style="stop-color:#cb5974;stop-opacity:1;"
         offset="0.34950656"
         id="stop6166" />
      <stop
         style="stop-color:#3c131d;stop-opacity:1;"
         offset="0.40652412"
         id="stop6168" />
      <stop
         style="stop-color:#d16f87;stop-opacity:1;"
         offset="0.51425439"
         id="stop6162" />
      <stop
         style="stop-color:#3b121c;stop-opacity:1;"
         offset="0.60718203"
         id="stop6176" />
      <stop
         style="stop-color:#d16a84;stop-opacity:1;"
         offset="0.69353068"
         id="stop6170" />
      <stop
         style="stop-color:#39121b;stop-opacity:1;"
         offset="0.77549338"
         id="stop6172" />
      <stop
         style="stop-color:#cc5f79;stop-opacity:1;"
         offset="0.84210527"
         id="stop6160" />
      <stop
         style="stop-color:#341119;stop-opacity:1;"
         offset="0.9375"
         id="stop6174" />
      <stop
         style="stop-color:#ce6981;stop-opacity:1;"
         offset="1"
         id="stop6150" />
    </linearGradient>
    <filter
       inkscape:collect="always"
       style="color-interpolation-filters:sRGB"
       id="filter18126-8-46-3"
       x="-0.042901198"
       y="-0.033781168"
       width="1.0858024"
       height="1.0675623">
      <feGaussianBlur
         inkscape:collect="always"
         stdDeviation="0.39182262"
         id="feGaussianBlur18128-8-90-2" />
    </filter>
    <inkscape:path-effect
       effect="bspline"
       id="path-effect8397"
       is_visible="true"
       lpeversion="1"
       weight="33.333333"
       steps="2"
       helper_size="0"
       apply_no_weight="true"
       apply_with_weight="true"
       only_selected="false" />
    <filter
       inkscape:collect="always"
       style="color-interpolation-filters:sRGB"
       id="filter18126-8-46-1-8"
       x="-0.04325133"
       y="-0.060827888"
       width="1.0865027"
       height="1.1216558">
      <feGaussianBlur
         inkscape:collect="always"
         stdDeviation="0.39182262"
         id="feGaussianBlur18128-8-90-3-3" />
    </filter>
    <inkscape:path-effect
       effect="bspline"
       id="path-effect8401"
       is_visible="true"
       lpeversion="1"
       weight="33.333333"
       steps="2"
       helper_size="0"
       apply_no_weight="true"
       apply_with_weight="true"
       only_selected="false" />
    <filter
       inkscape:collect="always"
       style="color-interpolation-filters:sRGB"
       id="filter18126-8-46-0-9"
       x="-0.047675841"
       y="-0.064899073"
       width="1.0953517"
       height="1.1297981">
      <feGaussianBlur
         inkscape:collect="always"
         stdDeviation="0.39182262"
         id="feGaussianBlur18128-8-90-0-5" />
    </filter>
    <inkscape:path-effect
       effect="bspline"
       id="path-effect8405"
       is_visible="true"
       lpeversion="1"
       weight="33.333333"
       steps="2"
       helper_size="0"
       apply_no_weight="true"
       apply_with_weight="true"
       only_selected="false" />
    <inkscape:path-effect
       effect="bspline"
       id="path-effect8409"
       is_visible="true"
       lpeversion="1"
       weight="33.333333"
       steps="2"
       helper_size="0"
       apply_no_weight="true"
       apply_with_weight="true"
       only_selected="false" />
  </defs>
  <g
     inkscape:label="Layer 1"
     inkscape:groupmode="layer"
     id="layer1">
    <g
       id="g7445"
       transform="matrix(2.0051344,0,0,2.0051344,5689.7251,840.73054)">
      <path
         style="opacity:0.808717;fill:#26282f;fill-opacity:1;stroke:none;stroke-width:1.257;filter:url(#filter6180)"
         d="m -2774.3338,248.77198 c 0,0 33.1314,36.87543 33.1314,36.87543 0,0 536.3836,0 536.3836,0 0,0 -93.8054,-535.07292 -93.8054,-535.07292 0,0 -22.6016,-9.60585 -22.6016,-9.60585 0,0 -453.108,507.80334 -453.108,507.80334 z"
         id="path7421"
         inkscape:path-effect="#path-effect8053"
         inkscape:original-d="m -2774.3338,248.77198 33.1314,36.87543 h 536.3836 l -93.8054,-535.07292 -22.6016,-9.60585 z"
         sodipodi:nodetypes="cccccc" />
    </g>
    <g
       id="g7443"
       transform="matrix(2.0051344,0,0,2.0051344,3098.3129,926.47353)"
       style="mix-blend-mode:normal;filter:url(#filter6142)">
      <path
         id="path7423"
         style="fill:url(#linearGradient8575);fill-opacity:1;stroke:none;stroke-width:1.257"
         d="m -1216.9335,-417.85239 -201.5846,76.93551 -70.567,506.33272 273.5149,2.51706 272.58617,-2.51706 -70.56667,-506.33272 z"
         sodipodi:nodetypes="ccccccc" />
      <path
         id="path7425"
         style="opacity:0.353511;mix-blend-mode:overlay;fill:url(#linearGradient8577);fill-opacity:1;stroke:none;stroke-width:1.257"
         d="m -1216.4987,-417.15887 v 0.34896 l -202.0194,75.89303 -70.567,506.33272 272.5864,2.50865 v 0.009 l 0.4641,-0.004 0.4645,0.004 v -0.009 l 272.58607,-2.50865 -70.56667,-506.33272 -202.0194,-75.89303 v -0.34896 l -0.4645,0.17448 z" />
      <g
         id="g25624"
         transform="matrix(0.36023242,0,0,0.36023242,-1419.7403,-429.79498)">
        <g
           id="g53041"
           transform="translate(25477.51,-10473.363)">
          <path
             d="m -2426.1306,52.370376 -21.3597,-12.67007 -77.3754,-0.0733 c -63.8098,-0.0597 -83.5255,1.45796 -112.4549,8.65811 -38.6205,9.61198 -45.1543,8.74583 -71.8238,-9.52142 -30.9729,-21.21491 -22.1651,-34.7664498 18.1557,-27.93381 19.2138,3.25596 35.7273,2.82973 65.9543,-1.7020499 l 40.3226,-6.0454099 -0.3599,-40.5027502 -0.3599,-40.50274 -32.6479,1.52922 c -29.4631,1.37996 -34.2991,0.4364 -49.5746,-9.67249 -10.7791,-7.13297 -16.9269,-14.455106 -16.9269,-20.159956 0,-8.15837 1.4311,-8.62994 16.0198,-5.27928 16.9737,3.89842 70.1436,3.81849 80.4098,-0.12093 7.2055,-2.76501 8.7292,-63.47659 2.0349,-81.08348 -3.8615,-10.15654 -5.6229,-10.65202 -35.8175,-10.07445 -28.5752,0.54667 -33.3037,-0.57267 -47.2018,-11.17318 -26.0017,-19.83265 -17.4679,-40.59797 10.6989,-26.03243 17.1848,8.88652 74.2676,6.58677 110.8981,-4.46786 12.7347,-3.84328 30.8437,-8.97998 40.2418,-11.41488 9.3982,-2.43483 23.4716,-7.1596 31.2741,-10.49962 12.9246,-5.53251 15.2384,-5.32361 26.0108,2.34701 33.6086,23.93151 27.5615,31.02087 -34.9092,40.9264 -26.4039,4.18669 -52.3941,9.22396 -57.7561,11.19404 -9.6539,3.54713 -9.6748,3.71826 -2.1359,17.51932 4.2793,7.8339 8.5483,27.03165 9.7491,43.84028 l 2.1359,29.90333 17.0336,-1.48264 c 9.3684,-0.81542 22.2489,-4.1796 28.6232,-7.47579 17.6805,-9.143 31.8513,-7.23263 47.0438,6.34169 18.8863,16.87501 12.3029,24.058236 -25.4547,27.773816 -15.8394,1.55875 -37.9299,3.99256 -49.0904,5.40848 l -20.2914,2.57438 v 43.95339 43.95339021 l 48.3264,-2.38015001 c 56.9769,-2.80603 73.6461,1.31888001 92.6095,22.9170798 14.0378,15.98814 14.3321,28.36498 0.9249,38.90429 -8.9176,7.00986 -8.2522,7.16104 -32.9272,-7.47589 z m 7.1229,-69.90894 c -12.4911,-6.92902 -42.8864,-55.94808 -37.8282,-61.0062 5.5301,-5.5302 32.5143,6.68182 48.4023,21.90531 19.9232,19.08988 22.5605,27.55883 11.9008,38.2183 -7.9927,7.99277 -9.5474,8.0539 -22.4749,0.88259 z"
             style="fill:#000000;stroke-width:4.27191"
             id="path7761"
             transform="matrix(2.0051344,0,0,2.0051344,-19787.785,11314.094)"
             sodipodi:nodetypes="ccccssscccscssscscssscsscsccsccssccccsscccsscc" />
          <path
             style="fill:#ffffff;fill-opacity:1;stroke:none;stroke-width:0.626891;filter:url(#filter18126-8-46-3)"
             d="m -2511.772,-200.93934 c 5.3025,0.6349 15.5887,12.04438 16.8084,18.97511 1.2196,6.93073 -6.6315,9.37177 -11.9324,8.73695 -5.3008,-0.63482 -8.0497,-4.34585 -9.2693,-11.27321 -1.2195,-6.92736 -0.9093,-17.07375 4.3933,-16.43885 z"
             id="path7773"
             transform="matrix(2.0051344,0,0,2.0051344,-19584.046,11744.115)"
             inkscape:original-d="m -2516.7643,-211.72336 c 10.2949,11.41883 20.5811,22.82831 30.8759,34.24746 -7.8549,2.44459 -15.706,4.88562 -23.5594,7.32496 -2.749,-3.71117 -5.4979,-7.42222 -8.2471,-11.13353 0.312,-10.14332 0.6222,-20.28971 0.9306,-30.43889 z"
             inkscape:path-effect="#path-effect8397"
             sodipodi:nodetypes="ccccc" />
          <path
             style="fill:#ffffff;fill-opacity:1;stroke:none;stroke-width:0.626891;filter:url(#filter18126-8-46-1-8)"
             d="m -2508.1722,-185.08961 c 5.8327,2.02721 15.6438,8.99293 16.0958,12.3076 0.452,3.31467 -8.4585,2.97292 -14.2895,0.94641 -5.8309,-2.0265 -8.5798,-5.73753 -9.0324,-9.0505 -0.4526,-3.31298 1.3934,-6.23073 7.2261,-4.20351 z"
             id="path7775"
             transform="matrix(2.0051344,0,0,2.0051344,-19677.59,11433.08)"
             inkscape:original-d="m -2512.1591,-190.03418 c 9.8194,6.97214 19.6305,13.93785 29.4496,20.90876 -8.9149,-0.34016 -17.8255,-0.68192 -26.7383,-1.02552 -2.749,-3.71117 -5.4979,-7.42222 -8.2471,-11.13353 1.8461,-2.91326 3.6922,-5.83101 5.5358,-8.74971 z"
             inkscape:path-effect="#path-effect8401"
             sodipodi:nodetypes="ccccc" />
          <path
             style="fill:#ffffff;fill-opacity:1;stroke:none;stroke-width:0.626891;filter:url(#filter18126-8-46-0-9)"
             d="m -2508.0951,-182.10493 c 4.9264,2.47843 12.4443,9.08603 12.6506,11.76687 0.2064,2.68083 -6.8972,1.43419 -11.8248,-1.04492 -4.9275,-2.47912 -7.6764,-6.19015 -7.8826,-8.87056 -0.2062,-2.68041 2.1305,-4.32983 7.0568,-1.85139 z"
             id="path7777"
             transform="matrix(2.0051344,0,0,2.0051344,-19683.437,11155.955)"
             inkscape:original-d="m -2510.6849,-186.2327 c 7.5161,6.60633 15.034,13.21392 22.5533,19.82263 -7.1068,-1.2457 -14.2104,-2.49234 -21.3162,-3.74087 -2.749,-3.71117 -5.4979,-7.42222 -8.2471,-11.13353 2.3369,-1.64928 4.6736,-3.29869 7.01,-4.94823 z"
             inkscape:path-effect="#path-effect8405"
             sodipodi:nodetypes="ccccc" />
          <path
             style="fill:#ffffff;fill-opacity:1;stroke:none;stroke-width:0.626891;filter:url(#filter18126-8-46-1-8)"
             d="m -2526.2405,-196.39026 c 2.9558,1.0308 14.6114,11.15668 18.8634,17.04859 4.252,5.89191 1.0907,7.54129 -1.8645,6.51043 -2.9552,-1.03086 -5.7041,-4.74189 -9.9535,-10.63094 -4.2494,-5.88905 -10.0011,-13.95888 -7.0454,-12.92808 z"
             id="path7779"
             transform="matrix(2.0051344,0,0,2.0051344,-19585.215,11592.106)"
             inkscape:original-d="m -2534.95,-205.49371 c 11.6651,10.13439 23.3208,20.26027 34.9863,30.39454 -3.1613,1.64954 -6.3226,3.29895 -9.4841,4.94823 -2.749,-3.71117 -5.4979,-7.42222 -8.2471,-11.13353 -5.7492,-8.06701 -11.501,-16.13683 -17.2551,-24.20924 z"
             inkscape:path-effect="#path-effect8409"
             sodipodi:nodetypes="ccccc" />
        </g>
      </g>
      <path
         id="path7427"
         style="opacity:1;fill:url(#linearGradient8579);fill-opacity:1;stroke:none;stroke-width:1.257;filter:url(#filter1412)"
         d="m -1489.0851,165.41584 7.1396,40.59442 266.3753,0.88977 265.44657,-0.88977 7.1396,-40.59442 -272.58617,2.51706 z"
         sodipodi:nodetypes="ccccccc" />
      <path
         id="path7429"
         style="opacity:0.602906;mix-blend-mode:multiply;fill:#6d2435;fill-opacity:1;stroke:none;stroke-width:1.257;filter:url(#filter1479)"
         d="m -1489.0851,165.41584 7.1396,40.5944 266.3754,0.8899 265.44647,-0.88988 7.1396,-40.59442 -272.58607,2.51716 z"
         sodipodi:nodetypes="ccccccc" />
      <path
         style="opacity:0.581114;mix-blend-mode:overlay;fill:url(#linearGradient8581);fill-opacity:1;stroke:none;stroke-width:1.257"
         d="m -1418.5181,-340.91688 c 0,0 8.8093,6.60699 8.8093,6.60699 0,0 192.7753,-75.36242 192.7753,-75.36242 0,0 0,-8.18008 0,-8.18008 0,0 -201.5846,76.93551 -201.5846,76.93551 z"
         id="path7431"
         sodipodi:nodetypes="ccccc"
         inkscape:original-d="m -1418.5181,-340.91688 8.8093,6.60699 192.7753,-75.36242 v -8.18008 z"
         inkscape:path-effect="#path-effect8057" />
      <path
         style="opacity:0.915254;mix-blend-mode:normal;fill:url(#linearGradient8583);fill-opacity:1;stroke:none;stroke-width:1.257"
         d="m -1418.5181,-340.91688 c 0,0 8.8093,6.60699 8.8093,6.60699 0,0 -68.3192,489.22057 -68.3192,489.22057 0,0 -11.0571,10.50516 -11.0571,10.50516 0,0 70.567,-506.33272 70.567,-506.33272 z"
         id="path7433"
         sodipodi:nodetypes="ccccc"
         inkscape:original-d="m -1418.5181,-340.91688 8.8093,6.60699 -68.3192,489.22057 -11.0571,10.50516 z"
         inkscape:path-effect="#path-effect8061" />
      <path
         id="path7435"
         style="opacity:0.198547;mix-blend-mode:normal;fill:#ffffff;fill-opacity:1;stroke:none;stroke-width:1.257;filter:url(#filter6136)"
         d="m -1478.0284,154.91054 -11.0567,10.5053 273.5149,2.51706 272.58617,-2.51706 -11.0567,-10.5053 -261.52947,1.0665 z"
         sodipodi:nodetypes="ccccccc" />
      <path
         style="opacity:0.263923;mix-blend-mode:multiply;fill:#26282f;fill-opacity:1;stroke:none;stroke-width:1.257"
         d="m -1013.5507,-340.91688 c 0,0 -8.8093,6.60699 -8.8093,6.60699 0,0 68.31887,489.22057 68.31887,489.22057 0,0 11.0571,10.50516 11.0571,10.50516 0,0 -70.56667,-506.33272 -70.56667,-506.33272 z"
         id="path7437"
         sodipodi:nodetypes="ccccc"
         inkscape:original-d="m -1013.5507,-340.91688 -8.8093,6.60699 68.31887,489.22057 11.0571,10.50516 z"
         inkscape:path-effect="#path-effect8065" />
      <path
         style="opacity:0.070218;mix-blend-mode:normal;fill:#26282f;fill-opacity:1;stroke:none;stroke-width:1.257"
         d="m -1013.5507,-340.91688 c 0,0 -8.8093,6.60699 -8.8093,6.60699 0,0 -194.5735,-75.36242 -194.5735,-75.36242 0,0 0,-8.18008 0,-8.18008 0,0 203.3828,76.93551 203.3828,76.93551 z"
         id="path7439"
         sodipodi:nodetypes="ccccc"
         inkscape:original-d="m -1013.5507,-340.91688 -8.8093,6.60699 -194.5735,-75.36242 v -8.18008 z"
         inkscape:path-effect="#path-effect8069" />
      <path
         id="path7441"
         style="opacity:0.135593;mix-blend-mode:multiply;fill:url(#linearGradient8585);fill-opacity:1;stroke:none;stroke-width:1.257;filter:url(#filter1479)"
         d="m -1489.0851,165.41584 7.1396,40.5944 266.3753,3.95601 265.44657,-3.95599 7.1396,-40.59442 -272.58617,5.58327 z"
         sodipodi:nodetypes="ccccccc" />
      <g
         id="g42380"
         transform="translate(-63.163041,20.804047)"
         style="mix-blend-mode:normal;filter:url(#filter6142)">
        <rect
           style="mix-blend-mode:normal;fill:#000000;fill-opacity:1;stroke:#000000;stroke-width:0.386408"
           id="rect98398-4-6"
           width="5.9197216"
           height="71.171066"
           x="-1155.8315"
           y="19.220346" />
        <rect
           style="mix-blend-mode:normal;fill:#000000;fill-opacity:1;stroke:#000000;stroke-width:0.386408"
           id="rect2972-3-9"
           width="5.9197216"
           height="71.171066"
           x="1149.9116"
           y="-18.833921"
           transform="scale(-1)" />
        <rect
           style="mix-blend-mode:normal;fill:#000000;fill-opacity:1;stroke:#000000;stroke-width:0.386408"
           id="rect2976-6-7"
           width="5.9197216"
           height="71.171066"
           x="16.067137"
           y="1153.0647"
           transform="rotate(90)" />
        <rect
           style="mix-blend-mode:normal;fill:#000000;fill-opacity:1;stroke:#000000;stroke-width:0.386408"
           id="rect2980-2-9"
           width="5.9197216"
           height="71.171066"
           x="-21.987059"
           y="-1152.6785"
           transform="rotate(-90)" />
        <rect
           style="mix-blend-mode:normal;fill:#000000;fill-opacity:1;stroke:#000000;stroke-width:0.386408"
           id="rect14708"
           width="5.9197216"
           height="71.171066"
           x="-804.70917"
           y="828.85077"
           transform="rotate(45)" />
        <rect
           style="mix-blend-mode:normal;fill:#000000;fill-opacity:1;stroke:#000000;stroke-width:0.386408"
           id="rect14712"
           width="5.9197216"
           height="71.171066"
           x="798.78931"
           y="-828.46442"
           transform="rotate(-135)" />
        <rect
           style="mix-blend-mode:normal;fill:#000000;fill-opacity:1;stroke:#000000;stroke-width:0.386408"
           id="rect14716"
           width="5.9197216"
           height="71.171066"
           x="825.69769"
           y="801.94238"
           transform="rotate(135)" />
        <rect
           style="mix-blend-mode:normal;fill:#000000;fill-opacity:1;stroke:#000000;stroke-width:0.386408"
           id="rect14720"
           width="5.9197216"
           height="71.171066"
           x="-831.61761"
           y="-801.55615"
           transform="rotate(-45)" />
      </g>
    </g>
  </g>
</svg>
