<?xml version="1.0" encoding="UTF-8" standalone="no"?>
<!-- Created with Inkscape (http://www.inkscape.org/) -->

<svg
   width="132mm"
   height="144mm"
   viewBox="0 0 1320 1440"
   version="1.1"
   id="svg23702"
   xmlns:xlink="http://www.w3.org/1999/xlink"
   xmlns="http://www.w3.org/2000/svg"
   xmlns:svg="http://www.w3.org/2000/svg">
  <defs
     id="defs23699">
    <filter
       style="color-interpolation-filters:sRGB"
       id="filter6142"
       x="-0.0048516631"
       y="-0.0050873151"
       width="1.0097033"
       height="1.0101746">
      <feGaussianBlur
         stdDeviation="0.59853361"
         id="feGaussianBlur6144" />
    </filter>
    <filter
       style="color-interpolation-filters:sRGB"
       id="filter6180"
       x="-0.041288353"
       y="-0.04097344"
       width="1.0825767"
       height="1.0819469">
      <feGaussianBlur
         stdDeviation="9.0173096"
         id="feGaussianBlur6178" />
    </filter>
    <filter
       style="color-interpolation-filters:sRGB"
       id="filter6142-5"
       x="-0.006575117"
       y="-0.002524748"
       width="1.0131502"
       height="1.0086963">
      <feGaussianBlur
         stdDeviation="0.59853361"
         id="feGaussianBlur6144-7" />
    </filter>
    <linearGradient
       xlink:href="#linearGradient1467"
       id="linearGradient8599"
       gradientUnits="userSpaceOnUse"
       gradientTransform="translate(-844.32051,-151.71975)"
       x1="-586.44916"
       y1="75.508476"
       x2="-156.05099"
       y2="75.508476" />
    <linearGradient
       id="linearGradient1467">
      <stop
         style="stop-color:#ffeab1;stop-opacity:1;"
         offset="0"
         id="stop1441" />
      <stop
         style="stop-color:#ffd774;stop-opacity:1;"
         offset="0.05596975"
         id="stop1443" />
      <stop
         style="stop-color:#ffd394;stop-opacity:1;"
         offset="0.12240581"
         id="stop1445" />
      <stop
         style="stop-color:#ffc474;stop-opacity:1;"
         offset="0.18442476"
         id="stop1447" />
      <stop
         style="stop-color:#ffce8c;stop-opacity:1;"
         offset="0.25016946"
         id="stop1449" />
      <stop
         style="stop-color:#ffc474;stop-opacity:1;"
         offset="0.3166357"
         id="stop1451" />
      <stop
         style="stop-color:#ffc389;stop-opacity:1;"
         offset="0.38451442"
         id="stop1453" />
      <stop
         style="stop-color:#ffc674;stop-opacity:1;"
         offset="0.47559014"
         id="stop1455" />
      <stop
         style="stop-color:#ffc67a;stop-opacity:1;"
         offset="0.54782552"
         id="stop1457" />
      <stop
         style="stop-color:#ffc57d;stop-opacity:1;"
         offset="0.61341411"
         id="stop1459" />
      <stop
         style="stop-color:#ffcb7a;stop-opacity:1;"
         offset="0.68246663"
         id="stop1461" />
      <stop
         style="stop-color:#ffbf76;stop-opacity:1;"
         offset="0.73423874"
         id="stop1463" />
      <stop
         style="stop-color:#ffc66b;stop-opacity:1;"
         offset="0.82545269"
         id="stop1469" />
      <stop
         style="stop-color:#ffca84;stop-opacity:1;"
         offset="0.89189297"
         id="stop1471" />
      <stop
         style="stop-color:#ffba72;stop-opacity:1;"
         offset="0.94046402"
         id="stop1473" />
      <stop
         style="stop-color:#ffd889;stop-opacity:1;"
         offset="1"
         id="stop1465" />
    </linearGradient>
    <linearGradient
       xlink:href="#linearGradient6126"
       id="linearGradient8601"
       gradientUnits="userSpaceOnUse"
       gradientTransform="translate(-2.31e-4,-2.49e-4)"
       x1="-1215.5699"
       y1="167.93315"
       x2="-1215.5706"
       y2="-275.99411" />
    <linearGradient
       id="linearGradient6126">
      <stop
         style="stop-color:#f6cf8d;stop-opacity:1;"
         offset="0"
         id="stop6122" />
      <stop
         style="stop-color:#fafa9a;stop-opacity:1;"
         offset="0.60526317"
         id="stop6124" />
    </linearGradient>
    <linearGradient
       xlink:href="#linearGradient10448"
       id="linearGradient8603"
       gradientUnits="userSpaceOnUse"
       gradientTransform="translate(-844.32051,-151.71975)"
       x1="-371.25"
       y1="319.65253"
       x2="-371.25"
       y2="358.62" />
    <linearGradient
       id="linearGradient10448">
      <stop
         style="stop-color:#ecb857;stop-opacity:1;"
         offset="0.28728068"
         id="stop10446" />
      <stop
         style="stop-color:#efcb98;stop-opacity:1;"
         offset="0.5"
         id="stop10444" />
      <stop
         style="stop-color:#edaf69;stop-opacity:1;"
         offset="0.7390351"
         id="stop10442" />
    </linearGradient>
    <filter
       style="color-interpolation-filters:sRGB"
       id="filter1412"
       x="-0.0028294397"
       y="-0.033650937"
       width="1.0056589"
       height="1.0673019">
      <feGaussianBlur
         stdDeviation="0.58166051"
         id="feGaussianBlur1414" />
    </filter>
    <filter
       style="color-interpolation-filters:sRGB"
       id="filter1479"
       x="-0.0036638049"
       y="-0.043574163"
       width="1.0073276"
       height="1.0871483">
      <feGaussianBlur
         stdDeviation="0.75318466"
         id="feGaussianBlur1481" />
    </filter>
    <linearGradient
       xlink:href="#linearGradient6120"
       id="linearGradient8605"
       gradientUnits="userSpaceOnUse"
       gradientTransform="translate(2e-4,-35.57222)"
       x1="-1287.3033"
       y1="-301.47824"
       x2="-1285.3059"
       y2="-294.02359" />
    <linearGradient
       id="linearGradient6120">
      <stop
         style="stop-color:#ffffff;stop-opacity:1;"
         offset="0"
         id="stop6116" />
      <stop
         style="stop-color:#ffffff;stop-opacity:0.78947371;"
         offset="1"
         id="stop6118" />
    </linearGradient>
    <linearGradient
       xlink:href="#linearGradient6192"
       id="linearGradient8607"
       gradientUnits="userSpaceOnUse"
       gradientTransform="translate(-10.4965,-25.07602)"
       x1="-1394.903"
       y1="-58.592804"
       x2="-1385.5217"
       y2="-57.119999" />
    <linearGradient
       id="linearGradient6192">
      <stop
         style="stop-color:#ffffff;stop-opacity:1;"
         offset="0.64473683"
         id="stop6188" />
      <stop
         style="stop-color:#ffffff;stop-opacity:0;"
         offset="1"
         id="stop6190" />
    </linearGradient>
    <filter
       style="color-interpolation-filters:sRGB"
       id="filter6136"
       x="-0.0021371403"
       y="-0.080969957"
       width="1.0042743"
       height="1.1619399">
      <feGaussianBlur
         stdDeviation="0.43934162"
         id="feGaussianBlur6134" />
    </filter>
    <linearGradient
       xlink:href="#linearGradient6152"
       id="linearGradient8609"
       gradientUnits="userSpaceOnUse"
       gradientTransform="translate(1.843861e-5,6.13244)"
       x1="-1432.5771"
       y1="186.15788"
       x2="-998.56384"
       y2="186.15788" />
    <linearGradient
       id="linearGradient6152">
      <stop
         style="stop-color:#c14360;stop-opacity:1;"
         offset="0"
         id="stop6148" />
      <stop
         style="stop-color:#4f1a26;stop-opacity:1;"
         offset="0.05921053"
         id="stop6156" />
      <stop
         style="stop-color:#c54d69;stop-opacity:1;"
         offset="0.18201755"
         id="stop6158" />
      <stop
         style="stop-color:#3e141e;stop-opacity:1;"
         offset="0.25274122"
         id="stop6164" />
      <stop
         style="stop-color:#cb5974;stop-opacity:1;"
         offset="0.34950656"
         id="stop6166" />
      <stop
         style="stop-color:#3c131d;stop-opacity:1;"
         offset="0.40652412"
         id="stop6168" />
      <stop
         style="stop-color:#d16f87;stop-opacity:1;"
         offset="0.51425439"
         id="stop6162" />
      <stop
         style="stop-color:#3b121c;stop-opacity:1;"
         offset="0.60718203"
         id="stop6176" />
      <stop
         style="stop-color:#d16a84;stop-opacity:1;"
         offset="0.69353068"
         id="stop6170" />
      <stop
         style="stop-color:#39121b;stop-opacity:1;"
         offset="0.77549338"
         id="stop6172" />
      <stop
         style="stop-color:#cc5f79;stop-opacity:1;"
         offset="0.84210527"
         id="stop6160" />
      <stop
         style="stop-color:#341119;stop-opacity:1;"
         offset="0.9375"
         id="stop6174" />
      <stop
         style="stop-color:#ce6981;stop-opacity:1;"
         offset="1"
         id="stop6150" />
    </linearGradient>
    <filter
       style="color-interpolation-filters:sRGB"
       id="filter18126-8-1"
       x="-0.051387539"
       y="-0.062019714"
       width="1.1027751"
       height="1.1240394">
      <feGaussianBlur
         stdDeviation="0.39182262"
         id="feGaussianBlur18128-8-9" />
    </filter>
    <filter
       style="color-interpolation-filters:sRGB"
       id="filter18126-8-5"
       x="-0.029092307"
       y="-0.05490712"
       width="1.0581846"
       height="1.1098142">
      <feGaussianBlur
         stdDeviation="0.39182262"
         id="feGaussianBlur18128-8-3" />
    </filter>
    <filter
       style="color-interpolation-filters:sRGB"
       id="filter18126-8-4"
       x="-0.079403802"
       y="-0.082912626"
       width="1.1588076"
       height="1.1658253">
      <feGaussianBlur
         stdDeviation="0.39182262"
         id="feGaussianBlur18128-8-5" />
    </filter>
    <filter
       style="color-interpolation-filters:sRGB"
       id="filter18126-8-8"
       x="-0.055947751"
       y="-0.076965614"
       width="1.1118955"
       height="1.1539312">
      <feGaussianBlur
         stdDeviation="0.39182262"
         id="feGaussianBlur18128-8-31" />
    </filter>
    <filter
       style="color-interpolation-filters:sRGB"
       id="filter18126-8-18"
       x="-0.079403802"
       y="-0.082912593"
       width="1.1588076"
       height="1.1658252">
      <feGaussianBlur
         stdDeviation="0.39182262"
         id="feGaussianBlur18128-8-6" />
    </filter>
    <filter
       style="color-interpolation-filters:sRGB"
       id="filter18126-8-6"
       x="-0.064437521"
       y="-0.074799069"
       width="1.128875"
       height="1.1495981">
      <feGaussianBlur
         stdDeviation="0.39182262"
         id="feGaussianBlur18128-8-57" />
    </filter>
    <filter
       style="color-interpolation-filters:sRGB"
       id="filter18126-8-0"
       x="-0.09291595"
       y="-0.06189042"
       width="1.1858319"
       height="1.1237808">
      <feGaussianBlur
         stdDeviation="0.39182262"
         id="feGaussianBlur18128-8-7" />
    </filter>
  </defs>
  <g
     id="layer1">
    <path
       style="mix-blend-mode:normal;filter:url(#filter6180);opacity:0.808717;fill:#26282f;fill-opacity:1;stroke:none;stroke-width:1.257"
       d="m -2759.3371,206.01016 c 0,0 33.1314,36.87543 33.1314,36.87543 0,0 491.0247,0 491.0247,0 0,0 -112.7736,-518.5788 -112.7736,-518.5788 0,0 -22.6016,-9.60585 -22.6016,-9.60585 0,0 -388.7809,491.30922 -388.7809,491.30922 z"
       id="path7333"
       transform="matrix(2.0051344,0,0,2.0051344,5712.5124,931.88267)" />
    <g
       id="g7355"
       transform="matrix(2.0051344,0,0,2.0051344,3097.3821,931.88267)"
       style="mix-blend-mode:normal;filter:url(#filter6142-5)">
      <path
         id="path7335"
         style="fill:url(#linearGradient8599);fill-opacity:1;stroke:none;stroke-width:1.257"
         d="m -1215.5703,-355.92756 -153.9628,48.25044 -92.7268,473.09296 246.6897,2.51706 246.68919,-2.51706 -92.72659,-473.09296 z" />
      <path
         id="path7337"
         style="opacity:0.353511;mix-blend-mode:overlay;fill:url(#linearGradient8601);fill-opacity:1;stroke:none;stroke-width:1.257"
         d="m -1215.5703,-355.92756 -153.9628,48.25044 -92.7268,473.09296 246.6893,2.51716 h 5e-4 l 246.68909,-2.51716 -92.72659,-473.09296 z" />
      <g
         id="g30817"
         transform="matrix(0.80726917,0,0,0.80726917,-250.88909,-68.934001)">
        <path
           d="m -1297.6602,6.761022 c -15.9801,-13.719275 -19.1546,-27.389043 -5.4993,-23.685809 17.5434,4.757702 33.856,5.6952 39.0257,2.242945 5.0365,-3.363614 4.9096,-4.370225 -0.9901,-7.846591 -8.8891,-5.237794 -22.1215,-31.476596 -22.1215,-43.865496 0,-11.151668 4.4573,-12.559291 11.79,-3.723758 2.7648,3.332613 11.5178,9.370165 19.4503,13.416769 16.1396,8.233661 21.3319,18.73334 15.0602,30.452192 -3.5994,6.725822 -3.0566,7.84922 3.7935,7.84922 7.5331,0 7.9305,-1.825488 6.8763,-31.544895 l -1.118,-31.544915 -18.1065,-0.330449 c -12.2678,-0.223933 -21.833,-3.086443 -29.6668,-8.878313 -11.529,-8.523876 -11.5971,-8.527014 -24.2643,-1.147613 -15.6884,9.139241 -41.5922,14.428478 -41.5922,8.492671 0,-2.299892 4.9858,-6.759777 11.0795,-9.910952 16.6682,-8.619508 54.896,-52.247068 83.726,-95.553298 l 25.6651,-38.55191 -8.1115,-16.69684 c -4.8241,-9.92791 -6.5949,-17.63462 -4.3688,-19.01013 2.0584,-1.27242 12.8362,2.59833 23.9504,8.60172 20.1799,10.90059 20.2064,10.93962 19.5894,29.05099 -0.6009,17.65142 -0.092,18.52001 19.259,32.52724 10.9325,7.91528 20.7433,15.32521 21.8027,16.4664 11.303,12.17768 52.5882,37.76736 72.7033,45.06312 39.2472,14.23564 40.7322,20.93016 5.8041,26.16785 -32.5496,4.88112 -41.2577,0.50214 -88.8512,-44.67777 -24.2502,-23.02045 -45.5921,-41.85522 -47.4258,-41.85522 -1.8348,0 -7.1986,5.6333 -11.9203,12.5184 -4.7224,6.8851 -12.9476,17.26698 -18.2781,23.07075 -5.3304,5.80388 -8.5018,11.74244 -7.0473,13.19691 2.6856,2.68582 49.5065,-3.58206 60.6775,-8.12286 3.5576,-1.44614 9.9868,0.8022 15.4068,5.38762 9.1197,7.71576 9.1555,7.9826 1.8246,13.64996 -4.1116,3.17913 -11.479,5.78029 -16.3705,5.78029 -5.3598,0 -8.8931,2.30872 -8.8931,5.8114 0,4.75283 3.7254,5.37349 20.4536,3.40743 18.078,-2.12475 21.7323,-1.30455 31.4599,7.06308 12.5626,10.805749 11.29,22.236321 -2.474,22.236321 -8.0149,0 -7.7181,0.889824 4.5091,13.505206 l 13.0902,13.505206 -16.4345,16.745022 -16.4333,16.74492 22.396,2.295715 c 17.8371,1.828525 24.1992,4.385675 31.2586,12.562919 8.3889,9.718325 8.512,10.654396 2.3033,17.514899 -6.0388,6.67287 -10.8671,7.060143 -60.8624,4.881318 -35.8847,-1.563848 -61.4888,-0.827497 -75.4885,2.170897 -11.652,2.495659 -25.5188,5.421983 -30.8146,6.503008 -7.2049,1.47054 -13.7072,-1.535293 -25.8225,-11.935569 z m 121.2959,-55.584654 c 11.2881,-16.647657 12.1592,-19.765998 8.0487,-28.789348 -3.4022,-7.46633 -7.4784,-10.119539 -15.5481,-10.119539 h -10.9374 v 28.88877 c 0,15.888827 1.3002,28.844034 2.8889,28.789329 1.5887,-0.05483 8.5852,-8.500681 15.5479,-18.769212 z m -56.955,-63.007898 c 0,-2.66195 -7.1468,-7.07051 -15.8824,-9.79669 -13.9684,-4.35946 -16.7536,-4.16847 -23.1107,1.58498 -11.6589,10.55164 -8.6177,13.05166 15.8825,13.05166 15.9839,0 23.1106,-1.49239 23.1106,-4.83995 z"
           style="mix-blend-mode:normal;fill:#000000;stroke-width:3.85184;filter:url(#filter6142)"
           id="path7357" />
        <path
           style="mix-blend-mode:normal;fill:#ffffff;fill-opacity:1;stroke:none;stroke-width:0.626891;filter:url(#filter18126-8-1)"
           d="m -1210.4574,-249.57194 c 4.5713,2.6471 8.7914,5.9888 8.9976,8.66906 0.2061,2.68026 -3.6017,4.69905 -8.1732,2.05189 -4.5715,-2.64715 -9.9061,-9.95967 -10.1122,-12.64009 -0.2062,-2.68042 4.7165,-0.72795 9.2878,1.91914 z"
           id="path7361" />
        <path
           style="mix-blend-mode:normal;fill:#ffffff;fill-opacity:1;stroke:none;stroke-width:0.626891;filter:url(#filter18126-8-5)"
           d="m -1067.4292,-119.08389 c 3.9143,4.94954 -7.9277,6.78354 -17.7638,2.75103 -9.8361,-4.03251 -17.6641,-13.93079 -11.7426,-14.84793 5.9216,-0.91713 25.592,7.14736 29.5064,12.0969 z"
           id="path7363" />
        <path
           style="mix-blend-mode:normal;fill:#ffffff;fill-opacity:1;stroke:none;stroke-width:0.626891;filter:url(#filter18126-8-4)"
           d="m -1178.149,-145.32289 c 2.9552,1.031 6.5289,4.74221 6.735,7.42241 0.2061,2.6802 -2.9552,4.32958 -5.9104,3.29872 -2.9552,-1.03086 -5.7041,-4.74189 -5.9103,-7.4223 -0.2062,-2.68041 2.1305,-4.32983 5.0857,-3.29883 z"
           id="path7365" />
        <path
           style="mix-blend-mode:normal;fill:#ffffff;fill-opacity:1;stroke:none;stroke-width:0.626891;filter:url(#filter18126-8-8)"
           d="m -1156.3704,-110.78408 c 4.202,1.03095 9.8999,5.20384 9.9213,8.115 0.021,2.91115 -5.6334,4.560531 -9.8355,3.529672 -4.202,-1.030862 -6.9509,-4.741892 -6.9724,-7.653192 -0.021,-2.9113 2.6845,-5.02244 6.8866,-3.99148 z"
           id="path7367" />
        <path
           style="mix-blend-mode:normal;fill:#ffffff;fill-opacity:1;stroke:none;stroke-width:0.626891;filter:url(#filter18126-8-18)"
           d="m -1125.3678,-15.019386 c 2.9552,1.031001 6.5289,4.742208 6.735,7.4224101 0.2061,2.6802024 -2.9552,4.329585 -5.9104,3.2987253 -2.9552,-1.0308598 -5.7041,-4.7418909 -5.9103,-7.4223004 -0.2062,-2.68041 2.1305,-4.329835 5.0857,-3.298835 z"
           id="path7369" />
        <path
           style="mix-blend-mode:normal;fill:#ffffff;fill-opacity:1;stroke:none;stroke-width:0.626891;filter:url(#filter18126-8-6)"
           d="m -1253.8704,-49.300565 c 3.6479,1.030969 8.0527,5.388563 7.9818,8.392062 -0.071,3.003498 -4.6175,4.652881 -8.2654,3.622022 -3.6479,-1.030859 -6.3968,-4.741891 -6.326,-7.745549 0.071,-3.003659 2.9616,-5.299504 6.6096,-4.268535 z"
           id="path7371" />
        <path
           style="mix-blend-mode:normal;fill:#ffffff;fill-opacity:1;stroke:none;stroke-width:0.626891;filter:url(#filter18126-8-0)"
           d="m -1145.7741,-71.864073 c 1.8008,0.292019 8.0528,5.850214 9.2748,9.638754 1.2221,3.78854 -2.5857,5.807338 -4.3865,5.515328 -1.8008,-0.29201 -1.5944,-2.894738 -2.8165,-6.683375 -1.2221,-3.788636 -3.8725,-8.762725 -2.0718,-8.470707 z"
           id="path7373" />
      </g>
      <path
         id="path7339"
         style="opacity:1;fill:url(#linearGradient8603);fill-opacity:1;stroke:none;stroke-width:1.257;filter:url(#filter1412)"
         d="m -1462.2598,165.41574 7.1396,40.59442 239.55,0.88987 239.54948,-0.88987 7.1396,-40.59442 -246.68908,2.51716 z" />
      <path
         id="path7341"
         style="opacity:0.602906;mix-blend-mode:multiply;fill:#6d2435;fill-opacity:1;stroke:none;stroke-width:1.257;filter:url(#filter1479)"
         d="m -1462.2598,165.41574 7.1396,40.5944 239.55,0.88989 239.54948,-0.88987 7.1396,-40.59442 -246.68908,2.51715 z" />
      <path
         style="opacity:0.581114;mix-blend-mode:overlay;fill:url(#linearGradient8605);fill-opacity:1;stroke:none;stroke-width:1.257"
         d="m -1369.5331,-307.67712 c 0,0 8.8093,6.60699 8.8093,6.60699 0,0 145.1535,-46.67735 145.1535,-46.67735 0,0 0,-8.18008 0,-8.18008 0,0 -153.9628,48.25044 -153.9628,48.25044 z"
         id="path7343" />
      <path
         style="opacity:0.915254;mix-blend-mode:normal;fill:url(#linearGradient8607);fill-opacity:1;stroke:none;stroke-width:1.257"
         d="m -1369.5331,-307.67712 c 0,0 8.8093,6.60699 8.8093,6.60699 0,0 -90.479,455.98081 -90.479,455.98081 0,0 -11.0571,10.50516 -11.0571,10.50516 0,0 92.7268,-473.09296 92.7268,-473.09296 z"
         id="path7345" />
      <path
         id="path7347"
         style="opacity:0.198547;mix-blend-mode:normal;fill:#ffffff;fill-opacity:1;stroke:none;stroke-width:1.257;filter:url(#filter6136)"
         d="m -1451.2032,154.91054 -11.0567,10.5053 246.6897,2.51706 246.68919,-2.51706 -11.0567,-10.5053 -235.63249,1.0665 z" />
      <path
         style="opacity:0.263923;mix-blend-mode:multiply;fill:#26282f;fill-opacity:1;stroke:none;stroke-width:1.257"
         d="m -1061.6076,-307.67712 c 0,0 -8.8093,6.60699 -8.8093,6.60699 0,0 90.47879,455.98081 90.47879,455.98081 0,0 11.0571,10.50516 11.0571,10.50516 0,0 -92.72659,-473.09296 -92.72659,-473.09296 z"
         id="path7349" />
      <path
         style="opacity:0.070218;mix-blend-mode:normal;fill:#26282f;fill-opacity:1;stroke:none;stroke-width:1.257"
         d="m -1061.6076,-307.67712 c 0,0 -8.8093,6.60699 -8.8093,6.60699 0,0 -145.1534,-46.67735 -145.1534,-46.67735 0,0 0,-8.18008 0,-8.18008 0,0 153.9627,48.25044 153.9627,48.25044 z"
         id="path7351" />
      <path
         id="path7353"
         style="opacity:0.135593;mix-blend-mode:multiply;fill:url(#linearGradient8609);fill-opacity:1;stroke:none;stroke-width:1.257;filter:url(#filter1479)"
         d="m -1462.2598,165.41574 7.1396,40.5944 239.55,7.02233 239.54948,-7.02231 7.1396,-40.59442 -246.68908,8.64959 z" />
      <g
         id="g25621"
         transform="translate(1413.233,-5.239588)">
        <rect
           style="mix-blend-mode:normal;fill:#000000;fill-opacity:1;stroke:none;stroke-width:0.386408"
           id="rect98398-4"
           width="5.9197216"
           height="71.171066"
           x="2625.8435"
           y="-45.273979"
           transform="scale(-1)" />
        <rect
           style="mix-blend-mode:normal;fill:#000000;fill-opacity:1;stroke:none;stroke-width:0.386408"
           id="rect2972-3"
           width="5.9197216"
           height="71.171066"
           x="-2631.7634"
           y="45.660393" />
        <rect
           style="mix-blend-mode:normal;fill:#000000;fill-opacity:1;stroke:none;stroke-width:0.386408"
           id="rect2976-6"
           width="5.9197216"
           height="71.171066"
           x="-48.427074"
           y="-2628.6104"
           transform="rotate(-90)" />
        <rect
           style="mix-blend-mode:normal;fill:#000000;fill-opacity:1;stroke:none;stroke-width:0.386408"
           id="rect2980-2"
           width="5.9197216"
           height="71.171066"
           x="42.507153"
           y="2628.9966"
           transform="rotate(90)" />
        <rect
           style="mix-blend-mode:normal;fill:#000000;fill-opacity:1;stroke:none;stroke-width:0.386408"
           id="rect14708"
           width="5.9197216"
           height="71.171066"
           x="1823.7345"
           y="-1890.8018"
           transform="rotate(-135)" />
        <rect
           style="mix-blend-mode:normal;fill:#000000;fill-opacity:1;stroke:none;stroke-width:0.386408"
           id="rect14720"
           width="5.9197216"
           height="71.171066"
           x="1888.035"
           y="1826.8877"
           transform="rotate(135)" />
      </g>
    </g>
  </g>
</svg>
