<?xml version="1.0" encoding="UTF-8" standalone="no"?>
<!-- Created with Inkscape (http://www.inkscape.org/) -->

<svg
   width="132mm"
   height="144mm"
   viewBox="0 0 1320 1440"
   version="1.1"
   id="svg23702"
   xmlns:xlink="http://www.w3.org/1999/xlink"
   xmlns="http://www.w3.org/2000/svg"
   xmlns:svg="http://www.w3.org/2000/svg">
  <defs
     id="defs23699">
    <filter
       style="color-interpolation-filters:sRGB"
       id="filter6142"
       x="-0.0040197996"
       y="-0.0046814068"
       width="1.0080396"
       height="1.0093628">
      <feGaussianBlur
         stdDeviation="0.59853361"
         id="feGaussianBlur6144" />
    </filter>
    <filter
       style="color-interpolation-filters:sRGB"
       id="filter6180"
       x="-0.040028725"
       y="-0.040845886"
       width="1.0800574"
       height="1.0816918">
      <feGaussianBlur
         stdDeviation="9.0173096"
         id="feGaussianBlur6178" />
    </filter>
    <filter
       style="color-interpolation-filters:sRGB"
       id="filter6142-5"
       x="-0.0070710247"
       y="-0.0031640726"
       width="1.0141421"
       height="1.009399">
      <feGaussianBlur
         stdDeviation="0.77603733"
         id="feGaussianBlur6144-0" />
    </filter>
    <linearGradient
       xlink:href="#linearGradient1467"
       id="linearGradient8587"
       gradientUnits="userSpaceOnUse"
       gradientTransform="translate(-844.32051,-151.71975)"
       x1="-630.76886"
       y1="75.508476"
       x2="-117.25891"
       y2="75.508476" />
    <linearGradient
       id="linearGradient1467">
      <stop
         style="stop-color:#ffeab1;stop-opacity:1;"
         offset="0"
         id="stop1441" />
      <stop
         style="stop-color:#ffd774;stop-opacity:1;"
         offset="0.05596975"
         id="stop1443" />
      <stop
         style="stop-color:#ffd394;stop-opacity:1;"
         offset="0.12240581"
         id="stop1445" />
      <stop
         style="stop-color:#ffc474;stop-opacity:1;"
         offset="0.18442476"
         id="stop1447" />
      <stop
         style="stop-color:#ffce8c;stop-opacity:1;"
         offset="0.25016946"
         id="stop1449" />
      <stop
         style="stop-color:#ffc474;stop-opacity:1;"
         offset="0.3166357"
         id="stop1451" />
      <stop
         style="stop-color:#ffc389;stop-opacity:1;"
         offset="0.38451442"
         id="stop1453" />
      <stop
         style="stop-color:#ffc674;stop-opacity:1;"
         offset="0.47559014"
         id="stop1455" />
      <stop
         style="stop-color:#ffc67a;stop-opacity:1;"
         offset="0.54782552"
         id="stop1457" />
      <stop
         style="stop-color:#ffc57d;stop-opacity:1;"
         offset="0.61341411"
         id="stop1459" />
      <stop
         style="stop-color:#ffcb7a;stop-opacity:1;"
         offset="0.68246663"
         id="stop1461" />
      <stop
         style="stop-color:#ffbf76;stop-opacity:1;"
         offset="0.73423874"
         id="stop1463" />
      <stop
         style="stop-color:#ffc66b;stop-opacity:1;"
         offset="0.82545269"
         id="stop1469" />
      <stop
         style="stop-color:#ffca84;stop-opacity:1;"
         offset="0.89189297"
         id="stop1471" />
      <stop
         style="stop-color:#ffba72;stop-opacity:1;"
         offset="0.94046402"
         id="stop1473" />
      <stop
         style="stop-color:#ffd889;stop-opacity:1;"
         offset="1"
         id="stop1465" />
    </linearGradient>
    <linearGradient
       xlink:href="#linearGradient6126"
       id="linearGradient8589"
       gradientUnits="userSpaceOnUse"
       gradientTransform="translate(-2.31e-4,-2.49e-4)"
       x1="-1215.5699"
       y1="167.93315"
       x2="-1215.5706"
       y2="-275.99411" />
    <linearGradient
       id="linearGradient6126">
      <stop
         style="stop-color:#f6cf8d;stop-opacity:1;"
         offset="0"
         id="stop6122" />
      <stop
         style="stop-color:#fafa9a;stop-opacity:1;"
         offset="0.60526317"
         id="stop6124" />
    </linearGradient>
    <linearGradient
       xlink:href="#linearGradient10448"
       id="linearGradient8591"
       gradientUnits="userSpaceOnUse"
       gradientTransform="translate(-844.32051,-151.71975)"
       x1="-371.25"
       y1="319.65253"
       x2="-371.25"
       y2="358.62" />
    <linearGradient
       id="linearGradient10448">
      <stop
         style="stop-color:#ecb857;stop-opacity:1;"
         offset="0.28728068"
         id="stop10446" />
      <stop
         style="stop-color:#efcb98;stop-opacity:1;"
         offset="0.5"
         id="stop10444" />
      <stop
         style="stop-color:#edaf69;stop-opacity:1;"
         offset="0.7390351"
         id="stop10442" />
    </linearGradient>
    <filter
       style="color-interpolation-filters:sRGB"
       id="filter1412"
       x="-0.0026895615"
       y="-0.033650937"
       width="1.0053791"
       height="1.0673019">
      <feGaussianBlur
         stdDeviation="0.58166051"
         id="feGaussianBlur1414" />
    </filter>
    <filter
       style="color-interpolation-filters:sRGB"
       id="filter1479"
       x="-0.0034826777"
       y="-0.043574268"
       width="1.0069654"
       height="1.0871485">
      <feGaussianBlur
         stdDeviation="0.75318466"
         id="feGaussianBlur1481" />
    </filter>
    <linearGradient
       xlink:href="#linearGradient6120"
       id="linearGradient8593"
       gradientUnits="userSpaceOnUse"
       gradientTransform="translate(3e-4,-58.31528)"
       x1="-1287.3033"
       y1="-301.47824"
       x2="-1285.3059"
       y2="-294.02359" />
    <linearGradient
       id="linearGradient6120">
      <stop
         style="stop-color:#ffffff;stop-opacity:1;"
         offset="0"
         id="stop6116" />
      <stop
         style="stop-color:#ffffff;stop-opacity:0.78947371;"
         offset="1"
         id="stop6118" />
    </linearGradient>
    <linearGradient
       xlink:href="#linearGradient6192"
       id="linearGradient8595"
       gradientUnits="userSpaceOnUse"
       gradientTransform="translate(-32.6565,-37.75432)"
       x1="-1394.903"
       y1="-58.592804"
       x2="-1385.5217"
       y2="-57.119999" />
    <linearGradient
       id="linearGradient6192">
      <stop
         style="stop-color:#ffffff;stop-opacity:1;"
         offset="0.64473683"
         id="stop6188" />
      <stop
         style="stop-color:#ffffff;stop-opacity:0;"
         offset="1"
         id="stop6190" />
    </linearGradient>
    <filter
       style="color-interpolation-filters:sRGB"
       id="filter6136"
       x="-0.0020314876"
       y="-0.080969957"
       width="1.004063"
       height="1.1619399">
      <feGaussianBlur
         stdDeviation="0.43934162"
         id="feGaussianBlur6134" />
    </filter>
    <linearGradient
       xlink:href="#linearGradient6152"
       id="linearGradient8597"
       gradientUnits="userSpaceOnUse"
       gradientTransform="translate(1.8438616e-5,3.0661715)"
       x1="-1432.5771"
       y1="186.15788"
       x2="-998.56384"
       y2="186.15788" />
    <linearGradient
       id="linearGradient6152">
      <stop
         style="stop-color:#c14360;stop-opacity:1;"
         offset="0"
         id="stop6148" />
      <stop
         style="stop-color:#4f1a26;stop-opacity:1;"
         offset="0.05921053"
         id="stop6156" />
      <stop
         style="stop-color:#c54d69;stop-opacity:1;"
         offset="0.18201755"
         id="stop6158" />
      <stop
         style="stop-color:#3e141e;stop-opacity:1;"
         offset="0.25274122"
         id="stop6164" />
      <stop
         style="stop-color:#cb5974;stop-opacity:1;"
         offset="0.34950656"
         id="stop6166" />
      <stop
         style="stop-color:#3c131d;stop-opacity:1;"
         offset="0.40652412"
         id="stop6168" />
      <stop
         style="stop-color:#d16f87;stop-opacity:1;"
         offset="0.51425439"
         id="stop6162" />
      <stop
         style="stop-color:#3b121c;stop-opacity:1;"
         offset="0.60718203"
         id="stop6176" />
      <stop
         style="stop-color:#d16a84;stop-opacity:1;"
         offset="0.69353068"
         id="stop6170" />
      <stop
         style="stop-color:#39121b;stop-opacity:1;"
         offset="0.77549338"
         id="stop6172" />
      <stop
         style="stop-color:#cc5f79;stop-opacity:1;"
         offset="0.84210527"
         id="stop6160" />
      <stop
         style="stop-color:#341119;stop-opacity:1;"
         offset="0.9375"
         id="stop6174" />
      <stop
         style="stop-color:#ce6981;stop-opacity:1;"
         offset="1"
         id="stop6150" />
    </linearGradient>
    <filter
       style="color-interpolation-filters:sRGB"
       id="filter18126-8-51"
       x="-0.048038546"
       y="-0.037331183"
       width="1.0960771"
       height="1.0746624">
      <feGaussianBlur
         stdDeviation="0.39182262"
         id="feGaussianBlur18128-8-05" />
    </filter>
    <filter
       style="color-interpolation-filters:sRGB"
       id="filter18126-8-04"
       x="-0.044120769"
       y="-0.068037074"
       width="1.0882415"
       height="1.1360741">
      <feGaussianBlur
         stdDeviation="0.39182262"
         id="feGaussianBlur18128-8-95" />
    </filter>
    <filter
       style="color-interpolation-filters:sRGB"
       id="filter18126-8-40"
       x="-0.055986759"
       y="-0.08100242"
       width="1.1119735"
       height="1.1620048">
      <feGaussianBlur
         stdDeviation="0.39182262"
         id="feGaussianBlur18128-8-0" />
    </filter>
    <filter
       style="color-interpolation-filters:sRGB"
       id="filter18126-8-42"
       x="-0.068342773"
       y="-0.049586537"
       width="1.1366855"
       height="1.0991731">
      <feGaussianBlur
         stdDeviation="0.39182262"
         id="feGaussianBlur18128-8-4" />
    </filter>
    <filter
       style="color-interpolation-filters:sRGB"
       id="filter18126-8-00"
       x="-0.07940328"
       y="-0.082912594"
       width="1.1588066"
       height="1.1658252">
      <feGaussianBlur
         stdDeviation="0.39182262"
         id="feGaussianBlur18128-8-44" />
    </filter>
    <filter
       style="color-interpolation-filters:sRGB"
       id="filter18126-8-11"
       x="-0.07940328"
       y="-0.082912594"
       width="1.1588066"
       height="1.1658252">
      <feGaussianBlur
         stdDeviation="0.39182262"
         id="feGaussianBlur18128-8-1" />
    </filter>
    <filter
       style="color-interpolation-filters:sRGB"
       id="filter18126-8-58"
       x="-0.07940328"
       y="-0.082912594"
       width="1.1588066"
       height="1.1658252">
      <feGaussianBlur
         stdDeviation="0.39182262"
         id="feGaussianBlur18128-8-14" />
    </filter>
  </defs>
  <g
     id="layer1">
    <path
       style="opacity:0.808717;mix-blend-mode:normal;fill:#26282f;fill-opacity:1;stroke:none;stroke-width:1.257;filter:url(#filter6180)"
       d="m -2788.5664,191.84538 c 0,0 33.1314,36.87543 33.1314,36.87543 0,0 507.5189,0 507.5189,0 0,0 -95.4549,-520.22822 -95.4549,-520.22822 0,0 -22.6016,-9.60585 -22.6016,-9.60585 0,0 -422.5938,492.95864 -422.5938,492.95864 z"
       id="path7377"
       transform="matrix(2.0051344,0,0,2.0051344,5745.3953,966.43298)" />
    <g
       id="g7399"
       transform="matrix(2.0051344,0,0,2.0051344,3097.3816,931.88246)"
       style="mix-blend-mode:normal;filter:url(#filter6142-5)">
      <path
         id="path7379"
         style="fill:url(#linearGradient8587);fill-opacity:1;stroke:none;stroke-width:1.257"
         d="m -1215.5702,-378.67062 -176.1229,58.3152 -83.3963,485.77126 259.5192,2.51706 259.51913,-2.51706 -83.39633,-485.77126 z" />
      <path
         id="path7381"
         style="opacity:0.353511;mix-blend-mode:overlay;fill:url(#linearGradient8589);fill-opacity:1;stroke:none;stroke-width:1.257"
         d="m -1215.5702,-378.67062 -176.1229,58.3152 -83.3963,485.77126 259.5192,2.51716 259.51913,-2.51716 -83.39633,-485.77126 z" />
      <g
         id="g27949"
         transform="matrix(0.77937014,0,0,0.77937014,-310.2404,-113.28406)">
        <path
           d="m -1092.942,54.927649 c -11.2046,-2.479791 -25.3837,-10.222145 -35.9987,-19.656493 l -17.5131,-15.56505 v -48.105671 c 0,-48.42094 -1.3199,-52.3913 -15.8817,-47.76968 -6.4704,2.05362 -7.4114,8.30372 -7.4114,49.22081 0,49.834844 -5.5179,77.575443 -16.2501,81.693802 -4.4698,1.71521 -15.7577,-7.324253 -35.2942,-28.264566 l -28.7223,-30.786356 -16.0229,15.645885 c -21.2903,20.789517 -37.5935,26.294063 -60.0039,20.259545 -21.7463,-5.855575 -22.1148,-10.969718 -1.0329,-14.340931 12.2605,-1.960553 21.0761,-7.699776 35.4794,-23.097979 25.4996,-27.26092 33.4506,-51.48245 12.632,-38.481 -15.1843,9.48273 -51.8047,-12.70183 -45.988,-27.85951 1.9716,-5.13796 6.3162,-5.97125 19.8505,-3.80697 14.1124,2.25659 45.5089,-3.25621 54.2889,-9.53257 0.8367,-0.59817 -1.069,-7.065311 -4.2353,-14.371571 -5.1785,-11.950334 -7.1828,-13.057224 -19.9634,-11.025494 -17.7462,2.82123 -39.5427,-1.27387 -37.6117,-7.06652 0.7983,-2.39474 10.2416,-6.91711 20.9851,-10.0497 20.9313,-6.10336 41.4214,-25.81763 41.4214,-39.85311 0,-6.10368 2.9816,-8.14526 11.8958,-8.14526 29.2936,0 34.7493,24.3409 9.2797,41.40136 -16.3301,10.93855 -20.8683,17.89039 -11.6789,17.89039 3.2822,0 10.5179,4.84379 16.0796,10.76398 5.8209,6.196114 13.7724,10.239914 18.7376,9.528984 7.9613,-1.13986 8.507,-3.679554 7.0902,-32.998344 -0.8441,-17.46985 -3.2225,-34.9663 -5.2853,-38.88077 -2.5476,-4.83442 -1.6649,-9.20321 2.7521,-13.62019 5.8468,-5.84685 7.995,-5.7911 21.2991,0.55324 16.7624,7.99337 22.2882,21.79426 15.07,37.63639 -5.1339,11.26801 -6.4536,36.62942 -2.1306,40.95241 1.4531,1.45301 9.7495,-0.98398 18.4362,-5.4157 l 15.7943,-8.05764 14.2946,11.93357 c 12.5225,10.454404 13.5748,12.800744 8.4884,18.929255 -3.1931,3.84765 -4.7466,8.05484 -3.4522,9.34928 3.3895,3.38952 23.0885,-10.32631 26.0993,-18.172061 3.2021,-8.344534 -4.7348,-18.267264 -14.6111,-18.267264 -12.0133,0 -32.882,-22.50833 -35.9296,-38.75236 -1.5261,-8.13498 -0.9629,-24.75853 1.2512,-36.94146 l 4.0261,-22.15056 -13.2256,2.6357 c -7.2743,1.44967 -24.3381,5.35946 -37.9198,8.68852 -13.5818,3.32897 -28.3925,6.05274 -32.913,6.05274 -10.85,0 -42.6151,-21.18875 -40.6597,-27.122 0.8454,-2.56562 17.4798,-5.87648 37.1929,-7.40271 35.2297,-2.72778 53.9769,-6.56236 77.2313,-15.7973 18.1851,-7.22177 30.1473,-5.71688 40.2786,5.0673 11.6514,12.40252 11.5398,15.03833 -1.3793,32.54932 -15.1303,20.50776 -14.1207,27.95955 2.4707,18.23876 14.661,-8.58986 26.6447,-32.51477 23.1866,-46.29209 -5.0841,-20.25719 19.7136,-21.78835 37.2659,-2.30107 7.6653,8.51039 7.6653,9.14587 0,24.838 -9.5695,19.59032 -47.055,43.63259 -68.0297,43.63259 -15.9443,0 -16.141,0.42191 -7.7554,16.63754 7.2366,13.99436 14.0167,17.24342 35.9829,17.24342 17.8546,0 29.3742,-9.26278 22.3846,-17.99926 -8.1512,-10.18862 -10.4986,-24.35197 -4.0361,-24.35197 10.7633,0 45.3505,33.82139 45.3505,44.34618 0,10.47117 -20.8396,23.41585 -37.6975,23.41585 -10.6882,0 -11.1063,3.41959 -2.0072,16.410444 6.448,9.205651 6.3442,10.362071 -1.6434,18.349631 -5.0359,5.03592 -16.4838,9.42183 -27.9725,10.7168 -20.9754,2.36423 -22.4556,6.89598 -3.7754,11.55816 22.9675,5.73208 34.306,26.64745 21.4275,39.52586 -9.0381,9.03825 -19.6338,5.43537 -31.7598,-10.79951 -17.1319,-22.93726 -23.8764,-27.5431 -27.4461,-18.74316 -4.3966,10.83853 -3.9699,31.9382 0.9301,45.994481 8.2571,23.686512 44.8585,33.411651 73.8021,19.60941 16.8403,-8.030591 17.3302,-9.56074 9.0325,-28.221401 -10.0782,-22.66469 -15.2594,-41.65371 -12.5581,-46.02465 1.4202,-2.29771 13.8352,8.29057 27.5891,23.52974 13.7539,15.23905 28.5924,28.845382 32.9746,30.236253 10.3805,3.29466 14.0663,13.448747 8.5933,23.675017 -10.6485,19.89666 -69.6002,35.246911 -105.1488,27.379284 z m -110.1663,-61.867324 c 1.5793,-5.65062 3.0612,-21.23223 3.2934,-34.62574 0.3642,-20.9992 -0.6537,-24.35197 -7.3917,-24.35197 -9.0738,0 -16.2994,7.95437 -29.3778,32.34008 -9.4005,17.52764 -12.1917,29.03997 -6.2185,25.64762 1.747,-0.99211 8.8938,1.60648 15.8819,5.77468 15.6206,9.317411 20.125,8.412364 23.8127,-4.78467 z"
           style="mix-blend-mode:normal;fill:#000000;stroke-width:4.23514;filter:url(#filter6142)"
           id="path7401" />
        <path
           style="mix-blend-mode:normal;fill:#ffffff;fill-opacity:1;stroke:none;stroke-width:0.626891;filter:url(#filter18126-8-51)"
           d="m -1020.4416,-7.8267867 c 2.9558,1.0308137 13.3646,11.7878969 16.9922,17.9952217 3.62763,6.207324 0.4663,7.856707 -2.4889,6.825847 -2.9552,-1.030859 -5.7041,-4.741891 -9.3289,-10.9448812 -3.6248,-6.20299063 -8.1301,-14.9070012 -5.1744,-13.8761875 z"
           id="path7405" />
        <path
           style="mix-blend-mode:normal;fill:#ffffff;fill-opacity:1;stroke:none;stroke-width:0.626891;filter:url(#filter18126-8-04)"
           d="m -1116.1419,-238.68639 c 5.3238,2.24613 13.6366,8.38895 13.8428,11.06974 0.2062,2.6808 -7.6922,1.89879 -13.0171,-0.3479 -5.3249,-2.24669 -8.0738,-5.95772 -8.28,-8.63813 -0.2062,-2.68041 2.1305,-4.32983 7.4543,-2.08371 z"
           id="path7407" />
        <path
           style="mix-blend-mode:normal;fill:#ffffff;fill-opacity:1;stroke:none;stroke-width:0.626891;filter:url(#filter18126-8-40)"
           d="m -1057.4802,-245.47637 c 4.1945,1.22908 10.2475,5.33701 10.4534,8.01763 0.2059,2.68061 -5.4334,3.933 -9.6283,2.70378 -4.1949,-1.22922 -6.9438,-4.94025 -7.15,-7.62066 -0.2062,-2.68041 2.1305,-4.32983 6.3249,-3.10075 z"
           id="path7409" />
        <path
           style="mix-blend-mode:normal;fill:#ffffff;fill-opacity:1;stroke:none;stroke-width:0.626891;filter:url(#filter18126-8-42)"
           d="m -1042.4578,-155.35771 c 2.9561,1.03094 9.5298,8.65107 11.2382,13.28846 1.7084,4.63739 -1.4529,6.28677 -4.4081,5.25591 -2.9552,-1.03086 -5.7041,-4.74189 -7.4118,-9.37644 -1.7076,-4.63455 -2.3745,-10.19887 0.5817,-9.16793 z"
           id="path7411" />
        <path
           style="mix-blend-mode:normal;fill:#ffffff;fill-opacity:1;stroke:none;stroke-width:0.626891;filter:url(#filter18126-8-00)"
           d="m -1180.3635,-173.92505 c 2.9552,1.031 6.5289,4.74221 6.735,7.42241 0.2061,2.6802 -2.9552,4.32958 -5.9104,3.29872 -2.9552,-1.03086 -5.7041,-4.74189 -5.9103,-7.4223 -0.2062,-2.68041 2.1305,-4.32983 5.0857,-3.29883 z"
           id="path7413" />
        <path
           style="mix-blend-mode:normal;fill:#ffffff;fill-opacity:1;stroke:none;stroke-width:0.626891;filter:url(#filter18126-8-11)"
           d="m -1232.3199,-170.62623 c 2.9552,1.031 6.5289,4.74221 6.735,7.42241 0.2061,2.6802 -2.9552,4.32958 -5.9104,3.29872 -2.9552,-1.03086 -5.7041,-4.74189 -5.9103,-7.4223 -0.2062,-2.68041 2.1305,-4.32983 5.0857,-3.29883 z"
           id="path7415" />
        <path
           style="mix-blend-mode:normal;fill:#ffffff;fill-opacity:1;stroke:none;stroke-width:0.626891;filter:url(#filter18126-8-58)"
           d="m -1081.3988,-38.673316 c 2.9552,1.031001 6.5289,4.742208 6.735,7.42241 0.2061,2.680202 -2.9552,4.329585 -5.9104,3.298725 -2.9552,-1.030859 -5.7041,-4.741891 -5.9103,-7.4223 -0.2062,-2.68041 2.1305,-4.329835 5.0857,-3.298835 z"
           id="path7417" />
      </g>
      <g
         id="g99309"
         transform="translate(1695.0744,-23.033264)">
        <g
           id="g11642"
           style="mix-blend-mode:normal"
           transform="translate(-400.55888,-16.866061)">
          <path
             id="path98402"
             style="stroke:#000000;stroke-width:2.08197"
             d="m -2510.0857,157.65742 22.767,-46.4651 -45.534,3.3e-4 z" />
          <rect
             style="fill:#000000;fill-opacity:1;stroke:#000000;stroke-width:0.386408"
             id="rect98398"
             width="5.9197216"
             height="71.171066"
             x="-2513.0457"
             y="70.153656" />
          <path
             id="path2970"
             style="stroke:#000000;stroke-width:2.08197"
             d="m -2510.0857,-17.736522 -22.767,46.465102 45.534,-3.3e-4 z" />
          <rect
             style="fill:#000000;fill-opacity:1;stroke:#000000;stroke-width:0.386408"
             id="rect2972"
             width="5.9197216"
             height="71.171066"
             x="2507.1257"
             y="-69.76725"
             transform="scale(-1)" />
          <path
             id="path2974"
             style="stroke:#000000;stroke-width:2.08197"
             d="m -2597.7827,69.960449 46.4651,22.767 -3e-4,-45.534 z" />
          <rect
             style="fill:#000000;fill-opacity:1;stroke:#000000;stroke-width:0.386408"
             id="rect2976"
             width="5.9197216"
             height="71.171066"
             x="67.000496"
             y="2510.2788"
             transform="rotate(90)" />
          <path
             id="path2978"
             style="stroke:#000000;stroke-width:2.08197"
             d="m -2422.3887,69.960449 -46.4651,-22.767 3e-4,45.534 z" />
          <rect
             style="fill:#000000;fill-opacity:1;stroke:#000000;stroke-width:0.386408"
             id="rect2980"
             width="5.9197216"
             height="71.171066"
             x="-72.920418"
             y="-2509.8926"
             transform="rotate(-90)" />
        </g>
      </g>
      <path
         id="path7383"
         style="opacity:1;fill:url(#linearGradient8591);fill-opacity:1;stroke:none;stroke-width:1.257;filter:url(#filter1412)"
         d="m -1475.0893,165.41574 7.1396,40.59442 252.3795,0.88987 252.37953,-0.88977 7.1396,-40.59442 -259.51913,2.51706 z" />
      <path
         id="path7385"
         style="opacity:0.602906;mix-blend-mode:multiply;fill:#6d2435;fill-opacity:1;stroke:none;stroke-width:1.257;filter:url(#filter1479)"
         d="m -1475.0894,165.41584 7.1396,40.5944 252.3796,0.88979 252.37953,-0.88977 7.1396,-40.59442 -259.51913,2.51705 z" />
      <path
         style="opacity:0.581114;mix-blend-mode:overlay;fill:url(#linearGradient8593);fill-opacity:1;stroke:none;stroke-width:1.257"
         d="m -1391.6931,-320.35542 c 0,0 8.8093,6.60699 8.8093,6.60699 0,0 167.3136,-56.74211 167.3136,-56.74211 0,0 0,-8.18008 0,-8.18008 0,0 -176.1229,58.3152 -176.1229,58.3152 z"
         id="path7387" />
      <path
         style="opacity:0.915254;mix-blend-mode:normal;fill:url(#linearGradient8595);fill-opacity:1;stroke:none;stroke-width:1.257"
         d="m -1391.6931,-320.35542 c 0,0 8.8093,6.60699 8.8093,6.60699 0,0 -81.1485,468.65911 -81.1485,468.65911 0,0 -11.0571,10.50516 -11.0571,10.50516 0,0 83.3963,-485.77126 83.3963,-485.77126 z"
         id="path7389" />
      <path
         id="path7391"
         style="opacity:0.198547;mix-blend-mode:normal;fill:#ffffff;fill-opacity:1;stroke:none;stroke-width:1.257;filter:url(#filter6136)"
         d="m -1464.0327,154.91054 -11.0567,10.5053 259.5192,2.51706 259.51913,-2.51706 -11.0567,-10.5053 -70.80133,0.30391 -177.6611,0.76259 z" />
      <path
         style="opacity:0.263923;mix-blend-mode:multiply;fill:#26282f;fill-opacity:1;stroke:none;stroke-width:1.257"
         d="m -1039.4474,-320.35542 c 0,0 -8.8093,6.60699 -8.8093,6.60699 0,0 81.14853,468.65911 81.14853,468.65911 0,0 11.0571,10.50516 11.0571,10.50516 0,0 -83.39633,-485.77126 -83.39633,-485.77126 z"
         id="path7393" />
      <path
         style="opacity:0.070218;mix-blend-mode:normal;fill:#26282f;fill-opacity:1;stroke:none;stroke-width:1.257"
         d="m -1039.4474,-320.35542 c 0,0 -8.8093,6.60699 -8.8093,6.60699 0,0 -167.3135,-56.74211 -167.3135,-56.74211 0,0 0,-8.18008 0,-8.18008 0,0 176.1228,58.3152 176.1228,58.3152 z"
         id="path7395" />
      <path
         id="path7397"
         style="opacity:0.135593;mix-blend-mode:multiply;fill:url(#linearGradient8597);fill-opacity:1;stroke:none;stroke-width:1.257;filter:url(#filter1479)"
         d="m -1475.0894,168.48201 7.1396,40.5944 252.3796,0.88979 252.37953,-0.88977 7.1396,-40.59442 -259.51913,2.51705 z" />
    </g>
  </g>
</svg>
