<?xml version="1.0" encoding="UTF-8" standalone="no"?>
<!-- Created with Inkscape (http://www.inkscape.org/) -->

<svg
   width="132mm"
   height="144mm"
   viewBox="0 0 1320 1440"
   version="1.1"
   id="svg23702"
   xmlns:xlink="http://www.w3.org/1999/xlink"
   xmlns="http://www.w3.org/2000/svg"
   xmlns:svg="http://www.w3.org/2000/svg">
  <defs
     id="defs23699">
    <filter
       style="color-interpolation-filters:sRGB"
       id="filter6180"
       x="-0.045044617"
       y="-0.04097344"
       width="1.0900892"
       height="1.0819469">
      <feGaussianBlur
         stdDeviation="9.0173096"
         id="feGaussianBlur6178" />
    </filter>
    <filter
       style="color-interpolation-filters:sRGB"
       id="filter6142-3"
       x="-0.007061622"
       y="-0.0025810452"
       width="1.0141232"
       height="1.00841">
      <feGaussianBlur
         stdDeviation="0.59853361"
         id="feGaussianBlur6144-4" />
    </filter>
    <linearGradient
       xlink:href="#linearGradient1467"
       id="linearGradient8611"
       gradientUnits="userSpaceOnUse"
       gradientTransform="translate(-844.32051,-151.71975)"
       x1="-586.44916"
       y1="75.508476"
       x2="-156.05099"
       y2="75.508476" />
    <linearGradient
       id="linearGradient1467">
      <stop
         style="stop-color:#ffeab1;stop-opacity:1;"
         offset="0"
         id="stop1441" />
      <stop
         style="stop-color:#ffd774;stop-opacity:1;"
         offset="0.05596975"
         id="stop1443" />
      <stop
         style="stop-color:#ffd394;stop-opacity:1;"
         offset="0.12240581"
         id="stop1445" />
      <stop
         style="stop-color:#ffc474;stop-opacity:1;"
         offset="0.18442476"
         id="stop1447" />
      <stop
         style="stop-color:#ffce8c;stop-opacity:1;"
         offset="0.25016946"
         id="stop1449" />
      <stop
         style="stop-color:#ffc474;stop-opacity:1;"
         offset="0.3166357"
         id="stop1451" />
      <stop
         style="stop-color:#ffc389;stop-opacity:1;"
         offset="0.38451442"
         id="stop1453" />
      <stop
         style="stop-color:#ffc674;stop-opacity:1;"
         offset="0.47559014"
         id="stop1455" />
      <stop
         style="stop-color:#ffc67a;stop-opacity:1;"
         offset="0.54782552"
         id="stop1457" />
      <stop
         style="stop-color:#ffc57d;stop-opacity:1;"
         offset="0.61341411"
         id="stop1459" />
      <stop
         style="stop-color:#ffcb7a;stop-opacity:1;"
         offset="0.68246663"
         id="stop1461" />
      <stop
         style="stop-color:#ffbf76;stop-opacity:1;"
         offset="0.73423874"
         id="stop1463" />
      <stop
         style="stop-color:#ffc66b;stop-opacity:1;"
         offset="0.82545269"
         id="stop1469" />
      <stop
         style="stop-color:#ffca84;stop-opacity:1;"
         offset="0.89189297"
         id="stop1471" />
      <stop
         style="stop-color:#ffba72;stop-opacity:1;"
         offset="0.94046402"
         id="stop1473" />
      <stop
         style="stop-color:#ffd889;stop-opacity:1;"
         offset="1"
         id="stop1465" />
    </linearGradient>
    <linearGradient
       xlink:href="#linearGradient6126"
       id="linearGradient8613"
       gradientUnits="userSpaceOnUse"
       gradientTransform="translate(-2.31e-4,-2.49e-4)"
       x1="-1215.5699"
       y1="167.93315"
       x2="-1215.5706"
       y2="-275.99411" />
    <linearGradient
       id="linearGradient6126">
      <stop
         style="stop-color:#f6cf8d;stop-opacity:1;"
         offset="0"
         id="stop6122" />
      <stop
         style="stop-color:#fafa9a;stop-opacity:1;"
         offset="0.60526317"
         id="stop6124" />
    </linearGradient>
    <linearGradient
       xlink:href="#linearGradient10448"
       id="linearGradient8615"
       gradientUnits="userSpaceOnUse"
       gradientTransform="translate(-844.32051,-151.71975)"
       x1="-371.25"
       y1="319.65253"
       x2="-371.25"
       y2="358.62" />
    <linearGradient
       id="linearGradient10448">
      <stop
         style="stop-color:#ecb857;stop-opacity:1;"
         offset="0.28728068"
         id="stop10446" />
      <stop
         style="stop-color:#efcb98;stop-opacity:1;"
         offset="0.5"
         id="stop10444" />
      <stop
         style="stop-color:#edaf69;stop-opacity:1;"
         offset="0.7390351"
         id="stop10442" />
    </linearGradient>
    <filter
       style="color-interpolation-filters:sRGB"
       id="filter1412"
       x="-0.0030387001"
       y="-0.033184482"
       width="1.0060774"
       height="1.066369">
      <feGaussianBlur
         stdDeviation="0.58166051"
         id="feGaussianBlur1414" />
    </filter>
    <filter
       style="color-interpolation-filters:sRGB"
       id="filter1479"
       x="-0.0039347735"
       y="-0.041678683"
       width="1.0078695"
       height="1.0833574">
      <feGaussianBlur
         stdDeviation="0.75318466"
         id="feGaussianBlur1481" />
    </filter>
    <linearGradient
       xlink:href="#linearGradient6120"
       id="linearGradient8617"
       gradientUnits="userSpaceOnUse"
       gradientTransform="translate(4e-4,-27.99111)"
       x1="-1287.3033"
       y1="-301.47824"
       x2="-1285.3059"
       y2="-294.02359" />
    <linearGradient
       id="linearGradient6120">
      <stop
         style="stop-color:#ffffff;stop-opacity:1;"
         offset="0"
         id="stop6116" />
      <stop
         style="stop-color:#ffffff;stop-opacity:0.78947371;"
         offset="1"
         id="stop6118" />
    </linearGradient>
    <linearGradient
       xlink:href="#linearGradient6192"
       id="linearGradient8619"
       gradientUnits="userSpaceOnUse"
       gradientTransform="translate(-6.4145,-25.07602)"
       x1="-1394.903"
       y1="-58.592804"
       x2="-1385.5217"
       y2="-57.119999" />
    <linearGradient
       id="linearGradient6192">
      <stop
         style="stop-color:#ffffff;stop-opacity:1;"
         offset="0.64473683"
         id="stop6188" />
      <stop
         style="stop-color:#ffffff;stop-opacity:0;"
         offset="1"
         id="stop6190" />
    </linearGradient>
    <filter
       style="color-interpolation-filters:sRGB"
       id="filter6136"
       x="-0.0022952005"
       y="-0.077499877"
       width="1.0045904"
       height="1.1549998">
      <feGaussianBlur
         stdDeviation="0.43934162"
         id="feGaussianBlur6134" />
    </filter>
    <linearGradient
       xlink:href="#linearGradient6152"
       id="linearGradient8621"
       gradientUnits="userSpaceOnUse"
       gradientTransform="translate(1.8438611e-5,1.303516)"
       x1="-1432.5771"
       y1="186.15788"
       x2="-998.56384"
       y2="186.15788" />
    <linearGradient
       id="linearGradient6152">
      <stop
         style="stop-color:#c14360;stop-opacity:1;"
         offset="0"
         id="stop6148" />
      <stop
         style="stop-color:#4f1a26;stop-opacity:1;"
         offset="0.05921053"
         id="stop6156" />
      <stop
         style="stop-color:#c54d69;stop-opacity:1;"
         offset="0.18201755"
         id="stop6158" />
      <stop
         style="stop-color:#3e141e;stop-opacity:1;"
         offset="0.25274122"
         id="stop6164" />
      <stop
         style="stop-color:#cb5974;stop-opacity:1;"
         offset="0.34950656"
         id="stop6166" />
      <stop
         style="stop-color:#3c131d;stop-opacity:1;"
         offset="0.40652412"
         id="stop6168" />
      <stop
         style="stop-color:#d16f87;stop-opacity:1;"
         offset="0.51425439"
         id="stop6162" />
      <stop
         style="stop-color:#3b121c;stop-opacity:1;"
         offset="0.60718203"
         id="stop6176" />
      <stop
         style="stop-color:#d16a84;stop-opacity:1;"
         offset="0.69353068"
         id="stop6170" />
      <stop
         style="stop-color:#39121b;stop-opacity:1;"
         offset="0.77549338"
         id="stop6172" />
      <stop
         style="stop-color:#cc5f79;stop-opacity:1;"
         offset="0.84210527"
         id="stop6160" />
      <stop
         style="stop-color:#341119;stop-opacity:1;"
         offset="0.9375"
         id="stop6174" />
      <stop
         style="stop-color:#ce6981;stop-opacity:1;"
         offset="1"
         id="stop6150" />
    </linearGradient>
    <filter
       style="color-interpolation-filters:sRGB"
       id="filter18126-8-46-1-8-87"
       x="-0.047260005"
       y="-0.04958797"
       width="1.09452"
       height="1.0991759">
      <feGaussianBlur
         stdDeviation="0.39182262"
         id="feGaussianBlur18128-8-90-3-3-08" />
    </filter>
    <filter
       style="color-interpolation-filters:sRGB"
       id="filter18126-8-46-1-8-51"
       x="-0.048642583"
       y="-0.077035798"
       width="1.0972852"
       height="1.1540716">
      <feGaussianBlur
         stdDeviation="0.39182262"
         id="feGaussianBlur18128-8-90-3-3-2" />
    </filter>
    <filter
       style="color-interpolation-filters:sRGB"
       id="filter18126-8-46-1-8-4"
       x="-0.079403802"
       y="-0.082912596"
       width="1.1588076"
       height="1.1658252">
      <feGaussianBlur
         stdDeviation="0.39182262"
         id="feGaussianBlur18128-8-90-3-3-20" />
    </filter>
    <filter
       style="color-interpolation-filters:sRGB"
       id="filter18126-8-46-1-8-0"
       x="-0.079403802"
       y="-0.082912596"
       width="1.1588076"
       height="1.1658252">
      <feGaussianBlur
         stdDeviation="0.39182262"
         id="feGaussianBlur18128-8-90-3-3-58" />
    </filter>
    <filter
       style="color-interpolation-filters:sRGB"
       id="filter18126-8-46-1-8-96"
       x="-0.079403802"
       y="-0.082912596"
       width="1.1588076"
       height="1.1658252">
      <feGaussianBlur
         stdDeviation="0.39182262"
         id="feGaussianBlur18128-8-90-3-3-44" />
    </filter>
  </defs>
  <g
     id="layer1">
    <path
       style="mix-blend-mode:normal;filter:url(#filter6180);opacity:0.808717;fill:#26282f;fill-opacity:1;stroke:none;stroke-width:1.257"
       d="m -2724.0538,205.42704 c 0,0 33.1314,36.87543 33.1314,36.87543 0,0 447.3154,0 447.3154,0 0,0 -87.2078,-518.5788 -87.2078,-518.5788 0,0 -22.6016,-9.60585 -22.6016,-9.60585 0,0 -370.6374,491.30922 -370.6374,491.30922 z"
       id="path7289"
       transform="matrix(2.0051344,0,0,2.0051344,5675.8285,931.88262)" />
    <g
       id="g7311"
       transform="matrix(2.0051344,0,0,2.0051344,3097.3819,931.88262)"
       style="mix-blend-mode:normal;filter:url(#filter6142-3)">
      <path
         id="path7291"
         style="fill:url(#linearGradient8611);fill-opacity:1;stroke:none;stroke-width:1.257"
         d="m -1215.5704,-348.34645 -149.8807,40.66933 -79.8202,472.50974 229.7011,3.10028 229.701,-3.10028 -79.8202,-472.50974 z" />
      <path
         id="path7293"
         style="opacity:0.353511;mix-blend-mode:overlay;fill:url(#linearGradient8613);fill-opacity:1;stroke:none;stroke-width:1.257"
         d="m -1215.5704,-348.34645 -149.8807,40.66933 -79.8202,472.50974 229.7009,3.10038 h 3e-4 l 229.7009,-3.10038 -79.8202,-472.50974 -149.8807,-40.66933 z" />
      <g
         id="g45377"
         transform="matrix(0.90651366,0,0,0.90651366,1100.6587,-123.22484)">
        <path
           d="m -2576.6247,46.248208 c -10.8561,-1.9758 -19.0166,-9.396541 -21.5846,-19.627661 -1.1243,-4.480375 -3.4739,-8.146081 -5.2211,-8.146081 -1.747,0 -8.4364,-4.61832 -14.8652,-10.2628495 -7.8856,-6.92378 -11.0347,-12.11232 -9.6783,-15.9472403 4.4054,-12.4567002 12.1335,-17.2227202 31.4745,-19.4108802 12.7629,-1.44406 21.5821,-4.418 25.3073,-8.53405 7.8217,-8.64294 3.3709,-11.738 -9.952,-6.92043 -15.2979,5.53185 -20.3536,5.04518 -27.2974,-2.62761 -10.4248,-11.51935 -17.1137,-11.25195 -35.5363,1.42056 -15.9917,11.00034 -30.1381,15.44756 -29.9162,9.40496 0.05,-1.38487 5.3849,-6.29493 11.8537,-10.91129 18.1282,-12.93697 77.7925,-79.935946 85.6626,-96.193296 6.0273,-12.45059 6.4725,-16.16087 3.1479,-26.23447 -7.104,-21.52506 5.4533,-25.41015 23.1423,-7.15989 10.7017,11.04143 10.9222,11.8209 6.6707,23.5783 l -4.3968,12.15936 35.1145,35.27652 c 29.3253,29.460306 38.3148,36.447106 54.5224,42.376476 21.173,7.74587 25.9079,11.94212 18.7922,16.65461 -5.6662,3.75245 -42.2707,0.20245 -51.9597,-5.03942 -8.0296,-4.34401 -18.9676,-16.87097 -45.1009,-51.652956 -10.0584,-13.38723 -20.0892,-24.34042 -22.2906,-24.34042 -3.7219,0 -17.889,17.02787 -17.889,21.50133 0,1.09993 6.0906,1.99973 13.5344,1.99973 14.9914,0 20.4535,6.517306 12.9948,15.504526 -3.5747,4.30734 -8.3016,4.90999 -24.3075,3.09913 -18.5581,-2.09965 -20.502,-1.64223 -29.4495,6.93 -19.0992,18.29828 6.567,24.855 37.9781,9.70185 18.6612,-9.00246 27.4517,-8.47539 33.0482,1.98149 2.9054,5.42897 1.1852,9.29579 -10.0756,22.65051 -9.9446,11.79381 -13.5792,19.10628 -13.5792,27.32155 0,6.7401302 -3.292,15.53386053 -8.2479,22.0314005 -4.5364,5.9475505 -7.3062,11.7556395 -6.155,12.9067795 3.4229,3.422876 17.3883,2.382205 24.0758,-1.79418 7.9659,-4.974749 15.3165,-2.08638 22.4685,8.828724 5.3514,8.167348 5.3329,9.036569 -0.3247,15.288251 -4.7324,5.229292 -9.9642,6.53212 -24.783,6.171438 -10.3312,-0.251445 -22.561,-1.144596 -27.1774,-1.984771 z m -12.0252,-46.59811147 c 9.3553,-3.58996003 6.0944,-11.39140053 -4.7612,-11.39140053 -10.2388,0 -14.3262,7.7957805 -5.8754,11.20570053 2.3082,0.93144 4.4508,1.81270997 4.7613,1.95844997 0.3106,0.14567 2.9545,-0.65198997 5.8753,-1.77274997 z m 40.8668,-57.52959053 c -2.3283,-2.32826 -8.6979,2.40232 -8.6979,6.45979 0,2.2262 1.9265,1.97147 5.1172,-0.67661 2.8143,-2.33568 4.4258,-4.93814 3.5807,-5.78318 z"
           style="fill:#800000;stroke-width:3.35731"
           id="path7641" />
        <path
           style="fill:#ffffff;fill-opacity:1;stroke:none;stroke-width:0.626891;filter:url(#filter18126-8-46-1-8-87)"
           d="m -2560.5649,-178.20186 c 4.8254,2.32865 12.1394,8.63508 13.4658,12.87318 1.3263,4.23809 -3.3347,6.40759 -8.1602,4.07904 -4.8255,-2.32856 -9.8148,-9.15506 -11.1412,-13.39326 -1.3264,-4.2382 1.0103,-5.88762 5.8356,-3.55896 z"
           id="path7643" />
        <path
           style="fill:#ffffff;fill-opacity:1;stroke:none;stroke-width:0.626891;filter:url(#filter18126-8-46-1-8-51)"
           d="m -2474.5811,-66.804959 c 4.6861,1.665629 11.7215,6.646039 13.024,9.268624 1.3024,2.622585 -3.1281,2.88728 -7.8143,1.221743 -4.6863,-1.665537 -9.6276,-5.261194 -10.93,-7.883882 -1.3024,-2.622688 1.0343,-4.272113 5.7203,-2.606485 z"
           id="path7645" />
        <path
           style="fill:#ffffff;fill-opacity:1;stroke:none;stroke-width:0.626891;filter:url(#filter18126-8-46-1-8-4)"
           d="m -2542.642,-71.050722 c 2.9552,1.031001 6.5289,4.742208 6.735,7.42241 0.2061,2.680202 -2.9552,4.329585 -5.9104,3.298725 -2.9552,-1.030859 -5.7041,-4.741891 -5.9103,-7.4223 -0.2062,-2.68041 2.1305,-4.329835 5.0857,-3.298835 z"
           id="path7647" />
        <path
           style="fill:#ffffff;fill-opacity:1;stroke:none;stroke-width:0.626891;filter:url(#filter18126-8-46-1-8-0)"
           d="m -2570.2697,-25.691922 c 2.9552,1.031001 6.5289,4.742208 6.735,7.42241 0.2061,2.680202 -2.9552,4.329585 -5.9104,3.298725 -2.9552,-1.030859 -5.7041,-4.741891 -5.9103,-7.4223 -0.2062,-2.68041 2.1305,-4.329835 5.0857,-3.298835 z"
           id="path7649" />
        <path
           style="fill:#ffffff;fill-opacity:1;stroke:none;stroke-width:0.626891;filter:url(#filter18126-8-46-1-8-96)"
           d="m -2533.3201,21.687263 c 2.9552,1.031001 6.5289,4.742208 6.735,7.42241 0.2061,2.680202 -2.9552,4.329585 -5.9104,3.298725 -2.9552,-1.030859 -5.7041,-4.741891 -5.9103,-7.4223 -0.2062,-2.68041 2.1305,-4.329835 5.0857,-3.298835 z"
           id="path7651" />
      </g>
      <path
         id="path7295"
         style="opacity:1;fill:url(#linearGradient8615);fill-opacity:1;stroke:none;stroke-width:1.257;filter:url(#filter1412)"
         d="m -1445.2713,164.83262 7.1396,40.59442 222.5615,1.47299 222.5614,-1.47299 7.1396,-40.59442 -229.701,3.10028 z" />
      <path
         id="path7297"
         style="opacity:0.602906;mix-blend-mode:multiply;fill:#6d2435;fill-opacity:1;stroke:none;stroke-width:1.257;filter:url(#filter1479)"
         d="m -1445.2713,164.83262 7.1396,40.5944 222.5615,2.77653 222.5614,-2.77651 7.1396,-40.59442 -229.701,4.40379 z" />
      <path
         style="opacity:0.581114;mix-blend-mode:overlay;fill:url(#linearGradient8617);fill-opacity:1;stroke:none;stroke-width:1.257"
         d="m -1365.4511,-307.67712 c 0,0 8.8093,6.60699 8.8093,6.60699 0,0 141.0717,-39.09624 141.0717,-39.09624 0,0 0,-8.18008 0,-8.18008 0,0 -149.881,40.66933 -149.881,40.66933 z"
         id="path7299" />
      <path
         style="opacity:0.915254;mix-blend-mode:normal;fill:url(#linearGradient8619);fill-opacity:1;stroke:none;stroke-width:1.257"
         d="m -1365.4511,-307.67712 c 0,0 8.8093,6.60699 8.8093,6.60699 0,0 -77.5724,455.39759 -77.5724,455.39759 0,0 -11.0571,10.50516 -11.0571,10.50516 0,0 79.8202,-472.50974 79.8202,-472.50974 z"
         id="path7301" />
      <path
         id="path7303"
         style="opacity:0.198547;mix-blend-mode:normal;fill:#ffffff;fill-opacity:1;stroke:none;stroke-width:1.257;filter:url(#filter6136)"
         d="m -1434.2142,154.32746 -11.0571,10.50516 229.7011,3.10028 229.701,-3.10028 -11.0571,-10.50516 -218.6439,1.64958 z" />
      <path
         style="opacity:0.263923;mix-blend-mode:multiply;fill:#26282f;fill-opacity:1;stroke:none;stroke-width:1.257"
         d="m -1065.6894,-307.67712 c 0,0 -8.8093,6.60699 -8.8093,6.60699 0,0 77.5724,455.39759 77.5724,455.39759 0,0 11.0571,10.50516 11.0571,10.50516 0,0 -79.8202,-472.50974 -79.8202,-472.50974 z"
         id="path7305" />
      <path
         style="opacity:0.070218;mix-blend-mode:normal;fill:#26282f;fill-opacity:1;stroke:none;stroke-width:1.257"
         d="m -1065.6894,-307.67712 c 0,0 -8.8093,6.60699 -8.8093,6.60699 0,0 -141.0717,-39.09624 -141.0717,-39.09624 0,0 0,-8.18008 0,-8.18008 0,0 149.881,40.66933 149.881,40.66933 z"
         id="path7307" />
      <path
         id="path7309"
         style="opacity:0.135593;mix-blend-mode:multiply;fill:url(#linearGradient8621);fill-opacity:1;stroke:none;stroke-width:1.257;filter:url(#filter1479)"
         d="m -1445.2713,164.83262 7.1396,40.5944 222.5615,2.77653 222.5614,-2.77651 7.1396,-40.59442 -229.701,4.40379 z" />
      <g
         id="g25621"
         transform="translate(1413.2332,-8.114552)">
        <rect
           style="mix-blend-mode:normal;fill:#970000;fill-opacity:1;stroke:none;stroke-width:0.386408"
           id="rect98398-4"
           width="5.9197216"
           height="71.171066"
           x="2625.8435"
           y="-45.273979"
           transform="scale(-1)" />
        <rect
           style="mix-blend-mode:normal;fill:#970000;fill-opacity:1;stroke:none;stroke-width:0.386408"
           id="rect2972-3"
           width="5.9197216"
           height="71.171066"
           x="-2631.7634"
           y="45.660393" />
        <rect
           style="mix-blend-mode:normal;fill:#970000;fill-opacity:1;stroke:none;stroke-width:0.386408"
           id="rect2976-6"
           width="5.9197216"
           height="71.171066"
           x="-48.427074"
           y="-2628.6104"
           transform="rotate(-90)" />
        <rect
           style="mix-blend-mode:normal;fill:#970000;fill-opacity:1;stroke:none;stroke-width:0.386408"
           id="rect2980-2"
           width="5.9197216"
           height="71.171066"
           x="42.507153"
           y="2628.9966"
           transform="rotate(90)" />
        <rect
           style="mix-blend-mode:normal;fill:#970000;fill-opacity:1;stroke:none;stroke-width:0.386408"
           id="rect14708"
           width="5.9197216"
           height="71.171066"
           x="1823.7345"
           y="-1890.8018"
           transform="rotate(-135)" />
        <rect
           style="mix-blend-mode:normal;fill:#970000;fill-opacity:1;stroke:none;stroke-width:0.386408"
           id="rect14720"
           width="5.9197216"
           height="71.171066"
           x="1888.035"
           y="1826.8877"
           transform="rotate(135)" />
      </g>
    </g>
  </g>
</svg>
