<?xml version="1.0" encoding="UTF-8" standalone="no"?>
<!-- Created with Inkscape (http://www.inkscape.org/) -->

<svg
   width="132mm"
   height="144mm"
   viewBox="0 0 1320 1440"
   version="1.1"
   id="svg23702"
   inkscape:version="1.2 (dc2aedaf03, 2022-05-15)"
   sodipodi:docname="SentePawn.svg"
   xmlns:inkscape="http://www.inkscape.org/namespaces/inkscape"
   xmlns:sodipodi="http://sodipodi.sourceforge.net/DTD/sodipodi-0.dtd"
   xmlns:xlink="http://www.w3.org/1999/xlink"
   xmlns="http://www.w3.org/2000/svg"
   xmlns:svg="http://www.w3.org/2000/svg">
  <sodipodi:namedview
     id="namedview23704"
     pagecolor="#ffffff"
     bordercolor="#000000"
     borderopacity="0.25"
     inkscape:showpageshadow="2"
     inkscape:pageopacity="0.0"
     inkscape:pagecheckerboard="0"
     inkscape:deskcolor="#d1d1d1"
     inkscape:document-units="mm"
     showgrid="false"
     showguides="true"
     inkscape:zoom="0.05656854"
     inkscape:cx="662.91264"
     inkscape:cy="4154.2525"
     inkscape:window-width="1680"
     inkscape:window-height="987"
     inkscape:window-x="-8"
     inkscape:window-y="-8"
     inkscape:window-maximized="1"
     inkscape:current-layer="layer1">
    <sodipodi:guide
       position="108.87253,-1200.9607"
       orientation="0,1"
       id="guide25740"
       inkscape:locked="false"
       inkscape:label=""
       inkscape:color="rgb(0,134,229)" />
    <sodipodi:guide
       position="107.08434,59.428906"
       orientation="0,-1"
       id="guide60510"
       inkscape:locked="false" />
  </sodipodi:namedview>
  <defs
     id="defs23699">
    <filter
       inkscape:collect="always"
       style="color-interpolation-filters:sRGB"
       id="filter6180"
       x="-0.047148877"
       y="-0.042987034"
       width="1.0942978"
       height="1.0859741">
      <feGaussianBlur
         inkscape:collect="always"
         stdDeviation="9.0173096"
         id="feGaussianBlur6178" />
    </filter>
    <inkscape:path-effect
       effect="bspline"
       id="path-effect8209"
       is_visible="true"
       lpeversion="1"
       weight="33.333333"
       steps="2"
       helper_size="0"
       apply_no_weight="true"
       apply_with_weight="true"
       only_selected="false" />
    <filter
       inkscape:collect="always"
       style="color-interpolation-filters:sRGB"
       id="filter6142"
       x="-0.0075370261"
       y="-0.0054148136"
       width="1.015074"
       height="1.0115677">
      <feGaussianBlur
         inkscape:collect="always"
         stdDeviation="0.59853361"
         id="feGaussianBlur6144" />
    </filter>
    <linearGradient
       inkscape:collect="always"
       xlink:href="#linearGradient1467"
       id="linearGradient8527"
       gradientUnits="userSpaceOnUse"
       gradientTransform="translate(-844.32051,-151.71975)"
       x1="-586.44916"
       y1="75.508476"
       x2="-156.05099"
       y2="75.508476" />
    <linearGradient
       inkscape:collect="always"
       id="linearGradient1467">
      <stop
         style="stop-color:#ffeab1;stop-opacity:1;"
         offset="0"
         id="stop1441" />
      <stop
         style="stop-color:#ffd774;stop-opacity:1;"
         offset="0.05596975"
         id="stop1443" />
      <stop
         style="stop-color:#ffd394;stop-opacity:1;"
         offset="0.12240581"
         id="stop1445" />
      <stop
         style="stop-color:#ffc474;stop-opacity:1;"
         offset="0.18442476"
         id="stop1447" />
      <stop
         style="stop-color:#ffce8c;stop-opacity:1;"
         offset="0.25016946"
         id="stop1449" />
      <stop
         style="stop-color:#ffc474;stop-opacity:1;"
         offset="0.3166357"
         id="stop1451" />
      <stop
         style="stop-color:#ffc389;stop-opacity:1;"
         offset="0.38451442"
         id="stop1453" />
      <stop
         style="stop-color:#ffc674;stop-opacity:1;"
         offset="0.47559014"
         id="stop1455" />
      <stop
         style="stop-color:#ffc67a;stop-opacity:1;"
         offset="0.54782552"
         id="stop1457" />
      <stop
         style="stop-color:#ffc57d;stop-opacity:1;"
         offset="0.61341411"
         id="stop1459" />
      <stop
         style="stop-color:#ffcb7a;stop-opacity:1;"
         offset="0.68246663"
         id="stop1461" />
      <stop
         style="stop-color:#ffbf76;stop-opacity:1;"
         offset="0.73423874"
         id="stop1463" />
      <stop
         style="stop-color:#ffc66b;stop-opacity:1;"
         offset="0.82545269"
         id="stop1469" />
      <stop
         style="stop-color:#ffca84;stop-opacity:1;"
         offset="0.89189297"
         id="stop1471" />
      <stop
         style="stop-color:#ffba72;stop-opacity:1;"
         offset="0.94046402"
         id="stop1473" />
      <stop
         style="stop-color:#ffd889;stop-opacity:1;"
         offset="1"
         id="stop1465" />
    </linearGradient>
    <linearGradient
       inkscape:collect="always"
       xlink:href="#linearGradient6126"
       id="linearGradient8529"
       gradientUnits="userSpaceOnUse"
       gradientTransform="translate(-2.31e-4,-2.49e-4)"
       x1="-1215.5699"
       y1="167.93315"
       x2="-1215.5706"
       y2="-275.99411" />
    <linearGradient
       inkscape:collect="always"
       id="linearGradient6126">
      <stop
         style="stop-color:#f6cf8d;stop-opacity:1;"
         offset="0"
         id="stop6122" />
      <stop
         style="stop-color:#fafa9a;stop-opacity:1;"
         offset="0.60526317"
         id="stop6124" />
    </linearGradient>
    <linearGradient
       inkscape:collect="always"
       xlink:href="#linearGradient10448"
       id="linearGradient8531"
       gradientUnits="userSpaceOnUse"
       gradientTransform="translate(-844.32051,-151.71975)"
       x1="-371.25"
       y1="319.65253"
       x2="-371.25"
       y2="358.62" />
    <linearGradient
       inkscape:collect="always"
       id="linearGradient10448">
      <stop
         style="stop-color:#ecb857;stop-opacity:1;"
         offset="0.28728068"
         id="stop10446" />
      <stop
         style="stop-color:#efcb98;stop-opacity:1;"
         offset="0.5"
         id="stop10444" />
      <stop
         style="stop-color:#edaf69;stop-opacity:1;"
         offset="0.7390351"
         id="stop10442" />
    </linearGradient>
    <filter
       inkscape:collect="always"
       style="color-interpolation-filters:sRGB"
       id="filter1412"
       x="-0.0032434752"
       y="-0.033650937"
       width="1.006487"
       height="1.0673019">
      <feGaussianBlur
         inkscape:collect="always"
         stdDeviation="0.58166051"
         id="feGaussianBlur1414" />
    </filter>
    <filter
       inkscape:collect="always"
       style="color-interpolation-filters:sRGB"
       id="filter1479"
       x="-0.0041999341"
       y="-0.043574163"
       width="1.0083999"
       height="1.0871483">
      <feGaussianBlur
         inkscape:collect="always"
         stdDeviation="0.75318466"
         id="feGaussianBlur1481" />
    </filter>
    <linearGradient
       inkscape:collect="always"
       xlink:href="#linearGradient6120"
       id="linearGradient8533"
       gradientUnits="userSpaceOnUse"
       x1="-1287.3033"
       y1="-301.47824"
       x2="-1285.3059"
       y2="-294.02359" />
    <linearGradient
       inkscape:collect="always"
       id="linearGradient6120">
      <stop
         style="stop-color:#ffffff;stop-opacity:1;"
         offset="0"
         id="stop6116" />
      <stop
         style="stop-color:#ffffff;stop-opacity:0.78947371;"
         offset="1"
         id="stop6118" />
    </linearGradient>
    <inkscape:path-effect
       effect="bspline"
       id="path-effect8213"
       is_visible="true"
       lpeversion="1"
       weight="33.333333"
       steps="2"
       helper_size="0"
       apply_no_weight="true"
       apply_with_weight="true"
       only_selected="false" />
    <linearGradient
       inkscape:collect="always"
       xlink:href="#linearGradient6192"
       id="linearGradient8535"
       gradientUnits="userSpaceOnUse"
       x1="-1394.903"
       y1="-58.592804"
       x2="-1385.5217"
       y2="-57.119999" />
    <linearGradient
       inkscape:collect="always"
       id="linearGradient6192">
      <stop
         style="stop-color:#ffffff;stop-opacity:1;"
         offset="0.64473683"
         id="stop6188" />
      <stop
         style="stop-color:#ffffff;stop-opacity:0;"
         offset="1"
         id="stop6190" />
    </linearGradient>
    <inkscape:path-effect
       effect="bspline"
       id="path-effect8217"
       is_visible="true"
       lpeversion="1"
       weight="33.333333"
       steps="2"
       helper_size="0"
       apply_no_weight="true"
       apply_with_weight="true"
       only_selected="false" />
    <filter
       inkscape:collect="always"
       style="color-interpolation-filters:sRGB"
       id="filter6136"
       x="-0.0024498718"
       y="-0.080969335"
       width="1.0048997"
       height="1.1619387">
      <feGaussianBlur
         inkscape:collect="always"
         stdDeviation="0.43934162"
         id="feGaussianBlur6134" />
    </filter>
    <inkscape:path-effect
       effect="bspline"
       id="path-effect8221"
       is_visible="true"
       lpeversion="1"
       weight="33.333333"
       steps="2"
       helper_size="0"
       apply_no_weight="true"
       apply_with_weight="true"
       only_selected="false" />
    <inkscape:path-effect
       effect="bspline"
       id="path-effect8225"
       is_visible="true"
       lpeversion="1"
       weight="33.333333"
       steps="2"
       helper_size="0"
       apply_no_weight="true"
       apply_with_weight="true"
       only_selected="false" />
    <linearGradient
       inkscape:collect="always"
       xlink:href="#linearGradient6152"
       id="linearGradient8537"
       gradientUnits="userSpaceOnUse"
       gradientTransform="translate(1.8438611e-5)"
       x1="-1432.5771"
       y1="186.15788"
       x2="-998.56384"
       y2="186.15788" />
    <linearGradient
       inkscape:collect="always"
       id="linearGradient6152">
      <stop
         style="stop-color:#c14360;stop-opacity:1;"
         offset="0"
         id="stop6148" />
      <stop
         style="stop-color:#4f1a26;stop-opacity:1;"
         offset="0.05921053"
         id="stop6156" />
      <stop
         style="stop-color:#c54d69;stop-opacity:1;"
         offset="0.18201755"
         id="stop6158" />
      <stop
         style="stop-color:#3e141e;stop-opacity:1;"
         offset="0.25274122"
         id="stop6164" />
      <stop
         style="stop-color:#cb5974;stop-opacity:1;"
         offset="0.34950656"
         id="stop6166" />
      <stop
         style="stop-color:#3c131d;stop-opacity:1;"
         offset="0.40652412"
         id="stop6168" />
      <stop
         style="stop-color:#d16f87;stop-opacity:1;"
         offset="0.51425439"
         id="stop6162" />
      <stop
         style="stop-color:#3b121c;stop-opacity:1;"
         offset="0.60718203"
         id="stop6176" />
      <stop
         style="stop-color:#d16a84;stop-opacity:1;"
         offset="0.69353068"
         id="stop6170" />
      <stop
         style="stop-color:#39121b;stop-opacity:1;"
         offset="0.77549338"
         id="stop6172" />
      <stop
         style="stop-color:#cc5f79;stop-opacity:1;"
         offset="0.84210527"
         id="stop6160" />
      <stop
         style="stop-color:#341119;stop-opacity:1;"
         offset="0.9375"
         id="stop6174" />
      <stop
         style="stop-color:#ce6981;stop-opacity:1;"
         offset="1"
         id="stop6150" />
    </linearGradient>
    <filter
       inkscape:collect="always"
       style="color-interpolation-filters:sRGB"
       id="filter18126-9"
       x="-0.04712613"
       y="-0.055017041"
       width="1.0942523"
       height="1.1100341">
      <feGaussianBlur
         inkscape:collect="always"
         stdDeviation="0.39182262"
         id="feGaussianBlur18128-6" />
    </filter>
    <inkscape:path-effect
       effect="bspline"
       id="path-effect7849"
       is_visible="true"
       lpeversion="1"
       weight="33.333333"
       steps="2"
       helper_size="0"
       apply_no_weight="true"
       apply_with_weight="true"
       only_selected="false" />
    <filter
       inkscape:collect="always"
       style="color-interpolation-filters:sRGB"
       id="filter18126-3"
       x="-0.1110025"
       y="-0.10466116"
       width="1.222005"
       height="1.2093223">
      <feGaussianBlur
         inkscape:collect="always"
         stdDeviation="0.39182262"
         id="feGaussianBlur18128-83" />
    </filter>
    <inkscape:path-effect
       effect="bspline"
       id="path-effect7853"
       is_visible="true"
       lpeversion="1"
       weight="33.333333"
       steps="2"
       helper_size="0"
       apply_no_weight="true"
       apply_with_weight="true"
       only_selected="false" />
    <filter
       inkscape:collect="always"
       style="color-interpolation-filters:sRGB"
       id="filter18126-92"
       x="-0.079870289"
       y="-0.087065797"
       width="1.1597406"
       height="1.1741316">
      <feGaussianBlur
         inkscape:collect="always"
         stdDeviation="0.39182262"
         id="feGaussianBlur18128-80" />
    </filter>
    <inkscape:path-effect
       effect="bspline"
       id="path-effect7857"
       is_visible="true"
       lpeversion="1"
       weight="33.333333"
       steps="2"
       helper_size="0"
       apply_no_weight="true"
       apply_with_weight="true"
       only_selected="false" />
    <filter
       inkscape:collect="always"
       style="color-interpolation-filters:sRGB"
       id="filter18126-1"
       x="-0.07000908"
       y="-0.063309201"
       width="1.1400182"
       height="1.1266184">
      <feGaussianBlur
         inkscape:collect="always"
         stdDeviation="0.39182262"
         id="feGaussianBlur18128-87" />
    </filter>
    <inkscape:path-effect
       effect="bspline"
       id="path-effect7861"
       is_visible="true"
       lpeversion="1"
       weight="33.333333"
       steps="2"
       helper_size="0"
       apply_no_weight="true"
       apply_with_weight="true"
       only_selected="false" />
    <filter
       inkscape:collect="always"
       style="color-interpolation-filters:sRGB"
       id="filter18126-11"
       x="-0.075996589"
       y="-0.070478856"
       width="1.1519932"
       height="1.1409577">
      <feGaussianBlur
         inkscape:collect="always"
         stdDeviation="0.39182262"
         id="feGaussianBlur18128-4" />
    </filter>
    <inkscape:path-effect
       effect="bspline"
       id="path-effect7865"
       is_visible="true"
       lpeversion="1"
       weight="33.333333"
       steps="2"
       helper_size="0"
       apply_no_weight="true"
       apply_with_weight="true"
       only_selected="false" />
    <filter
       inkscape:collect="always"
       style="color-interpolation-filters:sRGB"
       id="filter18126-15"
       x="-0.054404385"
       y="-0.065729008"
       width="1.1088088"
       height="1.131458">
      <feGaussianBlur
         inkscape:collect="always"
         stdDeviation="0.39182262"
         id="feGaussianBlur18128-5" />
    </filter>
    <inkscape:path-effect
       effect="bspline"
       id="path-effect7869"
       is_visible="true"
       lpeversion="1"
       weight="33.333333"
       steps="2"
       helper_size="0"
       apply_no_weight="true"
       apply_with_weight="true"
       only_selected="false" />
  </defs>
  <g
     inkscape:label="Layer 1"
     inkscape:groupmode="layer"
     id="layer1">
    <path
       style="opacity:0.808717;fill:#26282f;fill-opacity:1;stroke:none;stroke-width:1.257;filter:url(#filter6180)"
       d="m -2717.998,214.68095 c 0,0 33.1314,36.87543 33.1314,36.87543 0,0 425.873,0 425.873,0 0,0 -87.2078,-493.83763 -87.2078,-493.83763 0,0 -22.6016,-9.60585 -22.6016,-9.60585 0,0 -349.195,466.56805 -349.195,466.56805 z"
       id="path7579"
       sodipodi:nodetypes="cccccc"
       inkscape:original-d="m -2717.998,214.68095 33.1314,36.87543 h 425.873 l -87.2078,-493.83763 -22.6016,-9.60585 z"
       inkscape:path-effect="#path-effect8209"
       transform="matrix(2.0051344,0,0,2.0051344,5692.7642,814.54821)" />
    <g
       id="g7601"
       transform="matrix(2.0051344,0,0,2.0051344,3097.3821,831.9343)"
       style="mix-blend-mode:normal;filter:url(#filter6142)">
      <path
         id="path7581"
         style="fill:url(#linearGradient8527);fill-opacity:1;stroke:none;stroke-width:1.257"
         d="m -1215.5702,-320.35512 -143.4662,37.75377 -71.7331,448.01709 215.1993,2.51716 215.1987,-2.51716 -71.7331,-448.01709 z" />
      <path
         id="path7583"
         style="opacity:0.353511;mix-blend-mode:overlay;fill:url(#linearGradient8529);fill-opacity:1;stroke:none;stroke-width:1.257"
         d="m -1215.5702,-320.35512 -143.4662,37.75377 -71.7331,448.01709 215.1993,2.51716 215.1987,-2.51716 -71.7331,-448.01709 z" />
      <path
         id="path7585"
         style="opacity:1;fill:url(#linearGradient8531);fill-opacity:1;stroke:none;stroke-width:1.257;filter:url(#filter1412)"
         d="m -1430.7695,165.41574 7.1396,40.59442 208.0597,0.88987 208.0591,-0.88987 7.1396,-40.59442 -215.1987,2.51716 z" />
      <path
         id="path7587"
         style="opacity:0.602906;mix-blend-mode:multiply;fill:#6d2435;fill-opacity:1;stroke:none;stroke-width:1.257;filter:url(#filter1479)"
         d="m -1430.7695,165.41576 7.1396,40.5944 208.0597,0.88987 208.0591,-0.88987 7.1396,-40.59442 -215.1987,2.51715 z" />
      <path
         style="opacity:0.581114;mix-blend-mode:overlay;fill:url(#linearGradient8533);fill-opacity:1;stroke:none;stroke-width:1.257"
         d="m -1359.0366,-282.6011 c 0,0 8.8093,6.60699 8.8093,6.60699 0,0 134.6568,-36.18115 134.6568,-36.18115 0,0 0,-8.18008 0,-8.18008 0,0 -143.4661,37.75424 -143.4661,37.75424 z"
         id="path7589"
         sodipodi:nodetypes="ccccc"
         inkscape:original-d="m -1359.0366,-282.6011 8.8093,6.60699 134.6568,-36.18115 v -8.18008 z"
         inkscape:path-effect="#path-effect8213" />
      <path
         style="opacity:0.915254;mix-blend-mode:normal;fill:url(#linearGradient8535);fill-opacity:1;stroke:none;stroke-width:1.257"
         d="m -1359.0366,-282.6011 c 0,0 8.8093,6.60699 8.8093,6.60699 0,0 -69.4853,430.90479 -69.4853,430.90479 0,0 -11.0571,10.50516 -11.0571,10.50516 0,0 71.7331,-448.01694 71.7331,-448.01694 z"
         id="path7591"
         sodipodi:nodetypes="ccccc"
         inkscape:original-d="m -1359.0366,-282.6011 8.8093,6.60699 -69.4853,430.90479 -11.0571,10.50516 z"
         inkscape:path-effect="#path-effect8217" />
      <path
         id="path7593"
         style="opacity:0.198547;mix-blend-mode:normal;fill:#ffffff;fill-opacity:1;stroke:none;stroke-width:1.257;filter:url(#filter6136)"
         d="m -1419.7128,154.91044 -11.0567,10.5053 215.1993,2.51716 215.1987,-2.51716 -11.0567,-10.5053 -204.142,1.0666 z" />
      <path
         style="opacity:0.263923;mix-blend-mode:multiply;fill:#26282f;fill-opacity:1;stroke:none;stroke-width:1.257"
         d="m -1072.1044,-282.6011 c 0,0 -8.8093,6.60699 -8.8093,6.60699 0,0 69.4853,430.90479 69.4853,430.90479 0,0 11.0571,10.50516 11.0571,10.50516 0,0 -71.7331,-448.01694 -71.7331,-448.01694 z"
         id="path7595"
         sodipodi:nodetypes="ccccc"
         inkscape:original-d="m -1072.1044,-282.6011 -8.8093,6.60699 69.4853,430.90479 11.0571,10.50516 z"
         inkscape:path-effect="#path-effect8221" />
      <path
         style="opacity:0.070218;mix-blend-mode:normal;fill:#26282f;fill-opacity:1;stroke:none;stroke-width:1.257"
         d="m -1072.1044,-282.6011 c 0,0 -8.8093,6.60699 -8.8093,6.60699 0,0 -134.6568,-36.18115 -134.6568,-36.18115 0,0 0,-8.18008 0,-8.18008 0,0 143.4661,37.75424 143.4661,37.75424 z"
         id="path7597"
         sodipodi:nodetypes="ccccc"
         inkscape:original-d="m -1072.1044,-282.6011 -8.8093,6.60699 -134.6568,-36.18115 v -8.18008 z"
         inkscape:path-effect="#path-effect8225" />
      <path
         id="path7599"
         style="opacity:0.135593;mix-blend-mode:multiply;fill:url(#linearGradient8537);fill-opacity:1;stroke:none;stroke-width:1.257;filter:url(#filter1479)"
         d="m -1430.7695,165.41576 7.1396,40.5944 208.0597,0.88987 208.0591,-0.88987 7.1396,-40.59442 -215.1987,2.51715 z" />
    </g>
    <g
       id="g98410"
       transform="matrix(2.0051344,0,0,2.0051344,5693.0592,758.87522)">
      <rect
         style="opacity:1;fill:#000000;fill-opacity:1;stroke:#000000;stroke-width:0.626891"
         id="rect98398"
         width="9.6038866"
         height="115.46469"
         x="-2514.7405"
         y="12.474094" />
    </g>
    <g
       id="g85457"
       style="mix-blend-mode:normal;filter:url(#filter6142)"
       transform="matrix(1.4945325,0,0,1.4945325,2476.7097,623.16458)">
      <path
         d="m -1304.6799,51.382797 c -6.5887,-5.001553 -8.544,-18.366438 -3.1726,-21.686057 1.7185,-1.06213 4.2278,-11.683046 5.5763,-23.6020675 1.3485,-11.9191172 3.8744,-21.6710535 5.6134,-21.6710535 1.7388,0 5.1702,8.9745922 7.6249,19.9434424 5.2433,23.4293356 2.8815,23.6610386 47.5668,-4.66662784 32.6703,-20.71110056 63.6354,-48.11423356 63.6354,-56.31546456 0,-2.467458 -3.7794,-8.036681 -8.3983,-12.376077 l -8.3983,-7.889857 -4.5708,15.359046 c -10.7138,36.001024 -17.5649,40.117262 -34.0881,20.480542 -11.6395,-13.832469 -11.7244,-17.715953 -0.3886,-17.715953 10.6838,0 15.1423,-12.324419 10.0337,-27.733314 -3.6912,-11.133513 -14.2861,-14.604496 -25.7887,-8.448513 -6.7912,3.634601 -6.8735,4.419634 -1.4509,13.86798 5.5908,9.741307 5.3796,10.528149 -7.718,28.759079 -14.2891,19.889403 -18.1477,21.714347 -29.0532,13.740255 -7.6399,-5.586511 -5.3857,-13.10612 9.449,-31.521175 10.1747,-12.630367 6.3164,-18.032658 -10.9111,-15.277856 -11.7388,1.87708 -15.3865,0.675168 -25.5726,-8.426007 -8.1679,-7.298169 -11.1474,-12.526389 -9.5341,-16.730479 1.8523,-4.8272 3.8236,-5.32451 9.3603,-2.36146 7.6708,4.10531 32.3315,5.04067 41.3774,1.5694 7.1905,-2.75926 7.4274,-19.33474 0.4088,-28.61416 -12.9518,-17.12369 -2.1202,-28.04116 18.2047,-18.34896 11.5812,5.5227 12.2674,6.87292 12.2674,24.13927 0,17.82905 0.2483,18.26065 9.8957,17.15065 l 9.8955,-1.13866 1.0274,-32.73866 c 0.8146,-25.95472 -0.118,-33.68893 -4.498,-37.32439 -7.1011,-5.89351 -7.1237,-17.71064 -0.04,-20.42946 3.0176,-1.15802 11.9236,2.15437 19.7912,7.36085 12.6128,8.34681 14.3044,11.12687 14.3044,23.509 0,16.51994 2.6532,17.92489 25.1491,13.31665 19.073,-3.90704 28.8272,-1.60815 28.8272,6.79412 0,7.99014 -23.2526,16.81231 -40.9453,15.5349 -14.0626,-1.0154 -14.8302,-0.55503 -14.8302,8.8956 v 9.96635 l 32.3858,0.79434 c 38.7516,0.95046 56.8103,8.85248 55.0313,24.080015 -1.3361,11.431768 -59.4516,-1.193838 -74.1664,-2.437735 l -26.7534,-2.26148 5.896,8.998341 c 4.2944,6.55424 11.5038,10.233569 26.5426,13.545981 35.4344,7.804859 40.9591,10.778631 39.7277,21.384828 -0.8018,6.908171 -3.4599,9.698485 -10.085,10.586262 -8.6651,1.161184 -28.7874,17.02085 -28.7874,22.689027 0,1.51623 7,5.853252 15.5556,9.637794 20.173,8.9232182 28.537,25.6890091 18.4031,36.886998 -10.0368,11.090399 -19.8923,7.13151 -33.892,-13.6141569 -6.9636,-10.3187519 -13.562,-18.8200621 -14.6631,-18.8916631 -1.1012,-0.07121 -14.4383,9.1807504 -29.6384,20.5606837 -68.167,51.0354943 -72.4167,53.1388623 -86.2077,42.6698823 z"
         style="fill:#000000;stroke-width:3.59842"
         id="path7233"
         sodipodi:nodetypes="sssssssscsssssssssssssssssscssssssssscssscssssssssssss" />
      <path
         style="fill:#ffffff;fill-opacity:1;stroke:none;stroke-width:0.626891;filter:url(#filter18126-9)"
         d="m -1213.631,-201.2888 c 4.7155,2.30232 11.8099,7.0566 13.6134,10.7312 1.8036,3.67459 -1.6835,6.26919 -6.3993,3.96692 -4.7157,-2.30227 -10.6591,-9.50107 -12.4627,-13.17583 -1.8036,-3.67477 0.5331,-3.8246 5.2486,-1.52229 z"
         id="path7235"
         inkscape:path-effect="#path-effect7849"
         inkscape:original-d="m -1216.0101,-203.74093 c 7.0946,4.7545 14.189,9.50878 21.2835,14.26307 -3.4873,2.59503 -6.9744,5.18964 -10.4621,7.78439 -5.9439,-7.1995 -11.8873,-14.39828 -17.8314,-21.59796 2.3369,-0.14966 4.6736,-0.2995 7.01,-0.4495 z"
         sodipodi:nodetypes="ccccc" />
      <path
         style="fill:#ffffff;fill-opacity:1;stroke:none;stroke-width:0.626891;filter:url(#filter18126-3)"
         d="m -1147.8454,-163.24936 c 2.1076,0.67238 4.5078,2.88398 4.7465,5.04265 0.2386,2.15866 -1.6838,4.26429 -3.7915,3.59206 -2.1076,-0.67222 -4.4001,-4.12232 -4.6389,-6.2812 -0.2388,-2.15889 1.5762,-3.02588 3.6839,-2.35351 z"
         id="path7237"
         inkscape:path-effect="#path-effect7853"
         inkscape:original-d="m -1148.1381,-164.78872 c 2.4003,2.21176 4.8005,4.42333 7.2005,6.6348 -1.9225,2.10602 -3.8449,4.21168 -5.7678,6.31741 -2.2926,-3.45038 -4.585,-6.9005 -6.8779,-10.35114 1.8153,-0.86687 3.6303,-1.73388 5.4452,-2.60107 z"
         sodipodi:nodetypes="ccccc" />
      <path
         style="fill:#ffffff;fill-opacity:1;stroke:none;stroke-width:0.626891;filter:url(#filter18126-92)"
         d="m -1121.4965,-112.34719 c 2.727,1.16135 7.0831,4.48131 8.2998,6.96597 1.2167,2.48466 -0.7057,4.13398 -3.4328,2.97274 -2.727,-1.16123 -6.2582,-5.13293 -7.4751,-7.61778 -1.2169,-2.48485 -0.119,-3.48227 2.6081,-2.32093 z"
         id="path7239"
         inkscape:path-effect="#path-effect7857"
         inkscape:original-d="m -1123.1257,-114.50593 c 4.3562,3.32013 8.7123,6.64007 13.0683,9.95995 -1.9224,1.64962 -3.8449,3.29891 -5.7677,4.94823 -3.5314,-3.97199 -7.0626,-7.94367 -10.5943,-11.91591 1.0981,-0.99727 2.196,-1.99468 3.2937,-2.99227 z"
         sodipodi:nodetypes="ccccc" />
      <path
         style="fill:#ffffff;fill-opacity:1;stroke:none;stroke-width:0.626891;filter:url(#filter18126-1)"
         d="m -1144.9764,-69.293945 c 1.2653,0.877661 3.7959,2.632875 3.4478,5.802175 -0.3482,3.169301 -3.5743,7.75208 -5.1784,8.277385 -1.6041,0.525305 -1.5855,-3.007162 -3.3186,-5.710478 -1.7332,-2.703316 -5.2182,-4.576635 -4.8797,-5.979469 0.3386,-1.402833 4.501,-2.335093 6.582,-2.801184 2.081,-0.46609 2.0815,-0.46609 3.3469,0.411571 z"
         id="path7241"
         inkscape:path-effect="#path-effect7861"
         inkscape:original-d="m -1146.2418,-70.171606 c 2.5307,1.75537 5.0613,3.510552 7.5917,5.265618 -3.2265,4.583642 -6.4526,9.166458 -9.6797,13.7501 0.019,-3.53319 0.038,-7.065655 0.056,-10.598984 -3.485,-1.873262 -6.97,-3.746582 -10.4552,-5.620066 4.1623,-0.932021 8.3247,-1.864276 12.4867,-2.796668 z"
         sodipodi:nodetypes="cccccc" />
      <path
         style="fill:#ffffff;fill-opacity:1;stroke:none;stroke-width:0.626891;filter:url(#filter18126-11)"
         d="m -1146.3153,-2.9551759 c 3.0935,1.4920032 6.2524,5.9408954 6.251,8.9899029 -0,3.0490074 -3.1627,4.698392 -6.2562,3.206486 -3.0935,-1.4919059 -6.119,-6.1247859 -6.1177,-9.17409093 0,-3.04930507 3.0294,-4.51430117 6.1229,-3.02229797 z"
         id="path7243"
         inkscape:path-effect="#path-effect7865"
         inkscape:original-d="m -1146.3807,-5.9121332 c 3.1589,4.4489612 6.3178,8.8978195 9.4764,13.3464552 -3.1613,1.649543 -6.3226,3.298955 -9.4841,4.948235 -3.0256,-4.6332805 -6.051,-9.2661641 -9.0769,-13.8996871 3.0284,-1.4648609 6.0566,-2.9298363 9.0846,-4.3950031 z"
         sodipodi:nodetypes="ccccc" />
      <path
         style="fill:#ffffff;fill-opacity:1;stroke:none;stroke-width:0.626891;filter:url(#filter18126-15)"
         d="m -1261.8957,-156.6408 c 3.6007,0.91565 10.0327,3.75083 12.6132,7.21496 2.5804,3.46412 1.3093,7.55669 -2.2914,6.64106 -3.6007,-0.91562 -9.5304,-6.83929 -12.1111,-10.3035 -2.5806,-3.46421 -1.8114,-4.46818 1.7893,-3.55252 z"
         id="path7245"
         inkscape:path-effect="#path-effect7869"
         inkscape:original-d="m -1264.7272,-158.56044 c 6.4322,2.83538 12.8642,5.67057 19.2963,8.50568 -1.271,4.09311 -2.5421,8.18567 -3.8135,12.27855 -5.9302,-5.92422 -11.8599,-11.84788 -17.7904,-17.77231 0.7694,-1.00382 1.5386,-2.00778 2.3076,-3.01192 z"
         sodipodi:nodetypes="ccccc" />
    </g>
  </g>
</svg>
