<?xml version="1.0" encoding="UTF-8" standalone="no"?>
<!-- Created with Inkscape (http://www.inkscape.org/) -->

<svg
   width="132mm"
   height="144mm"
   viewBox="0 0 1320 1440"
   version="1.1"
   id="svg23702"
   xmlns:xlink="http://www.w3.org/1999/xlink"
   xmlns="http://www.w3.org/2000/svg"
   xmlns:svg="http://www.w3.org/2000/svg">
  <defs
     id="defs23699">
    <filter
       style="color-interpolation-filters:sRGB"
       id="filter6180"
       x="-0.037999951"
       y="-0.03973267"
       width="1.0759999"
       height="1.0794653">
      <feGaussianBlur
         stdDeviation="9.0173096"
         id="feGaussianBlur6178" />
    </filter>
    <filter
       style="color-interpolation-filters:sRGB"
       id="filter6142"
       x="-0.0059405191"
       y="-0.0022880504"
       width="1.011881"
       height="1.0076682">
      <feGaussianBlur
         stdDeviation="0.59853361"
         id="feGaussianBlur6144" />
    </filter>
    <linearGradient
       xlink:href="#linearGradient1467"
       id="linearGradient8575"
       gradientUnits="userSpaceOnUse"
       gradientTransform="translate(-844.32051,-151.71975)"
       x1="-644.76459"
       y1="75.508476"
       x2="-98.663521"
       y2="75.508476" />
    <linearGradient
       id="linearGradient1467">
      <stop
         style="stop-color:#ffeab1;stop-opacity:1;"
         offset="0"
         id="stop1441" />
      <stop
         style="stop-color:#ffd774;stop-opacity:1;"
         offset="0.05596975"
         id="stop1443" />
      <stop
         style="stop-color:#ffd394;stop-opacity:1;"
         offset="0.12240581"
         id="stop1445" />
      <stop
         style="stop-color:#ffc474;stop-opacity:1;"
         offset="0.18442476"
         id="stop1447" />
      <stop
         style="stop-color:#ffce8c;stop-opacity:1;"
         offset="0.25016946"
         id="stop1449" />
      <stop
         style="stop-color:#ffc474;stop-opacity:1;"
         offset="0.3166357"
         id="stop1451" />
      <stop
         style="stop-color:#ffc389;stop-opacity:1;"
         offset="0.38451442"
         id="stop1453" />
      <stop
         style="stop-color:#ffc674;stop-opacity:1;"
         offset="0.47559014"
         id="stop1455" />
      <stop
         style="stop-color:#ffc67a;stop-opacity:1;"
         offset="0.54782552"
         id="stop1457" />
      <stop
         style="stop-color:#ffc57d;stop-opacity:1;"
         offset="0.61341411"
         id="stop1459" />
      <stop
         style="stop-color:#ffcb7a;stop-opacity:1;"
         offset="0.68246663"
         id="stop1461" />
      <stop
         style="stop-color:#ffbf76;stop-opacity:1;"
         offset="0.73423874"
         id="stop1463" />
      <stop
         style="stop-color:#ffc66b;stop-opacity:1;"
         offset="0.82545269"
         id="stop1469" />
      <stop
         style="stop-color:#ffca84;stop-opacity:1;"
         offset="0.89189297"
         id="stop1471" />
      <stop
         style="stop-color:#ffba72;stop-opacity:1;"
         offset="0.94046402"
         id="stop1473" />
      <stop
         style="stop-color:#ffd889;stop-opacity:1;"
         offset="1"
         id="stop1465" />
    </linearGradient>
    <linearGradient
       xlink:href="#linearGradient6126"
       id="linearGradient8577"
       gradientUnits="userSpaceOnUse"
       gradientTransform="translate(-2.31e-4,-2.49e-4)"
       x1="-1215.5699"
       y1="167.93315"
       x2="-1215.5706"
       y2="-275.99411" />
    <linearGradient
       id="linearGradient6126">
      <stop
         style="stop-color:#f6cf8d;stop-opacity:1;"
         offset="0"
         id="stop6122" />
      <stop
         style="stop-color:#fafa9a;stop-opacity:1;"
         offset="0.60526317"
         id="stop6124" />
    </linearGradient>
    <linearGradient
       xlink:href="#linearGradient10448"
       id="linearGradient8579"
       gradientUnits="userSpaceOnUse"
       gradientTransform="translate(-844.32051,-151.71975)"
       x1="-371.25"
       y1="319.65253"
       x2="-371.25"
       y2="358.62" />
    <linearGradient
       id="linearGradient10448">
      <stop
         style="stop-color:#ecb857;stop-opacity:1;"
         offset="0.28728068"
         id="stop10446" />
      <stop
         style="stop-color:#efcb98;stop-opacity:1;"
         offset="0.5"
         id="stop10444" />
      <stop
         style="stop-color:#edaf69;stop-opacity:1;"
         offset="0.7390351"
         id="stop10442" />
    </linearGradient>
    <filter
       style="color-interpolation-filters:sRGB"
       id="filter1412"
       x="-0.0025562763"
       y="-0.033651018"
       width="1.0051126"
       height="1.067302">
      <feGaussianBlur
         stdDeviation="0.58166051"
         id="feGaussianBlur1414" />
    </filter>
    <filter
       style="color-interpolation-filters:sRGB"
       id="filter1479"
       x="-0.0033100891"
       y="-0.043574153"
       width="1.0066202"
       height="1.0871483">
      <feGaussianBlur
         stdDeviation="0.75318466"
         id="feGaussianBlur1481" />
    </filter>
    <linearGradient
       xlink:href="#linearGradient6120"
       id="linearGradient8581"
       gradientUnits="userSpaceOnUse"
       gradientTransform="translate(0,-94.144472)"
       x1="-1287.3033"
       y1="-301.47824"
       x2="-1285.3059"
       y2="-294.02359" />
    <linearGradient
       id="linearGradient6120">
      <stop
         style="stop-color:#ffffff;stop-opacity:1;"
         offset="0"
         id="stop6116" />
      <stop
         style="stop-color:#ffffff;stop-opacity:0.78947371;"
         offset="1"
         id="stop6118" />
    </linearGradient>
    <linearGradient
       xlink:href="#linearGradient6192"
       id="linearGradient8583"
       gradientUnits="userSpaceOnUse"
       gradientTransform="translate(-59.4815,-58.31578)"
       x1="-1394.903"
       y1="-58.592804"
       x2="-1380.8396"
       y2="-56.785343" />
    <linearGradient
       id="linearGradient6192">
      <stop
         style="stop-color:#ffffff;stop-opacity:1;"
         offset="0.64473683"
         id="stop6188" />
      <stop
         style="stop-color:#ffffff;stop-opacity:0;"
         offset="1"
         id="stop6190" />
    </linearGradient>
    <filter
       style="color-interpolation-filters:sRGB"
       id="filter6136"
       x="-0.0019308146"
       y="-0.080969957"
       width="1.0038616"
       height="1.1619399">
      <feGaussianBlur
         stdDeviation="0.43934162"
         id="feGaussianBlur6134" />
    </filter>
    <linearGradient
       xlink:href="#linearGradient6152"
       id="linearGradient8585"
       gradientUnits="userSpaceOnUse"
       gradientTransform="translate(1.8438611e-5,3.066221)"
       x1="-1432.5771"
       y1="186.15788"
       x2="-998.56384"
       y2="186.15788" />
    <linearGradient
       id="linearGradient6152">
      <stop
         style="stop-color:#c14360;stop-opacity:1;"
         offset="0"
         id="stop6148" />
      <stop
         style="stop-color:#4f1a26;stop-opacity:1;"
         offset="0.05921053"
         id="stop6156" />
      <stop
         style="stop-color:#c54d69;stop-opacity:1;"
         offset="0.18201755"
         id="stop6158" />
      <stop
         style="stop-color:#3e141e;stop-opacity:1;"
         offset="0.25274122"
         id="stop6164" />
      <stop
         style="stop-color:#cb5974;stop-opacity:1;"
         offset="0.34950656"
         id="stop6166" />
      <stop
         style="stop-color:#3c131d;stop-opacity:1;"
         offset="0.40652412"
         id="stop6168" />
      <stop
         style="stop-color:#d16f87;stop-opacity:1;"
         offset="0.51425439"
         id="stop6162" />
      <stop
         style="stop-color:#3b121c;stop-opacity:1;"
         offset="0.60718203"
         id="stop6176" />
      <stop
         style="stop-color:#d16a84;stop-opacity:1;"
         offset="0.69353068"
         id="stop6170" />
      <stop
         style="stop-color:#39121b;stop-opacity:1;"
         offset="0.77549338"
         id="stop6172" />
      <stop
         style="stop-color:#cc5f79;stop-opacity:1;"
         offset="0.84210527"
         id="stop6160" />
      <stop
         style="stop-color:#341119;stop-opacity:1;"
         offset="0.9375"
         id="stop6174" />
      <stop
         style="stop-color:#ce6981;stop-opacity:1;"
         offset="1"
         id="stop6150" />
    </linearGradient>
    <filter
       style="color-interpolation-filters:sRGB"
       id="filter18126-8-46"
       x="-0.038357976"
       y="-0.039940363"
       width="1.076716"
       height="1.0798807">
      <feGaussianBlur
         stdDeviation="0.39182262"
         id="feGaussianBlur18128-8-90" />
    </filter>
    <filter
       style="color-interpolation-filters:sRGB"
       id="filter18126-8-46-1"
       x="-0.042542149"
       y="-0.054840828"
       width="1.0850843"
       height="1.1096817">
      <feGaussianBlur
         stdDeviation="0.39182262"
         id="feGaussianBlur18128-8-90-3" />
    </filter>
    <filter
       style="color-interpolation-filters:sRGB"
       id="filter18126-8-46-0"
       x="-0.036160727"
       y="-0.060079514"
       width="1.0723215"
       height="1.120159">
      <feGaussianBlur
         stdDeviation="0.39182262"
         id="feGaussianBlur18128-8-90-0" />
    </filter>
  </defs>
  <g
     id="layer1">
    <path
       style="opacity:0.808717;fill:#26282f;fill-opacity:1;stroke:none;stroke-width:1.257;filter:url(#filter6180)"
       d="m -2774.3338,248.77198 c 0,0 33.1314,36.87543 33.1314,36.87543 0,0 536.3836,0 536.3836,0 0,0 -93.8054,-535.07292 -93.8054,-535.07292 0,0 -22.6016,-9.60585 -22.6016,-9.60585 0,0 -453.108,507.80334 -453.108,507.80334 z"
       id="path7421"
       transform="matrix(2.0051344,0,0,2.0051344,5689.7252,840.73053)" />
    <g
       id="g7443"
       transform="matrix(2.0051344,0,0,2.0051344,3098.3129,926.47353)"
       style="mix-blend-mode:normal;filter:url(#filter6142)">
      <path
         id="path7423"
         style="fill:url(#linearGradient8575);fill-opacity:1;stroke:none;stroke-width:1.257"
         d="m -1216.9335,-417.85239 -201.5846,76.93551 -70.567,506.33272 273.5149,2.51706 272.58617,-2.51706 -70.56667,-506.33272 z" />
      <path
         id="path7425"
         style="opacity:0.353511;mix-blend-mode:overlay;fill:url(#linearGradient8577);fill-opacity:1;stroke:none;stroke-width:1.257"
         d="m -1216.4987,-417.15887 v 0.34896 l -202.0194,75.89303 -70.567,506.33272 272.5864,2.50865 v 0.009 l 0.4641,-0.004 0.4645,0.004 v -0.009 l 272.58607,-2.50865 -70.56667,-506.33272 -202.0194,-75.89303 v -0.34896 l -0.4645,0.17448 z" />
      <g
         id="g25624"
         transform="matrix(0.35037585,0,0,0.35037585,-1414.1667,-431.06923)">
        <path
           d="m 858.49914,966.52524 c -65.165,-38.0167 -75.013,-39.6857 -235.013,-39.8067 -132.436,-0.1 -167.538,2.8 -228.986,18.926 -70.02,18.3737 -73.765,18.5067 -106.451,3.7667 -35.079,-15.8177 -80.461,-52.9497 -80.461,-65.8337 0,-19.549 24.176,-24.5 79.165,-16.212 42.321,6.379 77.74,5.428 136.339,-3.66 l 79.165,-12.277 2.513,-85.035 2.512,-85.035 -72.881,4.773 c -71.952,4.711 -73.302,4.418 -105.867,-23.037 -32.7,-27.569 -43.205,-52.917 -21.932,-52.917 6.08,0 24.881,4.089 41.782,9.086 17.621,5.211 57.93,6.646 94.5,3.365 l 63.771,-5.721 v -85.851 c 0,-58.132 -3.55,-88.686 -10.995,-94.633 -6.047,-4.83 -39.166,-8.691 -73.596,-8.579 -67.122,0.218 -96.859,-13.089 -118.759,-53.14 -18.052,-33.014 0.739,-42.1348 48.909,-23.738 47.254,18.046 146.032,14.132 231.268,-9.165 107.82,-29.4686 147.867,-42.2164 158.22,-50.3637 11.46,-9.018 60.727,16.4973 82.491,42.7212 18.819,22.6755 -6.637,33.7525 -125.416,54.5785 -59.056,10.354 -110.946,22.397 -115.312,26.763 -4.72,4.72 -1.747,19.909 7.331,37.466 8.399,16.24 17.129,55.507 19.4,87.259 l 4.131,57.731 40.722,-5.389 c 22.397,-2.964 50.112,-10.508 61.588,-16.764 38.606,-21.047 106.678,7.264 106.678,44.366 0,9.465 -8.129,17.902 -19.792,20.542 -21.657,4.903 -162.047,22.243 -180.089,22.243 -8.382,0 -11.226,23.123 -11.226,91.301 v 91.302 l 96.639,-4.581 c 111.361,-5.278 160.375,7.529 197.454,51.595 18.55,22.045 20.529,29.684 12.894,49.766 -8.145,21.4227 -22.582,36.9977 -34.308,37.0117 -2.419,0 -14.293,-5.768 -26.388,-12.824 z"
           style="fill:#000000;stroke-width:8.7961"
           id="path7447" />
        <path
           style="fill:#ffffff;fill-opacity:1;stroke:none;stroke-width:0.626891;filter:url(#filter18126-8-46)"
           d="m -2510.7688,-194.49664 c 5.9838,1.72236 17.4703,12.62889 18.6096,18.22042 1.1394,5.59152 -8.0734,5.85837 -14.0555,4.13624 -5.9821,-1.72212 -8.731,-5.43315 -9.8701,-11.02177 -1.139,-5.58863 -0.6678,-13.05724 5.316,-11.33489 z"
           id="path7767"
           transform="matrix(2.0051344,0,0,2.0051344,5899.2911,1262.6542)" />
        <path
           style="fill:#ffffff;fill-opacity:1;stroke:none;stroke-width:0.626891;filter:url(#filter18126-8-46-1)"
           d="m -2509.449,-184.48551 c 5.4782,2.66475 15.0412,10.92145 15.724,14.24466 0.6828,3.32322 -7.5187,1.70682 -12.9953,-0.95721 -5.4765,-2.66404 -8.2254,-6.37507 -8.9082,-9.69689 -0.6828,-3.32182 0.7014,-6.2553 6.1795,-3.59056 z"
           id="path7769"
           transform="matrix(2.0051344,0,0,2.0051344,5805.7471,951.61924)" />
        <path
           style="fill:#ffffff;fill-opacity:1;stroke:none;stroke-width:0.626891;filter:url(#filter18126-8-46-0)"
           d="m -2506.5248,-181.72918 c 6.4967,2.85418 17.1565,10.21395 17.3628,12.89496 0.2063,2.68102 -10.0384,0.68241 -16.5366,-2.17273 -6.4982,-2.85515 -9.2471,-6.56618 -9.4533,-9.24659 -0.2062,-2.68041 2.1305,-4.32983 8.6271,-1.47564 z"
           id="path7771"
           transform="matrix(2.0051344,0,0,2.0051344,5799.9001,674.49454)" />
      </g>
      <path
         id="path7427"
         style="opacity:1;fill:url(#linearGradient8579);fill-opacity:1;stroke:none;stroke-width:1.257;filter:url(#filter1412)"
         d="m -1489.0851,165.41584 7.1396,40.59442 266.3753,0.88977 265.44657,-0.88977 7.1396,-40.59442 -272.58617,2.51706 z" />
      <path
         id="path7429"
         style="opacity:0.602906;mix-blend-mode:multiply;fill:#6d2435;fill-opacity:1;stroke:none;stroke-width:1.257;filter:url(#filter1479)"
         d="m -1489.0851,165.41584 7.1396,40.5944 266.3754,0.8899 265.44647,-0.88988 7.1396,-40.59442 -272.58607,2.51716 z" />
      <path
         style="opacity:0.581114;mix-blend-mode:overlay;fill:url(#linearGradient8581);fill-opacity:1;stroke:none;stroke-width:1.257"
         d="m -1418.5181,-340.91688 c 0,0 8.8093,6.60699 8.8093,6.60699 0,0 192.7753,-75.36242 192.7753,-75.36242 0,0 0,-8.18008 0,-8.18008 0,0 -201.5846,76.93551 -201.5846,76.93551 z"
         id="path7431" />
      <path
         style="opacity:0.915254;mix-blend-mode:normal;fill:url(#linearGradient8583);fill-opacity:1;stroke:none;stroke-width:1.257"
         d="m -1418.5181,-340.91688 c 0,0 8.8093,6.60699 8.8093,6.60699 0,0 -68.3192,489.22057 -68.3192,489.22057 0,0 -11.0571,10.50516 -11.0571,10.50516 0,0 70.567,-506.33272 70.567,-506.33272 z"
         id="path7433" />
      <path
         id="path7435"
         style="opacity:0.198547;mix-blend-mode:normal;fill:#ffffff;fill-opacity:1;stroke:none;stroke-width:1.257;filter:url(#filter6136)"
         d="m -1478.0284,154.91054 -11.0567,10.5053 273.5149,2.51706 272.58617,-2.51706 -11.0567,-10.5053 -261.52947,1.0665 z" />
      <path
         style="opacity:0.263923;mix-blend-mode:multiply;fill:#26282f;fill-opacity:1;stroke:none;stroke-width:1.257"
         d="m -1013.5507,-340.91688 c 0,0 -8.8093,6.60699 -8.8093,6.60699 0,0 68.31887,489.22057 68.31887,489.22057 0,0 11.0571,10.50516 11.0571,10.50516 0,0 -70.56667,-506.33272 -70.56667,-506.33272 z"
         id="path7437" />
      <path
         style="opacity:0.070218;mix-blend-mode:normal;fill:#26282f;fill-opacity:1;stroke:none;stroke-width:1.257"
         d="m -1013.5507,-340.91688 c 0,0 -8.8093,6.60699 -8.8093,6.60699 0,0 -194.5735,-75.36242 -194.5735,-75.36242 0,0 0,-8.18008 0,-8.18008 0,0 203.3828,76.93551 203.3828,76.93551 z"
         id="path7439" />
      <path
         id="path7441"
         style="opacity:0.135593;mix-blend-mode:multiply;fill:url(#linearGradient8585);fill-opacity:1;stroke:none;stroke-width:1.257;filter:url(#filter1479)"
         d="m -1489.0851,165.41584 7.1396,40.5944 266.3753,3.95601 265.44657,-3.95599 7.1396,-40.59442 -272.58617,5.58327 z" />
      <g
         id="g42380"
         transform="translate(-63.163027,17.260669)">
        <rect
           style="mix-blend-mode:normal;fill:#000000;fill-opacity:1;stroke:#000000;stroke-width:0.386408;"
           id="rect98398-4-6"
           width="5.9197216"
           height="71.171066"
           x="-1155.8315"
           y="19.220346" />
        <rect
           style="mix-blend-mode:normal;fill:#000000;fill-opacity:1;stroke:#000000;stroke-width:0.386408;"
           id="rect2972-3-9"
           width="5.9197216"
           height="71.171066"
           x="1149.9116"
           y="-18.833921"
           transform="scale(-1)" />
        <rect
           style="mix-blend-mode:normal;fill:#000000;fill-opacity:1;stroke:#000000;stroke-width:0.386408;"
           id="rect2976-6-7"
           width="5.9197216"
           height="71.171066"
           x="16.067137"
           y="1153.0647"
           transform="rotate(90)" />
        <rect
           style="mix-blend-mode:normal;fill:#000000;fill-opacity:1;stroke:#000000;stroke-width:0.386408;"
           id="rect2980-2-9"
           width="5.9197216"
           height="71.171066"
           x="-21.987059"
           y="-1152.6785"
           transform="rotate(-90)" />
        <rect
           style="mix-blend-mode:normal;fill:#000000;fill-opacity:1;stroke:#000000;stroke-width:0.386408;"
           id="rect14708"
           width="5.9197216"
           height="71.171066"
           x="-804.70917"
           y="828.85077"
           transform="rotate(45)" />
        <rect
           style="mix-blend-mode:normal;fill:#000000;fill-opacity:1;stroke:#000000;stroke-width:0.386408;"
           id="rect14712"
           width="5.9197216"
           height="71.171066"
           x="798.78931"
           y="-828.46442"
           transform="rotate(-135)" />
        <rect
           style="mix-blend-mode:normal;fill:#000000;fill-opacity:1;stroke:#000000;stroke-width:0.386408;"
           id="rect14716"
           width="5.9197216"
           height="71.171066"
           x="825.69769"
           y="801.94238"
           transform="rotate(135)" />
        <rect
           style="mix-blend-mode:normal;fill:#000000;fill-opacity:1;stroke:#000000;stroke-width:0.386408;"
           id="rect14720"
           width="5.9197216"
           height="71.171066"
           x="-831.61761"
           y="-801.55615"
           transform="rotate(-45)" />
      </g>
    </g>
  </g>
</svg>
